<?xml version="1.0" standalone="no"?>
<!DOCTYPE svg PUBLIC "-//W3C//DTD SVG 20010904//EN"
 "http://www.w3.org/TR/2001/REC-SVG-20010904/DTD/svg10.dtd">
<svg version="1.0" xmlns="http://www.w3.org/2000/svg"
 width="700.000000pt" height="700.000000pt" viewBox="0 0 700.000000 700.000000"
 preserveAspectRatio="xMidYMid meet">
<metadata>
Created by potrace 1.14, written by Peter Selinger 2001-2017
</metadata>
<g transform="translate(0.000000,700.000000) scale(0.100000,-0.100000)"
fill="#000000" stroke="none">
<path d="M2433 5430 c-232 -226 -396 -527 -439 -810 -12 -83 -11 -252 3 -338
7 -47 10 -88 6 -92 -5 -4 -44 -31 -88 -60 -272 -182 -502 -422 -617 -645 -49
-95 -101 -239 -113 -315 -4 -25 -9 -54 -12 -65 -11 -52 -9 -259 4 -345 19
-130 75 -300 142 -435 58 -116 150 -264 164 -265 4 0 3 8 -2 19 -23 42 -58
165 -69 240 -15 98 -6 312 17 410 46 201 150 410 299 600 80 103 243 268 366
371 l89 75 21 -29 c148 -207 345 -423 495 -547 29 -24 59 -49 65 -54 61 -58
452 -328 568 -393 18 -11 78 -45 133 -77 101 -59 540 -283 670 -342 39 -18
140 -62 225 -98 85 -36 164 -70 175 -75 52 -24 390 -155 565 -218 414 -149
703 -245 1093 -361 93 -28 172 -53 178 -56 5 -4 9 -3 9 0 0 3 -21 15 -47 26
-27 11 -57 24 -68 29 -11 5 -60 25 -110 45 -49 20 -108 45 -130 55 -22 10 -94
41 -160 70 -66 29 -145 64 -175 77 -30 14 -91 41 -135 60 -100 44 -689 335
-810 400 -375 203 -585 328 -890 532 -133 89 -446 320 -510 377 -16 14 -50 43
-75 63 -156 128 -448 426 -542 556 -4 5 -18 24 -31 40 -59 76 -118 169 -114
179 9 22 445 252 622 328 222 95 293 124 444 182 263 101 818 283 981 322 8 2
56 15 105 29 50 14 189 50 310 80 121 31 245 62 275 70 44 11 215 51 265 61
30 6 313 66 390 83 l90 20 -65 -5 c-98 -8 -139 -12 -210 -19 -36 -4 -76 -8
-90 -10 -56 -6 -149 -17 -215 -25 -38 -5 -92 -12 -120 -15 -86 -9 -290 -37
-410 -55 -33 -5 -78 -12 -100 -15 -76 -12 -220 -35 -245 -40 -13 -2 -42 -7
-65 -11 -50 -7 -325 -60 -465 -89 -14 -2 -47 -9 -75 -15 -27 -6 -59 -12 -70
-15 -11 -3 -58 -13 -105 -24 -47 -10 -157 -37 -245 -61 -88 -23 -168 -43 -178
-45 -36 -8 -297 -90 -432 -135 -166 -57 -389 -143 -499 -194 -43 -20 -80 -36
-81 -36 -8 0 -60 191 -70 255 -3 23 -8 52 -10 65 -7 32 -7 262 -1 281 3 8 7
32 10 54 18 134 76 288 148 393 16 23 28 42 26 42 -2 0 -31 -27 -65 -60z"/>
</g>
</svg>
