
<svg version="1.1" id="main_map" 
	 xmlns:inkscape="http://www.inkscape.org/namespaces/inkscape"
	 xmlns="http://www.w3.org/2000/svg" 
	 xmlns:xlink="http://www.w3.org/1999/xlink" 
	 x="0px" y="0px"
	 
	 style="enable-background:new 0 0 595.2 595.2;" 
	 xml:space="preserve"
	 
	 preserveAspectRatio="xMinYMid meet"
	 class="noScale"
	 aria-label="Carte simplifiée de la Caraïbes, localisant les projets auxquels Guez Caraïbes a contribué. Ils se situent en Martinique, Guadeloupe, Saint Barth' et Saint Martin">

	<defs>
	  	<pattern id="dot1"
	           x="0" y="0" width="40" height="40"
	           patternUnits="userSpaceOnUse"
	           patternTransform="scale(0.2 0.2)">

			<path  d='M40 45a5 5 0 110-10 5 5 0 010 10zM0 45a5 5 0 110-10 5 5 0 010 10zM0 5A5 5 0 110-5 5 5 0 010 5zm40 0a5 5 0 110-10 5 5 0 010 10z' 
						style="stroke: none; fill: #ffffff"/>

			<path  d='M20 25a5 5 0 110-10 5 5 0 010 10z' 
						style="stroke: none; fill: #ffffff"/>
	  	</pattern>

	  	<pattern id="dot2"
	           x="0" y="0" width="20" height="20"
	           patternUnits="userSpaceOnUse"
	           patternTransform="scale(0.2 0.2)">
	           
			<path  d='M40 45a5 5 0 110-10 5 5 0 010 10zM0 45a5 5 0 110-10 5 5 0 010 10zM0 5A5 5 0 110-5 5 5 0 010 5zm40 0a5 5 0 110-10 5 5 0 010 10z' 
						style="stroke: none; fill: #ffffff"/>

			<path  d='M20 25a5 5 0 110-10 5 5 0 010 10z' 
						style="stroke: none; fill: #ffffff"/>
	  </pattern>

	  	<pattern id='cross1' 
	  				 patternUnits='userSpaceOnUse' 
	  				 width='20' 
	  				 height='20' 
	  				 patternTransform='translate(-7,-5) scale(.2) rotate(45)'>

	  		<rect x='0' y='0'
	  		style="stroke: #ffff; stroke-width='1px' fill: none"/>

	  		<path  d='M3.25 10h13.5M10 3.25v13.5' 
	  		style="stroke: #ffff; stroke-width='1px' fill: none"/>
	  	</pattern>

	  	<filter id="displacementFilter">
	    	<feTurbulence type="turbulence" baseFrequency="1 1"
	        	numOctaves="3" result="turbulence" seed="15"/>
	    	<feDisplacementMap in2="turbulence" in="SourceGraphic"
	        	scale="15" xChannelSelector="R" xChannelSelector="G" yChannelSelector="B"/>
	  	</filter>

	    <filter x="0" y="0" width="1" height="1" id="solid">
	      	<feFlood flood-color="#E40521" result="bg" />
	      	<feMerge>
	        	<feMergeNode in="bg"/>
	        	<feMergeNode in="SourceGraphic"/>
	      	</feMerge>
	    </filter>

	</defs>


	<g >

		<g id="M3000" class="st0">
			<g>
				<path  d="M276.4,154.5c-1.3-2.8-4.1-0.5-6.1-0.9c-1.4-1.1-1.1-4.2-2.6-5.2c-1.6-0.7-4.4-2.2-6.2-1.9
					c-5.5,1-9.4,4.7-6.9,10.5c0.1,0.1,2.4,4.4,2.5,4.2c4.7,2.7,9.5-1.3,13.8-2.3c0.4-0.1,1.7,0.6,2,0.8c0.6,0.3,1.5,0.1,2.1,0
					C277.1,159,277.3,156.3,276.4,154.5z"/>
				<path  d="M592.5,508.4c0-8.9,2.4-20.2-2.5-24.6c-11.2-10-11.6-19.4-14.3-22.1c0,0-6.3-3.7-6.3-3.7
					c-0.2,0-4.5,0.5-4.4,0.7l0.1,0.2c-1.1-1.3-1.8-4.7-3.4-5.7c-0.8-1-12.3-0.6-13.2-1.3c0,0-0.2-0.5-0.2-0.5s-0.6-7.4-0.6-7.4
					c-1.1-3-2.2-8.8-5.5-10.1c-2.2-0.6-6.8-0.3-7.8-3c-0.6-1.6,3.4-5.2,4.1-6.3c0.5-0.3,0.4-2.4,0.5-2.9c0,0-1.1-7.4-1.1-7.4
					c-0.4-2.9-6.5-13-7.9-15.7c-0.2-0.6,0.3-4.6,0-5.2c-0.4-1-5.2-2.2-6.1-2.6c0,0-10.1-7.4-10.1-7.4l-10.1-7.4l-14.9-7.9
					c-1.7-0.8-5.3-0.8-7.1-1.4c-1.1,0.6-9.3-14.1-10-14.8c0,0-6.7-5.3-6.7-5.3l-7.3-3c-1-0.1-10-2.3-10.9-1.7
					c-3.2,0.6-5.4,3.3-6.8,6.1c-0.4,1.5-1.4,4.5-1.2,6c0.3,1.7,0.5,5.5,0.2,7.2c-10.5,21.6-8.9,5.1-16.2,9.7
					c-3.5,3.2-6.6,7.7-12.2,6.1c-4.5-1.8-11.7-6.2-16.7-3.9c-1.7,1.7-5.4,4.9-7.4,6.4l0,0.1c-2.3-0.3-2-6-4.2-6.4
					c-1.5,0-3.4-0.1-4.6-1.3c0,0-4-5.2-4-5.2s-0.3-0.3-0.3-0.3c-0.6-0.5-3.2,0.2-3.9,0.1c-0.3,0-1.3-0.4-1.5-0.5
					c-1.2-0.5-3-3.4-4.4-3.5c-1.5-0.2-5.3,0.8-5.6-1.6c-0.1-1.2,0.2-3.2-0.4-4.2c0-0.2-2.9-2-3.1-2.1c-0.5-0.5-1-1.3-1.2-2
					c-0.2-1.2,0-2.8-1.6-3.1c-0.8-0.2-3.8,1.1-4.6,1.1c-6.4-0.7-12.3-8.3-16.2-12.7c-0.3-0.1-4.8-1.9-4.8-2.2
					c-0.8-1.7-1.2-5.3-2.7-6.6c-1.1-1.2-6.7-4.7-6.9-6.5c-0.8-3.3,2.4-10.1,3.4-13.2c0,0,8.7-12.3,8.7-12.3c2.8-6.5-1.9-11.3-0.3-17.6
					c0,0,3-10.3,3-10.3c-0.6-7.6-2-23-2.6-30.6c0-0.4,1.4-8.7,1.1-9c-0.3-2.3-1.7-5.4-3-7.3c0,0-9.8-9.8-9.8-9.8
					c-2.7-4.1-1.5-5.5-0.5-9.9c0.1-1-3.5-8.9-4.4-9.6c-1.4-1.4-5.6-2.3-7-3.3c-0.6-1,0.3-4.6-0.9-5.2c-5-0.2-15.1-0.7-20.1-0.9
					c-0.8,0.1-2.7,0.5-3.5,0.8l0,0.1c-0.8,0-3.6-2.4-4.4-2.6c-1.5-0.1-6.7,0.9-7.9-0.2c-0.4-0.6-0.2-1.8,0-2.4c0.3-0.5,1-1.3,1.1-1.9
					c0.1-0.9-1-1.3-1.7-1.3c-1.1,0.3-3.6,1.6-4.6,0.6c-0.2,0.1-1.2-4.5-1.3-4.6c-0.2-0.3-1-1.3-0.9-1.7c0.2-0.6,0.8-1.2,0.9-1.8
					c0-1.7-2-3.3-3.2-4.2c0,0-6.8-3.4-6.8-3.4c-0.4,0-3.6-0.5-3.9-0.6c-1.1-0.7-8.8-11.5-9.2-12.5c-0.4-1.1-0.3-5.9-0.9-7
					c-1.7-3.3-7.1-6.3-7-10.5c-0.2-1,2-2.6,2.5-3.3c0.3-0.4,0.8-1.5,1-2c0.3-1.7-1.1-6-0.8-7.7c0-0.3,1.1-4.3,0.8-4.6
					c0,0-5.2-13.1-5.2-13.1c-0.2-0.8-1.5-10.3-2.1-10.7c-2.7-5-10.8-1.2-14.9-0.8c-0.4,0-3.8,1.8-4.1,1.6c-0.4,0.1-1.2-0.3-1.5-0.5
					c-1.5-1.3,3.2-9.5,3.5-11.1c1.5-4,5.8-10.8,3.3-15.2c-2-2.6-6.9,0.3-6.4-4.9c0.1-1.4,1-4.5,0.2-5.7c-0.8-1.1-2.4-1.3-3.7-0.8
					c-1.4,0.5-5,3.4-6.2,4.3c-0.6,0.4-1.6,0.7-2.2,0.2c-0.5-1.2,1.4-2.7,1.5-3.9c0.3-1.3,0.1-4-0.1-5.3c-0.1-0.5,0.4-0.9,0.8-1.1
					c1-0.5,4.4-0.3,5.3-0.9l0.2-0.5c0-2.5-2.6-2.3-4.4-2.7c-2.7-0.5-6.9-6.3-8.8-7.9l0,0.1c-0.7-1.4-1.1-3.2-0.3-4.7l-0.1-0.3
					c-2-1.8-6.2,1.5-8.3,1.4c-0.2,0.2-4.9-1.5-5.2-1.6c-0.5-0.1-12.8,0-12.7-0.7l0.3-0.8c0,0,2-1.2,2-1.2c0.2-0.1,2.1-0.7,2.2-0.9
					c1.5-1.8-0.5-4.4-1.3-6.1c0,0-1.1-3.5-1.1-3.5c-1.7-4.9-6.9-1.3-10.1-2.4c0,0-2.1-3.2-2.1-3.2c-0.1-0.3-0.5-2.1-0.8-2.4
					c-1-1.9-9.9-0.7-11.6-1c0,0-9.5,0.1-9.5,0.1c-1.6-0.3-7.9-1.8-9.5-1.3c-2.3,0.3-9.2,3.6-11.3,1.5c-0.9-2.7,2.2-8.8,0.4-11.4
					l-1.3-0.8l-1.5-0.3l-11.6,2c-0.4,0.2-4.1-1.5-4.6-1.6c-0.8-0.5-4.3,0.5-5.2,0.7C80.9-4.8,69.8-4.9,64.3-5c0,0-9.1,1.8-9.1,1.8
					c-1,0.3-6.7,3.3-7.7,2.9c-0.5,0-2.6-1.1-3-1.3c-1.1-0.8-8.2,0.4-9.5,0.5c0,0-5.2-0.9-5.2-0.9l-6.1,1.7c0,0-5.2,0-5.2,0
					C10.2,1.7,8.6,3.8,0,0.3v46.9L7.6,47c0.6,0.2,5,1.8,5.5,1.7c0.9,0.1,2-0.4,2.8-0.8c0.3-0.1,0.8-0.1,1.1,0c0.4,0.2,2.7,1.6,3.1,1.6
					c0,0,4.7-0.1,4.7-0.1c0.2,0,0.7,0.1,0.9,0.2c0.2,0.2,1.6,1.5,1.9,1.5c-0.1,0.2,4.8-0.1,4.9-0.1c0.5,0,3.3,1.3,3.8,1.5
					c5.1,0.1,15.5,0.3,20.6,0.4l0-0.1c0.6-0.1,4.3,3,4.7,3.3c0,0,0.5,0.2,0.5,0.2l16.6-2.6h7c0.9-0.3,6.9-3.9,7.9-3.5c0,0,1,1.1,1,1.1
					s0.6,1.8,0.6,1.8S95.7,68,95.7,68c0.2,2.2,0,15.8,1.5,17.3c0.5,0.8,3.6,4.7,3.4,5.7c-0.1,1-1.1,5.2-0.8,6.1c0.1,0.9,0.9,2,1.5,2.7
					c1,1.7-2.5,6.6-3,8.1c-0.5,0.5-0.3,6.4-0.3,7.2c0,0.3-2,7.6-1.7,7.6c1.5,4,2.3,4,0.9,8.4c-0.3,1.3,1.4,8.3,1.6,9.7
					c0,0,0,4.4,0,4.4c-0.2,2.3-2.1,9.8-0.9,12c0.7,1.6,2.8,3.2,3.2,5c0.4,2.5-1.9,6.6-2.9,8.7c-0.3,0.9,0.1,2.1,0.7,2.8
					c0.1,0,2.5,1,2.6,0.9c0.5,1.9-1.2,2.5-1.8,3.9c0.1,1.1,0.9,2.5,1.8,3.1c0.2,0.1,2.5,0.7,2.5,0.8l0.1,0.1l-0.3,0.6l-0.4,0.3
					c-1.6,0.1-4.1-0.1-5,1.4c-1,2.4-3.3,6.3-3,9c-0.1,0.4,1.9,3.1,2.2,3.4c0.8,0.9,0.4,4.2,0.4,5.4c0.2,1.1,1.5,3.3,1.7,4.4
					c-0.2,4.3-1.2,13.4-2.6,17.5c-0.3,2.2,3.6,7.8,4.4,9.6c1.5,1.7,4.5,4.2,4.1,6.8c-0.4,0.7-1,1.8-1.7,2.2l-0.3-0.1
					c-9.6-9.4-7.3-8.5-20.6-7.3c-3.2,0.5-4.8,7.1-6.9,8.9l-7,0.9c-2.1-0.3-12.1-3.9-14-2.6c-1.4,1.4,1.8,6.3,2.1,7.6
					c0.1,0.2,3.2,3.6,3.1,3.7c0.3,0.4,0.5,6.3,0.5,6.9c0.2,0.8,1.3,2.2,2,2.7l0.1,0c-0.4,0.5-1.2,1.2-1.8,1.3c-0.7,0.2-4.9-3-5.4-3.3
					c-2-1.2-5.4-0.9-7.6-0.6l-0.6-0.7l-7.8-13.1c-0.9-1.1-2.5-2-3.9-2.3c-1.4-0.1-7.7-0.9-8.9-0.3c-0.7,0.2-7.1,2.7-7.6,2.4
					c-0.3,0.3-6.5-3.2-6.8-3.4c-1.2-0.3-3.5-1.2-4.5-1.9c0,0-7.9-0.7-7.9-0.7v354.3l600.5,28.2L592.5,508.4z M78.6,35.3
					c-0.3,0.9-2,1.5-2.8,1.9c-3.1,0.6-11.1,2.1-14.2,1.8c-1.3-0.1-7.1-1.3-8.3-0.6c-0.2,0.1-3.7,2.1-3.9,1.8L49,39.9l0-0.3
					c-0.1-0.2,4.6-3.2,4.7-3.4c0,0,3.1-0.7,3.1-0.7l0.2-0.1c0.1-0.1,1.5-1.6,1.6-1.6c4.1-0.3,12.3-1.3,16.4-2
					C77.2,31.7,79,32.8,78.6,35.3z M165.1,195l-2.5,2.4l0.1,0l-0.2,0.1l0.1-0.1c-0.6,0.3-3.2,1-3.4,1.7c-0.5,0.8,0.5,5.3,0,6.1
					c-2,1.6-7.3,3.5-8.2-0.1c0.2-1.9,4.6-2.2,5.6-3.4c0.6-1.6-0.3-3.6-1.7-4.5l0,0.1c-0.7-1.9-0.8-2.2,0.9-3.5
					c1.6-1.3,4.2-1.1,6.1-0.9l-0.1,0l3.4,0.9l0.1,0l0.1,0.5L165.1,195z"/>
				<path  d="M560.8,113.9c-1.4,0.1-3.4,1.2-3.3,2.9c0.1,1.6,1.4,3.1,3,3.1C563.7,119.4,563.7,114.6,560.8,113.9z"/>
				<path  d="M567.5,128.5c-0.8,0.9-3.2,2.7-2.9,4.1l0.5,0.9l0.7,0.3l11.5,0c0.5-0.1,1.2-0.5,1.5-1c1.1-2.2,2.3-7,0.6-9
					c-0.2-0.1-1,0.1-1.2,0.2c-0.4,0-1.1-0.2-1.5-0.3c-1.1-0.6-2.7-1.7-2.2-3.1l-0.1-0.3c-1.6-1.4-4.1-0.9-5.7,0.2
					C565.9,122.7,570.3,125.7,567.5,128.5z"/>
				<path  d="M418.1,368.8c-2.1-1.5-4.4-0.1-4.5,2.4c0.6,1.8,3,2.4,4.7,1.8C419.8,371.9,419.5,369.8,418.1,368.8z"/>
				<path  d="M590,135c1.4,2.5,2.8,2.2,5.2,1.6v-6.7c-1.1,0.4-3.7,0.7-4.9,0.7C589.2,131.6,589.5,133.7,590,135z"/>
			</g>
		</g>
		<g id="M1000" class="st0">
			<g>
				<path  d="M126.2,202.2c0.6,0.4,2.5,2.1,3.2,2.2c2.5-0.2,5.6-1.6,7.3-3.4c0.3-0.4,0.7-1.3,0.7-1.8
					c-0.2-0.5-2.9-17-3.7-16.6c-0.3-0.2-2.2,0.6-2.5,0.7c-0.2,0.1-1.4,0.2-1.5,0.4c-0.6,1-0.2,2.9-0.2,4l-0.1,0
					c-1.2-1.4-3.6-1.3-5-0.3c-1.9,2-2.8,5.6-2.8,8.3C122.1,197.8,124.7,200.5,126.2,202.2z"/>
				<path  d="M114.8,175.7l0.9,1.7l1.5,0.7l1.7-0.9c0.9-1.4,1.6-4.7,1.7-6.4c-0.1-2.2-0.3-9-1.6-10.8l-1.5-1.3l-2,1
					C115.6,164,113.5,171.5,114.8,175.7z"/>
				<path  d="M121.6,142.3c2.5,2,7.6-1,7.6-4.1l-0.6-1.2c-1.5-1-3.8,0.3-5.2,0.9l0,0C122,138.9,120,140.6,121.6,142.3z"/>
				<path  d="M115.6,127.4l1.2,1.4l1.3,0.4l2.6-0.9c0.5-0.5-0.5-9.6-0.5-10.4c-0.2-0.6-0.8-4-1.2-4.5
					c-0.7-0.6-1.8,0-2.6,0.3C112,116.2,113.7,123.7,115.6,127.4z"/>
				<path  d="M117,224.1c0.3,1.2,0.8,2.8,1.8,3.5c0.9,0.4,2.4,0.4,3.2-0.3c1-1.3-0.4-7.5-0.4-9c-0.1-1.6,1.2-8.5-0.1-9.8
					c-1.4-1.7-3.7-0.9-5.2,0.2C115.7,212.6,116.8,220.2,117,224.1z"/>
				<path  d="M114.5,138.6c0.4,1,1.8,1.3,2.7,1.5l1.4-0.8c1.2-1.8,2-4.7,0.4-6.5l-1.4,0C115.7,134.1,113.2,136,114.5,138.6
					z"/>
				<path  d="M212.7,105.2c0.4-1.1,1.3-2.2,2.5-2.3l0.3,0.1c0.5,1,0.1,3.4,1.2,4.1c2.2,1.9,6.3,3,8.2,0.2
					c1.5-2.3-1-6.6-1.8-8.7c0,0-0.4-8-0.4-8c-0.1-0.9-0.8-1.7-1.7-1.9c-1,0-3.4,0-4.3,0.4c-3.8,1.2-11.6,6-14.4,1.1
					c-2-3.3-1-3.2-0.2-6.5l-1.7-1.7c-0.9-3.2,0.1-4.1-3.9-4.2c-0.3-0.1-0.8-0.3-1-0.5c-0.5-0.2-0.7-1-0.8-1.5c0,0-1.3-2.1-1.3-2.1
					l0-0.8c1.4-1.4,5.1-0.6,6.8-1.4c2.5-1.9,4.9-7,2.7-9.7l-1.7-0.5c-0.7,0.2-3,0.5-3.6,1c-0.2,0.2-0.6,0.7-0.6,1c0,0.2,0,1-0.2,1.1
					c-1.2,0.9-3.7-2.1-4.5-2.5c-0.8-1-1.3-2.4-1.3-3.7c0,0,1.5-6.4,1.5-6.4s-0.2-4.8-0.2-4.8s0.3-2.4,0.3-2.4c0.1-0.8-0.5-2.4-0.8-3.1
					c-2.2-2.7-8.5-4.9-11.8-5.8c-3.6-0.4-11.6,0.8-15.2,1.5c-1.3,0-3.4-0.2-4.6-0.9c-0.4-0.2-0.5-1.5-0.6-1.8
					c-0.4-1.5-1.8-2.7-3.2-3.3c-1.1-0.4-3.2-0.3-2.6-2.1c0.4-1.4,2.2-2.3,3.4-2.9c1.2-0.6,5.3,0.4,6.1-0.9c0.5-2.1,0.2-5.1-0.9-7
					c0.2-0.4-9.3-1.6-9.6-1.7c-1,0.1-1.7,1.4-2.1,2.2l-0.4,0.2c-0.7-0.1-1.8-0.5-2.2-1.1c-0.5-0.8-0.9-5.6-1.3-6.5
					c-1.7-2.4-15.9-1.4-18.4-1.8c-1.1-0.1-6-1.6-7-0.9c-0.7-0.2-2.5,9.2-2.6,9.6c0,0,0.3,1.3,0.3,1.3c0.4,1.5,2.7,5.6,1.8,7
					c-0.5,0.7-7.2-1.9-7.8-2.1c-0.5-0.3-1.5-0.8-1.6-1.4l0.2-0.2c1.4-0.3,3.3-0.6,4.1-1.9c1-1.6,2.1-4.2,0.9-6
					c-1.1-1.4-3.2-1.3-4.7-0.9c-2.6,1.1-1.8,6.4-2.7,8.4c-0.7,0.2-4.6-0.4-5.2,0c-1.2,1.3-3.5,3.5-3.7,5.4l0.2,0.7
					c0.3,0.3,0.9,0.3,1.3,0.2c2.1-0.5,6.2-1.6,8.4-1.1c2.2,1.4,5.2,3.9,7.9,4.4c0.4,0,6.8-0.3,7,0c1.6,0.6,3.6,1.9,4.2,3.7
					c0.6,2.7-1.5,4.8-4.2,5.1c-2.4-0.4-4.4-3.3-6.8-0.8c-0.9,1.4-2.3,5.1-4.3,2.7c-0.6-0.7-5.4-1.7-6.3-1.9l-0.1,0.1
					c-1.5-1.4,0.3-4.2-0.9-5.7c-7.4-3.4-12.6,7.2-9.9,13.1c0,0,11,13.8,11,13.8c1.4,1.1,3.9,4.3,4.9,5.7c0.7,0.6,3.3-0.3,4.1,0
					c1.6,0.5,1.5,3,2.4,4.1c1.1,0.8,3.1,0.5,4.2-0.2c1-0.9,1.6-3.5,2.9-4.1c2.3-1,2.4,0.1,4,1.3c0.9,0.4,2.5,0.4,3.5,0.9
					c0.4,0.2,4.8,2.8,5.2,2.7c0.9,0.1,2.3,0.1,2.9-0.8c0.2-1.3,1-2.7,2.3-3.2l0.7,0c1.3,0.6,1.8,2.6,2.1,3.9c0,0.7-0.4,3.8,0,4.4
					c0.7,0.5,4.5,0.4,5.2,0.9c0.2,0.1,0.7,1.6,0.9,1.7c1.2,0.8,7,0,8.3,0.5l0.4,0.4l0,0.9c-1.6,2.7-8,1-8.4,4.8
					c-0.2,2.3,0.6,5,2.2,6.7c1.7,1.4,4.4,1.6,6.1,0.3c1.7-1.4,4.4-5.4,6.9-4.7c0.7,0.4,4.5,2.5,5.3,2.7c0.5,0.1,1.4,0.1,1.9-0.2l1-1.2
					c0.8-2.5-3-4.9-3.4-7l0.6-0.5c8.4,6.2,6.7,5.8,4.4,15.1c0,0-0.1,1.5-0.1,1.5l5.2,12.8l0.6,0.8c0.2,0.3,7.6,5.8,7.2,6.3
					c0,1.5,0.1,4.8,0.5,6.2c0,0,5.2,12.6,5.2,12.6s0.6,0.6,0.6,0.6c2.9,1.1,5.4,0.8,7.5-1.6c0.1-0.2,3.1-5.5,3.1-5.7
					c0-0.3-0.2-1.1-0.1-1.4c0.1-0.5,3.6-3.2,3.6-3.7c0.2-0.5,0.1-1.1,0-1.6c-0.1-0.2-0.9-1.7-0.8-1.9c-0.1-0.4,1.5-3.6,1.7-3.9
					c0.4-0.7-0.6-3.5-0.7-4.2C211.7,112,211.9,107.1,212.7,105.2z"/>
				<path  d="M254.5,215.6c-0.5,2.1,0.9,3.2,2.3,4.5c1.8,1.2,5.8,3.8,7.9,4.4c2.2,0.4,3.4-0.8,5-2.1
					c2.4-2.5,5.3-6.1,5.1-9.8c-0.1-1-0.7-2.8-1.2-3.7c-1.9-2-7.4-7.5-8.2-10.2c-1-1.7-4.3-1.9-4.8-4c0.1-0.2,1.6-7.7,1.7-7.9
					c0.2-6.3-3-10.7-9.6-7.9c-5.1,2.3-5.3,9.2-4.4,14c0.4,1.7,2.8,4.1,3.9,5.4c0.9,1.6,3.4,6,3.4,7.9
					C255.6,208.4,255.2,213.6,254.5,215.6z"/>
				<path  d="M145.5,188.9c-1.6-2-4.4,0.1-5.9,1.2l-0.6,1.6l0.6,1.5l1.3,1.1l1.7,0.6l1.7-0.2l1.3-1.1
					C145.9,192.2,146.4,190.2,145.5,188.9z"/>
				<path  d="M266.4,196.1c0.2,0.4,1.8,0.8,2.2,0.9l1.3-0.7c1-1.2,1.5-3.2,1.1-4.8l-0.8-1l-1.4,0
					C267.1,191.7,264.3,193.9,266.4,196.1z"/>
				<path  d="M10.4,264.7c8.8-2.5,7-11.9,2.2-17.4c-0.5-0.5-1.8-1.3-2.5-1.5c0,0-10-0.8-10-0.8v20
					C2.5,265.4,7.9,265,10.4,264.7z"/>
				<path  d="M17.3,268.2c1.6,2.7,5.3,3,8.1,3.1c0.7-0.2,12-1.2,12.1-2c1.1-0.9,1.3-2.8,0.9-4c-0.6-0.9-2-2.5-1.6-3.7
					c1.8-5.6,1-5.3-3.6-8.2c-0.6-1-2.1-3.2-3.1-3.8c-0.7-0.8-4.1,0.8-4.8,0.9c-1,0.5-2,2-2.6,2.9c0,0-5.7,10.1-5.7,10.1
					c-0.2,0.7-0.6,2.3-0.4,3.1C16.6,266.5,17.3,268.2,17.3,268.2z"/>
				<path  d="M593.1,508.8c-0.3-13.8-5.9-20-7-21c-3.4-3.4-1.7-2.8-6.6-2.4c-0.6,1-9.5-7.9-10-8.1c0,0-7.9-5.2-7.9-5.2
					c-1.4-0.8-8.2-5.9-9.8-5.9c-1.5-0.4-4.5-0.3-5.5-1.5c0,0-3.1-4.8-3.1-4.8l-0.3-0.3c-0.3-0.3-2.2-1.2-2.4-1.5
					c-0.3-0.4-0.4-1.9-0.7-2.3c0,0-9.1-8.4-9.1-8.4s-0.6-1-0.6-1l-5.8-16c-1-3.5-11.6-12.7-13.9-15.6c-1.5-4.1-2.1-3.8-5.8-5.7
					c-0.9-0.2-3.6,0.4-4.5,0.2c-2.6-0.6-5.3-3.6-7.8-4.6c-2.3-0.7-6-0.1-8.3-1.1c-2.6-3.1-2-2.6-6.1-2.3c-1,0.1-2.3-1.6-3.1-1.8
					c0,0-10.5-0.9-10.5-0.9s-4.4-2.1-4.4-2.1c-1.2-0.9-10.7-0.5-12.2-0.7c0,0-5.1,0.9-5.1,0.9c-1.6,0.6-3.9,1.6-4.7,3.3
					c0,0-3.9,11.1-3.9,11.1c-0.5,1-2,2.6-2.9,3.2c-1.4-0.1-3.9-0.2-5.2,0c0,0-2.6,1.7-2.6,1.7s-6.1-0.9-6.1-0.9l-16.6,2.6
					c0,0-17.4-3.1-17.4-3.1c-7.2-3.8-21.7-11.4-28.9-15.2c-1.4-1.5-3.9-5.4-5.7-6.3c-1.1-0.3-4.4-1.2-5.3-1.8
					c-0.2-0.1-2.9-2.4-3.1-2.4c-0.8-0.3-4.4,0.4-5.2,0c-2.2-1.7-7.2-5.2-9.6-6.1c-0.4-0.2-4.8-0.7-4.8-1.2c-0.4-0.3-2.7-3.1-3-3.2
					c0,0-4.4-1.8-4.4-1.8s-3.5-2.6-3.5-2.6s-4.4-1.8-4.4-1.8l-6.1-6.1l-7-4.4l-11.4-14c-0.5-0.9-1-3.6-1.2-4.7
					c-0.1-1.1-4.3-6.6-4.9-7.6c-0.1-0.2-4.5-4.5-4.3-4.7c-0.2-0.4,0-1.2,0.1-1.6c0.7-1.7,4.1-2.8,3.3-5.1c-1-3.4-3.7-2.9-6.5-3.6
					c-2.9-1.6-6.6-5.5-8-8.4c-0.9-1.3,0.5-4.5,0.7-5.9c0.4-2.5-2.6-3.2-4.3-4c0,0-2-1.7-2-1.7s-2.2-2.6-2.2-2.6s-0.8-0.6-0.8-0.6
					c-0.5-0.3-1.7-0.5-2.3-0.5c-0.3,0.1-3.1,0.6-3.4,0.2c-0.6,0.1-2.4-6.6-2.6-6.9c-0.7-1.3-3.6-5.9-3.6-7.4c-0.1-0.3-1-1.9-0.8-2.3
					c0.5-0.7,2.1-1.8,2.5-2.5c0.9-1.3,0.3-3.4-1.2-4c-1.9-0.2-4.8,1.1-6.1-1c-0.6-1.2,0.5-3.5,0.4-4.7c-1.1-2.8-4.5-4-7.3-3.8
					c-5.6,1.7-7.2,1.2-12.4-1.1c-0.4-0.1-1.3-0.2-1.7-0.2c-0.7,0.1-1.9,0.4-2.5,0.8c-0.2,0.1-1.8,1.6-2,1.5c-3.9-0.3-11-5.2-12.6-8.7
					l0.2,0.1c0.1,0.2,3.1-1,3.3-1c-0.1-5.9,10.6-17.1,11.8-22.7c0.5-2.1,1.9-14.9,3.8-16.2c0.5-1.2,0.1-3.9,0.1-5.2
					c0-0.9,1-2.3,1.4-3.1c0.7-1.1,0.5-3.2,0.4-4.5c0.2-0.8,2.6-1.8,3.2-2.3c1.3-1.8,1.3-7.5,2.6-9.4c3.2-5.4,3.6-3.8,2.2-10.2
					c0,0,0.5-6.9,0.5-6.9c-0.1-1.2-0.8-2.7-1.4-3.7c-0.2-0.3-2.6-2.6-2.6-3c-0.1-0.3,0.1-1.5,0.1-1.9c0.5-1.7,3.8-4.3,4.5-5.9
					c0.7-0.8,0.9-7.9,1-9c0,0-1.3-9.1-1.3-9.1c-0.2-1.9-4.3-4.7-5.2-6.1c-0.5-1-0.1-4.6-0.5-5.7c-1.7-1.9-5.2-2.9-7.6-1.9
					c-1.7,0.8-3.3,2.5-3.3,4.5c0.2,1.1,2.7,2.9,2.7,4c-0.1,0.6-0.5,1.3-1,1.6c-1.1,0.5-4.3,1.7-5.1,2.7c-1,1.2-3.1,3.3-3.2,5
					c-0.9,0.3,5,14.8,5.2,15.5c0.9,1.6,5.8,2.8,6.8,4.5l0.1,1.1c-0.1,0.8-3.7,5.1-4.2,5.8c0,0-1.4,3-1.4,3l-1.5,10.2l0.1,0.7
					c0.2,1.1,1.5,2.1,2.5,2.4l0.1-0.1c0,0.4-0.1,1.5-0.3,1.9l-0.3,0.2c-0.3-0.1-1-0.1-1.2,0c-0.9,0.8-1.1,2.3-0.9,3.4
					c0.2,0.8,1.7,3.3,0.9,4.1c-1.4,0.5-5.1,0.1-6,1.6c-3.1,4-2.1,4.1-1.1,8.6c0.3,1.2-1.3,8.1-1.8,9.3c-0.3,0.9-3.1,2.3-3.8,2.8
					c-1.8,1.3-2.1,6.9-2.5,8.9c-0.1,0.6-1.4,2.5-1.8,3c-0.6,1.1-0.7,3.2-1.4,4.3c-0.9,1-4.1,2.9-4.8,4.1c-2.1,4.5-3.1,4.7-7.4,6.8
					c-0.4,0.2-2,1.5-2.3,1.9c-0.4,0.5-2.5,4.8-3.3,4.8c-0.6,0.2-2.6-0.3-3.2-0.1c-1.5,0.2-2.4,2.7-3.5,3.5c-1-0.1-18.4-0.6-18.5-1.5
					c-0.9-0.4-3.8-2.3-4.8-2c0,0-3.9,0.8-3.9,0.8l-6.9-0.8l-17.7,3.7c-0.2,0-0.5-0.1-0.6-0.2l0-0.7c3.9-5.5,11.1-14.2,11.2-21.3
					c0,0-0.2-2.6-0.2-2.6s-1-2.1-1-2.1c-1.4-0.9-2.2-1.9-4-1.2c-2.8,0.6-2.1,4.6-4.1,6c-0.6,0.4-2.2,0.2-2.6,0.9
					c-3.1,5.9-3.2,11.1-11.4,10.7c-5.8-1.1-6.7-0.4-11.7,2.3c-1,0.1-8.8,0.7-9.4,1.3c-1.7,1.4-1.8,4.4-1.3,6.4
					c0.4,1.3,2.2,2.9,3.2,3.7c1,0.7,3.3,0.3,4.1,1.5c1.9,4.9-4.8,4.4-7.4,6.3c-2.3,1.8-3.1,6.3-6.3,7.1c-2.4,0.1-6.4-1.2-8.6-2.1
					c-0.4-0.2-4.1-3.3-4.6-3.1c-7,0-21,0-28,0c-0.8,0.1-2.7,1.7-3.5,1.7c-0.9,0.2-3-0.1-3.9-0.1c-0.9,0.1-4.4,2.3-5.1,2.6
					c-1.1,0.1-6.4,1.6-7.6,0.6c-0.2-0.1-2.5-1.5-2.8-1.4c0,0-2.7,0.4-2.7,0.4l-0.9,0.4c-1,0.5-2.6,1.9-3.3,2.8v315.8l600.5,28.2
					L593.1,508.8z M57.3,301.7c-1.1,1-3.4,1.6-4.9,1.5c-0.6,0.1-3.8-1.4-4.4-1.6c-2.3-0.7-8.2,2.3-9.5-1c0-0.5,0.7-1.3,1-1.6
					c1.6-0.9,6.8-4.3,8.6-4.5l-0.1,0c1.6-0.5,3.8-0.6,5.4,0c2.2,1.1,4.5,3.4,4.4,6L57.3,301.7z M86.6,306.6
					c-1.1,0.8-13.4-0.6-14.9-0.6c-0.8-0.2-2.8-0.6-3.5-1.1l-0.3-0.4l0-0.4c0.2-0.5,1.5-0.8,2-1c0.6-0.4,3.3-0.5,4-0.6
					c3.5,0.5,10.7,0.8,13.5,3.2L86.6,306.6z"/>
				<path  d="M77.4,48.9c1.3-0.9,4.7-0.9,6.2-1c0.3,0.1,2.1-2,2.3-2.1c1.4-2.3,4.2-5.8,2.4-8.5c-0.5-0.4-1.2-1-1.8-0.6
					c-0.7,0.7-2,0.6-2.9,0.5c-4.3,1.4-12.6,2.5-16.9,3.4c-0.9,0.4-1.3,1.3-1.2,2.2c0,0,1.5,6,1.5,6l0.2,0.5c-0.2,0.4,6,1.8,6.3,1.9
					C75.2,51.3,76.4,50.1,77.4,48.9z"/>
				<path  d="M93.6,23.3c1,0.8,2.8,0.1,3.9-0.2c1.2-0.5,2.4-1.4,2.8-2.6c0.5-1.9-2.8-3.5-3.1-5.1c0.4-1.1,5-3.4,5.4-4.6
					c0.1-0.4-0.3-2-0.1-2.4c0.2-0.2,1.4-0.5,1.6-0.7c0,0,0.1-0.1,0.1-0.1l0.9-2.9l-0.6-1.9c0,0-1.8-1.1-1.8-1.1s-2.7-0.4-2.7-0.4
					c-4.5,0.1-16.9,0.4-21.1-0.7c-0.9-0.1-2.5,0.2-3.3,0.6c0,0-3.6,2.1-3.6,2.1c-6.3,1.7-19,5.2-25.4,7c-0.7,0.2-1.9-0.5-2.5-0.7
					c0,0-0.4-0.1-0.4-0.1L30.1,9.7c-6.6,0.2-20,0.6-26.6,0.8c0,0-3.5-0.7-3.5-0.7v29.4L3.5,39l0.2,0.1l2.2,1.6l0.3,0.1l5.3,0.6l4.4,2
					c3.1,1.7,13.4,0.4,16.7,1.2l0.3,0.4l0.1,0.7l0.3,0.1c1.1-0.3,3.4-0.7,4.3-1.5c1.5-1.2,1.9-3.5,0.6-5c-0.9-1.3-5.1-0.8-6.3-1.5
					l-0.1-0.3c0.6-1.1,2.9-1.3,3.9-1.8c2-2.2,7.4-2.3,10.2-2.9c6,0.8,13.9-1.7,19.4-3.9c0,0,11.8-0.3,11.8-0.3l0.4-0.1
					c0.7-0.3,1.6-1.3,2.2-1.6c0.3-0.2,2.7-0.6,3.1-0.7c1.1-0.4,4.2-3.5,5.1-4.2c0.1,0,6.7-3.2,6.7-3L94.4,19c-0.1,0.5-0.2,0.8-0.8,0.8
					C93.7,20,93.5,23.1,93.6,23.3z"/>
				<path  d="M74.6,261.4c-4.1-4.6-6.6,5.1-1.2,5.3l1-0.5C75.4,265,75.5,262.7,74.6,261.4z"/>
				<path  d="M105.1,126.1l-1-0.6l-1.2,0.1c-3.1,1.6-4,5.7-0.3,7.1C106.5,133.2,106.9,128.5,105.1,126.1z"/>
			</g>
		</g>
		<g id="M200" class="st0">
			<g>
				<path  d="M175.3,71.1c0.5,0.9,7.5-0.1,8.4,0c0.7,0.6,2,1.1,2.5,0c1.3-0.2,4.9,0,5.7-1.2c1.7-2.9-4.5-9.2-4.5-12.4
					c0.2-1.1,1.9-2.5,1.8-3.8c-2.3-4.7-4.8-14.1-11.8-13.2c-2.8,0.2-5.6,1.6-7.5,3.6c-0.7,1-2.1,2.5-2,3.8c0,1.5,3.2,2.8,4.1,3.6
					c0.3,0.4,4.3,4.3,4,4.8c0.4,0.4-4.9,4.6-5.1,4.8c-0.7,0.9-1.4,2.2-0.9,3.3C170.6,65.4,174.5,70.4,175.3,71.1z"/>
				<path  d="M123.5,13.3c1-0.5,1.2-0.6,1.2-1.8c-0.7-0.7-1-1-2-0.5c-0.1,0.2-0.5,1-0.3,1.3l0.9,1L123.5,13.3z"/>
				<path  d="M165.7,80.2c0.1,0.2,0.5,0.7,0.6,0.9c0.1,0.4,0.3,1.4,0.8,1.5c0.8,0.2,2.5,0.9,3.3,0.4
					c1.1-0.5,1.5-1.8,0.9-2.8l0,0c0.2-0.6-0.1-1.3-0.4-1.8c-0.1-0.5-0.2-1.9-0.5-2.3c-0.6-1.3-1.8-1.2-2.9-0.5
					C166,76.5,165.1,78.5,165.7,80.2z"/>
				<path  d="M171.9,259.2c0.2,0.3,0.6,1,1.1,1c2.2,0.2,6.8-0.5,8.9-1.3c0,0,10.8-8.5,10.8-8.5l2.6-6.1
					c2.8-3.7,8.5-11.2,11.4-14.9c0,0,2.6-8.7,2.6-8.7c0.1-0.3,2-4.3,1.7-4.5c-0.7-1.4-2.6-4.8-2.6-6.4c0,0,0.9-3.4,0.9-3.4
					c0.1-0.4-0.3-1.7-0.4-2.1c-0.1-0.3-0.4-0.8-0.7-1c-0.1-0.7-0.5-1.6-1.1-1.9c-1.2-0.5-2.9-0.5-3.8,0.7c-0.5,0.6-0.6,1.7-1,2.3
					c-0.8,0-1.6,0.8-1.2,1.6h0c0,0,0,0,0,0l0,0c0,0,0,0,0,0c0,0,0,0,0,0c-0.6,1-0.6,2.7,0,3.8c0,1,0.1,1.5,1.2,1l0.7,0.5
					c0.5,2.7-0.2,2-1.6,3.7c-1.2,1.5-0.8,4.5-0.7,6.3c0,0.9-1.4,1-2,1.2c-0.4,0.2-1.3,0.6-1.6,1c-0.4,1-1.3,2.5-2.3,3.1
					c-1.5,1.6-1.5,5.2-1.9,7.2c0.1,1.5-4.5,7.4-5.2,8.6c-0.3,0.5-2.2,1.5-2.7,1.8c-0.6,0.6-3,6.9-3.7,7.2c-0.1,0.1-3.4,0.8-3.5,0.9
					l0,0c-1.3,0-2.7,0.9-3.6,1.8c-0.1,0.3,0.2,1.2,0.1,1.5C174.2,256.3,171.3,258.3,171.9,259.2z"/>
				<path  d="M197.2,135.6c0.2,1.5,2.4,1.5,3.1,0.3v0h0v0l0,0v0l0,0c0,0,0,0,0,0c0,0,0.1,0,0.1-0.1h0c0,0,0,0,0,0
					c0.5,0.1,1-0.4,1.4-0.6c0.9-0.3,1.5-1.6,1.8-2.4c-0.1-0.3,0.9-3.1,1-3.5c0.4-1.5,0.6-4.5,0.3-6.1c-0.3-1.1-0.8-2.7-2.1-3
					c0,0-5.6-0.8-5.6-0.8s-0.2-0.1-0.2-0.1c-0.3-0.1-0.9-0.4-1.3-0.4c0,0,0-0.1,0-0.1l0,0c0,0-0.2,0.1-0.2,0.1
					c-1.9-0.3-1.8,0.7-2.2,2.2c-0.4,0.4-0.5,1.1-0.2,1.5c-0.3,0.6-0.2,1.5,0.3,1.9c0,0.7,0.2,1.8,0.9,2.1v0l0,0
					c0.1,0.2,0.2,0.7,0.3,0.9c0.2,0.4,0.8,0.7,0.9,1.1c0,0.5,0.4,1.5,0.7,2c0.1,0.7,0.2,2.3,0.9,2.8v0c0,0,0,0,0,0c0,0,0,0,0,0
					C197.4,134.1,197.2,135,197.2,135.6z"/>
				<path  d="M115.8,116.4l-1,0.5l0,1.4c0,0.2,1,0.5,1.1,0.6c0,0,1-0.4,1-0.4l0.2-1C116.8,117,116.4,116.4,115.8,116.4z"/>
				<path  d="M270.3,209.7c-0.3-0.3-0.7-1-1.1-1.1c-0.1-0.1-4.5-4.3-4.5-4.5c-0.4-0.7-1.1-1.4-1.9-1.7
					c-1.3-0.2-2.5,1-2.8,2.1c-0.2,0.1,0.2,5.7,0.3,6l0,0c0.4,3.2,1.3,3.1,4,4c0.4,0.4,0.6,1.1,0.8,1.7c0.3,0.3,0.9,0.4,1.2,0.5
					c1.8,0.3,2.8-1.6,3.3-3C270.1,212.6,270.7,210.9,270.3,209.7z"/>
				<path  d="M161.2,49.3c0.7,1.1,1.2,2.9,2.6,3.5c1.1,0.5,3.1,0.6,3.5-0.9c0.1-0.2,0-0.5-0.1-0.8c-0.8-1-4-4.7-4.5-5.9
					c-1.9-5.1-0.8-3.7-5.6-5.4c-1.2-0.9-2.3-3.4-3-4.7c0,0-3.3-3.1-3.3-3.1c-0.3-0.5-1.3-1.6-0.8-2.3c0.4-0.5,9.1-7.4,8.7-8.1
					c-1.6-3.9-18.7,2.1-18.2-3.7c0.9-1.2,2.6-2.9,1.6-4.5c-0.5-0.8-1.7-1-2.6-1c-0.1,0.1-4.7,0.8-4.6,1.1c-0.5,0.8,0.3,3.3,0.1,4.1
					c-0.6,2-6,3.9-7.6,4.9c-0.4,0.3-0.6,1-0.3,1.5c0,0,4.4,6.8,4.4,6.8l11.6,12.8c0.2,0.1,0.6,0.5,0.9,0.6c2,0.2,8.7,0.8,10.4,1.8
					C157.1,49.4,157.4,48.4,161.2,49.3z"/>
				<path  d="M143.1,57.3c0.8,1.5,2.7,2.7,4.3,3.2c0,0,3.1,3.7,3.1,3.7c0.9,1.3,3.2,7.3,4.8,7.9c4.1,0.9,3.1-5.7,2.5-7.9
					c-1.7-2.7-6.3-7.5-8.7-9.6c-0.1-0.2-3.7-1.4-3.9-1.5c-1-0.5-4.2-3.8-5.5-3c-0.4-0.1-1-0.1-1.2,0.3c-2.2,0.4,0,2.5,0.7,3.4
					c0.1-0.1,3.9,2.9,4.1,3.1C143.1,57,143.1,57.2,143.1,57.3z"/>
				<path  d="M133.4,47.1l-0.3-1.2l-1-0.9c-1.8-0.3-4.2,0.3-6,0.1c0,0-2.5-0.2-2.5-0.2c-0.6-0.1-1.5-0.3-2,0
					c-1.2,0.6,0.2,2.5-0.6,3.4l0,0c-0.1,0-1.7,0.9-1.7,0.9l0,0c-1.8,1.4-7.3,2.3-9.3,3.3c-0.7,0.8-2,1.2-2.9,1.3
					c-0.6,0.2-0.7,1.2-0.8,1.8c0.1,0.2-0.2,2.4,0.1,2.5c0,0.1,1.2-0.5,1.2-0.5c0.7-0.2,1.5,0.1,2.1,0.5c1.3,1.4,2.9,4.4,4.8,5.1
					c0.2,0,0.6,0.2,0.8,0.1c1.3-0.6,4.6-1.9,6-1.8c1.2-0.1,5.9,0.7,6.9-0.4c1.8-1.5,4.3-3.8,4.3-6.3c-0.1-0.2-0.3-2-0.4-2.2
					C132.5,51.3,133.4,48.5,133.4,47.1z"/>
				<path  d="M192.4,105.6l0.2-1.4c0.9-1.2,2.4-2.3,3.9-2.5c0,0,6.2,1.2,6.2,1.2c1.2,0,4.1,0.3,5.2-0.4
					c2.1-1.5,3.4-4.5,4.1-6.9c0.3-0.2,1.3-0.7,1.3-1.1c0.5-1.2-0.7-1.6-1.6-1.8c-2.4-0.1-4.3,3.4-6.8,2.9c-0.5-0.3-3.1-2.3-3.8-2.2
					c-1.1-1.2-3-6.4-5.1-6.1c-0.5-0.4-1.3-0.6-1.7-0.1c-0.5,0.4-1.5,0.6-2.1,0.6c-1.3,0.1-1.5,2.1-2.1,2.9c-1.7,1.8-4.1-1.1-6-0.2
					c-2.1,0.8-3.5,2.9-3.7,5.1c0,0,2.6,9.6,2.6,9.6s1,1.5,1,1.5c0.3,0.3,1.5,1.5,1.5,2c0.1,0.4,0.5,0.8,0.9,0.8
					c0.3,0.4,0.3,2.3,0.6,2.8c0.6,1.1,1.9,2,3.1,2.1c2.3,0.5,5-3.2,7-3.8c0.8-0.4,1.9,0.5,2.6,0.8c0.2,0.8,1.4,0.8,2,1
					c0.7,0,1.7,0.2,2.4-0.1c0.3-0.1,0.7-0.7,0.8-1c0.4-0.3,0.8-0.8,0.9-1.3c0.4-2-0.8-4.3-2.9-4.7c-1.5-0.5-8.7,1.8-10.2,2.1
					c-0.4,0-1.1-0.2-1.1-0.7C192,106.5,192.3,105.9,192.4,105.6z"/>
				<path  d="M3.6,262.9c1-0.3,3.2-0.8,4.3-0.9c0.7-0.3,1.7-1,1.5-1.8c0.5-0.5,1.3-1.2,1.4-1.9c0.1-0.8,0.4-3,0.2-3.8
					c-0.9-4.8-7.1-5.3-10.9-3.9v12.5l1.8,0.3L3.6,262.9z"/>
				<path  d="M29.2,255.3c0.5-3.1-0.6-2.8-2.8-1.3l0,0c-1.5,0.5-2.9,2.7-3.8,4c-1.1,0.3-1.6,1.3-0.7,2.1
					c-0.1,1.6,1.1,2.3,2.5,1.4c0.4,0,1.2,0.1,1.6-0.1c0.6-0.4,1.2-1.4,1-2.2C27.7,258.4,29,256.3,29.2,255.3z"/>
				<path  d="M2.9,289.8c0.3,0.1,2.7-0.1,3,0.1c1.1,0.4,5.1,3.3,6.3,2.7c2-1.3-1.2-5.8-2.2-7.1c-1.2-0.9-3.3,0.3-4.5,0.8
					l0,0C3,285.8,1.9,287.5,2.9,289.8z"/>
				
				<path  d="M218.9,164.6C218.9,164.6,218.9,164.6,218.9,164.6c1.5-0.6,2.3-2.2,2.6-3.7c0,0-0.4-9.2-0.4-9.2
					c-0.1-0.8-0.2-10-0.9-10.3c-1-1.4-3.4,0.4-4.4,1c-0.5,0.5-2,2.5-2.7,2.6c-1.4,0.5-6,0.1-7.3,0.9c-0.7,0.3-1.5,0.9-1.9,1.6
					c-0.9,0.6-1.4,1.8-1.1,2.8c0.2,0.9,1.5,1.7,1.8,2.6c-0.3,0.6-0.1,1.4,0.4,1.8c0,0,0,0,0,0l0,0c0.2,1.1,1.1,1.9,2,2.4l1.1,2.3
					c-0.7,0.6-1.3,1.6-0.3,2.3c0,0,0,0,0,0c0,0,0,0,0,0l0,0c0,0,0,0,0,0l0,0c0,0,0,0,0,0c0.2,0.8,1.1,1.6,1.7,2.1
					c0.1,0.1,5.8,0.9,5.9,1C215.9,166.3,218.2,165.9,218.9,164.6z"/>
				<path  d="M94.4,256.9c0.5-0.7,0-1.6-0.5-2.1c-1.7-1.3-4,1.7-5.5,1.7c-1.2-0.3-5.9-2.4-7.1-1.7c-0.3,0.2-0.7,0.2-1,0.2
					c-0.7,0.2-1.3,1.1-1.6,1.7c-0.5,0.3-0.9,0.9-0.7,1.5l0,0c0,0,0,0,0,0h0c-0.5,1.9,2.7,1.8,3.8,1.9c0.2,0,7.5,6.1,7.7,6
					c2-0.9,1.6-4.4,1.7-6.1C91.4,259.4,93.8,257.4,94.4,256.9z"/>
				<path  d="M212.1,192.5c3.7,1.8,4.8-2.7,5.7-5.3c0.8-3.2,1.1-7.7,0.3-11c-0.8-2.5-2.7-3.6-5.3-2.6
					c-0.2,0-2.5,2.5-2.6,2.6l-0.8,4.6c-0.7,1.1-1.9,3.1-1.1,4.4h0c0.1,0.4-0.1,1-0.2,1.3c-0.1,0.5,0.3,1.1,0.6,1.5v0c0,0,0,0,0,0h0
					c0.1,0.1,0.7,0.9,0.9,1C210,190.1,210.9,191.8,212.1,192.5z"/>
				<path  d="M75.1,40.4c-0.3-0.3-1.1,0-1.5,0c-0.9-0.4-2.2-0.3-2.9,0.5c-1,0.1-1.5,1.3-1.4,2.2c-0.4,1-1.4,2.6-0.2,3.5
					c0.3,1,8.8-0.7,9.5-0.6c2.5-0.6,5.5-2.4,7.2-4.3c0.2-0.3,0.7-0.9,0.5-1.3c-1-1-6,0.4-7.2,0.3c-1.7,0.8-2.1,1.2-3.7,0h0v0h0v0
					L75.1,40.4z"/>
				<path  d="M96.6,13c0.6-1,1.1-2.5,0.5-3.6c-0.4-0.4-3.9-3.8-4.5-3.7c-0.5,0.1-1.2-0.2-1.7-0.3c-1.1,0-3.7,0.2-4.7-0.1
					c0,0-8.3-2.5-8.3-2.5l-0.3,0c-0.4,0-0.9,0.6-1.2,0.8c-0.6,0.2-1.7,0.9-2.1,1.3c-0.5,0.5-1.5,2.7-1.9,3.4c-0.4,0.7-1.2,1.5-2,1.8
					c-0.3,0.2-6,0.5-6.4,0.6c-0.1-0.1-2.2,1.6-2.3,1.6c0,0-0.3,0.1-0.3,0.1L51.6,14l-9.9,1.5c0,0-16.2-0.2-16.2-0.2
					c-0.2-0.2-0.6-0.2-0.9-0.2c-0.9,0.3-8.1-0.1-8.9-0.3c-0.9,0.2-7.2,0.3-8.1-0.1c-1.2,0.1-6.4,0-7.5-0.2v22c1.2-0.5,3.6-0.5,4.9-0.1
					c0,0,6.3,3.7,6.3,3.7c0.8,0.4,5.2,0.7,6.1,0.8c0.6-0.1,6.1-0.3,6.5-0.7c0.4-0.2,6.5-4.5,6.9-4.4c0.9,0.2,1.9-0.1,2.7-0.6
					c0.6-0.3,1.7-1,2.2-1.5c-0.2-0.1,5.4-2.1,5.5-2.1c10.8,0.4,12.2,0.2,22.1-4.3c2,0.1,9.5,0.5,11.4,0c4.2-2.2,16.1-9.8,20.3-12.4
					C94.9,15.1,96.6,13,96.6,13z"/>
			</g>
		</g>
		<g id="Land">
			<g transform="matrix(0.999751,0,0,0.999751,-3.35606e-13,-1.94317)">
				<path class="st2" d="M-59.5,634.1V283.9l1.1,0.5c0.1-0.2,0.3-0.5,0.2-0.8h0.3c0.1,0.2,0.4,0.6,0.5,0.8
					c0.1,0.2-0.2,0.8-0.3,0.9c0.1,0.7,1.4,2.4,1.8,3c0.3,0.7,2.5,4.6,2.6,5.3l-0.3,0.5c-1.2-1-1.9-1.4-3.3-0.2
					c0.8,0.3,3.3,0.5,4.2,0.6l0.9,0.7l-0.4,0.7c-0.7,0.6-2.2,0-2.8,0.6c-0.5,0.9,0.1,2.8,0.3,3.8c1,3.2,2.6,6.8,5.4,8.8
					c1.8,1.2,5.7-0.1,7.5,1.1c0.4,0.2,1.1,0.4,1.5,0.2c0.5-0.3,1.3-0.6,1.9-0.2c0.1,0.2,0.2,0.5,0.2,0.7l0.1,0.2
					c0.2-0.2,0.5-0.5,0.6-0.8c1.5-1,5.7-1,7.4-1.2c3.5-1.2,8-1.1,11.6-1.6c1.4,0.2,4.3,0.1,5.7-0.2c0,0,2.1-1.1,2.1-1.1
					c0.7-0.1,2.2-0.5,2.9-0.8c0.4-0.2,4.9,0,5.4-0.1c4.6-0.4,12.1-1,16.7-0.8c0.9,0.4,2.5,0.8,3.4,0.7c0.5-0.3,1-0.9,1.4-1.3
					c1.1-0.6,2.9,0.6,3.8,1.1c0.7,0.2,2.8,0.5,3.1,1.2c0.3,0,1.8,0.2,2.1,0.3l-0.3,0.5c-0.6,0.5-1.7,0.9-2.5,0.7c0,0.3,0,1,0,1.3
					c0.5,1.2,3.1,2.8,4,3.6c0.1,0.3,1.2,0.9,1.5,1.1c0.2,0.9,2.5,2.1,3.2,2.5c-0.6,0.1-1.3-0.1-1.7-0.5c-0.2,0.1-0.4,0.4-0.5,0.5
					l0.8,1l0.9-0.2c0.7,0.3,2,1.5,2.5,2c1,0.5,2.9,0.5,4,0.5c-0.7-0.6-3.9-1.9-4.7-2.2l-0.8-1c3,1.3,11.8,5.3,14.9,5.8
					c2.9,0.5,7.7,1.4,10.6,1.9c0.8,0.6,2.3,1,3.3,1.3v0.3c-0.5-0.2-3-1-3.5-1c0.7,1.4,3.5,1.7,4.7,0.8c1.3,0,2.5-1.4,3.8-1.4
					c2.3,0.3,5.9,1.4,7.5-0.8c0.6-0.9,0.9-2.3,0.6-3.4l0.2-0.5c0.3,0.5,1,0.6,1.5,0.5c-0.1,0.3-0.4,0.5-0.7,0.5l0.4,0.5l0.6,0l0.4-0.3
					l-0.4-0.4c0.4-0.1,1.1-1.2,1.4-1.5c0.6,0,1.5-0.5,2.2-0.5c-0.1,0.2-0.2,0.4-0.3,0.5c0.2-0.1,0.6-0.1,0.7-0.2l0.3,0.4l0.2-0.1
					c0.1-0.2,0.3-0.3,0.5-0.4c0.4,0.1,1.1,0.5,1.5,0.5c0.6,0,1.5-0.9,1.8-1.3c0.7-0.1,1.7-0.5,2.3-0.9v-0.3l-0.2-0.2
					c-1,0.7-2.3,0.5-3.2-0.2l0.2-0.4c0.4,0,0.9,0.3,1.3,0.4c0.6-0.1,1.2-0.7,1.8-0.7c-0.1-0.3-0.1-0.7,0-1H88v-0.3l0.8-0.3l0.4,0.1
					c0.2,0.5,0.1,1.1,0.2,1.6l0.3,0c0.5-0.4,0.7-1.2,0.7-1.9c1.4-0.7,3.4-0.9,4.7-1.8c0.3-0.4,0.4-1.1,0.8-1.4
					c0.8-0.2,1.9-0.2,2.7,0.2c0.8,0.4,2.2,1.1,3.1,1c1,0,2.8-0.6,3.8-0.5c0.5,0.1,1.7,0.5,2.2,0.5c1.8,0,6-0.9,7.6-1.8
					c-0.8-0.1-1.9,0-2.7-0.1c-0.9-0.6-2.4-1.5-3.4-1.9c-1-0.4-2.7-0.2-3.7-0.4c-1.3-1.1-2.9-0.7-4.4-0.4c0.2-0.1,0.4-0.6,0.5-0.7
					c-0.6-0.1-1,0.4-1.5,0.7c-0.7,0.3-2.8-0.2-3.5,0c-0.4,0.2-1.3,0.7-1.7,1l-0.3,0.9l-0.4,0.2l-0.6-0.2c-0.3-0.4-0.4-1-0.3-1.4
					c-0.2-0.8-1.1-1.5-1.5-2.2l0.2-0.7c0.5-0.2,0.9-0.7,0.8-1.3H93c0.3,1,1.6,1.1,2.5,1.3c0.5,0.1,1.3,0.7,1.9,0.7
					c1,0,2.7-1.6,3.7-1.2c0.1,0.1,0.2,0.4,0.4,0.5c0.7,0,3.7-0.2,4.3,0.2c2-0.9,3.1-0.1,3.5-3h0.3c1,2.6,7,2.6,9.4,3.1
					c1.1,0.1,2.2-1.2,3.2-1.4c0.2,0.1,0.7,0.4,0.9,0.3l0.1-0.5c0.4-0.1,0.9,0.2,1.2,0.2l0.2-0.2c0.1-0.3,0.2-0.9,0.4-1.1
					c0.2,0.3,0.7,0.5,1,0.2l0.2,0.2l-0.2,0.2l0.7,0.3l0.3-0.5c0.5,0,1.2,0.4,1.7,0.5c0-0.3,0.3-0.5,0.5-0.6c0.2,0.1,0.6,0.2,0.7,0.3
					c0.6-0.1,2.7-1.9,3.3-2c0.2,0.2,0.2,0.6,0.4,0.9c0.6,0.3,1.4,0.2,1.8-0.4c0.4,0.3,2.6,0,3.1,0c0.9,0,2.2,0.7,3.1,0.8
					c0.6,0,1.8-0.4,2.4-0.7c1.3,0,4.5-1.5,5.7-1.6c1.4,1,4.4,0.7,6,0.8c3.7,0.6,8.6,1.6,12.4,1.6c1.4,0.6,2,0.4,3.2-0.5
					c1.4-0.4,3.7,0.2,4.8-0.9l0.4,0.4l1-0.3l0.3,0.4c0.9-0.6,2.2-1,3.3-0.7c-0.6,0.2-1.2,0.6-1.4,1.2l0.2,0.8l-0.2,0.2l-0.4-0.4
					c-0.2,0.1-0.6,0.5-0.8,0.7c-0.1,0-0.8,0.2-0.8,0.3c-0.2,0.1-0.6,0.4-0.7,0.4c-0.3,0-0.8-0.1-1.1,0l-0.4,0.3
					c-0.6,0.1-2.6,0.2-3.1,0.5c-1.6-0.2-4.5-0.7-6,0c-0.8,0.8-2,3.2-3,3.7c-0.5,0-1.2-0.3-1.6-0.5c-0.7,0-1.6,0.3-2.3,0.4
					c-0.5,0-1.1-0.4-1.5-0.5c-0.4,0-1,0.2-1.4,0.2c-0.5,0-2.6-0.6-3.1-0.7c-2.1-0.4-9.4,0.7-11.5,1.2c-0.8,1.1-1.9,2.1-3.2,2.6v0.2
					c1.9-0.5,3.4-3.2,5.6-2.8l0.6,0.7c0.1,0.5,0.1,1.5,0.1,2c0.1,0.4,0.3,1.4,0.3,1.8l-0.2,0.3c-1,0.2-1.2,0.5-2-0.4
					c-0.9-0.3-3-0.3-3.8,0l-0.3,0.8c0.1-0.2,0.8-0.4,1-0.5c0.1,0.5,0.2,1.3,0.7,1.5c-0.6,0.2-0.9,1.1-1.5,1.2l0.7,0.4l-0.1,0.4
					c-0.2,0.2-0.7,0.7-0.8,0.9c0.4,0,2.3,0,2.6-0.4l0.2-0.6l-0.7-1.4l0.2-0.8l-0.4-0.3l-0.1-0.4l0.1-0.5l0.4-0.3
					c0.9-0.2,1.7,0.7,2.3,1.2c0.3-0.3,0.7-0.4,1.1-0.4c0.5,0,1.3-0.7,1.8-0.9c0.8,0.1,1.8,0.4,2.4,1c0.2,0.3,0.1,0.9,0.3,1.3
					c0.3,0.5,1.2,0.9,1.6,1.3c1,1,0.4,2.2,0.4,3.4c0.1,0.2,0.5,0.9,0.5,1.1c0.1,0.2,0.5,0.2,0.6,0.4c0.1,0.4,0.4,1.1,0.6,1.5
					c-0.1,0.8-0.8,1.8-1.6,2c-0.6,0-1.3,0.4-2,0.2c-0.7-0.6-1.6-0.8-2.4-0.3c-0.2,0.6-0.4,1.4-1.1,1.4l-0.2-0.1
					c-0.1-0.2-0.2-0.8-0.3-1l-0.6-0.3l-1,0.5l-0.6-0.1c-0.2-0.3,0-0.7,0-1l-0.3-0.2c-0.5-0.1-0.9,0.4-1.2,0.7c-0.1-0.5-0.5-0.8-1-1
					c-0.6,0.7-1.2,0.5-2,0.2c0.3,0.4,0.8,1,1.3,1.3l0.2-0.1l0.2-0.3l0.3-0.2h0.3c0.4,0.7,0.2,2.3,0.6,2.9l0.6,0l-0.4-0.5
					c0-0.2,0.1-0.7,0.2-0.9c-0.3-0.4-0.2-1,0.1-1.3l0.3,0l0.2,0.2l-0.2,0.6l0.1,0.3l0.6,0.3c0.5-0.1,1-0.5,1.5-0.4
					c0.3,0.1,0.7,0.4,0.8,0.6c0.2,0.3,0.9,0.4,1.2,0.4l-0.4,0.9l0.3,0.3l0.6-0.2l0.3-0.6c-0.2-0.4-0.5-1.4-0.3-1.9l0.8-0.2
					c0.4,0.2,0.8,0.9,1.3,1c1.6,0,3.7-0.7,4.5-2.2c0.2-0.6-0.3-1.9-0.6-2.4c-0.2-0.5-0.1-1.3,0.1-1.8l0.6-0.2c3.3,0.9,4.1,2.9,4.8,5.9
					c0.3,0.8,1.2,1.5,1,2.5c0.2,0.3,0.6,0.9,0.6,1.2c-0.1,0.3-0.4,1-0.6,1.3c2.1-0.1,3.3,4,4.3,5.4c0.4,0.7,0,1.6-0.1,2.3
					c0,0.1,0.3,0.5,0.3,0.6c1.6-1.3,2.7-4.1,2.8-6.1c-0.3-0.8-0.8-2.8-0.6-3.6c1.3,0.8,2.4,3.2,2.9,4.7c0,1.2,0.3,5.7-0.3,6.7l-1,0.9
					l1.2-0.4c1.5-1.6,0.8-5.4,0.8-7.3c-0.1-1-1-2.1-1.3-3c0.5,0.1,2.3,0.2,2.8,0.4c0.3,0.4,0.4,1,0.7,1.4c0.7,0.3,1.8,0.5,2.6,0.5
					l0-0.1c-0.5-0.6-1.5-0.8-2.2-0.9l0-0.2c-2.1-2.8-3.7-0.5-5.3-2.3c0.5-0.6,0.7-1.7,1.5-1.9c4.3,0.7,7.3,2.8,10.6,5.7
					c0.6,1.1,1.7,2,2.8,2.6c0,0.2,0,0.6,0.1,0.8c0.2,0.2,0.6,0.6,0.6,0.8c-0.1,1.2-1.2,2.4-1.3,3.5h0.2c0.6-0.9,1.3-2.9,1.5-4l0.6,0.1
					c0.5,0.6,0.9,1.6,1.3,2.2c-0.3,0.4,0,3.2,0,3.8c0.6-1.1,0.7-2.8,0.3-3.9c-0.2-0.3-0.5-0.6-0.7-0.9c0-0.3-0.2-1-0.4-1.2
					c-0.3-0.2-1-0.2-1.2-0.5c0.1-0.2-0.6-0.9-0.6-1c-0.2-0.2-0.3-0.7-0.5-0.9c1.6-0.5,4.1,0.6,5.6,1c0.2,0,2.7,0.5,3,0.6l0.7-0.5
					c-0.1-0.6-0.7-1.1-1-1.5c-0.3-0.1-0.8-0.5-1.1-0.7c0-0.1-0.1-0.4-0.1-0.6c-0.5,0-1.1-0.5-1.2-1l0.2-0.1c1.6-0.1,3.2,1.2,4.5,1.9
					c1.7,0.9,3.2,2.4,4.4,4l-0.2-1c-0.3-0.4-1.1-1.3-1.1-1.8c-0.5-0.1-1.4-0.5-1.6-1l0.1-0.1c0.4,0.5,1.1,0.6,1.7,0.6
					c0.3,0.1,0.7,0.4,0.8,0.7c2.1,2.3,4.5,4.5,7,6.4c0.1,0.6,0.6,1.6,1.1,2l0.5-0.2l-0.6-0.7l0.9,0l2,1.2l0.7-0.4l0.2,0.1
					c0.4,0,1.5-0.2,1.9,0c0,0,1.3,0.7,1.3,0.7c0.5,0.1,1.7,0.5,2,0.9l0.2,0.6l-0.2,0c-0.1-0.1-0.2-0.4-0.3-0.5c0,0.2-0.1,1.3,0,1.5
					l0.3,0.2c0.1,0,0.4-0.1,0.5-0.2c0.2-0.1,0.7,0,0.9,0.1c1.2,0.4,2.4,1.3,3,2.4c0.3,0.3,0.8,0.7,0.7,1.1c0.2,0.2,0.6,0.1,0.7,0.4
					c0.5,1,0.8,2.4,0,3.3c0-0.3-0.2-0.6-0.5-0.8c-0.2,0.4-0.2,1.1-0.4,1.6c-0.2,0.1-0.8,0.3-1,0.3c-0.2,0.1-0.9,0.6-1.2,0.6
					c-0.9,0.1-1.6,0.3-2,1.1c-0.2,0.1-0.9,0.3-1.1,0.4c0,0-2,1.9-2,1.9c-1.9,0.2-2.5,2.6-3.2,4.1c0.7-0.2,1.3-0.9,1.5-1.6
					c0.5-0.8,3.2-3.1,4.1-3.5l0.1,0.6c-0.1,0.4-0.7,0.9-1,1.2c-0.1,0.2-0.2,0.9-0.2,1.1c-0.1,0.3-0.4,0.5-0.5,0.8c0,0.3,0,0.8-0.2,1
					c-0.3,0.2-0.8,0.3-1.1,0.5c0,0-1.3,1.4-1.3,1.4l-0.2,0c0,0.2-0.6,1.1-0.8,1.4c-0.2,0.3-0.5,1.7-0.7,2.1c-0.2,0.5,0.2,1.2,0.2,1.7
					c-0.1,1.1-1.8,3.5-2.5,4.4c-0.6,1.3-0.6,3.3-1.1,4.6l-0.9,0.7c-1.2,0.2-3.1-0.5-4.2-0.8c-2.3,0.1-7.5,1.2-9.4-0.7
					c-0.6,0-1.5,0-2,0.5l-0.1,0.7c0.1,0.4,2,1.3,2.3,1.5c0.3,0.1,1.5,0.3,1.7,0.4c0.2,0.2,0.3,0.5,0.5,0.6c0.4,0.1,1-0.2,1.4-0.2
					c0.3,0.4,0.8,1,1.3,1.2c0.1,0,0.5,0,0.6,0.1c0.1,0.1,0.3,0.6,0.4,0.7c0.8,0.2,2-0.3,2.7-0.3c0.6,0.3,0.7,1.2,1,1.8
					c0.4,0.5,1.4,0.8,1.7,1.5c0.4-0.3,1.3-0.9,1.6-1.3c0.1-0.3,0.3-0.8,0.4-1c1.5-1.6,2.9-1.4,4.9-1.2c0.5-0.1,2-0.4,2.5-0.3l0.1,0.5
					l-0.6,0.5l-1.4,0.2c-0.3,0.6-0.5,1.5-0.1,2.1l0.4,0.2c0.2-0.5-0.1-1.4,0.2-1.9c0.5-0.5,1.1-0.4,1.7-0.5c0.3-0.6,0.4-1.3,1-1.6
					c0.1-0.6,0-1.5,0.3-2.1l0.3-0.2c0.4,0.2,1,0.3,1.4,0.1c2.3-0.7,6.6-0.8,8.9-1.2c0.3,0.2,0.8,0.5,0.9,0.8c0.6,0.5,1.4,1.1,2.2,1.1
					c0,0,2.3,0.1,2.3,0.1c0.5,0.1,2.6,0.7,3,0.5c0.1-0.1,0.5-0.9,0.5-1c0.5-0.4,1.3-1.6,1.6-2.2c0.6-0.8,6.6,0,7.5,0
					c1.4,0.2,3.1,1,4.2,1.8c0.4,0.3,1.8,0.5,2.3,0.6c1.1,0.4,2.4,1.5,3.2,2.4c1.5,2.5,3.1,5.1,6.3,5.5c1.6,0.7,3.2,2.6,5,2.7
					c0,0.1,0.3,0.6,0.4,0.6l0.1,0.3l0.1,0.1c0.1-0.1,2.1,0.4,2.3,0.4c0.4,0.6,3.4,3.1,4,3.6c-1.1-2.4-4-3.9-6.4-4.7
					c0,0-3.4-2.3-3.4-2.3l-2.2-1.2c-0.3-0.2-0.6-1.1-0.7-1.4l0.1-0.5l0.9-0.1c0.4,0.1,1.6,1,1.9,1.3c0,0,1.5,0.4,1.5,0.4
					c1.1,0.8,3,2.3,4.3,2.9c2,0.6,5.6,2.9,7.2,4.3c1.7,1,7.5,4.3,8.9,5.6c0.7,0.7,2.2,2.3,3,3c1.1,1.3,5.4,6.3,6.9,7
					c0.5,0.7,1.5,2.1,2,2.8c0.2,0.6,1.1,2.2,1.5,2.7l0.1-0.2l-0.4-0.9l0.1-0.4c3,0.2,4,3.8,5.8,5.6c1.2,2.1,5.5,4.2,4,7.1l0.2-0.3
					c-0.3,1,0,5.2,0,6.2c0,0-0.6,3.8-0.6,3.8c-0.4,0.6-1.3,1.2-1.8,1.7c-0.9,0.9-1.3,2.3-1.4,3.5c0,0-0.9,2.2-0.9,2.2
					c-0.3,1,0.4,3.2-0.4,4c0,0-0.1,0.4-0.1,0.4v6.5c0.1,1-2.2,3.8-2.7,4.6c0.1,0,0.2,0.1,0.2,0.2c0.2-0.2,1.2-1.1,1.5-1.2
					c0.1-0.1,0.2-0.4,0.4-0.5c0.4,0.2,1,0.3,1.4,0.2l-0.3-0.2c1.1-1.8,0.3-5.9,1.1-7.8c1.8-2.5,3.9-9.3,7.7-9.4
					c1.7-0.2,3.7,0.8,5.1,1.6c0.5,0.4,1.1,1,1.6,1.3c0.1-0.1,0.2-0.4,0.3-0.6c0.1-0.2,3.3,0.3,3.4,0.3c2,0.8,4,2.3,5.4,3.8
					c1.4,1.1,3.4,2.8,4.4,4.3c0.5,0.1,1.2,0.8,1.5,1.1c1.6,1.3,3.7,2.8,5.1,4.3c0.6,0.4,1.2,1.9,1.5,2.6c0.2,0.4,1.1,2.8,1.5,3.1
					c0,0.2,0.1,0.8,0.3,1c0.4-0.5,0.5-1.2,0.4-1.8c0.2-0.3,0.7-0.6,1-0.9c1.5-0.1,2.9,1,4.1,1.6c2.1,1,4.6,3.5,6.2,5.2
					c1.1,1.3,1.8,3.1,1.9,4.8c0.1,0.5,0.5,1,0.4,1.5c-0.1-0.2-0.6-0.9-0.8-1c0.2,0.4,0.7,1.5,0.9,1.8c0,0.8,0.1,1.9,0.2,2.7
					c-0.2,0.4-0.7,1.5-0.8,1.9c-0.2,0.5-0.5,1.2-0.5,1.8c-0.2,0.4-0.5,1.3-0.5,1.7l0.9,1.4c0.3,2.7-1.8,5.3-3.2,7.3v0.3
					c0.2-0.2,0.6-0.6,0.8-0.8c0.4-0.2,1.4-0.5,1.7-0.8c1.3-2,1.5-6,1.6-8.4c0.3-2.2,0.8-4.4,2.2-6.2c0.2-0.8,0.7-1,1.5-1.1
					c0.2-0.2,0.5-0.4,0.8-0.5c0.3-0.4,0.8-0.9,1.4-0.9c0.1-0.1,0.4-0.5,0.7-0.5c1.3,0.3,3.3,0.9,4.6,0.9c2,0.1,4.9-0.1,6.8,0.5
					c1.1,0.9,2.8,1.3,4.2,1.3c2.3,0.4,5.8,1.7,8.1,1.6c2,0.5,4.5,1.2,6.5,1.6c2.1,0.7,4.6,1.5,6.9,1.6c0.2,0.3,0.8,0.9,1.2,1
					c0.3,0.2,0.2,3.3,0.2,3.6c0,0,0.3,0,0.3,0c0.7-1.8-0.1-3.7-0.9-5.3l0.6-0.7l-0.4-0.3c-0.2,0-0.7,0-0.9,0l-0.5-0.4
					c-0.4-1,0.4-1.7,0.9-2.4c0.7-0.9,1.7-1.6,2.9-1.8c5.4-0.4,13.2-0.5,18.5,0.5c0.6,0.5,1.6,1,2.4,1.2c0.5,0.2,0.9,0.7,1.4,1
					c0.5,0.2,1.1,0.1,1.6,0.2c0.4-0.1,1-0.4,1.5-0.4c0.5,0.4,1.4,0.8,1.6,1.5c-0.1,0.5-0.6,1.4-1,1.7c0,0,1-0.3,1-0.4
					c0.2-0.4,0.4-1.2,0.4-1.6l0.2-0.3l0.8,0c0.4,0.3,1.4,1,1.9,1c0.4,0,0.7-0.3,1.1-0.4c0.7,0.5,1.3,0.8,2.1,0.2
					c0.6-1,1.6-0.4,2.2,0.2c-0.3-0.7-1.1-1.2-1.8-1c-0.4,0.4-1,0.6-1.6,0.6c-0.2-0.2-0.8-0.5-1.1-0.5l-0.6,0.3l-0.5,0
					c-1.1-1.1-3.4-1-4.6-2.1c-0.3-0.3-0.3-0.8-0.6-1c1-2.3,13.9-0.9,16.3-0.7c5,0.7,11.9,1.8,16.8,3c2.3,0.6,5.5,2.1,7.9,1.9l0.2,0.3
					l0.4,0.1l0.2,0.4l-0.1,0.4c0.2,0.4,1,1.9,1.1,2.3c-0.6,0.6-1.2,2.1-1.6,2.8c-0.2,1.6-0.6,4.1-1.1,5.7c-0.4,1-1.4,1.8-2.1,2.6
					c-0.2,0.8-1.5,2.8-1.9,3.4c1.7-0.4,3.2-1.8,4-3.2c0.4-1.3,1.5-3.2,2-4.4c0,0,0.6-3.8,0.6-3.8c0.5-0.9,1.3-2.2,1.7-3
					c0.8,0,2.3,0.3,3.1,0.4c0.5,0.2,1.3,0.6,1.8,0.7l-0.1-0.2l-0.8-0.4c1.6-0.2,2.9,1.5,4.3,2.1c1.9,1.1,5.5,2.1,7.2,3.4
					c1.2,0.5,2.7,0.8,4,0.7c1.3,0.2,3.5,1.2,4.8,0.9c0.6,0.3,1.1,1.2,1.7,1.6l0.8-0.3l0-0.4c-1.1,0-1.8-1.5-3-1.3l-0.1-0.2l0.4-0.3
					c0.6,0.1,1.5,0.8,2.2,0.9c0.6,0.1,1.9,0.5,2.4,0.8c0.7,0.1,2.1,1.1,2.7,1.5c0.7,0.3,2.1,0.7,2.8,0.8l0.2-0.3
					c0.9,0.2,3,1.5,3.8,1.9c0.9,0.9,2.9,2.8,4.1,3.2l1.1,1.8l2.6,2.1c0.2,0.2,5.4,5.2,5.7,5.1c0,0.2-0.1,0.4,0,0.6
					c0.1,0.1,0.5,0,0.6,0c0.1,0,1,0.5,1.1,0.5c0.8,0.7,3.3,2.6,3.6,3.7l-0.3,1.5c0.6-0.2,1.3-1.3,1.6-1.7l0.8-0.3
					c1.1,0.1,2.2,1,2.4,2.1c-0.7,1.5-2.3,3.3-3.1,4.8l0.1,1.3h0.2c0-0.4,0.3-0.9,0.6-1.1c0.3-0.5,0.4-1.6,0.6-2.1
					c0.5-0.8,2.2-1.3,2.5-2.3c0.8,0.3,1.6,1,2,1.7c0.1,0.3,0.4,1,0.6,1.2c1.6,0.8,3.8,2.3,4.9,3.7c1,1.1,1.6,3,1.6,4.4
					c0.6,1.7,1.5,4.2,0.6,5.9c-0.5,0.5-1.5,1.2-2.1,1.5c0,0-1,1.2-1,1.2c2.6-0.8,4.2-1,4.5-4.1c0-1-0.5-5.7-0.1-6.5
					c1.2-3.1,3.5-0.6,4.8,0.9l-0.3,0.4c0.4,0.5,1.2,1.6,1.3,2.2c0,0.8,0.2,1.9,0.6,2.6l0.6,0c0,0.3-0.2,0.6-0.4,0.8l-0.1,0
					c0,0.4,0.3,1,0.5,1.4c0.3,0.1,0.9,0.2,1.2,0.2l0.3,0.3l-0.1,0.5c-0.2,0.1-0.5,0.5-0.7,0.6c-0.9,3.6,4.8,3.8,1.1,11.5l1.2-0.3
					c0.8-0.3,1.7-3.3,2-4c0,0,0-2.1,0-2.1l0.4-0.7l0.5-0.1c0.8,0.5,1,2.3,1.2,3.1c0.7,2.4,3,5.7,3.7,8l0.3-1c-0.3-1.5-2-3.8-2.5-5.4
					c-1-3.2-3.1-8.2-1.8-11.5c0.2-0.3,0.8-0.6,1.1-0.7c1.4,0.6,3.3,2.2,4.6,3c0,0,3.3,3.7,3.3,3.7c1.4,1.5,3.5,4.5,4.1,6.5
					c0.5,4.2,0.4,9.6-0.4,13.8l0.8,1.9c0-0.6,0.6-2.7,0.7-3.3c0.1-1.8,0.3-4.6,1.4-6.1l0.8,0l0.5,0.9c-0.3,2.6-0.4,8-0.2,10.6
					c0,0,0.2,3.6,0.2,3.6c0,0-0.6,1.5-0.6,1.6c-0.4,2.8,2.3,7,2.5,9.7l-0.5,1.1c0.2,0.9,0.9,2,1,2.9c-0.2,0.3-0.2,1-0.1,1.3
					c0.7,0.6,1,1.9,1.1,2.8c0.3,1,1.1,2,1.5,3c-0.1,0.6-0.3,1.3,0,1.9c0.2,0.2,0.6,0.4,0.8,0.5c0.1,0.3,0.5,0.5,0.7,0.6
					c0.1,0.3,0.2,0.8,0.3,1.1c0.3,0.3,0.6,0.9,0.7,1.2c0,0.4,0.1,1.2,0.3,1.6c0.8,0.8,0.7,2.3,1.1,3.3c0.2,0.5,0.7,1.8,0.5,2.4
					c-0.1,0.2-0.3,0.5-0.5,0.5c-0.1,0.2-0.1,0.4-0.1,0.6l0.2,0.2l0.4,0c0.1-0.1,0.3-0.3,0.4-0.5l0.3-0.1c0.7,0.4,1.2,1.5,1.6,2.2
					c0,0.8,0.4,1.7,0.8,2.4c-0.1,0.6,0.3,1.8,0.3,2.4c0.4,0.4,0.6,1.4,0.6,2c0,0.5,0.4,1.2,0.7,1.5c0.3,0.3,0.6,1.2,0.7,1.6
					c-0.4,0.7-0.9,1.4-1.8,1.2l-0.3,0.2c-0.6-0.2-1.5-0.4-1.8-1h-0.2c-0.1,0.6,0.4,1,0.9,1.1l0.1,0.2c-0.2,0.6-0.5,1.3-0.6,1.9
					c0.3,0.3,0.4,0.7,0.7,1l0.4,0l0.2-0.3c-0.1-1.6,0.8-2.8,2.4-3c0.5-0.1,1.8,0.8,2.2,1.1c0,0,0.7,1.1,0.7,1.1
					c0.1,0.3,0.2,1.8,0.4,2.1c0.5,1.2,1.8,2.8,2.5,3.8c0.1,0.4,0.3,1.7,0.5,2c1.2,2.1,4.5,2.8,6.5,1.4c0.8,0.2,1.9,0.1,2.6,0.4
					c0.8-0.2,2-0.2,2.7-0.4c0.5,0,1.3,0.5,1.7,0.7c0,0,1.7,0.6,1.7,0.6c3.9,1.2,7.2,2.3,7,7.1H-59.5"/>
				<path class="st2" d="M-56.1,11.8l1,1.5l-0.2,1.4c-0.2,0.3-3.6,5.4-3.9,5.4c-0.3,0.6,0.2,1.7-0.3,2.2V9.4
					C-58.9,10.2-57.1,11.3-56.1,11.8"/>
				<path class="st2" d="M197.8,379.1c0.7,0.5,1.9,0.2,2.8,0.3c0.4,0.5,0.4,1.4,0.4,2.1c0.3,0.5,1.1,0.7,1.5,1
					c0.1,0.3,0,0.8-0.1,1.1l-0.5,0.2c-0.4-0.1-1.2-0.6-1.5-0.9c-0.1-0.4-0.5-1-0.8-1.3c-1,0-2.5,0.1-3.5-0.2c-0.3-0.3-0.9-0.8-1.3-1
					c-0.8-0.4-1.8-0.4-2.6-0.9l0.2-0.4c1.4,0.1,3.2,0.7,4.4-0.2L197.8,379.1"/>
				<path class="st2" d="M211.4,378c0.2,0.1,0.5,0.3,0.7,0.3l0.1,0.9l-0.5,0.8l-0.8,0.4l-0.8-0.5l0,0.5
					c0.1,0.2,0.4,0.6,0.4,0.9c-2.4,0.7-6,0-8.3,0.1c0.5-1.4,1.7-2.8,3.3-2c0.4,0.4,1.4,1.2,2,1.3c0,0-0.4-0.7-0.5-0.6
					c0.1-0.6,1.2-1.4,1.5-1.9C208.8,378.1,211,378,211.4,378"/>
				<path class="st2" d="M151.3,314c0.2,0.1,0.5,0.6,0.6,0.8c0,0.4-0.1,1-0.4,1.3h-0.2c0.1-0.5-0.4-1-0.7-1.3
					c-0.4-0.6-1.4-1.4-2-1.8c-1.6-0.7-2.5-1.9-1.5-3.6l0.2,0C148.4,310.7,150.1,312.8,151.3,314"/>
				<path class="st2" d="M307.6,437.7l1.6,0.2l0,0.2c-0.9,0.8-2.7,1.9-3.9,2l-0.7,0.8c-0.2-0.7,0.1-1.6,0.5-2.2
					c0.4-0.2,0.8-0.7,1-1.1C306.3,437.7,307.3,437.7,307.6,437.7"/>
				<path class="st2" d="M103.5,297.9c0.8,0.4,1.9,0.7,2.7,1.2l0.3,0.8l-0.5,0.7l-1,0.1l-0.8-0.4l0-0.7
					c-0.5-0.1-1.4,0-1.8-0.5l0-0.5C102.6,298.2,103.1,297.9,103.5,297.9"/>
				<path class="st2" d="M80.5,258.1c1,0.5,2.3,1.4,2,2.7l-0.4,0.3c-0.9,0-2.3,0-3.1-0.5c0-0.1,0.1-0.3,0.2-0.4
					c0-0.1-0.1-0.3-0.2-0.4C79.7,259.6,79.9,258.5,80.5,258.1"/>
				<path class="st2" d="M216.2,181.2c0.3,1.3-0.1,3.6-0.3,4.8c0.2,1,0,2.7-0.4,3.6c-0.2,0.1-0.6,0.1-0.7,0.3
					c-0.2,0.2-0.4,1.5-0.5,1.7c-0.1,0.1-0.3,0.3-0.5,0.3l-0.7-0.9l-2.7-1c-0.3-0.4-0.9-1-1.1-1.4c0.3-0.5,0.4-1.3,0.2-1.9
					c-0.2-0.2-0.2-0.5-0.2-0.8c0-0.4,0.4-1,0.5-1.4c0.1-0.4,0.8-1.4,1.1-1.7c0.3-0.9,1.1-2.1,1.9-2.6c0.1-0.3,0.2-0.9,0.4-1.1
					c0.2-0.3,1-1.5,1.4-1.6l0.7,0.2l-0.2,0.6c0.2,0.4,0.7,0.5,0.9,0.9C216,179.5,216.1,180.9,216.2,181.2"/>
				<path class="st2" d="M229.1,278.1l0.3,0.3c0.1,0.8,0,2-0.4,2.8c-0.1,0-0.5-0.1-0.6-0.1l-0.2,0.5
					c-0.3,0.1-0.7-0.1-1-0.1c0,0.1-0.5,0.8-0.6,0.9c-0.5,0.2-1.2,0.7-1.6,1c-0.4,0-0.9-0.1-1.2-0.1c0,0-2.2,1.1-2.2,1.1
					c-0.8,0-1.5,1.1-2.2,1.2l-0.3-0.6l-0.5,0.3l-0.5-0.1l-0.3-0.4l0.1-0.6c0.3-0.2,0.9-0.2,1.3-0.4c0-1,3-2.4,3.7-2.9
					c1.1-1.4,3.1-1.6,4.6-2.1l0.6,0.3l0.3,0C228.3,279,228.8,278.3,229.1,278.1"/>
				<path class="st2" d="M269.4,212.2l-0.1,1.3c-0.8,0.9-2.1,1.6-2.9,2.5c-0.3,0.1-0.7,0-1,0.2
					c-0.4-1-1.7-1.2-2.6-1.2c-1.9-1.2-1.4-5.8-1.7-7.7c0-0.8,0.7-1.6,1.5-1.8c1.6,0.7,1.7,3,2.8,4.1c0.6,0.4,1.5,1.2,2.2,1.5
					C268.2,211.3,269,211.5,269.4,212.2"/>
				<path class="st2" d="M-50.9,246.2c0.3,0.2,0.7,0.5,0.8,0.8c-0.3,0-0.6,0.3-0.8,0.5c0.1,0.5,0.3,2.1,0.2,2.6
					l-0.3,0.2l-0.7,0l-0.2,0.2c0,0.4,0.4,1.2,0.5,1.6c-0.1,0.5-0.2,1.1-0.6,1.4l-0.4-0.1c-0.6-0.7-1.2-2.2-1.2-3.1
					c0.3-1.4,0.3-3.2-1.2-3.8c-1-0.1-2.5-0.3-3.3-1l-0.2-0.6l0.5-0.7l-0.3-0.2c0.1-0.4,0.3-0.9,0.7-1c0.8-0.2,1.4,0.7,1.8,1.3
					c0.6,0.3,2.6,1.1,3.2,1.4C-52.1,245.9-51.1,246-50.9,246.2"/>
				<path class="st2" d="M214.9,362.8c1.1-0.4,2.3,0.2,3,1c-0.2,0-0.8,0.3-1,0.2l0.5,0.9c-1.1,3-6,4.5-8.8,5.4
					c0.5-0.4,2.3-1.6,2.7-2.1c0,0,1.2-1.8,1.2-1.8c0.1-0.4,0.4-1.4,0.8-1.6c0.4-0.2,0.9-0.5,1-1c0-0.2,0-0.5,0-0.7L214.9,362.8"/>
				<path class="st2" d="M596.5,615c0.6,0.2,1.4-0.1,2-0.2c0.4,0.6,1.1,1.5,1.6,2c0,1.5,1.8,2.5,1.6,4.1
					c-0.9,1.3-2.3,2.8-3.9,3.1c-0.4-0.1-1.1-0.4-1.4-0.7c-0.2-0.8-0.7-2.6-1.3-3.1l-0.1-0.6c-0.2-0.3-0.7-0.5-1-0.6
					c0-0.5,0.2-1.5,0.4-2c0-0.4,0-1.1,0.3-1.4c0.3-0.1,0.9-0.1,1.2-0.1L596.5,615"/>
				<path class="st2" d="M208.9,367.8l-0.4-0.4c0.2-0.9,0.5-2,1-2.9c0.7-0.3,1.7-0.5,2.4-0.8
					c0.5-0.4,1.6-1.9,2-2.4c0.3-0.3,1.1-0.4,1.5-0.4c0,0,2-0.7,2-0.7c0,0.4,0,0.9-0.2,1.2v-0.3c-0.1,0.3-0.3,0.8-0.6,0.9
					c-0.5,0.1-1.3,0-1.9,0.2c-0.4,0.1-3.3,2.9-3.6,3.2c-0.2,0.2-0.3,0.8-0.4,1.1C210.4,367.2,209.3,367.7,208.9,367.8"/>
				<path class="st2" d="M151.9,62.5c0.3,0.1,0.8,0.6,0.9,0.9l0,0.6l-0.8,0.3l-0.5-0.3l-0.4-1.4
					c-0.4-0.2-1-0.6-1.2-0.9c-0.2-0.2-1.2-0.1-1.5-0.1c-1.6-0.2-3.3-1.4-4.3-2.6l0.3-1.2c0.3-0.3,0.8-0.3,1.1-0.6l0.1-0.2
					c0.8,0.5,4.1,2.2,4.5,3c0.2,0.5,0.7,1.8,1,2.2L151.9,62.5"/>
				<path class="st2" d="M189.7,246.7c0.6,0.8,0.3,2.3,0.2,3.2c-0.4,0.5-0.5,1.1-0.2,1.7c0,0.1-0.2,0.2-0.3,0.2
					c-0.2,0.3-0.1,0.8-0.4,1.1l-1.6,0.8v-0.3c-0.4,0.1-0.7,0.5-0.7,1c-0.4-0.1-0.9-0.2-1.3-0.5c-0.5,0.6-1.5,0.5-2.2,0.3
					c0.2-0.1,1.4-0.8,1.5-1c0.2-0.4,0.1-1-0.2-1.4c-0.4-1.1,1-2.3,0.9-3.4l2.1-2.5c0.8-0.3,1.8-0.1,2.4,0.5l0,0.1L189.7,246.7"/>
				<path class="st2" d="M179.8,70.4L180,70c-0.1-0.2-0.2-0.5-0.1-0.7l0.6-0.3c-0.2,0-0.8-0.4-1-0.5
					c0.4-0.5,1.3-0.7,1.9-0.9l-0.3-0.5l0.1-0.4c0.2-0.2,0.6-0.6,0.9-0.7l1.2,0.1c0.3,0.3,0.6,1,0.7,1.4l0.6,0.5c0-0.3,0.3-0.7,0.5-1
					c0.2,0.5,0.8,0.6,1.3,0.5c-0.2,0.2-0.4,0.5-0.8,0.5l0.2,0.5l0.4,0.2c0.4,0.1,0.9-0.3,1.2-0.3c0.2,0.2,0.4,0.5,0.5,0.8
					c-0.3,0-0.7,0-1,0c0.2,0.3,0.6,0.5,0.8,0.8c0,0.3-0.3,0.8-0.5,1.1c-0.5,0.1-1-0.3-1.5-0.4l-0.3,0.1c-0.1,0.2,0.1,1,0.2,1.2
					l-0.3,0.4c-0.5-0.2-1.1-0.7-1.4-1.1c-0.7,0.3-1.5,0.6-2.3,0.5c-0.5-0.1-1.6-0.6-1.9-1.1L179.8,70.4"/>
				<path class="st2" d="M205.9,212.7l-0.7,0.5c-0.7-0.2-2.6-1.6-3.1-2c-0.4-1-0.3-2.4,0.3-3.3
					c-0.1-0.1-0.2-0.4-0.3-0.5l1-0.2c1-1.9,0.6-3.8,3.6-2.9C208,206.8,207.8,210.6,205.9,212.7"/>
				<path class="st2" d="M82.3,44.8c-1,0-2.4,0.6-3.3,1c-1,0.5-8,1-9,1.5c0.6-0.8,0.1-2.2,0.4-3.1l0.3-0.3
					l1.4,0.4c0.8-0.3,1.6-1,2.4-1c0,0,1.4,1,1.5,1c0.5,0.1,1.2,0.4,1.5,0.7c1.2-1.2,3.3-1,4.8-0.5V44.8"/>
				<path class="st2" d="M181.4,50.6l-0.5,0.2c-0.2-0.3-0.3-1.6-0.3-2c-0.2-0.8-0.7-1.7-0.5-2.5
					c0.2,0.1,0.2,0.3,0.2,0.5c0.1,0.3,0.6,0.9,0.8,1.1c0.4,0.5,0,1.1,0,1.7l0.4,0.2c0.3-0.7,0.3-1.7,0-2.4c-0.3-0.1-0.8-0.4-0.9-0.8
					l0.2-0.7l0.5-0.3l0.7,0.9c-0.1,0.1-0.4,0.2-0.5,0.2l0.5,0.2c2.3-1.2,4,3.4,3,5l-0.3,0.1c-0.2-0.1-0.8,0.1-1,0.2l-0.2-0.7
					C183.3,51.3,182,50.8,181.4,50.6"/>
				<path class="st2" d="M53.5,31.6l-0.3-0.3c-1.1,0.4-3.5,0.8-4.7,1.3c-0.9-0.4-2,0-2.9-0.2l-0.6-1
					c0.7,0,1.6,0,2.2-0.3c0.5-0.2,1-0.7,1.5-1c0,0,2.9-0.4,2.9-0.4c0.3,0,1.4,0.4,1.7,0.5c0.7,0.1,2.4-0.2,2.7,0.7l-0.3,0.1l-1-0.1
					c-0.3,0.1-0.9,0.5-1.1,0.7H53.5"/>
				<path class="st2" d="M57.9,292.6c0.1,0,0.4,0,0.6,0l0.1,0.1l-0.3,0.4l0.5,0.8l-0.1,0.5
					c-0.3,0.2-1.1,0.6-1.4,0.7c0-0.1,0.2-0.4,0.2-0.5c-1.6,0.7-3.4,0.2-4.9-0.5l-0.6,0.2l-0.9-0.7l0.4-0.9l0.9-0.6
					c0.5,0,1.3-0.2,1.7-0.4C55.3,291.6,56.8,292.7,57.9,292.6"/>
				<path class="st2" d="M205,111.1c0.1,1.7-2.8,2.3-4,2l-0.5-0.9c0-0.4-0.2-0.8-0.5-1c0.2-0.4,0.6-0.8,0.6-1.3
					c0.3-0.6,1.1-1.3,1.7-1.5c1.1,0.1,1.8,0.8,2,1.8C204.6,110.4,204.9,110.7,205,111.1"/>
				<path class="st2" d="M216.7,359.6c-0.6,1-2.4,1-3.2,1.7l0.6-1.3c0-0.6,0.1-1.7,0.3-2.2c0.7-0.7,2-1.2,3-1.1
					l0.3,0.4c0,0.9-0.5,1.9-1,2.6V359.6"/>
				<path class="st2" d="M218.7,356.3c0.5-0.5,1.4-1,2.2-0.9c0.4,0.3,0.8,1,1.1,1.4c-0.4,0.3-1,0.2-1.5,0.1
					l-1,0.6c-0.3,0.5-0.5,1.3-1,1.8l-0.8,0.2C218.1,358.7,218,357.1,218.7,356.3"/>
				<path class="st2" d="M593.2,613.7l-0.3-0.2l0-0.2c0.2-0.3,1.1-0.9,1.5-1.1c0.4,0,1.4,0,1.8,0
					c0.8,0.5,1.8,1.1,1.8,2.2l-0.3,0.3c-0.3,0.1-0.9,0-1.2,0c-0.2,0.1-0.5,0.3-0.6,0.5c-0.6-0.2-1.1,0.2-1.7-0.3l-0.2-0.8
					C593.7,613.9,593.4,613.7,593.2,613.7"/>
				<path class="st2" d="M221.3,374.1l0.7-0.1c0.2-0.3,0.8-0.7,1.1-0.8c0.2-0.2,0.6-0.6,0.8-0.7l0.2,0.1
					c-0.4,0.8-0.9,1.5-0.3,2.4c0.6,0.4,1.7,0.1,2.4,0.3l0.2,0.5c0,0.3-0.3,1-0.5,1.3c-0.9,0.4-1.9-0.3-2.8-0.2
					c-0.7,0.2-1.6,0.2-2.3,0.2c-0.5,0.4-1.3,0.2-1.9,0.2l-0.1-0.3c0.7-0.8,1.2-1.9,1.8-2.8L221.3,374.1"/>
				<path class="st2" d="M7.6,262.4c0.1,0,0.6,0,0.7,0L7.6,263c-1.1,0.3-2.7,0.3-3.6-0.6c1.6,0.6,2.6,0,3.3-1.5
					C7.9,261.2,8,261.9,7.6,262.4"/>
				<path class="st2" d="M196.4,237.9l-0.6-0.2c-0.6,0.1-1.3,0.5-1.8,0.7c0.2-0.3,0.3-0.8,0.5-1
					c-0.1,0-0.4,0-0.5,0c0-0.1,0.2-0.4,0.3-0.5l0.8,0.2c0.5-0.5,0.7-1.6,1.4-2C196.9,236,196.3,237,196.4,237.9"/>
				<path class="st2" d="M205,216.7c-0.7,0.5-1,1.7-1.8,2h0.3l-0.3,0.3c-0.2-0.5-0.8-0.5-1.3-0.5v-0.3
					c0.3,0.2,1,0.1,1.4,0l0-0.3c-0.1-0.1-0.3-0.3-0.4-0.5c0.4-0.4,1.3-0.9,1.7-1.3C204.8,216.3,204.7,216.6,205,216.7"/>
				<path class="st2" d="M90.4,9.3c-0.5,0-1.8,0-2.3-0.3l-0.4-0.5c1,0,3.7-0.2,4.5,0.4l0.5,1.2
					C92.6,10.3,90.6,9.4,90.4,9.3"/>
				<path class="st2" d="M-37.9,31.6l0.4,0.4l0,0.3c-0.2,0.1-0.5,0.7-0.6,0.9c-0.2,0.1-0.3,0.4-0.3,0.6
					c-0.4,0.3-1,0.2-1.2-0.3c0,0-1-0.6-1-0.6l-0.2-0.5l0.2-0.5C-40.3,31.5-38.4,31.5-37.9,31.6"/>
				<path class="st2" d="M56,25.6c-0.2-0.6-1.6-1.7-2-2.1l0-0.1c0.9-0.1,2.1,0.2,2.8,0.6l0.4,0.6
					c-0.1,0-0.4,0-0.5,0l0.2,0.2c-0.4,0.1-0.9,0-1-0.5h-0.2c0.1,0.2,0.4,0.7,0.4,0.9L56,25.6"/>
				<path class="st2" d="M212.4,96c-1,0.6-2.5,1.9-3.7,1.5c0.8-0.4,1.9-1.6,2.8-1.8L212.4,96"/>
				<path class="st2" d="M2.4,262.6c0.2-0.1,0.6-0.2,0.8-0.2l0,0.1c-1.4,0.5-3,1.5-4.5,1.3l-0.1-0.2
					C-0.3,263.9,1.4,263,2.4,262.6"/>
				<path class="st2" d="M166.8,325.5c0.2,0.1,0.3,0.6,0.4,0.9c-0.1,0.5-0.6,1-1,1.2c-0.4,0.2-1.1,0.2-1.5,0.4
					C164.6,326.9,165.6,325.4,166.8,325.5"/>
				<path class="st2" d="M24.9,260.9l0.9-0.1l0.2,0.2l0.1,0.7l-0.5,0.7c-1.1,0.1-2.3-0.5-2.9-1.4
					C23.3,260.8,24.3,260.9,24.9,260.9"/>
				<path class="st2" 
					id="l-Saint-Barthélemy"
					data-x="145"
					data-y="37"
					d="M145,40c-0.5-0.3-1.1-1.1-1-1.7c0.1,0.2,2.5,0.5,2.7,0.5C146.4,39.4,145.8,40.1,145,40"
					/>
				<path class="st2" d="M160.9,327.1l0.2,0.1l0.2,0.4l-0.2,0.6l-0.5,0.2c-0.8-0.5-0.9-1.9-1-2.7l0.3-0.1
					C160.3,325.9,160.7,326.7,160.9,327.1"/>
				<path class="st2" d="M139.2,53l0.5,0.3l0.2,0.5c0.3,0.1,0.9,0.5,1.2,0.7L141,55l-0.4,0.3l-0.8-0.1
					C139.4,54.7,139.2,53.6,139.2,53"/>
				<path class="st2" d="M163.5,330.3c0.7,0.7,0.5,1.9,0.2,2.8l-0.5-0.1c-0.4-0.8-0.7-2-0.2-2.9l0.3,0
					L163.5,330.3"/>
				<path class="st2" d="M96.5,297.2l0.3,0.1l0.1,0.5c-0.4,0.4-1.2,0.6-1.7,0.5l-0.7-0.3l0.1-0.5
					C95.2,297.1,96,297.3,96.5,297.2"/>
				<path class="st2" d="M200.4,227.7c0.1,0.1,0.2,0.4,0.2,0.5c-0.1,0.1-0.3,0.4-0.4,0.5c0,0.2-0.2,0.4-0.3,0.5
					c-0.2,0-0.5,0-0.7-0.1l0.1-0.1l0.4-0.1l0.2-0.2c-0.1-0.2-0.1-0.5-0.1-0.7C199.9,227.9,200.2,227.7,200.4,227.7"/>
				<path class="st2" d="M3,259.2l0.6,0l0.2,0.1c-0.4,0.1-1.2,0.1-1.5,0.2c-0.7-0.1-1.6-0.3-2.3-0.3l0.1-0.1
					L3,259.2"/>
				<path class="st2" d="M81.9,22.7c0,0.2,0.1,0.6,0.1,0.8l-0.1,0.1l-0.1-0.3c-0.2-0.2-0.7-0.3-0.9-0.3l-0.1-0.1
					c0.3-0.1,0.6-0.1,0.9-0.2L81.9,22.7"/>
				<path class="st2" d="M130.4,48.6l0.3,0.2l0.2,0.5l-0.2,0.4l-0.3,0.1l-0.5-0.3l0.1-0.6L130.4,48.6"/>
				<path class="st2" d="M76.1,19.2c0.1,0.1,0.2,0.3,0.2,0.4L76,19.8c-0.4-0.1-1.2-0.2-1.6-0.2l0.2-0.3
					C75,19.3,75.7,19.1,76.1,19.2"/>
				<path class="st2" d="M195.9,232.3l0.4,0.3l0.1,0.3c-0.3,0.2-0.7,0.3-1.1,0.2l-0.1-0.2
					c0.1-0.1,0.2-0.2,0.2-0.3l-0.1-0.1l0-0.1l0.3-0.1L195.9,232.3"/>
				<path class="st2" d="M191.4,113.1c0,0,0,0.1,0.1,0.1c-0.2,0.2-0.7,0.5-1,0.6l-0.1-0.2
					c0.1-0.1,0.3-0.2,0.4-0.3l0.2-0.4l0.2-0.1L191.4,113.1L191.4,113.1"/>
				<path class="st2" d="M189.3,113.3c0.1,0.1,0.3,0.3,0.3,0.4l-0.1,0.3l-0.3,0.2l-0.4-0.2l0.1-0.5L189.3,113.3"
					/>
				<path class="st2" d="M-30.7,255c0.2,0,0.6,0.1,0.7,0.2c-0.4,0.1-1,0-1.3-0.2l0-0.2l0.1-0.1
					C-31,254.7-30.9,254.9-30.7,255"/>
				<path class="st2" d="M205,222.8l0.3-0.6l0.3,0.1c-0.1,0.2-0.3,0.8-0.5,0.9l-0.1,0L205,222.8"/>
				<path class="st2" d="M129.9,25.8l-0.3-0.1l0-0.2l0.3-0.2c0.1,0.1,0.5,0.2,0.6,0.1L129.9,25.8"/>
				<path class="st2" d="M83.2,17.7l0.1,0.1c0,0.3,0,0.7-0.1,0.9l-0.2,0.2L83,18.8c0.1-0.3-0.1-0.7,0-0.9
					L83.2,17.7"/>
				<path class="st2" d="M115.8,119.7l-0.1-0.2l0.1-0.1l0.2,0.1l0,0.2l-0.1,0.1L115.8,119.7"/>
				<path class="st2" d="M123.5,14.1l0-0.3l0.2,0L123.5,14.1"/>
				<path class="st2" d="M-31.4,252.6L-31.4,252.6l0,0.2C-31.4,252.8-31.4,252.7-31.4,252.6"/>
				<path class="st2" d="M-31.5,253.6L-31.5,253.6l0-0.1L-31.5,253.6"/>
				<path class="st2" d="M-31.5,252.1L-31.5,252.1l-0.1,0L-31.5,252.1"/>
				<path class="st2" d="M-31.8,252.1l-0.1-0.1L-31.8,252.1L-31.8,252.1"/>
				<path class="st2" d="M-31.4,253.5L-31.4,253.5L-31.4,253.5L-31.4,253.5L-31.4,253.5"/>
				<path class="st2" d="M213.8,370.1c0.6-0.1,2-0.2,2.5-0.5c0.2-0.3,0.6-0.8,0.8-1.1c0.7,0,2.4,0,3,0
					c0.4-0.3,1.2-0.7,1.7-0.8l0.2,0.5l-0.3,0.4l0.2,0.3l0.5,0.2c0.1,0.2,0.2,0.8,0.2,1.1c0.3,0.2,0.7,0.9,0.9,1.3
					c-0.6,0.5-1.5,1.1-2.3,1.1c-0.8,0.5-1.3,1.7-1.9,2.4c-0.2,0.9-1,1.6-1.7,2c-0.7,0.1-2,0.1-2.7-0.1c-0.4,0.1-1.3,0.3-1.8,0.4
					c-1.3-0.6-3.2-0.4-4.6-0.2c-0.9,0.4-1.7,1.5-2.8,1.4l-0.3-0.3c0.2-1.1,0.3-2.4,0.4-3.5C207.3,371.9,210.8,370.5,213.8,370.1"/>
				<path class="st2" d="M138.9,25.8c0.3,0,1-0.2,1.3-0.1c-0.1,0.6-0.8,1.7-1.4,2c-0.7,0-2.6,1.3-3.2,1.6
					c-0.1-0.2-0.4-0.3-0.5-0.5c-0.5,0.4-1.3,0.9-2,0.7c0.2-0.2,1-1.2,1.2-1.3c0.5-0.2,1.3-0.2,1.8-0.5c0.3-0.3,0.9-1,1.1-1.3
					C137.4,26,138.3,25.8,138.9,25.8"/>
				<path class="st2" d="M70.9,24.3l-0.3,0.4c-0.3-0.1-1.3-0.4-1.6-0.7l-0.3-0.6l-0.2,0.3l-0.3-0.2
					c-0.3,0.1-1,0.2-1.4,0l-0.4-0.5l-1.2,0.3l-0.6-0.5c0.9-0.6,2.3-0.9,3.3-0.7l0.5,0.4l0.3-0.1c-0.2-0.2-0.7-0.5-0.9-0.7
					c0.5,0.1,1.7,0.7,2.1,1c0.6,0.3,1.6,0.9,1.9,1.5c-0.2,0.1-0.6,0.1-0.7,0L70.9,24.3"/>
				<path class="st2" 
					id="l-Saint-Martin"
					data-x="135.527" 
					data-y="30.727"
					d="M138.5,31.3c-0.1,0.9,0.4,2.1,0.3,3c-0.2,0.2-0.6,0.6-0.7,0.8c-0.6-0.2-2.9-0.5-3.2-1.2
					l0.4-0.3c0-0.1,0-0.2,0-0.3c-0.3,0-0.7,0.2-1,0.3l-0.3-0.2l-0.1-0.2l0.1-0.1c0.7,0,1.7,0,2.2-0.5l0.2-0.6
					C136.8,31.5,137.8,31.3,138.5,31.3"/>
				<path class="st2" d="M79.5,21c-0.1,0.3-0.6,0.7-0.9,0.8c-0.6,0-1.4-0.1-2-0.1l0.5-0.4l0.7-0.1
					c0.3-0.4,0.7-1,0.8-1.5l0.7-0.4c0.3,0.2,1,0.1,1.4,0c0.3,0.2,1.3,0,1.6-0.1c0,0,1.2,0.2,1.2,0.2l0.4,0.4l-0.1,0.2
					c-0.3,0-0.8-0.2-1-0.2c-0.5,0.1-0.7,0.8-1.3,0.9c-0.4,0-0.7-0.3-1.1-0.2l0,0.1c-0.1,0.2-0.5,0.4-0.6,0.5L79.5,21"/>
				<path class="st2" d="M170.2,81.5c0,0.2-0.1,0.6-0.2,0.7c0.2,0.6,0.7,1,0.1,1.6c-0.4,0.5-2-0.2-2.5-0.3
					c-0.8-1.4,0-3.4,0.6-4.8c0.3,0.1,0.7,0.3,1,0.2l-0.2,0.7C169.3,80.3,169.9,80.9,170.2,81.5"/>
				<path class="st2" d="M77.1,23.2l-0.3,0.1l0.4,0.5L77,24.7l-1.2-0.6L74,24.3l-0.5-0.5L74,23
					c0.3-0.1,0.9-0.4,1.3-0.4l-0.2-0.3l0.3-0.2c0.9,0.3,2.2,0.4,3,1l0.2,0.4C78.2,23.6,77.4,23.4,77.1,23.2"/>
				<path class="st2" d="M153.7,64.8c0.7-0.1,1.5,0.1,1.9,0.7c0.4,0.8,0.6,2.1,0,2.9c-0.4,0.2-1.9,0.1-2.4,0
					l-0.5-1.3l0.3-1.5L153.7,64.8"/>
				<path class="st2" d="M88.8,18.2c-0.5,0.6-1.4,1.3-2.3,1.4c0.3-0.3,1.1-1.3,1.2-1.8l-0.1-0.8
					c0.2,0,0.3,0.1,0.5,0.2c0.6,0,2.3,0,2.8-0.2l-0.3,0.5C90,17.9,89.3,18.2,88.8,18.2"/>
				<path class="st2" d="M108.3,286c0,0.8,0.7,1.9,0.8,2.7c0.4,0.6,1.4,2.4,1.4,3.1l-1.2-0.2c0,0.3,0,0.7,0,1
					c-0.2-0.1-0.6-0.5-0.9-0.5c-0.2,0.3-0.8,0.9-1,1.1c0,0-1,1.9-1,1.9l-2.1-0.3c-1,0.1-3,0.8-3.8,1.3l0.1-1.1
					c-0.3-0.1-1.1-0.2-1.4-0.1l-0.7-1.4c-0.6-0.5-1.6-0.9-2.2-1.4c-0.4,0.4-1.2,1-1.8,1c-0.2-0.1-2.9-0.2-3-0.5
					c-0.3-0.1-1.1,0-1.5-0.1c-0.5-0.1-1.8-0.5-2.2-0.5c0.4-0.8,1.2-2.3,1.1-3.1l0.3-0.3c0.5-0.1,1.3,0,1.7-0.1
					c0.4-0.1,0.7-0.6,1.1-0.7l0.7,0.3c0.7-0.4,1.8-0.7,2.7-0.4l0.3,0.5c0,0.5,0,1.1,0.3,1.4c0.7,0.1,2,0.8,2.6,1.2
					c0.8,0.2,2.1,0.5,2.9,0.2l0.5-0.7c0.1-0.3,0-1.2,0-1.5c0.2-0.4,0.7-0.7,1-1c0.2-0.3,0.1-0.7,0.2-0.9c0.3-0.5,1-0.5,1.5-0.5
					c1-0.2,1.5-1.6,2.3-2.1l0.1,0.7C107.4,285.4,108.1,285.5,108.3,286"/>
				<path 
					 
					class="st2" 
					id="l-Martinique" 
					data-x="210.4395" 
					data-y="156.0462"
					d="M218.9,164.7l-0.4,0.2c-0.3,1-1,2.3-2.2,1.6l-0.2-0.5l0.2-0.4c0.2,0,0.6-0.2,0.8-0.3
					l0-0.6l-0.4-0.5c-0.3,0.1-0.8,0.4-1.1,0.6l-0.6,0l0-0.4c-0.2-0.1-1.1,0.1-1.2,0.1c0,0-2.1-0.3-2.1-0.3c-0.6,0-1.4,0.5-2,0.5
					c-0.3,0-0.9-1.1-1.1-1.3c0-0.1,0-0.3,0-0.4c-0.1-0.1-0.4-0.2-0.5-0.3l1-1c0.3-0.1,1.1-0.5,1.3-0.7l0.4,0.6l0.6,0.2l0.5-0.2
					l0.3-0.5c-0.3-0.5-0.8-1.1-0.7-1.7c-0.8,0.3-1.9,0.3-2.7,0.2c-0.2-0.2-0.3-0.6-0.5-0.7c-0.7-0.5-2-1.2-2.2-2.1
					c0-0.4-0.4-0.7-0.5-1c0.9-1.5-1.1-2.3-1.6-3.5c-0.5-1.3,1.1-2,2-2.5c0.7-0.1,1.9,0.1,2.5,0.4c0.9,0.7,2.6,1.4,3.6,2
					c0.2,0.2,0.2,0.6,0.4,0.9l0.4,0.1l0.6,1.3c0.8-0.7,2-1.1,3-1c-0.2,0.2-0.5,0.3-0.6,0.5l0.1,0.2l-0.8,0.8l-0.4-0.7l-0.3,0.2
					c-0.1,0.4-0.1,1.1,0,1.5c0.3-0.2,0.8-0.1,1,0.2l-1,0.5l0.3,0.3l-0.4,0.2l0.1,0.3l0.3,0.1l0.3-0.4l1.2,0.5c-0.3,0-0.5,0.2-0.7,0.2
					c0.1,0.6,0.7,1,1.2,1.2c0.1,0.2,0.1,0.5,0.3,0.7c0.2,0,0.5,0.1,0.6,0.2c0.2,0.2,0.2,0.6,0.1,0.9l0.5-0.3c-0.2,0.6-0.2,1.3,0.3,1.8
					c-0.2,0.1-0.4,0.3-0.5,0.5l0.5,0.2c0.1,0.3,0.3,0.8,0.3,1.1C218.8,164.2,219,164.5,218.9,164.7"/>
				<path class="st2" d="M192.2,98.2c0.1-0.4,0.6-2.1,0.9-2.3l0.7-0.2c0.2-0.3,0.2-0.7,0.1-1
					c-0.2-0.3-0.7-0.4-1-0.5c0-0.5-0.4-1.5-0.4-2c0.2-0.4,0.8-1,1-1.4c0.3-0.3,1.3-0.7,1.6-1c1.6,0.9,2.9,2.2,2.4,4.2
					c0.1,1.1,1.1,2,2.1,2.4l0.3-0.3c0.4,0.3,1,0.1,1.5,0.3c0.5,0.3,1.1,1,1.7,1.2c0.4,0.3,2.1,1.6,2.7,1.5l0.2,0.2l-0.4,0.3
					c-0.7,0-1.5-0.4-2.2-0.5c-1.5,0.3-7,1.6-8.3,2C193.7,101.1,191.4,100,192.2,98.2"/>
				<path  
					class="st2" 
					id="l-Guadeloupe"
					data-x="191.71" 
					data-y="96.11"
					d="M191.9,98.2l0.1,0.2l-0.2,0.8l0.3,0.7c-0.2,0.1-0.7,0.2-0.9,0.2l-0.2,0.4
					c0,0.8,0.2,2.3,0.5,3c0.2,1,0.2,2.9-0.1,3.9c-0.9,1.5-3.1,2.5-4.7,3.1c0-0.1-0.2-0.6-0.3-0.7l0.3-0.2c-0.2-0.6-0.9-0.9-1.4-1.4
					c-0.3-0.3-0.4-0.8-0.5-1.2l-0.3-0.2c-0.8-1.5-0.1-4-1-5.5l0.2-0.5c-0.1-0.4-0.5-0.8-0.7-1.2c-0.1-0.6,0.3-1.6,0-2.2
					c0.3-0.1,0.8-1.1,1-1.3c0.2-0.3,0.8-0.6,1.2-0.6c0.4,0.1,0.6,0.6,0.9,0.7c1.4,0.3,3.3,0.8,4.1,2l-0.5,0.2c0,0,0.3,0.1,0.4,0.2l0,0
					l0.2-0.1c0.1,0.1,0.4,0.4,0.5,0.5c0.1-0.4,0.5-0.8,1-0.7L191.9,98.2"/>
				<path class="st2" d="M198.8,137.7l-0.4-0.1c-0.1-0.2,0-1,0-1.2c0-0.1,0-1.2,0-1.2c-0.1-0.3-0.5-0.7-0.7-0.9
					c-0.1-0.6-0.1-1.4-0.3-2c-0.1-0.2-0.6-1.1-0.6-1.3c0-0.2-0.1-0.8-0.2-1c-0.2-0.2-1-0.8-1-1.1c0-0.6-0.4-1-0.9-1.3
					c-0.1-0.3-0.1-1-0.1-1.3c-0.1-0.2-0.4-0.4-0.5-0.7l0-0.3c0.2-0.4,0.9-0.6,1-1c-0.3,0-0.7-0.2-1-0.2c0.3-0.2,0.6-1.6,0.7-2
					c0.7,0,1.5,0,2,0.5c0.2,0.3,0.7,1,1.1,1.1c0.2-0.1,0.7-0.4,1-0.4l1.8,0.7c0.2,0.9,0.9,1.8,1.4,2.5c0.5,1,0.6,2.6,0.2,3.7
					c0.2,0,0.3,0.2,0.5,0.2c-0.3,1.3-0.1,2.9-0.3,4.2c-0.2,0.3-0.7,1.5-1.2,1.5c-0.1,0-0.4,0-0.5,0c-0.1,0-0.4-0.1-0.5,0
					c-0.2,0.1-0.3,0.5-0.4,0.6l-0.5,0.2c-0.1,0.2-0.2,0.4-0.3,0.5L198.8,137.7"/>
				<path class="st2" d="M43.3,25.6L43.1,26c0.1,0.1,0.4,0.3,0.6,0.4l0.5-0.2l-0.1,0.3c0,0.2,0.4,0.7,0.5,0.8
					l-0.4,0.3l-0.1,0.3l-0.3,0l-0.4-0.5l-0.4,0L43,27.8l0.4,0.5L43,28.5c-0.3,0-0.8-0.2-1-0.4c-0.8,0.3-2,0.7-2.6,0.9
					c-0.8,0.7-2.1,2.3-2,3.5c-0.1,0.1-0.5,0.7-0.7,0.7c0,0-0.8,0.2-0.8,0.2l-0.2,0.2l0.4,1.1c-1.2,1.1-3.2,2.1-4.8,2
					c-0.6-0.1-1.4-0.3-2-0.1c-0.2,0.1-1.1,0.5-1.3,0.4c-0.5,0-1.4,0-1.9,0.2c-0.3,0.1-2.3,1.3-2.6,1.1c-0.3,0-0.8,0-1,0.2
					c-0.1-0.1-0.2-0.3-0.2-0.5l0.4-0.1l0.1-0.2c-0.1-0.2-0.3-0.4-0.5-0.5C21.9,37.5,21.3,38,21,38c-0.5-0.2-1.4-0.2-1.9-0.3
					c-0.8-1.6-2.6-0.9-3.8-0.1c-1.2,0.1-1.7-1.2-2.7-1.7c-1.1,0.2-2.2,0.6-3.3,0.6c-0.4,0.2-0.8,0.5-1.2,0.5l-0.6-0.3
					c-0.1,0.1-0.4,0.2-0.5,0.3l-0.2-0.4c-0.4-0.1-1.7,0.1-2.1,0.1c-0.2,0-1.2-0.4-1.4-0.5c0,0-1.5,0-1.5,0l0-0.5l-0.3-0.2
					c-0.3,0-0.7,0.2-1,0.4v0.3h0.5c-1.1,1.6-3.4,1.2-5,1.3l-0.1,0.1c-0.1,0.1-0.1,0.4-0.1,0.6c-0.8,0.1-1.5-0.7-2-1.3
					c-0.4,0-1.2-0.1-1.6-0.2c-0.3,0-1.1,0-1.4-0.1c-0.5,0.5-1.3,1-2.1,0.8c-0.6,0-1.6-0.2-2.1-0.5l-0.4,0.3l0.3,0.8l-0.4,0
					c-0.2-0.2-0.6-0.9-0.7-1.1c0,0,0-1,0-1c0.5-0.2,1.2-0.5,1.7-0.8l0.1-0.3c-0.1-0.2-0.4-0.3-0.5-0.4l-0.5,0.1l-0.5-0.2l0-0.7
					c0.1-0.2,0.4-0.5,0.6-0.6c-0.1-0.2-0.2-0.7-0.3-1l0.4-0.4c-0.1-0.7,0.1-1.9,0.3-2.5c0.3-0.3,0.7-0.6,0.8-1
					c-0.1-0.3-0.5-0.6-0.7-0.8c-0.2-0.5-0.6-2-0.9-2.4c-0.4-0.1-1.1-0.2-1.5-0.3c-0.3-0.7-1-1.6-1.2-2.3l0.1-0.3
					c1.4-0.3,2.9-0.9,4-1.9l0-0.8c-0.3-0.3-0.5-1.1-0.4-1.6l0.7-0.8c1.5-0.6,3.7-0.8,5.1,0.1c0,0,3.8,0.7,3.8,0.7l3.8-0.5
					c0.4,0,1.5,0.4,1.9,0.5c1.5,0,3.5-0.7,5-0.3c0.4,0.2,1.2,0.4,1.6,0.2c0.9,0,2.9,0,3.8,0.4c0,0,3.1-0.6,3.1-0.6l2.9,0.8l1.7-0.5
					l1.9,0.6l0.4-0.3l0.5,0.1c0.1,0.1,0.3,0.4,0.4,0.5l0.3,0.1c0.2-0.1,0.5-0.4,0.6-0.6l0.4,0.1l-0.1,0.5l0.7,0.4
					c0,0.2,0.2,0.6,0.4,0.8c0.4,0.1,1.4-0.2,1.8-0.3v-0.3c-0.9,0-1.7-0.7-2.2-1.3c1,0.3,3,0.9,4,1.1l0.5-0.2l0.3-0.5
					c0.5,0.1,2,0.5,2.5,0.6l0.6-0.4c0.3,0,0.7,0.2,0.9,0.4c0.9,0.1,2,0.5,2.5,1.3c0.2-0.1,0.6-0.3,0.7-0.5l0.2,0.1l0,0.2
					c-0.1,0.1-0.3,0.3-0.3,0.5c0.3,0,0.7-0.2,0.9-0.3c0.2,0.4,0.8,1.1,1.2,1.2l0.5-0.3l1,0.7l1.3,0.2c0.4-0.2,0.9-0.7,1.2-0.9l0.3,0.1
					C43.5,22.7,42.8,24.5,43.3,25.6"/>
				<path class="st2" d="M211.9,301.9l-0.7-0.1c-1.5,1.8,0.1,4.2,0.3,6.1l-1.1,0.9c0,1.2,0.3,3,0.7,4.2
					c0.3,0.9,1.4,1.9,2.3,2.4c-2,1.5-1.6,4.8-1.3,7c-1.1-0.5-2.3,0.4-3.1,1.1c-0.7,0.6-2.2,0.9-3.1,1.1c-0.6,0.2-2.5-0.2-3.1-0.3
					c-0.5,0-2.6,0.4-3.1,0.5c-1.5-0.3-4.5-0.2-6,0c-0.3,0-1.6-0.3-1.8-0.2c-0.3,0.1-1.2,0.5-1.4,0.5c-0.5,0.1-1.1,0.3-1.6,0.1
					c-0.6-0.3-1.1-0.8-1.8-0.9c-1.4-0.1-4.2-0.4-5.4,0.3c-0.7,0.6-1.7,1.2-2.6,1.1l-0.8-0.5c0.2-0.6,1.3-0.9,1.7-1.2
					c0.3-0.1,1.3-0.3,1.6-0.3c0.5-0.6,1-1.3,1.8-1.5c1.7-0.5,4.3-1.1,5.5-2.5l0-1.1c0.6-0.5,2.2,0,2.9,0.1c0.1,0,1.4-0.1,1.5-0.1
					c1.1,0,2.1-1.2,2.2-2.3c-0.1-0.7-0.3-1.4-0.5-2.1c-0.1-0.1-0.4-0.3-0.4-0.4l0-0.2c0,0,0.2-0.1,0.2-0.1l0.1-0.1
					c-0.1-0.9-0.7-1.6-0.3-2.5c1-1.9,1.2-4.8-0.5-6.4l0.3-0.2c-0.9-0.7-2.2-1.4-3.2-1.8c-0.6-0.2-2.2-0.2-2.9-0.4
					c-0.1-0.1-0.3-0.5-0.4-0.6c0.4-0.2,2-1.4,2.4-1.5c0,0,1.5,0.1,1.5,0.1c0.6-0.2,2-0.5,2.6-0.4c0.5,0,0.8-0.5,1.1-0.7l0.2,0.4h0.3
					c0-0.1,0-0.4,0-0.5h0.2c0,0.2,0.2,0.3,0.3,0.5l-0.3,0.3c0.3,0,0.6-0.3,0.7-0.5c0,0,0.8,0,0.8,0c0.4-0.3,0.9-1,1.2-1.3
					c1.6,0,5.1,0.3,6.8,0.2c0.2-0.1,0.7-0.5,0.9-0.7c0,0,2.1-0.3,2.1-0.3c1.4-0.5,5.5-1,6.9-0.5C214.7,298.2,213,300.8,211.9,301.9"/>
				<path class="st2" d="M301.9,442.1c0.5-0.3,1.1-0.9,1.7-0.9l0.1,0.3c-0.8,1.1-1.6,2.7-2.4,3.8
					c-0.1,0.5-0.3,1.4-0.5,1.8l-0.3-0.2c-0.1-0.4,0.1-1.2,0.2-1.6C300.7,444.3,301.3,442.9,301.9,442.1"/>
				<path class="st2" d="M305.1,435.9l0.5,0c0.2,0.2,0.7,0.5,0.9,0.7c-0.4,0.6-1.3,0.8-1.7,1.5
					c-0.5,0.6-0.7,1.7-1.2,2.3l-0.4,0C303.4,438.8,304.6,437.4,305.1,435.9"/>
				<path class="st2" d="M37.7,318.3c0.2,0.1,0.6,0.4,0.8,0.6l0,0.3l-0.2,0.1l-0.1-0.2c-0.4-0.1-0.8-0.2-1-0.5
					l-1.1-0.1l-0.6-0.5l0-0.2C35.9,317.4,37.2,318.1,37.7,318.3"/>
				<path class="st2" d="M352.5,480.1c0.2,0.8-0.1,1.7-0.4,2.5c0.2,0.4,0.1,1.1,0.3,1.5l-0.1,0.2l-0.2-0.1
					c-0.2-0.5-0.5-1.2-0.7-1.7c0.1-0.3,0.3-0.9,0.5-1.1C352.1,481,352.3,480.5,352.5,480.1"/>
				<path class="st2" d="M26,259.1l0.4,0.2c0.1,0.2,0,0.6-0.1,0.8l-0.5,0.5l-0.5,0.1c0.1-0.1,0.3-0.3,0.5-0.3
					l0-0.1c0.1,0,0.2-0.1,0.3-0.2C26.2,259.8,26.1,259.3,26,259.1"/>
				<path class="st2" d="M135,277.3l0.3,0.2c0,0.1,0,0.2,0,0.2c-0.2,0-1.1-0.8-1.2-0.9l0-0.2
					c0.1,0,0.2,0.1,0.3,0.1c0.1-0.1,0.4-0.1,0.6-0.1c0.1,0.1,0,0.3,0,0.5L135,277.3"/>
				<path class="st2" d="M75.3,316.2l0.4-0.1l0.3,0.2c0,0.3-0.2,0.9-0.4,1.1c-0.2-0.1-0.6-0.3-0.8-0.5l0-0.2
					C75.1,316.6,75.3,316.3,75.3,316.2"/>
				<path class="st2" d="M140.6,25.2l0.3-0.1l0.1-0.2c0.2,0,0.6,0.1,0.8,0.3c-0.1,0.1-0.5,0.2-0.7,0.2
					c0,0.1-0.3,0.3-0.4,0.3l-0.1-0.1l0.1-0.2L140.6,25.2"/>
				<path class="st2" d="M184.6,302.4l-0.1,0l-0.1,0.1l0.1,0.1l0.2,0.1l-0.1,0.1c-0.1,0-0.4,0-0.5,0
					c0-0.3,0-0.7,0.3-0.9l0.3,0l0.3,0.3l-0.1,0.1C184.9,302.5,184.7,302.4,184.6,302.4"/>
				<path class="st2" d="M186.6,301.9c0.1-0.1,0.4-0.1,0.5-0.1l0.1,0.1c0,0.1,0,0.3,0,0.4l-0.3,0.1l0,0.1
					l-0.1,0.1c-0.1,0-0.4,0-0.4-0.1L186.6,301.9"/>
				<path class="st2" d="M87.6,313.6l0,0.4c-0.1,0.1-0.5,0.3-0.6,0.3c-0.1-0.1-0.3-0.3-0.3-0.4
					c0.1-0.1,0.3-0.4,0.5-0.4l0.3,0L87.6,313.6"/>
				<path class="st2" d="M190.6,243l0.3,0.1l-0.2,0.2l0.1,0.2l-0.2,0.4c-0.1-0.1-0.3-0.2-0.4-0.3
					c0.1-0.2,0.3-0.4,0.3-0.6L190.6,243"/>
				<path class="st2" d="M68.1,23.7l0.2,0.1l0,0.2l-0.2,0.1l-0.1,0c-0.1,0.1-0.3,0.4-0.4,0.5l-0.1-0.1
					C67.6,24.2,67.9,23.9,68.1,23.7"/>
				<path class="st2" d="M6.5,258.1c0.1,0.1,0.3,0.3,0.4,0.4l-0.1,0.1l-0.2-0.2l-0.1,0c0,0-0.1-0.1-0.2-0.2
					c-0.1,0-0.2-0.1-0.3-0.1l0.1-0.1L6.5,258.1"/>
				<path class="st2" d="M197.8,231.4c-0.1,0.1-0.3,0.2-0.3,0.3c0-0.1-0.1-0.3-0.1-0.4c0.1-0.1,0.2-0.3,0.2-0.4
					l0.1,0l0-0.1c0.1,0,0.3,0.2,0.3,0.2L197.8,231.4"/>
				<path class="st2" d="M4.6,255.8l0.6,0.1l0.2,0.3l-0.1,0.1c-0.2-0.1-0.7-0.3-0.8-0.4L4.6,255.8"/>
				<path class="st2" d="M68.9,321.7c0.1,0.1,0.4,0.2,0.5,0.3c-0.4,0.2-0.8,0-0.9-0.4L68.9,321.7"/>
				<path class="st2" d="M69.5,20.9l0.3,0.2l0,0.4l-0.1,0.1c-0.2-0.2-0.2-0.5-0.4-0.7L69.5,20.9"/>
				<path class="st2" d="M7.3,259.6l0.2-0.4l0.3,0.5l-0.2,0.3L7.3,259.6"/>
				<path class="st2" d="M82.7,317.3c0.1,0.1,0.2,0.3,0.3,0.3c0,0.1-0.2,0.3-0.3,0.4l-0.3-0.2
					c0-0.1,0.1-0.2,0.1-0.3l-0.1-0.1L82.7,317.3"/>
				<path class="st2" d="M0.9,258.5l-0.2-0.2l0-0.1c0.3,0.2,0.8,0.2,1.1,0.3c-0.2,0.1-0.5,0-0.7,0
					C1,258.5,0.9,258.5,0.9,258.5L0.9,258.5"/>
				<path class="st2" d="M206.7,219.8c0.1,0.1,0.2,0.3,0.2,0.4l-0.3,0.1c0-0.1-0.1-0.5-0.2-0.6l0.2-0.1
					L206.7,219.8L206.7,219.8"/>
				<path class="st2" d="M8.1,260.9l0.1,0l0.1,0.3l-0.2,0.5l-0.2-0.3L8.1,260.9"/>
				<path class="st2" d="M190.7,95.9l-0.2,0.2l-0.1-0.2l0.2-0.2l0.2-0.1c0.1,0,0.2,0.1,0.3,0.2L190.7,95.9"/>
				<path class="st2" d="M112.3,283.5l0.1,0.1l0,0.4l-0.4-0.4l0.2-0.2L112.3,283.5"/>
				<path class="st2" d="M197.6,235.8l-0.1-0.2l0.5-0.1l-0.2,0.4C197.8,235.9,197.6,235.8,197.6,235.8"/>
				<path class="st2" d="M4.8,258.8c0,0,0.1,0.3,0.1,0.4l-0.2,0.2c0-0.1-0.1-0.3-0.1-0.4l0-0.2L4.8,258.8"/>
				<path class="st2" d="M207.8,102.4l-0.1,0l-0.3-0.2c0.2,0,0.5,0,0.8,0l-0.1,0.2L207.8,102.4"/>
				<path class="st2" d="M135.8,277l0.3-0.1l0.1,0.2l-0.2,0.2L135.8,277"/>
				<path class="st2" d="M-4.6,260.8l0.3-0.1l0.2,0.1H-4.6l-0.1,0l0-0.2L-4.6,260.8"/>
				<path class="st2" d="M206.9,219.5l0.2-0.2l0.1,0.3l-0.2,0.2L206.9,219.5"/>
				<path class="st2" d="M-22.6,256.3c0.1,0,0.4,0,0.6-0.1l-0.1,0.1l-0.3,0.1L-22.6,256.3"/>
				<path class="st2" d="M134,277.8l0.1-0.3l0.2,0.3H134"/>
				<path class="st2" d="M-24.1,255.4l0.2,0.1l0.1-0.1l0,0.1l-0.3,0.1l-0.1-0.2L-24.1,255.4"/>
				<path class="st2" d="M-1.5,258l0.3,0.3L-1.5,258L-1.5,258"/>
				<path class="st2" d="M132.4,26l0.2,0.1C132.5,26.1,132.4,26.1,132.4,26c-0.1,0.1-0.2,0-0.3,0
					C132.2,25.9,132.3,26,132.4,26"/>
				<path class="st2" d="M163,74.4L163,74.4L163,74.4c0.1,0,0.1,0.2,0,0.2l-0.1,0l0-0.1
					C162.9,74.6,162.9,74.4,163,74.4"/>
				<path class="st2" d="M3.5,259.6l0.2-0.2l0,0L3.5,259.6L3.5,259.6"/>
				<path class="st2" d="M190.5,114.5l0-0.1l0.2,0.1l0,0.1L190.5,114.5"/>
				<path class="st2" d="M190.5,113l0.1,0.1l-0.2,0l-0.1-0.1L190.5,113"/>
				<path class="st2" d="M132.8,26.1L132.8,26.1l0.1,0l0.1,0l0,0.1C132.9,26.2,132.8,26.2,132.8,26.1L132.8,26.1
					"/>
				<path class="st2" d="M137.4,275.9l0.1-0.2l0,0.2L137.4,275.9"/>
				<path class="st2" d="M3.3,259.7l0-0.1l0.2,0L3.3,259.7"/>
				<path class="st2" d="M136.8,277.6l0-0.2l0.1,0L136.8,277.6"/>
				<path class="st2" d="M-22.8,256.4L-22.8,256.4h0.2H-22.8"/>
				<path class="st2" d="M134.1,278.1l0.1,0l0,0.1l0,0h-0.1L134.1,278.1"/>
				<path class="st2" d="M134.4,277.8l0-0.2L134.4,277.8L134.4,277.8"/>
				<path class="st2" d="M189.9,114.5L189.9,114.5l0.2,0.1L189.9,114.5L189.9,114.5"/>
				<path class="st2" d="M134,276.5L134,276.5L134,276.5L134,276.5L134,276.5L134,276.5L134,276.5L134,276.5
					L134,276.5"/>
				<path class="st2" d="M135.7,276.6L135.7,276.6L135.7,276.6L135.7,276.6L135.7,276.6L135.7,276.6L135.7,276.6
					L135.7,276.6L135.7,276.6"/>
				<path class="st2" d="M134.6,277.4L134.6,277.4L134.6,277.4L134.6,277.4L134.6,277.4L134.6,277.4"/>
				<path class="st2" d="M134.9,276.5L134.9,276.5l-0.1,0L134.9,276.5L134.9,276.5L134.9,276.5"/>
				<path class="st2" d="M208.2,102L208.2,102L208.2,102L208.2,102"/>
				<path class="st2" d="M-22.8,255.9L-22.8,255.9L-22.8,255.9L-22.8,255.9L-22.8,255.9"/>
				<path class="st2" d="M135.7,276.8L135.7,276.8L135.7,276.8L135.7,276.8"/>
				<path class="st2" d="M-23.4,255.6L-23.4,255.6L-23.4,255.6L-23.4,255.6"/>
			</g>
			<g transform="matrix(0.999751,0,0,0.999751,-3.35606e-13,-1.94317)">
				<path class="st2" d="M352.5,480.1c0.2,0.8-0.1,1.7-0.4,2.5c0.2,0.4,0.1,1.1,0.3,1.5l-0.1,0.2l-0.2-0.1
					c-0.2-0.5-0.5-1.2-0.7-1.7c0.1-0.3,0.3-0.9,0.5-1.1C352.1,481,352.3,480.5,352.5,480.1"/>
				<path class="st2" d="M301.9,442.1c0.5-0.3,1.1-0.9,1.7-0.9l0.1,0.3c-0.8,1.1-1.6,2.7-2.4,3.8
					c-0.1,0.5-0.3,1.4-0.5,1.8l-0.3-0.2c-0.1-0.4,0.1-1.2,0.2-1.6C300.7,444.3,301.3,442.9,301.9,442.1"/>
				<path class="st2" d="M305.1,435.9l0.5,0c0.2,0.2,0.7,0.5,0.9,0.7c-0.4,0.6-1.3,0.8-1.7,1.5
					c-0.5,0.6-0.7,1.7-1.2,2.3l-0.4,0C303.4,438.8,304.6,437.4,305.1,435.9"/>
				<path class="st2" d="M68.9,321.7c0.1,0.1,0.4,0.2,0.5,0.3c-0.4,0.2-0.8,0-0.9-0.4L68.9,321.7"/>
				<path class="st2" d="M37.7,318.3c0.2,0.1,0.6,0.4,0.8,0.6l0,0.3l-0.2,0.1l-0.1-0.2c-0.4-0.1-0.8-0.2-1-0.5
					l-1.1-0.1l-0.6-0.5l0-0.2C35.9,317.4,37.2,318.1,37.7,318.3"/>
				<path class="st2" d="M82.7,317.3c0.1,0.1,0.2,0.3,0.3,0.3c0,0.1-0.2,0.3-0.3,0.4l-0.3-0.2
					c0-0.1,0.1-0.2,0.1-0.3l-0.1-0.1L82.7,317.3"/>
				<path class="st2" d="M75.3,316.2l0.4-0.1l0.3,0.2c0,0.3-0.2,0.9-0.4,1.1c-0.2-0.1-0.6-0.3-0.8-0.5l0-0.2
					C75.1,316.6,75.3,316.3,75.3,316.2"/>
				<path class="st2" d="M87.6,313.6l0,0.4c-0.1,0.1-0.5,0.3-0.6,0.3c-0.1-0.1-0.3-0.3-0.3-0.4
					c0.1-0.1,0.3-0.4,0.5-0.4l0.3,0L87.6,313.6"/>
				<path class="st2" d="M184.6,302.4l-0.1,0l-0.1,0.1l0.1,0.1l0.2,0.1l-0.1,0.1c-0.1,0-0.4,0-0.5,0
					c0-0.3,0-0.7,0.3-0.9l0.3,0l0.3,0.3l-0.1,0.1C184.9,302.5,184.7,302.4,184.6,302.4"/>
				<path class="st2" d="M186.6,301.9c0.1-0.1,0.4-0.1,0.5-0.1l0.1,0.1c0,0.1,0,0.3,0,0.4l-0.3,0.1l0,0.1
					l-0.1,0.1c-0.1,0-0.4,0-0.4-0.1L186.6,301.9"/>
				<path class="st2" d="M112.3,283.5l0.1,0.1l0,0.4l-0.4-0.4l0.2-0.2L112.3,283.5"/>
				<path class="st2" d="M134.1,278.1l0.1,0l0,0.1l0,0h-0.1L134.1,278.1"/>
				<path class="st2" d="M134.4,277.8l0-0.2L134.4,277.8L134.4,277.8"/>
				<path class="st2" d="M134,277.8l0.1-0.3l0.2,0.3H134"/>
				<path class="st2" d="M136.8,277.6l0-0.2l0.1,0L136.8,277.6"/>
				<path class="st2" d="M134.6,277.4L134.6,277.4L134.6,277.4L134.6,277.4L134.6,277.4L134.6,277.4"/>
				<path class="st2" d="M135.8,277l0.3-0.1l0.1,0.2l-0.2,0.2L135.8,277"/>
				<path class="st2" d="M135.7,276.8L135.7,276.8L135.7,276.8L135.7,276.8"/>
				<path class="st2" d="M135.7,276.6L135.7,276.6L135.7,276.6L135.7,276.6L135.7,276.6L135.7,276.6L135.7,276.6
					L135.7,276.6L135.7,276.6"/>
				<path class="st2" d="M135,277.3l0.3,0.2c0,0.1,0,0.2,0,0.2c-0.2,0-1.1-0.8-1.2-0.9l0-0.2
					c0.1,0,0.2,0.1,0.3,0.1c0.1-0.1,0.4-0.1,0.6-0.1c0.1,0.1,0,0.3,0,0.5L135,277.3"/>
				<path class="st2" d="M134,276.5L134,276.5L134,276.5L134,276.5L134,276.5L134,276.5L134,276.5L134,276.5
					L134,276.5"/>
				<path class="st2" d="M134.9,276.5L134.9,276.5l-0.1,0L134.9,276.5L134.9,276.5L134.9,276.5"/>
				<path class="st2" d="M137.4,275.9l0.1-0.2l0,0.2L137.4,275.9"/>
				<path class="st2" d="M8.1,260.9l0.1,0l0.1,0.3l-0.2,0.5l-0.2-0.3L8.1,260.9"/>
				<path class="st2" d="M3.3,259.7l0-0.1l0.2,0L3.3,259.7"/>
				<path class="st2" d="M3.5,259.6l0.2-0.2l0,0L3.5,259.6L3.5,259.6"/>
				<path class="st2" d="M7.3,259.6l0.2-0.4l0.3,0.5l-0.2,0.3L7.3,259.6"/>
				<path class="st2" d="M26,259.1l0.4,0.2c0.1,0.2,0,0.6-0.1,0.8l-0.5,0.5l-0.5,0.1c0.1-0.1,0.3-0.3,0.5-0.3
					l0-0.1c0.1,0,0.2-0.1,0.3-0.2C26.2,259.8,26.1,259.3,26,259.1"/>
				<path class="st2" d="M4.8,258.8c0,0,0.1,0.3,0.1,0.4l-0.2,0.2c0-0.1-0.1-0.3-0.1-0.4l0-0.2L4.8,258.8"/>
				<path class="st2" d="M0.9,258.5l-0.2-0.2l0-0.1c0.3,0.2,0.8,0.2,1.1,0.3c-0.2,0.1-0.5,0-0.7,0
					C1,258.5,0.9,258.5,0.9,258.5L0.9,258.5"/>
				<path class="st2" d="M6.5,258.1c0.1,0.1,0.3,0.3,0.4,0.4l-0.1,0.1l-0.2-0.2l-0.1,0c0,0-0.1-0.1-0.2-0.2
					c-0.1,0-0.2-0.1-0.3-0.1l0.1-0.1L6.5,258.1"/>
				<path class="st2" d="M4.6,255.8l0.6,0.1l0.2,0.3l-0.1,0.1c-0.2-0.1-0.7-0.3-0.8-0.4L4.6,255.8"/>
				<path class="st2" d="M190.6,243l0.3,0.1l-0.2,0.2l0.1,0.2l-0.2,0.4c-0.1-0.1-0.3-0.2-0.4-0.3
					c0.1-0.2,0.3-0.4,0.3-0.6L190.6,243"/>
				<path class="st2" d="M189.9,114.5L189.9,114.5l0.2,0.1L189.9,114.5L189.9,114.5"/>
				<path class="st2" d="M190.5,114.5l0-0.1l0.2,0.1l0,0.1L190.5,114.5"/>
				<path class="st2" d="M190.5,113l0.1,0.1l-0.2,0l-0.1-0.1L190.5,113"/>
				<path class="st2" d="M207.8,102.4l-0.1,0l-0.3-0.2c0.2,0,0.5,0,0.8,0l-0.1,0.2L207.8,102.4"/>
				<path class="st2" d="M208.2,102L208.2,102L208.2,102L208.2,102"/>
				<path class="st2" d="M190.7,95.9l-0.2,0.2l-0.1-0.2l0.2-0.2l0.2-0.1c0.1,0,0.2,0.1,0.3,0.2L190.7,95.9"/>
				<path class="st2" d="M68.1,23.7l0.2,0.1l0,0.2l-0.2,0.1l-0.1,0c-0.1,0.1-0.3,0.4-0.4,0.5l-0.1-0.1
					C67.6,24.2,67.9,23.9,68.1,23.7"/>
				<path class="st2" d="M69.5,20.9l0.3,0.2l0,0.4l-0.1,0.1c-0.2-0.2-0.2-0.5-0.4-0.7L69.5,20.9"/>
				<path class="st2" d="M197.6,235.8l-0.1-0.2l0.5-0.1l-0.2,0.4C197.8,235.9,197.6,235.8,197.6,235.8"/>
				<path class="st2" d="M197.8,231.4c-0.1,0.1-0.3,0.2-0.3,0.3c0-0.1-0.1-0.3-0.1-0.4c0.1-0.1,0.2-0.3,0.2-0.4
					l0.1,0l0-0.1c0.1,0,0.3,0.2,0.3,0.2L197.8,231.4"/>
				<path class="st2" d="M206.7,219.8c0.1,0.1,0.2,0.3,0.2,0.4l-0.3,0.1c0-0.1-0.1-0.5-0.2-0.6l0.2-0.1
					L206.7,219.8L206.7,219.8"/>
				<path class="st2" d="M206.9,219.5l0.2-0.2l0.1,0.3l-0.2,0.2L206.9,219.5"/>
			</g>
		</g>

		{% include "partials/map/text.svg" %}

	</g>
</svg>
