<?xml version="1.0" encoding="utf-8"?>
<!-- Generator: Adobe Illustrator 26.4.1, SVG Export Plug-In . SVG Version: 6.00 Build 0)  -->
<svg version="1.1" id="uuid-f19cd96d-b03e-4e0d-a3a7-9783eddf3017"
	 xmlns="http://www.w3.org/2000/svg" xmlns:xlink="http://www.w3.org/1999/xlink" x="0px" y="0px" viewBox="0 0 125.8 91.7"
	 style="enable-background:new 0 0 125.8 91.7;" xml:space="preserve">
<style type="text/css">
	.st0z{opacity:0.8;fill:#FFFFFF;enable-background:new    ;}
	.st1z{fill:#FFFFFF;}
	.st2z{opacity:0.7;fill:#FFFFFF;enable-background:new    ;}
	.st3z{font-family:sans-serif; letter-spacing: 0.025em; fill: #ffffff}
	.st4z{font-size:8.2023px;}
</style>
<title>Logo Abi International</title>
<path class="st0z" d="M87.3,16c-2.6-2.8-5.8-2.8-8.3-1.8c1-2.1,1-5.2-1.3-7.6c-3.4-3.7-8.3-3.5-12.6,0.6l-7.8,7.3l0,0L55,16.7
	l3.8,1.8l4.2,2l8.4,4l5.4-5.1c2.4-2.3,5.1-2.2,6.9-0.3c1.8,1.9,1.8,4.6-0.6,6.9l-2.8,2.6l4,1.9l2-1.9C90.3,24.9,91.1,20,87.3,16
	L87.3,16z M73.6,16.7l-5.2,4.9l-5.9-6.3l5.2-4.9c2.2-2.1,4.8-2.4,6.7-0.4S75.8,14.6,73.6,16.7z"/>
<polygon class="st1z" points="78.5,36 78.5,36 78.4,36.1 "/>
<path class="st1z" d="M78.3,30.6l-2.6-1.3l-12.1-5.8l-0.1-0.1l0,0l-10.3-5l-0.1,0.1l-0.7,0.7l-2,1.9L62.6,51l3.6-3.4l0.1-0.1
	l-2.6-5.9l7.7-7.2l1.3-1.3l0,0l0.1-0.1l5.7,2.9l0,0l1-0.9l2.7-2.5l0.1-0.1C82.3,32.5,78.3,30.6,78.3,30.6z M69,31.2l-7,6.6l-5.5-13
	l-0.1-0.2l1.8,0.9l1.9,1l9,4.6L69,31.2L69,31.2z"/>
<g>
	<path class="st2z" d="M47.9,66.1c0.4,0.1,0.5,0.3,0.5,0.5c-0.3,0.9-0.6,1.7-0.7,2.5c-0.1,0.2-0.4,0.4-0.8,0.5c-1.9,0.6-4,0.9-6.3,1
		c-0.5,0-0.8-0.2-0.8-0.6c0.4-1.6,0.9-3.3,1.5-5.1c0.2-0.4,0.5-0.5,1.1-0.4C44.4,65.2,46.3,65.7,47.9,66.1"/>
	<path class="st2z" d="M10.7,61.9c0.3,0.3,0.4,0.6,0.3,0.9c-0.1,0.6-0.2,1.2-0.2,1.8c0,0.7,0,1.2,0,1.7v0.1c-0.1,0-0.1,0-0.4-0.3
		c-1-1.3-1.8-2.8-2.2-4.3C8.1,61.4,8,61.1,8,61c0-0.3,0-0.7,0-1.2c0-0.4,0.1-0.8,0.1-1.2c0-0.1,0-0.1,0.1-0.1c0.2,0,0.2,0.1,0.2,0.3
		C8.9,59.8,9.7,60.9,10.7,61.9"/>
	<path class="st2z" d="M14.9,70.1c0.4,0.5,0.6,0.9,0.8,1.2c0.2,0.5,0.4,1,0.6,1.3L16,72.2c-1.4-1.8-1.4-1.9-2.1-3.1
		c-1-1.9-1.1-2.1-1.6-3.4c-0.3-0.9-0.6-2-0.9-2.9c0,0.2,0.1,0.3,0.1,0.5C12.2,65.8,13.3,68.1,14.9,70.1"/>
	<path class="st0z" d="M17.9,53.7c0.4,0.3,0.5,0.7,0.4,1.3c-0.8,2.4-1.5,4.7-2,6.9c-0.2,0.5-0.4,0.6-0.9,0.3c-1.6-1.5-2.8-3-3.5-4.6
		c-0.2-0.4-0.2-0.8-0.1-1.2c0.3-1.5,0.8-3.1,1.4-4.6c0.2-0.4,0.3-0.5,0.6-0.4C14.7,52,16.1,52.8,17.9,53.7"/>
	<path class="st2z" d="M19.5,64.3c0.4,0.3,0.5,0.6,0.4,1c-0.3,0.7-0.5,1.4-0.7,2.1c-0.2,0.8-0.4,1.4-0.5,2c-0.1,0.2-0.3,0.2-0.7,0
		c-0.2-0.1-0.4-0.3-0.6-0.4c-1.5-1-2.8-2.3-3.7-3.6c-0.3-0.4-0.4-0.7-0.4-1c0.1-0.6,0.2-1.2,0.4-1.9c0.2-0.6,0.4-1.2,0.7-1.9
		c0.2-0.3,0.4-0.3,0.7-0.1c1,1.1,2.3,2.3,3.8,3.3C19.1,64,19.4,64.2,19.5,64.3"/>
	<path class="st2z" d="M21.2,73.5c0.5,0.2,0.7,0.5,0.7,0.9c-0.1,0.8-0.2,1.5-0.3,2.2c-0.1,0.8-0.1,1.5,0,2.1c0,0.2-0.3,0.3-0.7,0.2
		c-0.2-0.1-0.5-0.2-0.7-0.3c-1.7-0.7-3.2-1.6-4.4-2.7c-0.3-0.3-0.5-0.6-0.6-0.9c0-0.6,0-1.2,0-1.9c0-0.6,0.1-1.3,0.2-2
		c0.1-0.3,0.3-0.4,0.6-0.2c1.2,0.9,2.7,1.7,4.4,2.4C20.8,73.4,21,73.4,21.2,73.5"/>
	<path class="st2z" d="M24.8,58.7c0.6,0.3,0.9,0.8,0.7,1.5c-0.9,2.6-1.7,5.2-2.3,7.7c-0.2,0.6-0.6,0.8-1.3,0.6
		c-0.3-0.1-0.7-0.3-1-0.4c-2.4-1-4.5-2.1-6.2-3.3c-0.5-0.4-0.7-0.9-0.6-1.4c0.5-2.3,1.2-4.7,2.1-7.1c0.3-0.6,0.6-0.8,1.2-0.6
		c1.9,0.9,4,1.8,6.4,2.7C24.1,58.4,24.5,58.5,24.8,58.7"/>
	<path class="st2z" d="M33.6,47.3c0.7,0.4,0.9,0.9,0.6,1.6c-1.4,2.7-2.8,5.5-4,8.5c-0.4,0.7-0.9,0.9-1.7,0.7
		c-0.4-0.1-0.7-0.3-1.1-0.4c-2.7-1.1-5.1-2.1-7.2-3c-0.5-0.3-0.7-0.8-0.5-1.5c1.1-2.7,2.3-5.4,3.7-7.9c0.4-0.6,0.9-0.8,1.5-0.7
		c2.3,0.5,4.8,1.3,7.5,2.4C32.8,47,33.2,47.1,33.6,47.3"/>
	<path class="st2z" d="M31.6,47.4c0.5,0.3,0.6,0.6,0.4,1.1c-1,1.9-2,4-2.8,6.1c-0.3,0.5-0.6,0.6-1.2,0.5c-0.3-0.1-0.5-0.2-0.8-0.3
		c-1.9-0.8-3.7-1.5-5.2-2.2c-0.4-0.2-0.5-0.6-0.4-1.1c0.8-2,1.7-3.9,2.6-5.7c0.3-0.4,0.6-0.6,1.1-0.5c1.7,0.4,3.5,0.9,5.4,1.7
		C31,47.2,31.3,47.3,31.6,47.4"/>
	<path class="st2z" d="M27.6,38.6c0.3,0.2,0.4,0.4,0.3,0.7c-0.7,1.2-1.3,2.6-1.8,4c-0.2,0.3-0.4,0.4-0.8,0.3
		c-0.2-0.1-0.3-0.1-0.5-0.2c-1.3-0.5-2.4-1-3.4-1.4c-0.3-0.1-0.3-0.4-0.2-0.7c0.5-1.3,1.1-2.5,1.7-3.7c0.2-0.3,0.4-0.4,0.7-0.3
		c1.1,0.2,2.3,0.6,3.5,1.1C27.3,38.5,27.4,38.5,27.6,38.6"/>
	<path class="st0z" d="M36.9,71.9c0.5,0.1,0.8,0.2,0.7,0.6c-0.1,0.7-0.2,1.3-0.2,1.9c-0.1,0.7-0.1,1.3,0,1.8c0,0.2-0.3,0.4-0.8,0.5
		C34.4,77,32.2,77,30,76.6c-0.5-0.1-0.8-0.3-0.9-0.6c-0.1-0.7-0.1-1.4,0-2.3c0.1-0.7,0.2-1.5,0.3-2.4c0.1-0.4,0.4-0.6,1-0.5
		C32.5,71.5,34.7,71.8,36.9,71.9"/>
	<path class="st2z" d="M35.9,72.5c0.5,0.1,0.8,0.2,0.7,0.6c-0.1,0.7-0.2,1.3-0.2,1.9c-0.1,0.7-0.1,1.3,0,1.8c0,0.2-0.3,0.4-0.8,0.5
		c-2.2,0.3-4.4,0.3-6.7-0.1c-0.5-0.1-0.8-0.3-0.9-0.6c-0.1-0.6-0.1-1.4,0-2.3c0.1-0.7,0.2-1.5,0.3-2.4c0.1-0.4,0.4-0.6,1-0.5
		C31.4,72.1,33.7,72.4,35.9,72.5"/>
	<path class="st2z" d="M32.6,73c0.4,0,0.6,0.2,0.6,0.5c-0.1,0.5-0.1,1-0.2,1.5c0,0.5,0,1,0,1.4c0,0.2-0.2,0.3-0.6,0.4
		C30.7,77,29,77,27.3,76.7c-0.4-0.1-0.6-0.3-0.7-0.5c0-0.5,0-1.1,0-1.7s0.1-1.2,0.2-1.8c0.1-0.3,0.3-0.4,0.8-0.4
		C29.3,72.6,31,72.9,32.6,73"/>
	<path class="st2z" d="M31.2,82.4c0.4-0.1,0.7,0,0.8,0.1c0.2,0.6,0.5,1,0.8,1.1c0,0.1,0,0.1-0.5,0.2c-1.5,0.4-3,0.5-4.6,0.4
		c-0.5-0.1-1.1-0.1-1.6-0.2H26c-0.5-0.1-0.8-0.6-1-1.3c0-0.2,0.2-0.2,0.6-0.2C27.5,82.8,29.4,82.8,31.2,82.4"/>
	<path class="st2z" d="M35.4,57.6c0.5,0.2,0.7,0.5,0.6,1c-0.6,1.8-1.1,3.5-1.5,5.1c-0.1,0.4-0.5,0.6-1,0.6c-2.3-0.1-4.7-0.5-7-1.2
		c-0.6-0.2-0.8-0.5-0.7-1.1c0.5-2,1.1-4.2,1.9-6.3c0.2-0.5,0.6-0.7,1.2-0.5C31,56,33.2,56.8,35.4,57.6"/>
	<path class="st2z" d="M27.4,33.9c1-0.1,0.8,0.3,0.7,0.5c-0.8,0.9-1.7,2-2.7,3.3c-0.6,0.8-1.2,1.7-1.7,2.6c-0.4,0.6-1,0.8-1.6,0.9
		c-2.7-0.2-5,0.1-6.8,0.7c-0.6,0.2-0.4-0.3-0.3-0.4c0.4-0.6,0.8-1.2,1.2-1.8c0.6-0.9,1.2-1.6,1.8-2.2c0.3-0.3,0.7-0.6,1.3-1
		C21.5,35.1,24.3,34.2,27.4,33.9"/>
	<path class="st2z" d="M33.7,37.6c0.6,0.2,0.6,0.4,0.5,0.5c-0.4,0.4-0.7,1-1,1.7c-0.2,0.4-0.4,0.9-0.6,1.4c-0.2,0.3-0.4,0.4-0.9,0.2
		c-1.8-0.7-3.3-1.1-4.4-1.1C26.9,40.3,27,40,27,40c0.1-0.3,0.2-0.7,0.4-1c0.2-0.5,0.5-0.9,0.7-1.1c0.1-0.1,0.4-0.3,0.7-0.4
		C30.1,37.1,31.7,37.1,33.7,37.6"/>
	<path class="st2z" d="M33.3,25.3c0.6,0.2,0.6,0.4,0.5,0.5c-0.4,0.4-0.7,1-1,1.7c-0.2,0.4-0.4,0.9-0.6,1.4c-0.2,0.3-0.4,0.4-0.9,0.2
		C29.5,28.4,28,28,26.9,28c-0.4,0-0.3-0.3-0.3-0.3c0.1-0.3,0.2-0.7,0.4-1c0.2-0.5,0.5-0.9,0.7-1.1c0.1-0.1,0.4-0.3,0.7-0.4
		C29.7,24.9,31.3,24.9,33.3,25.3"/>
	<path class="st2z" d="M42.9,28.4c0.5,0.1,0.5,0.3,0.5,0.4c-0.3,0.4-0.7,0.9-1,1.5c-0.2,0.4-0.4,0.8-0.6,1.3
		c-0.2,0.3-0.4,0.3-0.8,0.2c-1.5-0.5-2.8-0.7-3.8-0.7c-0.3,0-0.3-0.2-0.2-0.3c0.1-0.3,0.3-0.6,0.4-0.9c0.2-0.4,0.4-0.8,0.7-1
		c0.1-0.1,0.3-0.2,0.6-0.4C39.8,28.2,41.3,28.1,42.9,28.4"/>
	<path class="st2z" d="M40.5,19.6c0.3,0,0.3,0.1,0.2,0.1c-0.3,0.3-0.6,0.7-1,1.2c-0.2,0.3-0.4,0.6-0.6,0.9c-0.2,0.2-0.3,0.3-0.6,0.3
		c-0.9,0-1.6,0.1-2.3,0.4c-0.2,0.1-0.1-0.1-0.1-0.1c0.1-0.2,0.3-0.4,0.4-0.6c0.2-0.3,0.4-0.6,0.6-0.8c0.1-0.1,0.3-0.2,0.5-0.3
		C38.5,20.1,39.5,19.8,40.5,19.6"/>
	<path class="st1z" d="M40.2,49.7c0.4,0.2,0.5,0.5,0.3,0.9c-0.8,1.5-1.5,3.1-2.2,4.7c-0.2,0.4-0.5,0.5-0.9,0.4
		c-0.2-0.1-0.4-0.2-0.6-0.2c-1.5-0.6-2.9-1.2-4.1-1.7c-0.3-0.2-0.4-0.4-0.3-0.8c0.6-1.5,1.3-3,2.1-4.4c0.2-0.3,0.5-0.5,0.9-0.4
		c1.3,0.3,2.7,0.7,4.2,1.3C39.8,49.6,40,49.7,40.2,49.7"/>
	<path class="st2z" d="M37.8,40.7c0.5,0.3,0.6,0.5,0.4,0.8c-0.6,0.7-1.3,1.5-1.9,2.4c-0.4,0.6-0.8,1.2-1.3,1.9
		c-0.3,0.4-0.7,0.5-1.3,0.3c-0.3-0.1-0.5-0.2-0.8-0.3c-1.9-0.8-3.8-1.3-5.4-1.7c-0.4-0.1-0.5-0.4-0.4-0.8c0.4-0.6,0.8-1.2,1.2-1.8
		c0.6-0.9,1.2-1.6,1.8-2.2c0.3-0.2,0.7-0.3,1.2-0.3c1.8,0.1,3.8,0.6,5.7,1.3C37.3,40.4,37.6,40.5,37.8,40.7"/>
	<path class="st2z" d="M46.6,47.1c0.3,0.4,0.4,0.7,0.2,0.9c-0.4,0.5-0.9,1-1.4,1.7c-0.3,0.4-0.6,0.9-0.9,1.3c-0.2,0.3-0.5,0.3-0.9,0
		c-1.5-1.2-3.2-2.3-5-3.3c-0.4-0.3-0.5-0.6-0.3-1c0.4-0.6,0.7-1.1,1.1-1.6c0.6-0.8,1.1-1.5,1.7-2.1c0.2-0.2,0.6-0.2,1,0.1
		C43.8,44.2,45.3,45.5,46.6,47.1"/>
	<path class="st2z" d="M51,60.4c0.3,0.4,0.4,0.7,0.3,1c-0.5,0.9-0.9,1.9-1.3,2.9c-0.1,0.2-0.4,0.3-0.8,0.2c-1.8-0.6-3.9-1.3-6.3-2.2
		c-0.6-0.3-0.8-0.6-0.6-1.1c0.8-2,1.7-3.9,2.7-5.7c0.3-0.4,0.7-0.4,1.2-0.1C48,57.1,49.7,58.8,51,60.4"/>
	<path class="st2z" d="M55.5,61.4c0.2,0.5,0.2,0.8,0.1,1c-0.7,0.8-1.3,1.6-2,2.5c-0.2,0.2-0.5,0.2-0.9,0c-1.6-1-3.5-2.2-5.6-3.6
		c-0.5-0.4-0.6-0.8-0.4-1.2c1.2-1.7,2.6-3.4,3.9-5c0.4-0.3,0.7-0.2,1.2,0.2C53.4,57.4,54.7,59.5,55.5,61.4"/>
	<path class="st0z" d="M43.7,35.4c0.4,0.2,0.6,0.3,0.8,0.4c-0.8-0.1-1.8,0.3-2.9,1.1c-0.3,0.2-0.8,0.1-1.5-0.1
		c-0.3-0.1-0.6-0.3-1-0.4c-2.4-1-4.8-1.5-7.1-1.6c-0.8-0.1-0.7-0.3-0.6-0.4c0.9-0.7,1.7-1,2.3-1h1.7c2.3,0.2,2.4,0.2,3.7,0.5
		c0.7,0.2,1.7,0.4,2.4,0.7c0.4,0.1,0.8,0.3,1.2,0.5C43,35.1,43.3,35.2,43.7,35.4"/>
	<path class="st2z" d="M50.6,44.7c0.2,0.3,0.3,0.5,0.3,0.7l0,0c-0.5-0.1-1.1,0.2-1.9,0.7c-0.2,0.1-0.5-0.1-0.8-0.5
		c-1.4-1.8-3.1-3.4-5.1-4.7c-0.4-0.3-0.6-0.6-0.4-0.8c0.9-0.7,1.7-1,2.3-0.9c0.2,0.1,0.5,0.2,1,0.6C47.8,41.2,49.4,42.9,50.6,44.7"
		/>
	<path class="st0z" d="M57.3,55.2c0,0.2,0,0.8-0.1,1.1c-0.3,0-0.7,0.1-1.1,0.4c-0.1,0-0.2-0.1-0.4-0.9c-0.5-2.7-1.5-5.3-3-7.7
		c-0.3-0.6-0.4-1-0.2-1.2c0.8-0.6,1.6-0.9,2.2-0.8c0.2,0.1,0.4,0.4,0.7,1C56.5,49.6,57.2,52.4,57.3,55.2"/>
	<path class="st0z" d="M53.8,68.7c-0.6,1.1-1.3,2.1-2.3,3c-0.4,0.3-0.6,0.4-0.6,0.3c-0.1-0.8-0.1-1.6-0.1-2.4
		c0.1-0.3,0.4-0.4,0.6-0.4C52.3,69,53.2,68.9,53.8,68.7"/>
	<g>
		<path class="st2z" d="M9.1,53.9c-0.1,0.6-0.9,3-0.9,3.5c0,0,0,0,0,0.1c-0.1-1.7-0.1-2.4,0.1-4.4c0.2-1.3,0.5-2.6,0.5-2.6
			c-0.2,0.8,0.3,1.7,0.4,2.6L9.1,53.9L9.1,53.9z"/>
		<path class="st1z" d="M12.7,50.6c0.1,0.2,0.1,0.4,0,0.8c-0.5,1.4-0.9,2.9-1.2,4.2c0,0.1-0.1,0.3-0.2,0.2c0,0-0.1-0.2-0.1-0.3
			c-0.1-0.8-0.1-1.6,0-2.4l0.2-0.3c0.1-0.5,0.2-0.9,0.3-1.2s0.2-0.6,0.3-1c0.1-0.2,0.2-0.5,0.3-0.7C12.2,50,12.4,50.3,12.7,50.6"/>
		<path class="st1z" d="M13.6,44.8c0.3-0.2,0.2,0.1,0.2,0.2v0.1c-0.7,1.3-1.4,2.7-1.9,4.1c-0.2,0.3-0.3,0.5-0.5,0.4
			c-0.4-0.3-0.6-0.4-0.6-0.5c0.1-0.2,0.2-0.5,0.3-0.8c0.2-0.5,0.3-0.7,0.4-0.9c0.2-0.4,0.4-0.7,0.5-1l0.1-0.2
			C12.5,45.7,13,45.2,13.6,44.8"/>
		<path class="st1z" d="M15.2,63c0.4,0.4,0.6,0.9,0.5,1.4c-0.2,1-0.3,1.9-0.3,2.7c-0.1,1-0.1,1.9,0,2.6c0,0,0,0.1,0,0.2
			c-0.2,0-0.2,0-0.6-0.4c-1.6-2-2.7-4.2-3.4-6.6c-0.2-0.7-0.2-1.1-0.3-1.3c0-0.5,0-1.1,0-1.8c0-0.6,0.1-1.2,0.2-1.8
			c0-0.1,0.1-0.2,0.1-0.2s0.1,0.1,0.2,0.3C12.4,59.8,13.6,61.5,15.2,63"/>
		<path class="st1z" d="M9,61.9c0.3,0.3,0.4,0.6,0.3,0.9c-0.1,0.6-0.2,1.2-0.2,1.8c0,0.7,0,1.2,0,1.7v0.1c-0.1,0-0.1,0-0.4-0.3
			c-1-1.3-1.8-2.8-2.2-4.3c-0.1-0.3-0.1-0.6-0.1-0.7c0-0.3,0-0.7,0-1.2c0-0.4,0.1-0.8,0.1-1.2c0-0.1,0-0.1,0.1-0.1s0.1,0.1,0.1,0.2
			C7.2,59.9,7.9,61,9,61.9"/>
		<path class="st1z" d="M22.2,44.3c0.5,0.1,0.6,0.4,0.4,0.9c-1.1,2.1-2.2,4.4-3.2,6.8c-0.3,0.5-0.6,0.7-1.1,0.6
			c-1.8-0.8-3.3-1.5-4.3-2c-0.2-0.2-0.3-0.4-0.1-0.8c0.6-1.6,1.4-3.1,2.1-4.6c0.2-0.4,0.5-0.6,0.8-0.7
			C18.3,44.1,20.1,44.1,22.2,44.3"/>
		<path class="st1z" d="M24.9,68.7c0.7,0.3,0.9,0.7,0.9,1.3c-0.2,1.1-0.3,2.1-0.4,3c-0.1,1.1-0.1,2.1,0,2.9c0,0.4-0.4,0.4-1,0.2
			c-0.3-0.1-0.7-0.2-1-0.4c-2.4-1-4.5-2.3-6.2-3.8c-0.5-0.4-0.7-0.9-0.8-1.2c-0.1-0.8-0.1-1.7,0-2.7c0.1-0.9,0.2-1.8,0.3-2.8
			c0.1-0.5,0.4-0.6,0.9-0.3c1.8,1.3,3.9,2.4,6.2,3.4C24.2,68.5,24.6,68.6,24.9,68.7"/>
		<path class="st1z" d="M24.5,76.8c0.7,0.3,1.1,0.5,1.2,0.8c0.3,1.1,0.9,1.8,1.6,2c-0.7-0.2-1.6-0.5-2.2-0.8c-2.2-1-2.3-1-3.5-1.7
			c-2-1.3-2-1.4-3-2.2l-1.2-1.1c-0.3-0.3-0.6-0.8-0.8-1.4v-0.1c0,0,0,0,0.1,0c0.2,0,0.3,0.1,0.6,0.4c1.7,1.6,3.8,2.9,6.2,3.8
			C23.8,76.6,24.2,76.7,24.5,76.8"/>
		<path class="st1z" d="M37.6,78.4c0.7-0.1,1.1,0,1.2,0.2c0.3,0.9,0.7,1.5,1.3,1.7c0,0.1-0.1,0.1-0.8,0.3c-2.3,0.5-4.6,0.7-7,0.5
			c-0.7-0.1-1.7-0.2-2.4-0.4c-0.1,0-0.1,0-0.2,0c-0.7-0.2-1.3-0.9-1.6-2c0-0.3,0.3-0.3,1-0.3C31.9,78.9,34.8,78.9,37.6,78.4"/>
		<path class="st1z" d="M38,62.8c0.6,0.3,0.9,0.7,0.7,1.2c-0.8,2.3-1.5,4.5-1.9,6.6c-0.2,0.5-0.6,0.8-1.3,0.8c-3-0.2-6-0.7-9-1.5
			c-0.7-0.3-1-0.7-1-1.4c0.6-2.6,1.4-5.4,2.4-8.2c0.3-0.6,0.8-0.9,1.6-0.7C32.4,60.9,35.3,61.9,38,62.8"/>
		<path class="st1z" d="M43.6,53.4c0.5,0.4,0.6,0.9,0.5,1.4c-1,1.9-2,4-2.8,6.1c-0.3,0.5-0.7,0.6-1.3,0.5c-2.5-0.9-5.2-2-7.9-3
			c-0.6-0.3-0.9-0.8-0.7-1.4c1-2.6,2.2-5.1,3.5-7.5c0.4-0.5,0.9-0.7,1.5-0.4C38.9,50.3,41.3,51.9,43.6,53.4"/>
		<path class="st1z" d="M18.2,41c0.3-0.2,0.4-0.3,0.5-0.4c0,0,0,0,0,0.1c-0.4,0.4-0.9,1-1.3,1.6c-0.3,0.4-0.6,0.8-0.9,1.3
			c-0.2,0.3-0.4,0.5-0.8,0.8c-0.7,0.5-1.2,1-1.6,1.6l0.2-0.3c0.5-0.8,0.5-0.8,0.8-1.3c0.9-1.2,1.2-1.6,2.3-2.8l0.3-0.3
			C17.8,41.3,18,41.2,18.2,41"/>
		<path class="st1z" d="M47.9,69.7c0.7-0.2,0.8-0.1,0.8,0c-0.1,0.4-0.1,0.8-0.1,1.2c0,0.4,0,0.8,0,1.1c0,0.1-0.2,0.4-0.8,0.9
			c-2.2,1.6-4.8,2.8-7.5,3.6c-0.7,0.2-1,0.1-1.1-0.2c-0.1-0.6-0.1-1.4,0-2.2c0.1-0.7,0.1-1.5,0.3-2.3c0.1-0.4,0.5-0.7,1.2-0.7
			C43.3,70.9,45.7,70.5,47.9,69.7"/>
		<path class="st1z" d="M47.8,73.2c0.6-0.4,0.8-0.5,0.9-0.5c0.2,0.5,0.4,0.7,0.7,0.8c0,0.1,0,0.2-0.7,0.8c-2,2-4.3,3.5-6.8,4.6
			c-0.6,0.2-1,0.4-1.2,0.4c-0.6-0.2-1-0.7-1.3-1.6c0-0.2,0.3-0.4,1-0.7C43,76.1,45.6,74.8,47.8,73.2"/>
		<path class="st1z" d="M48.1,65.5c0.3,0.1,0.5,0.2,0.4,0.4c-0.3,0.7-0.5,1.5-0.6,2.2c-0.1,0.2-0.3,0.3-0.7,0.5
			c-1.6,0.5-3.5,0.8-5.5,0.8c-0.5,0-0.7-0.2-0.7-0.5c0.3-1.4,0.8-2.9,1.3-4.4c0.2-0.3,0.5-0.5,0.9-0.4
			C45.1,64.7,46.7,65.1,48.1,65.5"/>
		<path class="st1z" d="M53.8,57.1c0.2,0.8,0.1,1.1,0,1.2c-0.3,0.3-0.6,0.7-0.9,1.1c-0.2,0.3-0.4,0.6-0.6,0.9
			c-0.1,0.1-0.3,0.2-0.6-0.4c-1.2-1.8-2.8-3.7-4.7-5.5c-0.4-0.5-0.6-0.9-0.4-1.4c0.4-0.6,0.8-1.2,1.2-1.8c0.6-0.9,1.3-1.7,1.8-2.3
			c0.3-0.2,0.6,0,1,0.5C52.1,51.9,53.2,54.5,53.8,57.1"/>
		<path class="st1z" d="M29.5,36c-0.3,0.2-0.7,0.3-1.4,0.4c-2.5,0.3-4.9,1.1-6.9,2.3c-0.4,0.2-0.4,0.3-0.5,0.3
			c0.1-0.1,0.2-0.1,0.2-0.2c1.7-1,1.8-1.2,3.1-1.8c2-0.8,2.1-0.9,3.5-1.3c2.2-0.5,2.3-0.6,3.7-0.7l0.5-0.1
			C30.9,35.1,30.2,35.4,29.5,36"/>
		<path class="st1z" d="M51.4,37.2c0.1,0.2,0.2,0.3,0.2,0.4l0,0c-0.3,0-0.7,0.1-1.1,0.4c-0.1,0.1-0.3,0-0.5-0.3
			c-0.9-1.1-1.9-2.1-3.1-2.8c-0.3-0.2-0.4-0.4-0.3-0.5c0.5-0.4,1-0.6,1.4-0.5c0.1,0,0.3,0.1,0.6,0.3C49.7,35.1,50.6,36.1,51.4,37.2"
			/>
		<path class="st1z" d="M56.4,55.9c0,0.2,0,0.8-0.1,1.1c-0.3,0-0.7,0.1-1.1,0.4c-0.1,0-0.2-0.1-0.4-0.9c-0.5-2.7-1.5-5.3-3-7.7
			c-0.3-0.6-0.4-1-0.2-1.2c0.8-0.6,1.6-0.9,2.2-0.8c0.2,0.1,0.4,0.4,0.7,1C55.6,50.3,56.2,53,56.4,55.9"/>
		<path class="st1z" d="M54.7,66.3c-0.6-0.2-1.3-0.4-2.3-0.8c-0.2-0.1-0.5-0.2-0.4-0.5c0.4-0.8,0.8-1.5,1.2-2.2
			c0.1-0.1,0.3,0,0.5,0.4C54.3,64.3,54.6,65.3,54.7,66.3"/>
	</g>
</g>
<g>
	<path class="st0z" d="M64.5,54l-0.7-0.7l0.9-0.8l0.7,0.7L64.5,54z M65.9,53.7l3,3.1L68,57.6l-3-3.1L65.9,53.7z"/>
	<path class="st0z" d="M68.3,51.4l0.4,0.4l0,0c-0.1-0.3,0-0.6,0.1-0.8s0.2-0.5,0.4-0.6c0.2-0.2,0.5-0.4,0.7-0.4
		c0.2-0.1,0.4-0.1,0.6-0.1s0.4,0.1,0.6,0.2c0.2,0.1,0.4,0.3,0.6,0.5l1.8,1.9l-0.9,0.8l-1.7-1.8c-0.2-0.3-0.5-0.4-0.7-0.5
		s-0.4,0-0.6,0.2s-0.3,0.5-0.3,0.7s0.2,0.5,0.5,0.8l1.6,1.7l-1,1l-3-3.1L68.3,51.4L68.3,51.4z"/>
	<path class="st0z" d="M73.7,46.3l0.5,0.6l-0.6,0.6l1.5,1.6c0.1,0.1,0.3,0.2,0.3,0.2c0.1,0,0.2-0.1,0.4-0.2l0.1-0.1l0.1-0.1l0.6,0.7
		c0,0-0.1,0.2-0.2,0.3s-0.2,0.2-0.3,0.3c-0.1,0.1-0.3,0.2-0.4,0.3s-0.3,0.2-0.4,0.2s-0.3,0-0.4,0s-0.3-0.2-0.4-0.3l-1.8-1.9L72.2,49
		l-0.5-0.6l0.5-0.5L71.3,47l0.9-0.8l0.9,0.9L73.7,46.3L73.7,46.3z"/>
	<path class="st0z" d="M78.2,46.6c0.2,0,0.5-0.1,0.7-0.3s0.3-0.3,0.3-0.6c0-0.2,0-0.4,0-0.5l0.8-0.7c0.2,0.5,0.3,0.9,0.2,1.3
		c-0.1,0.4-0.3,0.8-0.7,1.1c-0.2,0.2-0.5,0.4-0.8,0.5s-0.5,0.2-0.8,0.1c-0.3,0-0.5-0.1-0.8-0.2c-0.3-0.1-0.5-0.3-0.7-0.6
		s-0.4-0.5-0.5-0.8s-0.2-0.6-0.2-0.8c0-0.3,0.1-0.6,0.2-0.8c0.1-0.3,0.3-0.5,0.5-0.7c0.3-0.3,0.6-0.4,0.8-0.5c0.3-0.1,0.6-0.1,0.9,0
		s0.6,0.2,0.8,0.3c0.3,0.2,0.5,0.4,0.7,0.6l-2.2,2.2C77.7,46.5,78,46.6,78.2,46.6L78.2,46.6z M77.6,44c-0.2,0-0.4,0.1-0.6,0.3
		c-0.1,0.1-0.2,0.3-0.3,0.4s-0.1,0.3-0.1,0.4c0,0.1,0,0.2,0.1,0.3s0.1,0.2,0.2,0.2l1.4-1.3C78.1,44.1,77.8,44,77.6,44z"/>
	<path class="st0z" d="M80.3,40.1l0.6,0.6l0,0c-0.1-0.1-0.1-0.3-0.1-0.4c0-0.1,0-0.3,0-0.4s0.1-0.3,0.2-0.4c0.1-0.1,0.2-0.2,0.3-0.3
		c0.1-0.1,0.1-0.1,0.2-0.1l0.8,0.8c0,0-0.1,0.1-0.2,0.1s-0.1,0.1-0.2,0.1c-0.2,0.1-0.3,0.3-0.3,0.5s-0.1,0.3-0.1,0.5
		s0.1,0.3,0.2,0.5c0.1,0.1,0.2,0.3,0.3,0.4l1.3,1.4l-0.9,0.8l-3-3.1L80.3,40.1L80.3,40.1z"/>
	<path class="st0z" d="M83.7,36.9l0.4,0.4l0,0c-0.1-0.3,0-0.6,0.1-0.8s0.2-0.5,0.4-0.6c0.2-0.2,0.5-0.4,0.7-0.4
		c0.2-0.1,0.4-0.1,0.6-0.1s0.4,0.1,0.6,0.2s0.4,0.3,0.6,0.5l1.8,1.9L88,38.8L86.3,37c-0.2-0.3-0.5-0.4-0.7-0.5s-0.4,0-0.6,0.2
		s-0.3,0.5-0.3,0.7s0.2,0.5,0.5,0.8l1.6,1.7l-0.9,0.8l-3-3.1L83.7,36.9L83.7,36.9z"/>
	<path class="st0z" d="M87.9,33.8c0-0.2,0-0.4,0-0.6c0.1-0.2,0.2-0.4,0.3-0.6s0.3-0.4,0.5-0.5s0.3-0.3,0.5-0.4s0.4-0.2,0.6-0.3
		c0.2-0.1,0.4-0.1,0.6,0c0.2,0,0.4,0.1,0.6,0.3l1.5,1.6c0.1,0.1,0.3,0.3,0.4,0.4c0.1,0.1,0.3,0.2,0.4,0.2l-0.9,0.7
		c0,0-0.1-0.1-0.2-0.1s-0.1-0.1-0.2-0.1c0,0.3-0.1,0.5-0.2,0.8c-0.1,0.2-0.3,0.4-0.5,0.6c-0.2,0.1-0.3,0.3-0.5,0.3s-0.3,0.1-0.5,0.2
		c-0.2,0-0.3,0-0.5-0.1s-0.3-0.2-0.5-0.3c-0.2-0.2-0.3-0.4-0.3-0.5s-0.1-0.3,0-0.5c0-0.2,0.1-0.3,0.2-0.5s0.2-0.3,0.3-0.4
		c0.1-0.1,0.2-0.3,0.3-0.4c0.1-0.1,0.2-0.3,0.3-0.4c0.1-0.1,0.1-0.2,0.1-0.3s0-0.2-0.1-0.3s-0.2-0.2-0.3-0.2s-0.2,0-0.2,0
		c-0.1,0-0.2,0.1-0.2,0.1s-0.2,0.1-0.2,0.2c-0.2,0.2-0.3,0.3-0.3,0.5s0,0.3,0.2,0.5l-0.9,0.8C88.1,34.2,88,34,87.9,33.8L87.9,33.8z
		 M90.8,33.4c0,0-0.1,0.1-0.1,0.2c-0.1,0.1-0.1,0.1-0.2,0.2c-0.1,0.1-0.1,0.2-0.2,0.3s-0.1,0.2-0.1,0.2c0,0.1-0.1,0.2-0.1,0.2
		c0,0.1,0,0.2,0,0.2c0,0.1,0.1,0.2,0.1,0.2c0.1,0.1,0.1,0.1,0.2,0.2c0.1,0,0.2,0,0.2,0s0.2,0,0.2-0.1c0.1,0,0.1-0.1,0.2-0.2
		c0.2-0.2,0.3-0.3,0.3-0.5s0-0.3,0-0.4s-0.1-0.2-0.1-0.3c-0.1-0.1-0.1-0.2-0.2-0.2l-0.3-0.3C90.9,33.2,90.8,33.3,90.8,33.4
		L90.8,33.4z"/>
	<path class="st0z" d="M93.5,27.6l0.5,0.6l-0.6,0.6l1.5,1.6c0.1,0.1,0.3,0.2,0.3,0.2s0.2-0.1,0.4-0.2l0.1-0.1l0.1-0.1l0.6,0.7
		c0,0-0.1,0.2-0.2,0.3c-0.1,0.1-0.2,0.2-0.3,0.3c-0.1,0.1-0.3,0.2-0.4,0.3S95.2,32,95.1,32s-0.3,0-0.4,0s-0.3-0.2-0.4-0.3l-1.8-1.9
		L92,30.3l-0.5-0.6l0.5-0.5l-0.9-0.9l0.9-0.8l0.9,0.9L93.5,27.6L93.5,27.6z"/>
	<path class="st0z" d="M94.4,25.9l-0.7-0.7l0.9-0.8l0.7,0.7L94.4,25.9z M95.7,25.6l3,3.1l-0.9,0.8l-3-3.1L95.7,25.6z"/>
	<path class="st0z" d="M98.2,24.9c-0.1-0.3-0.2-0.6-0.2-0.8c0-0.3,0.1-0.6,0.2-0.8c0.1-0.3,0.3-0.5,0.6-0.8s0.5-0.4,0.8-0.5
		s0.6-0.2,0.8-0.2s0.6,0.1,0.8,0.2c0.3,0.1,0.5,0.3,0.8,0.6s0.4,0.5,0.5,0.8s0.2,0.6,0.2,0.8s-0.1,0.6-0.2,0.8s-0.3,0.5-0.6,0.8
		s-0.5,0.4-0.8,0.5s-0.5,0.2-0.8,0.2s-0.6-0.1-0.8-0.2S99,26,98.7,25.7S98.3,25.2,98.2,24.9z M100,25.2c0.1,0.1,0.3,0.2,0.4,0.2
		s0.3,0,0.4,0c0.2,0,0.3-0.1,0.4-0.3s0.2-0.3,0.3-0.4s0.1-0.3,0-0.5s0-0.2-0.1-0.4c-0.1-0.1-0.2-0.3-0.3-0.4s-0.2-0.2-0.4-0.3
		s-0.3-0.2-0.4-0.2s-0.3,0-0.5,0s-0.3,0.1-0.5,0.3s-0.2,0.3-0.3,0.4s0,0.3,0,0.4s0.1,0.3,0.2,0.4s0.2,0.3,0.3,0.4
		S99.8,25.1,100,25.2L100,25.2z"/>
	<path class="st0z" d="M102.8,18.9l0.4,0.4l0,0c-0.1-0.3,0-0.6,0.1-0.8s0.2-0.5,0.4-0.6c0.2-0.2,0.5-0.4,0.7-0.4
		c0.2-0.1,0.4-0.1,0.6-0.1s0.4,0.1,0.6,0.2s0.4,0.3,0.6,0.5L108,20l-0.9,0.8l-1.7-1.8c-0.2-0.3-0.5-0.4-0.7-0.5
		c-0.2,0-0.4,0-0.6,0.2s-0.3,0.5-0.3,0.7s0.2,0.5,0.5,0.8l1.6,1.7l-0.9,0.8l-3-3.1L102.8,18.9L102.8,18.9z"/>
	<path class="st0z" d="M107,15.8c0-0.2,0-0.4,0-0.6s0.2-0.4,0.3-0.6s0.3-0.4,0.5-0.5s0.3-0.3,0.5-0.4s0.4-0.2,0.6-0.3s0.4-0.1,0.6,0
		c0.2,0,0.4,0.1,0.6,0.3l1.5,1.6c0.1,0.1,0.3,0.3,0.4,0.4c0.1,0.1,0.3,0.2,0.4,0.2l-0.9,0.8c0,0-0.1-0.1-0.2-0.1s-0.1-0.1-0.2-0.1
		c0,0.3-0.1,0.5-0.2,0.8c-0.1,0.2-0.3,0.4-0.5,0.6c-0.2,0.1-0.3,0.3-0.5,0.3s-0.3,0.1-0.5,0.2c-0.2,0-0.3,0-0.5-0.1
		s-0.3-0.2-0.5-0.3c-0.2-0.2-0.3-0.4-0.3-0.5s-0.1-0.3,0-0.5c0-0.2,0.1-0.3,0.2-0.5s0.2-0.3,0.3-0.4c0.1-0.1,0.2-0.3,0.3-0.4
		c0.1-0.1,0.2-0.3,0.3-0.4s0.1-0.2,0.1-0.3s0-0.2-0.1-0.3s-0.2-0.2-0.3-0.2s-0.2,0-0.2,0c-0.1,0-0.2,0.1-0.2,0.1s-0.2,0.1-0.2,0.2
		c-0.2,0.2-0.3,0.3-0.3,0.5s0,0.3,0.2,0.5l-0.9,0.8C107.2,16.2,107.1,15.9,107,15.8L107,15.8z M109.9,15.4c0,0-0.1,0.1-0.1,0.2
		s-0.1,0.1-0.2,0.2c-0.1,0.1-0.1,0.1-0.2,0.2s-0.1,0.2-0.1,0.2c0,0.1-0.1,0.2-0.1,0.2v0.2c0,0.1,0.1,0.2,0.1,0.2s0.1,0.1,0.2,0.2
		c0.1,0,0.2,0,0.2,0c0.1,0,0.2,0,0.2-0.1c0.1,0,0.1-0.1,0.2-0.2c0.2-0.2,0.3-0.3,0.3-0.5c0-0.1,0-0.3,0-0.4c0-0.1-0.1-0.2-0.1-0.3
		c-0.1-0.1-0.1-0.2-0.2-0.2l-0.3-0.3C110,15.2,110,15.3,109.9,15.4L109.9,15.4z"/>
	<path class="st0z" d="M110.7,9.2l4.1,4.3l-0.9,0.8l-4.1-4.3L110.7,9.2z"/>
</g>
<path class="st1z" d="M84.8,12.3c-0.3-0.3-0.5-0.7-0.5-1.2s0.2-0.8,0.5-1.1s0.7-0.5,1.2-0.4c0.5,0,0.8,0.2,1.1,0.5s0.5,0.7,0.4,1.2
	c0,0.4-0.2,0.8-0.5,1.1s-0.7,0.5-1.2,0.4C85.5,12.8,85.1,12.6,84.8,12.3z M89,12.1l4.8,5.1c0.4,0.4,0.7,0.6,1,0.7
	c0.2,0,0.5-0.1,0.8-0.4c0.1-0.1,0.2-0.2,0.3-0.3S96,17,96,17c0.1,0,0.1,0.1,0.2,0.1l0.1,0.1c0.2,0.2,0.4,0.5,0.4,0.7
	c0.1,0.2,0.1,0.5,0,0.7c0,0.2-0.1,0.4-0.2,0.6s-0.3,0.3-0.4,0.5c-0.8,0.7-1.5,1-2.2,0.9s-1.4-0.5-2-1.2L87,14.2L89,12.1L89,12.1z"/>
<text transform="matrix(0.7313 -0.682 0.682 0.7313 77.5643 69.1202)" class="st1z st3z st4z">ISO 9001 : 2015</text>
</svg>
