<?xml version="1.0" encoding="UTF-8"?><svg id="uuid-f19cd96d-b03e-4e0d-a3a7-9783eddf3017" xmlns="http://www.w3.org/2000/svg" viewBox="0 0 56.57 43.57"><defs><style>.uuid-347d5947-d080-42c3-9d40-0dd2dde17b7c,.uuid-c37e3512-abe3-4250-8e0d-c9d362b8e7a1,.uuid-409bff8d-8fa5-495a-9061-e491288d572a{fill:#fff;}.uuid-c37e3512-abe3-4250-8e0d-c9d362b8e7a1{opacity:.8;}.uuid-409bff8d-8fa5-495a-9061-e491288d572a{opacity:.7;}</style></defs><path class="uuid-c37e3512-abe3-4250-8e0d-c9d362b8e7a1" d="M40.49,6.01c-1.31-1.39-2.92-1.41-4.13-.91,.5-1.03,.48-2.61-.64-3.79-1.74-1.85-4.18-1.74-6.32,.28l-3.89,3.67h0s-1.15,1.09-1.15,1.09l1.89,.9,2.08,1,4.18,2,2.69-2.54c1.22-1.15,2.55-1.1,3.47-.13,.92,.97,.9,2.32-.31,3.47l-1.4,1.32,1.99,.95,.99-.93c2.04-1.93,2.47-4.36,.57-6.38Zm-6.86,.36l-2.59,2.45-2.96-3.14,2.59-2.45c1.12-1.05,2.4-1.22,3.36-.2,.96,1.02,.72,2.29-.4,3.34Z"/><polygon class="uuid-347d5947-d080-42c3-9d40-0dd2dde17b7c" points="36.1 16 36.08 15.99 36.05 16.05 36.1 16"/><path class="uuid-347d5947-d080-42c3-9d40-0dd2dde17b7c" d="M35.98,13.29l-1.32-.63-6.03-2.89-.05-.05-.02,.02-5.17-2.48-.05,.05-.37,.35-.99,.94,6.11,14.96,1.82-1.71,.05-.05-1.28-2.95,3.83-3.62,.67-.63h0s.05-.05,.05-.05l2.85,1.44h.02s.49-.45,.49-.45l1.33-1.25,.05-.05-1.99-.95Zm-4.62,.34l-3.5,3.3-2.75-6.48-.04-.09,.89,.45,.95,.48,4.5,2.28-.05,.05Z"/><g><path class="uuid-409bff8d-8fa5-495a-9061-e491288d572a" d="M20.79,31.06c.18,.06,.26,.14,.25,.24-.15,.43-.28,.86-.37,1.27-.04,.11-.18,.2-.4,.27-.94,.28-2.01,.44-3.16,.48-.27-.01-.4-.11-.38-.31,.18-.81,.44-1.67,.74-2.53,.1-.2,.27-.27,.54-.21,1.04,.32,1.99,.59,2.79,.78"/><path class="uuid-409bff8d-8fa5-495a-9061-e491288d572a" d="M2.2,28.96c.13,.14,.18,.29,.17,.47-.05,.31-.09,.62-.11,.9-.02,.33-.02,.62,0,.87,0,.02,0,.04-.01,.05-.05,0-.07,0-.18-.13-.52-.65-.9-1.39-1.1-2.17-.06-.22-.08-.35-.09-.42-.01-.17-.01-.36,0-.58,.01-.19,.04-.39,.07-.6q.01-.05,.04-.06s.04,.03,.07,.1c.22,.54,.61,1.08,1.14,1.59"/><path class="uuid-409bff8d-8fa5-495a-9061-e491288d572a" d="M4.3,33.08c.2,.26,.32,.46,.38,.61,.08,.27,.19,.49,.32,.65l-.16-.19c-.69-.91-.71-.94-1.06-1.53-.5-.95-.54-1.03-.8-1.7-.14-.43-.32-1.01-.44-1.45,.02,.08,.04,.17,.06,.25,.32,1.21,.9,2.36,1.69,3.37"/><path class="uuid-c37e3512-abe3-4250-8e0d-c9d362b8e7a1" d="M5.79,24.86c.21,.14,.27,.35,.2,.64-.42,1.18-.77,2.35-1.02,3.46-.08,.25-.22,.3-.43,.14-.82-.74-1.41-1.52-1.76-2.3-.08-.2-.1-.39-.06-.59,.17-.74,.4-1.53,.68-2.32,.08-.18,.17-.24,.29-.19,.48,.32,1.19,.72,2.09,1.16"/><path class="uuid-409bff8d-8fa5-495a-9061-e491288d572a" d="M6.61,30.18c.2,.16,.27,.32,.22,.52-.15,.36-.27,.7-.37,1.03-.12,.38-.19,.72-.23,1.02-.04,.12-.16,.12-.37,0-.11-.07-.21-.14-.31-.21-.75-.52-1.38-1.14-1.86-1.81-.13-.19-.19-.36-.19-.5,.04-.28,.11-.59,.22-.95,.09-.3,.21-.62,.34-.96,.08-.16,.19-.17,.34-.03,.51,.57,1.15,1.14,1.91,1.66,.1,.07,.21,.14,.31,.21"/><path class="uuid-409bff8d-8fa5-495a-9061-e491288d572a" d="M7.46,34.76c.23,.11,.34,.25,.33,.46-.06,.38-.11,.74-.13,1.08-.03,.39-.03,.74,0,1.04-.01,.12-.13,.15-.36,.08-.12-.04-.23-.09-.35-.13-.84-.34-1.58-.8-2.2-1.34-.17-.16-.26-.3-.29-.44-.02-.28-.02-.6,0-.96,.02-.31,.06-.65,.12-1,.05-.17,.15-.2,.32-.1,.62,.44,1.37,.85,2.21,1.19,.12,.05,.23,.09,.35,.14"/><path class="uuid-409bff8d-8fa5-495a-9061-e491288d572a" d="M9.24,27.35c.31,.16,.43,.4,.35,.73-.46,1.31-.85,2.61-1.13,3.83-.1,.28-.31,.38-.64,.28-.17-.06-.33-.13-.49-.19-1.19-.48-2.24-1.04-3.12-1.65-.23-.19-.33-.43-.29-.72,.26-1.14,.62-2.35,1.05-3.56,.13-.28,.32-.38,.58-.29,.94,.43,2.01,.89,3.2,1.37,.16,.07,.33,.13,.49,.2"/><path class="uuid-409bff8d-8fa5-495a-9061-e491288d572a" d="M13.62,21.64c.34,.19,.45,.44,.31,.78-.71,1.33-1.38,2.77-1.98,4.24-.18,.34-.45,.45-.83,.34-.18-.07-.37-.15-.55-.22-1.34-.54-2.56-1.05-3.62-1.51-.27-.16-.36-.4-.25-.74,.55-1.36,1.17-2.7,1.84-3.94,.19-.29,.44-.41,.77-.37,1.16,.26,2.42,.66,3.76,1.2,.18,.07,.37,.15,.55,.23"/><path class="uuid-409bff8d-8fa5-495a-9061-e491288d572a" d="M12.62,21.72c.25,.13,.32,.32,.22,.56-.51,.96-1,2-1.42,3.05-.13,.24-.32,.32-.6,.24-.13-.05-.27-.11-.4-.16-.97-.39-1.84-.76-2.61-1.09-.2-.11-.26-.29-.18-.53,.4-.98,.84-1.95,1.32-2.84,.14-.21,.32-.3,.56-.27,.83,.19,1.75,.47,2.71,.87,.13,.05,.27,.11,.4,.17"/><path class="uuid-409bff8d-8fa5-495a-9061-e491288d572a" d="M10.64,17.3c.16,.09,.21,.21,.14,.36-.33,.62-.65,1.29-.92,1.98-.08,.16-.21,.21-.39,.16-.09-.03-.17-.07-.26-.1-.63-.25-1.19-.49-1.69-.7-.13-.07-.17-.19-.12-.34,.26-.64,.55-1.26,.86-1.84,.09-.14,.21-.19,.36-.17,.54,.12,1.13,.31,1.76,.56,.09,.03,.17,.07,.26,.11"/><path class="uuid-c37e3512-abe3-4250-8e0d-c9d362b8e7a1" d="M15.31,33.94c.26,.03,.38,.12,.37,.3-.05,.33-.09,.65-.12,.95-.03,.35-.03,.66,0,.92-.02,.12-.15,.21-.41,.26-1.1,.16-2.22,.15-3.33-.06-.27-.06-.42-.17-.46-.32-.03-.33-.03-.7,0-1.13,.03-.37,.08-.76,.14-1.18,.06-.21,.22-.28,.49-.23,1.1,.29,2.22,.45,3.3,.49"/><path class="uuid-409bff8d-8fa5-495a-9061-e491288d572a" d="M14.78,34.26c.26,.03,.38,.12,.37,.3-.05,.33-.09,.65-.12,.95-.03,.35-.03,.66,0,.92-.02,.12-.15,.21-.41,.26-1.1,.16-2.22,.15-3.33-.06-.27-.06-.42-.17-.46-.32-.03-.32-.03-.7,0-1.13,.03-.37,.08-.76,.14-1.18,.06-.21,.22-.28,.49-.23,1.1,.29,2.22,.45,3.3,.49"/><path class="uuid-409bff8d-8fa5-495a-9061-e491288d572a" d="M13.16,34.49c.2,.02,.29,.09,.29,.23-.04,.26-.07,.5-.09,.74-.02,.27-.02,.51,0,.71-.01,.09-.12,.16-.31,.2-.84,.12-1.71,.11-2.57-.05-.21-.05-.32-.13-.35-.25-.02-.25-.02-.54,0-.87,.02-.29,.06-.59,.11-.91,.05-.16,.17-.22,.38-.18,.85,.22,1.71,.35,2.54,.38"/><path class="uuid-409bff8d-8fa5-495a-9061-e491288d572a" d="M12.45,39.23c.22-.03,.34-.02,.39,.05,.08,.3,.23,.48,.42,.53-.02,.03-.02,.05-.26,.11-.74,.19-1.51,.26-2.28,.2-.23-.03-.55-.06-.78-.11-.02,0-.04,0-.06-.01-.24-.06-.42-.28-.52-.65,0-.09,.1-.11,.32-.09,.92,.15,1.85,.13,2.77-.03"/><path class="uuid-409bff8d-8fa5-495a-9061-e491288d572a" d="M14.54,26.8c.25,.11,.34,.26,.29,.48-.31,.88-.57,1.75-.76,2.57-.07,.2-.24,.29-.52,.3-1.15-.07-2.34-.27-3.52-.59-.28-.1-.4-.27-.37-.53,.23-1.01,.55-2.09,.93-3.17,.12-.25,.32-.33,.6-.26,1.14,.43,2.27,.83,3.34,1.19"/><path class="uuid-409bff8d-8fa5-495a-9061-e491288d572a" d="M10.52,14.94c.48-.03,.41,.13,.33,.23-.42,.45-.87,1.01-1.34,1.66-.29,.41-.58,.85-.87,1.31-.21,.28-.48,.42-.82,.43-1.33-.09-2.49,.03-3.42,.35-.3,.08-.19-.14-.16-.18,.19-.31,.39-.6,.58-.88,.31-.44,.61-.81,.9-1.12,.15-.15,.37-.31,.65-.48,1.23-.72,2.63-1.17,4.15-1.33"/><path class="uuid-409bff8d-8fa5-495a-9061-e491288d572a" d="M13.68,16.81c.31,.09,.31,.19,.27,.23-.18,.22-.35,.5-.52,.85-.1,.22-.2,.46-.28,.72-.08,.15-.22,.19-.45,.11-.91-.37-1.66-.55-2.21-.54-.18-.01-.16-.14-.15-.16,.06-.17,.12-.33,.19-.48,.11-.24,.23-.43,.35-.57,.07-.07,.18-.13,.33-.18,.66-.22,1.5-.21,2.47,.02"/><path class="uuid-409bff8d-8fa5-495a-9061-e491288d572a" d="M13.48,10.68c.31,.09,.31,.19,.27,.23-.18,.22-.35,.5-.52,.85-.1,.22-.2,.46-.28,.72-.08,.15-.22,.19-.45,.11-.91-.37-1.66-.55-2.21-.54-.18-.01-.16-.14-.15-.16,.06-.17,.12-.33,.19-.48,.11-.24,.23-.43,.35-.57,.07-.07,.18-.13,.33-.18,.66-.22,1.5-.21,2.47,.02"/><path class="uuid-409bff8d-8fa5-495a-9061-e491288d572a" d="M18.31,12.23c.27,.06,.26,.14,.23,.19-.17,.2-.34,.46-.5,.77-.1,.2-.2,.41-.29,.64-.08,.13-.21,.17-.4,.12-.77-.26-1.42-.37-1.9-.33-.16,0-.13-.11-.12-.13,.06-.15,.13-.29,.2-.43,.11-.21,.22-.38,.34-.52,.06-.06,.16-.12,.3-.18,.59-.23,1.32-.28,2.16-.13"/><path class="uuid-409bff8d-8fa5-495a-9061-e491288d572a" d="M17.1,7.8c.16-.02,.13,.03,.1,.07-.15,.16-.31,.35-.48,.58-.11,.14-.21,.29-.32,.45-.08,.1-.17,.15-.28,.16-.43,0-.82,.07-1.14,.2-.1,.03-.06-.04-.05-.06,.07-.11,.14-.21,.21-.3,.11-.15,.22-.28,.32-.39,.05-.05,.13-.11,.23-.17,.42-.26,.9-.45,1.4-.54"/><path class="uuid-347d5947-d080-42c3-9d40-0dd2dde17b7c" d="M16.96,22.87c.19,.1,.25,.25,.17,.44-.4,.75-.77,1.55-1.1,2.37-.1,.19-.25,.25-.46,.19-.1-.04-.21-.08-.31-.12-.75-.3-1.43-.59-2.03-.84-.15-.09-.2-.22-.14-.41,.31-.76,.66-1.51,1.03-2.2,.11-.16,.25-.23,.43-.21,.65,.14,1.35,.37,2.1,.67,.1,.04,.21,.08,.31,.13"/><path class="uuid-409bff8d-8fa5-495a-9061-e491288d572a" d="M15.75,18.35c.24,.13,.32,.26,.22,.4-.31,.33-.63,.73-.97,1.21-.21,.3-.42,.62-.63,.95-.16,.2-.36,.25-.64,.16-.13-.06-.26-.11-.39-.17-.96-.39-1.88-.66-2.72-.83-.22-.06-.27-.19-.18-.39,.19-.31,.39-.61,.59-.89,.32-.44,.62-.82,.91-1.12,.14-.12,.33-.17,.59-.17,.92,.06,1.88,.28,2.84,.67,.13,.05,.26,.11,.39,.17"/><path class="uuid-409bff8d-8fa5-495a-9061-e491288d572a" d="M20.12,21.55c.14,.19,.18,.33,.11,.44-.21,.23-.44,.51-.68,.84-.15,.21-.3,.43-.44,.66-.11,.13-.25,.13-.44,0-.75-.6-1.6-1.15-2.5-1.63-.21-.13-.26-.29-.17-.48,.18-.29,.36-.56,.54-.82,.29-.41,.57-.76,.84-1.04,.12-.1,.29-.09,.51,.04,.85,.55,1.61,1.22,2.24,1.98"/><path class="uuid-409bff8d-8fa5-495a-9061-e491288d572a" d="M22.32,28.23c.14,.2,.19,.37,.15,.5-.24,.45-.47,.94-.67,1.44-.07,.11-.21,.14-.42,.08-.9-.29-1.97-.66-3.15-1.08-.28-.13-.38-.31-.31-.56,.4-.99,.85-1.96,1.34-2.87,.14-.2,.33-.21,.59-.03,.99,.83,1.83,1.68,2.48,2.51"/><path class="uuid-409bff8d-8fa5-495a-9061-e491288d572a" d="M24.61,28.69c.09,.23,.1,.41,.03,.52-.34,.38-.67,.81-.98,1.25-.09,.09-.23,.09-.43-.01-.81-.49-1.76-1.09-2.81-1.78-.24-.19-.3-.39-.18-.62,.62-.87,1.28-1.72,1.96-2.48,.18-.16,.37-.12,.58,.11,.77,1.03,1.4,2.06,1.84,3.01"/><path class="uuid-c37e3512-abe3-4250-8e0d-c9d362b8e7a1" d="M18.7,15.69c.21,.1,.32,.16,.38,.21-.41-.05-.9,.13-1.46,.55-.17,.09-.41,.06-.74-.07-.16-.07-.32-.14-.49-.21-1.19-.48-2.38-.75-3.54-.81-.4-.04-.36-.13-.31-.18,.44-.33,.83-.51,1.17-.51h.82c1.17,.12,1.21,.12,1.87,.26,.36,.09,.83,.22,1.18,.33,.21,.07,.41,.14,.61,.23,.16,.07,.32,.14,.48,.21"/><path class="uuid-409bff8d-8fa5-495a-9061-e491288d572a" d="M22.13,20.38c.09,.15,.14,.24,.15,.33,0,0-.01,.02-.02,.02-.26-.04-.57,.08-.93,.35-.1,.04-.24-.03-.41-.24-.71-.9-1.56-1.7-2.53-2.33-.22-.16-.29-.29-.21-.39,.45-.34,.84-.48,1.15-.43,.1,.03,.26,.12,.49,.28,.93,.65,1.71,1.48,2.32,2.42"/><path class="uuid-c37e3512-abe3-4250-8e0d-c9d362b8e7a1" d="M25.5,25.62c0,.12,.01,.41-.03,.54-.16-.01-.35,.05-.56,.22-.04-.02-.09-.04-.18-.46-.27-1.34-.77-2.65-1.48-3.86-.16-.31-.2-.5-.12-.61,.42-.32,.79-.46,1.09-.41,.09,.04,.2,.22,.34,.52,.55,1.27,.87,2.65,.93,4.07"/><path class="uuid-c37e3512-abe3-4250-8e0d-c9d362b8e7a1" d="M23.72,32.36c-.28,.54-.67,1.05-1.17,1.52-.18,.16-.29,.21-.32,.13-.03-.38-.04-.8-.03-1.22,.03-.14,.19-.18,.31-.2,.5-.06,.91-.14,1.2-.23"/><g><path class="uuid-409bff8d-8fa5-495a-9061-e491288d572a" d="M1.39,24.94c-.07,.3-.47,1.49-.46,1.73,0,0,0,.02,0,.03-.03-.84-.04-1.22,.07-2.22,.09-.63,.24-1.29,.24-1.29-.1,.41,.16,.87,.19,1.28l-.05,.47Z"/><path class="uuid-347d5947-d080-42c3-9d40-0dd2dde17b7c" d="M3.19,23.32c.07,.08,.07,.21,.02,.39-.26,.72-.47,1.44-.62,2.11-.01,.04-.04,.13-.08,.08-.02-.02-.03-.09-.04-.13-.07-.4-.06-.81,.02-1.19l.04-.17q.09-.39,.15-.59t.16-.51c.04-.11,.09-.26,.13-.37-.03,.09,.05,.23,.23,.39"/><path class="uuid-347d5947-d080-42c3-9d40-0dd2dde17b7c" d="M3.63,20.41c.16-.08,.12,.04,.11,.09,0,.02-.02,.03-.02,.05-.35,.65-.68,1.36-.97,2.07-.08,.17-.16,.23-.24,.2-.2-.13-.3-.21-.28-.26,.05-.11,.11-.27,.16-.38,.12-.27,.15-.34,.21-.46q.15-.31,.25-.48l.06-.11c.16-.29,.41-.54,.73-.72"/><path class="uuid-347d5947-d080-42c3-9d40-0dd2dde17b7c" d="M4.46,29.51c.19,.21,.28,.44,.26,.71-.08,.48-.14,.94-.17,1.37-.04,.5-.04,.94,0,1.32,0,.02,0,.06-.02,.08-.08,0-.11,0-.28-.19-.8-.99-1.37-2.11-1.68-3.3-.08-.33-.12-.53-.13-.65-.02-.25-.02-.55,0-.88,.02-.29,.06-.6,.11-.92q.02-.08,.07-.1t.1,.15c.34,.83,.93,1.65,1.74,2.41"/><path class="uuid-347d5947-d080-42c3-9d40-0dd2dde17b7c" d="M1.34,28.98c.13,.14,.18,.29,.17,.47-.05,.31-.09,.62-.11,.9-.02,.33-.02,.62,0,.87,0,.02,0,.04-.01,.05-.05,0-.07,0-.18-.13-.52-.65-.9-1.39-1.1-2.17-.06-.22-.08-.35-.09-.42-.01-.17-.01-.36,0-.58,.01-.19,.04-.39,.07-.6q.01-.05,.04-.06s.04,.03,.07,.1c.22,.54,.61,1.08,1.14,1.59"/><path class="uuid-347d5947-d080-42c3-9d40-0dd2dde17b7c" d="M7.93,20.17c.24,.06,.31,.21,.19,.47-.57,1.07-1.11,2.22-1.58,3.4-.14,.27-.32,.37-.55,.3-.92-.41-1.64-.75-2.15-1.02-.11-.08-.13-.21-.06-.41,.32-.79,.68-1.56,1.06-2.28,.11-.18,.25-.3,.42-.36,.72-.19,1.62-.22,2.67-.1"/><path class="uuid-347d5947-d080-42c3-9d40-0dd2dde17b7c" d="M9.27,32.36c.33,.15,.47,.36,.46,.65-.09,.53-.15,1.04-.18,1.52-.04,.56-.04,1.04,0,1.46-.02,.18-.18,.21-.51,.12-.17-.06-.33-.12-.49-.19-1.19-.48-2.23-1.13-3.1-1.89-.24-.22-.37-.43-.41-.62-.03-.39-.03-.84,0-1.36,.03-.44,.09-.92,.17-1.41,.07-.24,.21-.29,.46-.14,.88,.63,1.93,1.19,3.12,1.68,.16,.07,.33,.13,.49,.19"/><path class="uuid-347d5947-d080-42c3-9d40-0dd2dde17b7c" d="M9.09,36.43c.33,.13,.53,.27,.6,.42,.17,.57,.44,.92,.82,1.02-.34-.11-.79-.26-1.12-.39-1.12-.51-1.15-.52-1.73-.87-1-.67-1.02-.68-1.52-1.12l-.6-.56c-.16-.16-.29-.41-.38-.72,0-.01,0-.03,0-.04,.01,0,.02-.02,.04-.02,.08,.02,.14,.06,.29,.19,.87,.78,1.92,1.43,3.11,1.91,.16,.07,.33,.13,.49,.19"/><path class="uuid-347d5947-d080-42c3-9d40-0dd2dde17b7c" d="M15.65,37.23c.34-.04,.53-.01,.59,.09,.13,.47,.36,.74,.67,.83-.02,.05-.03,.07-.39,.16-1.13,.27-2.31,.36-3.5,.24-.36-.05-.84-.12-1.2-.18-.03,0-.06-.01-.09-.02-.37-.1-.66-.44-.82-1.02,0-.13,.16-.17,.49-.13,1.41,.26,2.85,.26,4.25,.03"/><path class="uuid-347d5947-d080-42c3-9d40-0dd2dde17b7c" d="M15.84,29.42c.32,.14,.44,.34,.37,.62-.4,1.13-.73,2.25-.97,3.31-.09,.25-.31,.38-.67,.38-1.48-.09-3.01-.34-4.52-.75-.36-.13-.52-.35-.48-.68,.3-1.3,.71-2.69,1.2-4.08,.15-.32,.41-.43,.78-.33,1.47,.55,2.92,1.07,4.29,1.53"/><path class="uuid-347d5947-d080-42c3-9d40-0dd2dde17b7c" d="M18.62,24.73c.25,.21,.32,.44,.23,.69-.51,.95-.99,1.98-1.41,3.03-.13,.24-.35,.32-.66,.23-1.26-.47-2.6-.98-3.96-1.51-.32-.16-.43-.39-.33-.72,.52-1.29,1.11-2.56,1.74-3.73,.18-.27,.43-.33,.76-.2,1.3,.66,2.52,1.42,3.63,2.22"/><path class="uuid-347d5947-d080-42c3-9d40-0dd2dde17b7c" d="M5.92,18.51c.13-.11,.18-.15,.23-.18,0,0-.01,.02-.01,.03-.21,.22-.43,.5-.66,.82-.15,.2-.29,.42-.43,.65-.1,.14-.22,.27-.39,.39-.33,.23-.59,.5-.79,.82l.08-.13c.25-.39,.26-.41,.42-.63,.43-.58,.59-.79,1.16-1.38l.14-.14c.08-.08,.17-.16,.25-.24"/><path class="uuid-347d5947-d080-42c3-9d40-0dd2dde17b7c" d="M20.81,32.86c.34-.1,.39-.04,.39,.02-.03,.2-.06,.4-.07,.58-.02,.21-.02,.4,0,.56-.01,.07-.1,.2-.42,.44-1.12,.8-2.39,1.41-3.74,1.81-.33,.08-.51,.06-.56-.08-.03-.32-.03-.69,0-1.11,.03-.36,.07-.75,.14-1.15,.07-.21,.25-.33,.59-.37,1.33-.08,2.57-.31,3.67-.69"/><path class="uuid-347d5947-d080-42c3-9d40-0dd2dde17b7c" d="M20.74,34.59c.29-.21,.39-.25,.44-.26,.08,.23,.19,.36,.33,.4,0,.03-.02,.1-.33,.41-1,.99-2.16,1.76-3.41,2.3-.3,.12-.51,.18-.61,.18-.29-.08-.5-.34-.63-.78,0-.12,.16-.22,.49-.34,1.34-.43,2.61-1.07,3.72-1.91"/><path class="uuid-347d5947-d080-42c3-9d40-0dd2dde17b7c" d="M20.9,30.75c.16,.05,.23,.12,.21,.21-.13,.37-.24,.75-.32,1.1-.04,.09-.15,.17-.34,.24-.81,.24-1.74,.38-2.73,.41-.24,0-.35-.1-.33-.27,.16-.7,.38-1.44,.64-2.19,.09-.17,.24-.23,.46-.18,.9,.28,1.72,.51,2.41,.68"/><path class="uuid-347d5947-d080-42c3-9d40-0dd2dde17b7c" d="M23.75,26.56c.08,.38,.06,.54,.02,.61-.15,.16-.3,.35-.46,.57-.1,.14-.2,.29-.3,.45-.05,.05-.13,.08-.32-.2-.6-.92-1.4-1.85-2.35-2.74-.22-.24-.28-.46-.18-.68,.2-.32,.4-.62,.6-.9,.32-.45,.63-.83,.92-1.14,.13-.09,.29,0,.48,.27,.74,1.18,1.28,2.45,1.6,3.75"/><path class="uuid-347d5947-d080-42c3-9d40-0dd2dde17b7c" d="M11.57,16.01c-.15,.1-.37,.16-.7,.21-1.25,.15-2.43,.55-3.46,1.16-.19,.11-.22,.13-.27,.16,.04-.04,.08-.07,.12-.09,.83-.52,.92-.58,1.53-.88,.98-.42,1.06-.46,1.76-.66,1.08-.27,1.15-.28,1.83-.36l.24-.03c-.31,.03-.66,.19-1.06,.49"/><path class="uuid-347d5947-d080-42c3-9d40-0dd2dde17b7c" d="M22.53,16.63c.06,.09,.09,.15,.09,.2,0,0,0,0-.01,.01-.16-.02-.35,.05-.57,.21-.06,.03-.14-.02-.25-.15-.43-.55-.95-1.03-1.54-1.42-.14-.1-.18-.18-.13-.23,.27-.21,.51-.29,.7-.26,.06,.02,.16,.07,.3,.17,.57,.4,1.04,.9,1.41,1.47"/><path class="uuid-347d5947-d080-42c3-9d40-0dd2dde17b7c" d="M25.02,25.94c0,.12,.01,.41-.03,.54-.16-.01-.35,.05-.56,.22-.04-.02-.09-.04-.18-.46-.27-1.34-.77-2.65-1.48-3.86-.16-.31-.2-.5-.12-.61,.42-.32,.79-.46,1.09-.41,.09,.04,.2,.22,.34,.52,.55,1.27,.87,2.65,.93,4.07"/><path class="uuid-347d5947-d080-42c3-9d40-0dd2dde17b7c" d="M24.21,31.16c-.28-.08-.66-.2-1.13-.38-.11-.05-.25-.12-.21-.26,.19-.39,.39-.77,.61-1.12,.07-.07,.15,0,.25,.19,.26,.55,.43,1.08,.48,1.56"/></g></g><g><path class="uuid-c37e3512-abe3-4250-8e0d-c9d362b8e7a1" d="M29.11,25.03l-.34-.36,.43-.41,.34,.36-.43,.41Zm.66-.16l1.48,1.57-.43,.41-1.48-1.57,.43-.41Z"/><path class="uuid-c37e3512-abe3-4250-8e0d-c9d362b8e7a1" d="M30.98,23.72l.21,.22h0c-.03-.15-.02-.29,.03-.41,.05-.12,.12-.23,.21-.32,.12-.11,.23-.18,.33-.22,.1-.04,.2-.05,.3-.03,.1,.02,.19,.06,.28,.12,.09,.06,.19,.14,.28,.24l.91,.97-.43,.41-.84-.89c-.12-.13-.23-.21-.34-.23-.1-.03-.2,.01-.31,.11-.12,.11-.17,.23-.16,.35,.01,.12,.1,.26,.25,.42l.78,.83-.43,.41-1.48-1.57,.41-.39Z"/><path class="uuid-c37e3512-abe3-4250-8e0d-c9d362b8e7a1" d="M33.7,21.16l.27,.29-.32,.3,.74,.78c.07,.07,.13,.11,.17,.11,.05,0,.11-.03,.18-.1,.02-.02,.05-.05,.07-.07,.02-.02,.04-.05,.06-.07l.32,.33s-.07,.08-.11,.13c-.04,.04-.09,.09-.13,.13-.07,.06-.13,.12-.2,.17-.07,.05-.14,.08-.21,.1-.07,.02-.14,.01-.21-.01-.07-.02-.15-.08-.22-.15l-.88-.93-.26,.25-.27-.29,.26-.25-.45-.47,.43-.41,.45,.47,.32-.3Z"/><path class="uuid-c37e3512-abe3-4250-8e0d-c9d362b8e7a1" d="M35.95,21.3c.12,0,.25-.05,.37-.17,.09-.08,.14-.17,.16-.28,.02-.1,.02-.19-.01-.25l.38-.36c.12,.25,.15,.47,.1,.67-.05,.2-.16,.38-.34,.55-.12,.12-.25,.2-.39,.26-.14,.05-.27,.08-.41,.07-.14,0-.27-.04-.41-.11-.13-.07-.26-.16-.37-.28s-.2-.25-.25-.38c-.06-.14-.09-.28-.08-.42,0-.14,.03-.28,.09-.41,.06-.14,.15-.26,.27-.37,.13-.13,.28-.21,.42-.25,.15-.04,.3-.05,.44-.02,.15,.03,.29,.08,.42,.17,.13,.08,.25,.19,.36,.32l-1.14,1.07c.14,.13,.27,.2,.39,.2Zm-.29-1.29c-.11,0-.21,.04-.32,.14-.07,.07-.12,.13-.14,.2s-.03,.13-.03,.19c0,.06,.02,.12,.05,.16,.03,.05,.05,.09,.08,.12l.7-.66c-.12-.09-.24-.14-.34-.15Z"/><path class="uuid-c37e3512-abe3-4250-8e0d-c9d362b8e7a1" d="M36.98,18.07l.28,.29h0c-.03-.07-.04-.14-.05-.22,0-.07,0-.15,.02-.22s.04-.14,.08-.2c.04-.06,.08-.12,.14-.17,.03-.03,.06-.05,.11-.07l.38,.4s-.05,.03-.08,.06c-.03,.02-.06,.05-.09,.07-.08,.07-.13,.15-.16,.23-.03,.08-.04,.16-.03,.23s.04,.15,.08,.23c.04,.07,.1,.15,.17,.22l.67,.71-.43,.41-1.48-1.57,.41-.39Z"/><path class="uuid-c37e3512-abe3-4250-8e0d-c9d362b8e7a1" d="M38.67,16.47l.21,.22h0c-.03-.15-.02-.29,.03-.41,.05-.12,.12-.23,.21-.32,.12-.11,.23-.18,.33-.22,.1-.04,.2-.05,.3-.03,.1,.02,.19,.06,.28,.12,.09,.06,.19,.14,.28,.24l.91,.97-.43,.41-.84-.89c-.12-.13-.23-.21-.34-.23s-.2,.01-.31,.11c-.12,.11-.17,.23-.16,.35,.01,.12,.1,.26,.25,.42l.78,.83-.43,.41-1.48-1.57,.41-.39Z"/><path class="uuid-c37e3512-abe3-4250-8e0d-c9d362b8e7a1" d="M40.8,14.9c-.02-.11-.01-.22,.02-.32s.08-.21,.15-.31c.07-.1,.15-.19,.24-.27,.08-.07,.16-.14,.26-.21s.19-.11,.28-.14c.1-.03,.2-.04,.29-.02,.1,.02,.19,.07,.28,.17l.77,.82c.07,.07,.14,.14,.2,.19,.07,.06,.13,.09,.18,.11l-.44,.41s-.06-.04-.09-.06c-.03-.02-.06-.04-.08-.07,0,.14-.04,.26-.1,.38-.07,.12-.15,.22-.25,.31-.08,.07-.15,.13-.24,.17s-.17,.07-.25,.08c-.09,0-.17,0-.25-.04-.08-.03-.16-.09-.24-.17-.08-.09-.14-.18-.16-.27-.02-.09-.03-.17,0-.25,.02-.08,.05-.16,.1-.24s.1-.15,.15-.22c.06-.07,.11-.14,.17-.21,.06-.07,.1-.13,.14-.19,.04-.06,.06-.11,.07-.16,0-.05-.01-.1-.06-.14-.04-.05-.09-.08-.13-.09-.04-.01-.08-.02-.12,0-.04,0-.08,.03-.12,.05s-.08,.06-.12,.09c-.09,.08-.14,.16-.15,.24-.01,.08,.01,.17,.09,.26l-.43,.41c-.09-.11-.14-.22-.16-.32Zm1.43-.19s-.04,.07-.07,.11-.05,.07-.08,.11c-.03,.04-.06,.07-.09,.11-.03,.04-.05,.08-.07,.11-.02,.04-.04,.08-.04,.12,0,.04,0,.08,0,.12,.01,.04,.04,.08,.07,.12s.07,.06,.11,.08c.04,.01,.08,.02,.12,0s.08-.02,.12-.05c.04-.02,.07-.05,.11-.09,.09-.08,.14-.16,.16-.23,.02-.07,.02-.14,0-.2s-.04-.11-.07-.16c-.03-.05-.06-.08-.08-.1l-.15-.16s-.01,.07-.03,.1Z"/><path class="uuid-c37e3512-abe3-4250-8e0d-c9d362b8e7a1" d="M43.59,11.83l.27,.29-.32,.3,.74,.78c.07,.07,.13,.11,.17,.11s.11-.03,.18-.1c.02-.02,.05-.05,.07-.07,.02-.02,.04-.05,.06-.07l.32,.33s-.07,.08-.11,.13c-.04,.04-.09,.09-.13,.13-.07,.06-.13,.12-.2,.17-.07,.05-.14,.08-.21,.1-.07,.02-.14,.01-.21-.01-.07-.02-.15-.08-.22-.15l-.88-.93-.26,.25-.27-.29,.26-.25-.45-.47,.43-.41,.45,.47,.32-.3Z"/><path class="uuid-c37e3512-abe3-4250-8e0d-c9d362b8e7a1" d="M44.04,10.95l-.34-.36,.43-.41,.34,.36-.43,.41Zm.66-.16l1.48,1.57-.43,.41-1.48-1.57,.43-.41Z"/><path class="uuid-c37e3512-abe3-4250-8e0d-c9d362b8e7a1" d="M45.93,10.47c-.06-.14-.09-.28-.08-.42,0-.14,.04-.28,.1-.41,.06-.13,.16-.26,.28-.38s.25-.2,.39-.26c.14-.06,.28-.08,.42-.08,.14,0,.28,.04,.41,.11,.14,.07,.26,.16,.38,.29s.21,.26,.26,.4c.06,.14,.08,.28,.08,.42,0,.14-.04,.28-.1,.41s-.16,.26-.28,.38-.25,.2-.39,.26c-.14,.06-.27,.08-.41,.08-.14,0-.28-.04-.41-.11-.13-.07-.26-.16-.38-.29s-.21-.26-.27-.4Zm.89,.16c.07,.05,.14,.08,.21,.1,.07,.02,.15,.02,.22,0,.08-.02,.15-.06,.22-.13s.12-.14,.14-.22c.02-.08,.03-.15,.01-.23-.02-.08-.05-.15-.09-.22-.04-.07-.1-.14-.16-.2s-.12-.12-.19-.17c-.07-.05-.14-.08-.21-.1-.07-.02-.15-.02-.23,0-.08,.02-.15,.06-.23,.13s-.12,.14-.14,.22c-.02,.08-.02,.15,0,.22,.01,.07,.04,.15,.09,.22,.05,.07,.1,.14,.16,.2s.12,.12,.19,.17Z"/><path class="uuid-c37e3512-abe3-4250-8e0d-c9d362b8e7a1" d="M48.23,7.46l.21,.22h0c-.03-.15-.02-.29,.03-.41,.05-.12,.12-.23,.21-.32,.12-.11,.23-.18,.33-.22,.1-.04,.2-.05,.3-.03,.1,.02,.19,.06,.28,.12,.09,.06,.19,.14,.28,.24l.91,.97-.43,.41-.84-.89c-.12-.13-.23-.21-.34-.23s-.2,.01-.31,.11c-.12,.11-.17,.23-.16,.35,.01,.12,.1,.26,.25,.42l.78,.83-.43,.41-1.48-1.57,.41-.39Z"/><path class="uuid-c37e3512-abe3-4250-8e0d-c9d362b8e7a1" d="M50.36,5.89c-.02-.11-.01-.22,.02-.32s.08-.21,.15-.31c.07-.1,.15-.19,.24-.27,.08-.07,.16-.14,.26-.21s.19-.11,.28-.14c.1-.03,.2-.04,.29-.02,.1,.02,.19,.07,.28,.17l.77,.82c.07,.07,.14,.14,.2,.19,.07,.06,.13,.09,.18,.11l-.44,.41s-.06-.04-.09-.06c-.03-.02-.06-.04-.08-.07,0,.14-.04,.26-.1,.38-.07,.12-.15,.22-.25,.31-.08,.07-.15,.13-.24,.17s-.17,.07-.25,.08c-.09,0-.17,0-.25-.04-.08-.03-.16-.09-.24-.17-.08-.09-.14-.18-.16-.27-.02-.09-.03-.17,0-.25,.02-.08,.05-.16,.1-.24s.1-.15,.15-.22c.06-.07,.11-.14,.17-.21,.06-.07,.1-.13,.14-.19,.04-.06,.06-.11,.07-.16,0-.05-.01-.1-.06-.14-.04-.05-.09-.08-.13-.09-.04-.01-.08-.02-.12,0-.04,0-.08,.03-.12,.05s-.08,.06-.12,.09c-.09,.08-.14,.16-.15,.24-.01,.08,.01,.17,.09,.26l-.43,.41c-.09-.11-.14-.22-.16-.32Zm1.43-.19s-.04,.07-.07,.11-.05,.07-.08,.11c-.03,.04-.06,.07-.09,.11-.03,.04-.05,.08-.07,.11-.02,.04-.04,.08-.04,.12,0,.04,0,.08,0,.12,.01,.04,.04,.08,.07,.12s.07,.06,.11,.08c.04,.01,.08,.02,.12,0s.08-.02,.12-.05c.04-.02,.07-.05,.11-.09,.09-.08,.14-.16,.16-.23,.02-.07,.02-.14,0-.2s-.04-.11-.07-.16c-.03-.05-.06-.08-.08-.1l-.15-.16s-.01,.07-.03,.1Z"/><path class="uuid-c37e3512-abe3-4250-8e0d-c9d362b8e7a1" d="M52.17,2.62l2.05,2.17-.43,.41-2.05-2.17,.43-.41Z"/></g><path class="uuid-347d5947-d080-42c3-9d40-0dd2dde17b7c" d="M39.24,4.15c-.15-.16-.23-.36-.23-.58,0-.22,.09-.41,.25-.57s.36-.23,.59-.22c.23,0,.42,.09,.57,.26s.23,.36,.22,.58c0,.22-.1,.41-.26,.57s-.36,.23-.58,.22c-.22,0-.41-.09-.56-.26Zm2.09-.1l2.39,2.53c.2,.21,.35,.32,.48,.33,.12,.01,.25-.05,.4-.18,.06-.06,.11-.11,.13-.15,.02-.04,.04-.08,.06-.11,.03,.02,.05,.04,.08,.07l.07,.07c.12,.12,.19,.25,.22,.36,.03,.12,.04,.23,.02,.34-.02,.11-.06,.21-.12,.3-.06,.09-.13,.17-.2,.23-.38,.36-.75,.51-1.1,.44-.35-.07-.69-.27-1.02-.62l-2.46-2.61,1.07-1.01Z"/><g><path class="uuid-347d5947-d080-42c3-9d40-0dd2dde17b7c" d="M35.37,32.34l-2.09-2.16,.29-.28,2.09,2.16-.29,.28Z"/><path class="uuid-347d5947-d080-42c3-9d40-0dd2dde17b7c" d="M35.39,30.98l.25-.29c.12,.1,.23,.16,.35,.18,.11,.02,.24,0,.38-.04,.14-.05,.27-.14,.39-.26,.11-.11,.19-.21,.24-.33,.05-.11,.07-.22,.06-.31-.01-.1-.05-.18-.12-.24-.07-.07-.14-.11-.23-.12-.09-.01-.19,0-.32,.06-.08,.03-.24,.12-.49,.27-.25,.14-.43,.23-.55,.27-.16,.04-.3,.05-.42,.02-.13-.03-.24-.1-.34-.2-.11-.11-.17-.24-.2-.39-.03-.16,0-.31,.06-.48,.07-.17,.18-.32,.32-.46,.16-.16,.33-.27,.5-.33s.34-.08,.5-.04c.16,.04,.31,.12,.44,.24l-.25,.29c-.15-.12-.3-.18-.45-.17s-.31,.1-.48,.26c-.17,.17-.27,.32-.29,.46-.02,.14,.02,.26,.1,.35,.08,.08,.17,.11,.27,.11,.1,0,.3-.09,.58-.26s.49-.28,.61-.33c.18-.06,.34-.08,.49-.05s.28,.1,.39,.22c.11,.12,.18,.26,.22,.42,.03,.17,.01,.33-.05,.51-.07,.18-.18,.34-.33,.49-.2,.19-.39,.32-.58,.39-.19,.07-.37,.08-.56,.04-.19-.04-.35-.13-.49-.27Z"/><path class="uuid-347d5947-d080-42c3-9d40-0dd2dde17b7c" d="M37.07,28.66c-.35-.36-.52-.73-.53-1.12,0-.39,.15-.73,.45-1.02,.2-.19,.42-.32,.68-.38,.25-.06,.5-.04,.75,.04,.25,.09,.48,.24,.69,.46,.21,.22,.36,.46,.44,.72,.08,.26,.08,.51,0,.76-.08,.25-.21,.46-.4,.64-.2,.2-.43,.32-.69,.38-.25,.06-.51,.04-.75-.05-.25-.09-.46-.23-.64-.42Zm.3-.28c.25,.26,.52,.4,.8,.41,.29,.01,.53-.08,.75-.29,.21-.21,.32-.46,.31-.74,0-.29-.15-.57-.41-.84-.17-.18-.35-.3-.53-.37-.19-.07-.37-.09-.56-.05-.18,.04-.35,.13-.49,.26-.2,.2-.31,.43-.32,.71-.01,.28,.14,.58,.45,.91Z"/><path class="uuid-347d5947-d080-42c3-9d40-0dd2dde17b7c" d="M40.81,26.11l.23-.27c.14,.1,.26,.14,.38,.14s.22-.05,.31-.15c.08-.08,.13-.17,.16-.26,.03-.1,.03-.2,0-.29-.02-.1-.07-.22-.15-.35-.08-.13-.17-.25-.27-.36-.01-.01-.03-.03-.05-.05,.03,.14,.02,.28-.02,.42-.04,.14-.12,.26-.22,.37-.18,.17-.39,.25-.64,.25-.25-.01-.48-.12-.68-.33-.21-.22-.32-.46-.32-.72,0-.26,.1-.48,.29-.67,.14-.14,.31-.22,.5-.26s.38-.02,.58,.07c.2,.08,.42,.26,.68,.52,.27,.28,.45,.52,.55,.75,.1,.22,.13,.43,.09,.63-.04,.2-.13,.38-.29,.53-.17,.16-.35,.25-.55,.26-.2,0-.39-.06-.58-.21Zm.16-2.01c-.15-.15-.31-.23-.47-.24-.17-.01-.31,.04-.42,.15-.12,.11-.17,.26-.17,.44,0,.18,.08,.35,.23,.5,.13,.14,.28,.21,.45,.22,.17,0,.31-.05,.43-.17,.12-.12,.18-.26,.18-.42s-.08-.32-.23-.47Z"/><path class="uuid-347d5947-d080-42c3-9d40-0dd2dde17b7c" d="M41.9,23.96c-.25-.25-.42-.49-.52-.69-.1-.21-.14-.4-.12-.59,.02-.18,.11-.35,.27-.5,.12-.11,.24-.19,.37-.22,.13-.04,.27-.04,.41,0,.14,.03,.29,.1,.45,.19,.15,.09,.33,.25,.54,.46,.25,.25,.42,.48,.52,.69,.1,.21,.14,.4,.12,.59s-.11,.35-.27,.51c-.21,.2-.44,.29-.71,.25-.32-.04-.67-.27-1.06-.67Zm.27-.26c.34,.36,.61,.55,.81,.59,.2,.04,.36,0,.48-.12,.12-.12,.17-.28,.14-.47-.03-.2-.22-.48-.56-.83-.34-.36-.62-.55-.81-.59-.2-.04-.36,0-.48,.12-.12,.12-.17,.26-.14,.44,.04,.22,.23,.51,.57,.86Z"/><path class="uuid-347d5947-d080-42c3-9d40-0dd2dde17b7c" d="M43.58,22.34c-.25-.25-.42-.49-.52-.69-.1-.21-.14-.4-.11-.59,.02-.18,.11-.35,.27-.5,.12-.11,.24-.19,.37-.22,.13-.04,.27-.04,.41,0,.14,.03,.29,.1,.45,.19,.15,.09,.34,.25,.54,.46,.24,.25,.42,.48,.51,.69,.1,.21,.14,.4,.12,.59s-.11,.35-.27,.51c-.21,.2-.44,.29-.71,.25-.32-.04-.67-.27-1.06-.67Zm.27-.26c.34,.35,.61,.55,.81,.59s.36,0,.48-.12c.12-.12,.17-.28,.14-.47-.03-.2-.22-.48-.56-.83-.34-.36-.61-.55-.81-.59-.2-.04-.36,0-.48,.12-.12,.12-.17,.26-.14,.44,.04,.22,.23,.51,.57,.86Z"/><path class="uuid-347d5947-d080-42c3-9d40-0dd2dde17b7c" d="M47.29,20.82l-.27,.26-1.63-1.69c0,.12-.03,.26-.07,.43-.04,.16-.09,.3-.15,.41l-.25-.26c.08-.21,.13-.42,.14-.63,.01-.21,0-.38-.04-.52l.17-.17,2.1,2.17Z"/><path class="uuid-347d5947-d080-42c3-9d40-0dd2dde17b7c" d="M47.73,17.94l-.29-.3,.3-.29,.29,.3-.3,.29Zm1.22,1.26l-.29-.3,.3-.29,.29,.3-.3,.29Z"/><path class="uuid-347d5947-d080-42c3-9d40-0dd2dde17b7c" d="M51.63,16.12l.25,.25-1.43,1.38c-.06-.06-.11-.13-.15-.21-.06-.13-.09-.29-.1-.46,0-.17,0-.39,.03-.66,.05-.42,.06-.73,.03-.92-.03-.19-.09-.34-.19-.44-.1-.11-.22-.16-.37-.16-.14,0-.28,.06-.4,.18-.13,.12-.19,.26-.2,.41,0,.15,.06,.29,.19,.43l-.3,.23c-.18-.22-.26-.44-.24-.67,.02-.22,.13-.44,.34-.63,.21-.2,.43-.3,.66-.3,.23,0,.43,.08,.59,.25,.08,.09,.15,.19,.19,.31,.05,.12,.07,.26,.08,.43,0,.17,0,.43-.04,.78-.03,.29-.04,.48-.04,.57,0,.09,0,.18,.03,.25l1.06-1.02Z"/><path class="uuid-347d5947-d080-42c3-9d40-0dd2dde17b7c" d="M51.13,15.03c-.25-.26-.42-.49-.52-.69-.1-.21-.14-.4-.11-.59,.02-.18,.11-.35,.27-.5,.12-.11,.24-.19,.37-.23s.27-.04,.41,0c.14,.03,.29,.1,.45,.19,.15,.09,.34,.25,.54,.46,.24,.25,.42,.48,.51,.69,.1,.21,.14,.4,.12,.59-.02,.19-.11,.35-.27,.51-.21,.2-.44,.29-.71,.25-.32-.04-.67-.27-1.06-.67Zm.27-.26c.34,.35,.61,.55,.81,.59,.2,.04,.36,0,.48-.12,.12-.12,.17-.28,.14-.47-.03-.2-.22-.47-.56-.83-.34-.36-.61-.55-.81-.59-.2-.04-.36,0-.48,.12-.12,.12-.17,.26-.14,.44,.04,.22,.23,.51,.57,.86Z"/><path class="uuid-347d5947-d080-42c3-9d40-0dd2dde17b7c" d="M54.84,13.51l-.27,.26-1.63-1.69c0,.12-.03,.26-.07,.43-.04,.16-.09,.3-.15,.41l-.25-.26c.08-.21,.13-.42,.14-.63,.01-.21,0-.38-.04-.52l.17-.17,2.1,2.17Z"/><path class="uuid-347d5947-d080-42c3-9d40-0dd2dde17b7c" d="M54.98,12.29l.26-.29c.15,.12,.3,.17,.44,.17,.14,0,.27-.06,.37-.16,.13-.12,.19-.28,.18-.46,0-.18-.08-.35-.24-.51-.15-.15-.3-.23-.47-.23-.17,0-.32,.06-.46,.19-.08,.08-.14,.18-.17,.28-.03,.1-.04,.21-.02,.31l-.28,.21-.87-1.31,1.08-1.04,.25,.25-.86,.83,.44,.69c.04-.22,.14-.39,.28-.53,.19-.18,.41-.27,.67-.27,.26,0,.48,.11,.68,.32,.19,.2,.3,.42,.32,.67,.03,.31-.07,.58-.31,.81-.2,.19-.41,.29-.64,.3s-.44-.07-.64-.23Z"/></g></svg>