<?xml version="1.0" encoding="utf-8"?>
<!-- Generator: Adobe Illustrator 26.4.1, SVG Export Plug-In . SVG Version: 6.00 Build 0)  -->
<svg version="1.1" id="uuid-f19cd96d-b03e-4e0d-a3a7-9783eddf3017"
	 xmlns="http://www.w3.org/2000/svg" xmlns:xlink="http://www.w3.org/1999/xlink" x="0px" y="0px" viewBox="0 0 113.2 87.2"
	 style="enable-background:new 0 0 113.2 87.2;" xml:space="preserve">
<style type="text/css">
	.st0{opacity:0.8;fill:#FFFFFF;enable-background:new    ;}
	.st1{fill:#FFFFFF;}
	.st2{opacity:0.7;fill:#FFFFFF;enable-background:new    ;}
</style>
<path class="st0" d="M81,13.7c-2.6-2.8-5.8-2.8-8.3-1.8c1-2.1,1-5.2-1.3-7.6C68,0.6,63.1,0.9,58.8,4.9L51,12.2l0,0l-2.3,2.2l3.8,1.8
	l4.2,2l8.4,4l5.4-5.1c2.4-2.3,5.1-2.2,6.9-0.3c1.8,1.9,1.8,4.6-0.6,6.9l-2.8,2.6l4,1.9l2-1.9C84,22.6,84.8,17.8,81,13.7L81,13.7z
	 M67.3,14.5l-5.2,4.9l-5.9-6.3l5.2-4.9c2.2-2.1,4.8-2.4,6.7-0.4S69.5,12.4,67.3,14.5z"/>
<polygon class="st1" points="72.2,33.7 72.2,33.7 72.1,33.8 "/>
<path class="st1" d="M72,28.3L69.3,27l-12.1-5.8l-0.1-0.1l0,0l-10.3-5l-0.1,0.1L45.9,17l-2,1.9l12.2,29.9l3.6-3.4l0.1-0.1l-2.6-5.9
	l7.7-7.2l1.3-1.3l0,0l0.1-0.1l5.7,2.9h0l1-0.9l2.7-2.5l0.1-0.1C75.9,30.2,72,28.3,72,28.3z M62.7,29l-7,6.6l-5.5-13l-0.1-0.2
	l1.8,0.9l1.9,1l9,4.6L62.7,29L62.7,29z"/>
<g>
	<path class="st2" d="M41.6,63.8c0.4,0.1,0.5,0.3,0.5,0.5c-0.3,0.9-0.6,1.7-0.7,2.5c-0.1,0.2-0.4,0.4-0.8,0.5c-1.9,0.6-4,0.9-6.3,1
		c-0.5,0-0.8-0.2-0.8-0.6c0.4-1.6,0.9-3.3,1.5-5.1c0.2-0.4,0.5-0.5,1.1-0.4C38.1,62.9,40,63.4,41.6,63.8"/>
	<path class="st2" d="M4.4,59.6c0.3,0.3,0.4,0.6,0.3,0.9c-0.1,0.6-0.2,1.2-0.2,1.8c0,0.7,0,1.2,0,1.7c0,0,0,0.1,0,0.1
		c-0.1,0-0.1,0-0.4-0.3c-1-1.3-1.8-2.8-2.2-4.3c-0.1-0.4-0.2-0.7-0.2-0.8c0-0.3,0-0.7,0-1.2c0-0.4,0.1-0.8,0.1-1.2
		c0-0.1,0-0.1,0.1-0.1c0.1,0,0.1,0.1,0.1,0.2C2.6,57.6,3.3,58.7,4.4,59.6"/>
	<path class="st2" d="M8.6,67.9c0.4,0.5,0.6,0.9,0.8,1.2c0.2,0.5,0.4,1,0.6,1.3L9.7,70c-1.4-1.8-1.4-1.9-2.1-3.1
		c-1-1.9-1.1-2.1-1.6-3.4c-0.3-0.9-0.6-2-0.9-2.9c0,0.2,0.1,0.3,0.1,0.5C5.8,63.6,7,65.9,8.6,67.9"/>
	<path class="st0" d="M11.6,51.4c0.4,0.3,0.5,0.7,0.4,1.3c-0.8,2.4-1.5,4.7-2,6.9c-0.2,0.5-0.4,0.6-0.9,0.3c-1.6-1.5-2.8-3-3.5-4.6
		c-0.2-0.4-0.2-0.8-0.1-1.2c0.3-1.5,0.8-3.1,1.4-4.6C7,49.1,7.1,49,7.4,49.1C8.3,49.8,9.8,50.6,11.6,51.4"/>
	<path class="st2" d="M13.2,62.1c0.4,0.3,0.5,0.6,0.4,1c-0.3,0.7-0.5,1.4-0.7,2.1c-0.2,0.8-0.4,1.4-0.5,2c-0.1,0.2-0.3,0.2-0.7,0
		c-0.2-0.1-0.4-0.3-0.6-0.4c-1.5-1-2.8-2.3-3.7-3.6c-0.3-0.4-0.4-0.7-0.4-1c0.1-0.6,0.2-1.2,0.4-1.9c0.2-0.6,0.4-1.2,0.7-1.9
		C8.3,58,8.5,58,8.8,58.3c1,1.1,2.3,2.3,3.8,3.3C12.8,61.8,13,61.9,13.2,62.1"/>
	<path class="st2" d="M14.9,71.2c0.5,0.2,0.7,0.5,0.7,0.9c-0.1,0.8-0.2,1.5-0.3,2.2c-0.1,0.8-0.1,1.5,0,2.1c0,0.2-0.3,0.3-0.7,0.2
		c-0.2-0.1-0.5-0.2-0.7-0.3c-1.7-0.7-3.2-1.6-4.4-2.7C9.2,73.3,9,73,8.9,72.7c0-0.6,0-1.2,0-1.9c0-0.6,0.1-1.3,0.2-2
		c0.1-0.3,0.3-0.4,0.6-0.2c1.2,0.9,2.7,1.7,4.4,2.4C14.5,71.1,14.7,71.2,14.9,71.2"/>
	<path class="st2" d="M18.5,56.4c0.6,0.3,0.9,0.8,0.7,1.5c-0.9,2.6-1.7,5.2-2.3,7.7c-0.2,0.6-0.6,0.8-1.3,0.6
		c-0.3-0.1-0.7-0.3-1-0.4c-2.4-1-4.5-2.1-6.2-3.3C8,62,7.8,61.6,7.8,61c0.5-2.3,1.2-4.7,2.1-7.1c0.3-0.6,0.6-0.8,1.2-0.6
		c1.9,0.9,4,1.8,6.4,2.7C17.8,56.2,18.2,56.3,18.5,56.4"/>
	<path class="st2" d="M27.2,45c0.7,0.4,0.9,0.9,0.6,1.6c-1.4,2.7-2.8,5.5-4,8.5c-0.4,0.7-0.9,0.9-1.7,0.7c-0.4-0.1-0.7-0.3-1.1-0.4
		c-2.7-1.1-5.1-2.1-7.2-3c-0.5-0.3-0.7-0.8-0.5-1.5c1.1-2.7,2.3-5.4,3.7-7.9c0.4-0.6,0.9-0.8,1.5-0.7c2.3,0.5,4.8,1.3,7.5,2.4
		C26.5,44.7,26.9,44.9,27.2,45"/>
	<path class="st2" d="M25.2,45.2c0.5,0.3,0.6,0.6,0.4,1.1c-1,1.9-2,4-2.8,6.1c-0.3,0.5-0.6,0.6-1.2,0.5c-0.3-0.1-0.5-0.2-0.8-0.3
		c-1.9-0.8-3.7-1.5-5.2-2.2c-0.4-0.2-0.5-0.6-0.4-1.1c0.8-2,1.7-3.9,2.6-5.7c0.3-0.4,0.6-0.6,1.1-0.5c1.7,0.4,3.5,0.9,5.4,1.7
		C24.7,44.9,25,45,25.2,45.2"/>
	<path class="st2" d="M21.3,36.3c0.3,0.2,0.4,0.4,0.3,0.7c-0.7,1.2-1.3,2.6-1.8,4c-0.2,0.3-0.4,0.4-0.8,0.3
		c-0.2-0.1-0.3-0.1-0.5-0.2c-1.3-0.5-2.4-1-3.4-1.4c-0.3-0.1-0.3-0.4-0.2-0.7c0.5-1.3,1.1-2.5,1.7-3.7c0.2-0.3,0.4-0.4,0.7-0.3
		c1.1,0.2,2.3,0.6,3.5,1.1C20.9,36.2,21.1,36.3,21.3,36.3"/>
	<path class="st0" d="M30.6,69.6c0.5,0.1,0.8,0.2,0.7,0.6c-0.1,0.7-0.2,1.3-0.2,1.9c-0.1,0.7-0.1,1.3,0,1.8c0,0.2-0.3,0.4-0.8,0.5
		c-2.2,0.3-4.4,0.3-6.7-0.1c-0.5-0.1-0.8-0.3-0.9-0.6c-0.1-0.7-0.1-1.4,0-2.3c0.1-0.7,0.2-1.5,0.3-2.4c0.1-0.4,0.4-0.6,1-0.5
		C26.2,69.2,28.4,69.5,30.6,69.6"/>
	<path class="st2" d="M29.6,70.2c0.5,0.1,0.8,0.2,0.7,0.6c-0.1,0.7-0.2,1.3-0.2,1.9c-0.1,0.7-0.1,1.3,0,1.8c0,0.2-0.3,0.4-0.8,0.5
		c-2.2,0.3-4.4,0.3-6.7-0.1c-0.5-0.1-0.8-0.3-0.9-0.6c-0.1-0.6-0.1-1.4,0-2.3c0.1-0.7,0.2-1.5,0.3-2.4c0.1-0.4,0.4-0.6,1-0.5
		C25.1,69.8,27.4,70.2,29.6,70.2"/>
	<path class="st2" d="M26.3,70.7c0.4,0,0.6,0.2,0.6,0.5c-0.1,0.5-0.1,1-0.2,1.5c0,0.5,0,1,0,1.4c0,0.2-0.2,0.3-0.6,0.4
		c-1.7,0.2-3.4,0.2-5.1-0.1c-0.4-0.1-0.6-0.3-0.7-0.5c0-0.5,0-1.1,0-1.7c0-0.6,0.1-1.2,0.2-1.8c0.1-0.3,0.3-0.4,0.8-0.4
		C22.9,70.4,24.7,70.6,26.3,70.7"/>
	<path class="st2" d="M24.9,80.2c0.4-0.1,0.7,0,0.8,0.1c0.2,0.6,0.5,1,0.8,1.1c0,0.1,0,0.1-0.5,0.2c-1.5,0.4-3,0.5-4.6,0.4
		c-0.5-0.1-1.1-0.1-1.6-0.2c0,0-0.1,0-0.1,0c-0.5-0.1-0.8-0.6-1-1.3c0-0.2,0.2-0.2,0.6-0.2C21.2,80.5,23.1,80.5,24.9,80.2"/>
	<path class="st2" d="M29.1,55.3c0.5,0.2,0.7,0.5,0.6,1c-0.6,1.8-1.1,3.5-1.5,5.1c-0.1,0.4-0.5,0.6-1,0.6c-2.3-0.1-4.7-0.5-7-1.2
		c-0.6-0.2-0.8-0.5-0.7-1.1c0.5-2,1.1-4.2,1.9-6.3c0.2-0.5,0.6-0.7,1.2-0.5C24.7,53.8,26.9,54.6,29.1,55.3"/>
	<path class="st2" d="M21,31.6c1-0.1,0.8,0.3,0.7,0.5c-0.8,0.9-1.7,2-2.7,3.3c-0.6,0.8-1.2,1.7-1.7,2.6c-0.4,0.6-1,0.8-1.6,0.9
		c-2.7-0.2-5,0.1-6.8,0.7c-0.6,0.2-0.4-0.3-0.3-0.4c0.4-0.6,0.8-1.2,1.2-1.8c0.6-0.9,1.2-1.6,1.8-2.2c0.3-0.3,0.7-0.6,1.3-1
		C15.2,32.8,18,31.9,21,31.6"/>
	<path class="st2" d="M27.4,35.3c0.6,0.2,0.6,0.4,0.5,0.5c-0.4,0.4-0.7,1-1,1.7c-0.2,0.4-0.4,0.9-0.6,1.4c-0.2,0.3-0.4,0.4-0.9,0.2
		c-1.8-0.7-3.3-1.1-4.4-1.1c-0.4,0-0.3-0.3-0.3-0.3c0.1-0.3,0.2-0.7,0.4-1c0.2-0.5,0.5-0.9,0.7-1.1c0.1-0.1,0.4-0.3,0.7-0.4
		C23.7,34.9,25.4,34.9,27.4,35.3"/>
	<path class="st2" d="M27,23.1c0.6,0.2,0.6,0.4,0.5,0.5c-0.4,0.4-0.7,1-1,1.7c-0.2,0.4-0.4,0.9-0.6,1.4c-0.2,0.3-0.4,0.4-0.9,0.2
		c-1.8-0.7-3.3-1.1-4.4-1.1c-0.4,0-0.3-0.3-0.3-0.3c0.1-0.3,0.2-0.7,0.4-1c0.2-0.5,0.5-0.9,0.7-1.1c0.1-0.1,0.4-0.3,0.7-0.4
		C23.3,22.6,25,22.6,27,23.1"/>
	<path class="st2" d="M36.6,26.2c0.5,0.1,0.5,0.3,0.5,0.4c-0.3,0.4-0.7,0.9-1,1.5c-0.2,0.4-0.4,0.8-0.6,1.3
		c-0.2,0.3-0.4,0.3-0.8,0.2c-1.5-0.5-2.8-0.7-3.8-0.7c-0.3,0-0.3-0.2-0.2-0.3c0.1-0.3,0.3-0.6,0.4-0.9c0.2-0.4,0.4-0.8,0.7-1
		c0.1-0.1,0.3-0.2,0.6-0.4C33.5,26,35,25.9,36.6,26.2"/>
	<path class="st2" d="M34.2,17.3c0.3,0,0.3,0.1,0.2,0.1c-0.3,0.3-0.6,0.7-1,1.2c-0.2,0.3-0.4,0.6-0.6,0.9c-0.2,0.2-0.3,0.3-0.6,0.3
		c-0.9,0-1.6,0.1-2.3,0.4c-0.2,0.1-0.1-0.1-0.1-0.1c0.1-0.2,0.3-0.4,0.4-0.6c0.2-0.3,0.4-0.6,0.6-0.8c0.1-0.1,0.3-0.2,0.5-0.3
		C32.2,17.9,33.2,17.5,34.2,17.3"/>
	<path class="st1" d="M33.9,47.5c0.4,0.2,0.5,0.5,0.3,0.9c-0.8,1.5-1.5,3.1-2.2,4.7c-0.2,0.4-0.5,0.5-0.9,0.4
		c-0.2-0.1-0.4-0.2-0.6-0.2c-1.5-0.6-2.9-1.2-4.1-1.7c-0.3-0.2-0.4-0.4-0.3-0.8c0.6-1.5,1.3-3,2.1-4.4c0.2-0.3,0.5-0.5,0.9-0.4
		c1.3,0.3,2.7,0.7,4.2,1.3C33.5,47.3,33.7,47.4,33.9,47.5"/>
	<path class="st2" d="M31.5,38.4c0.5,0.3,0.6,0.5,0.4,0.8c-0.6,0.7-1.3,1.5-1.9,2.4c-0.4,0.6-0.8,1.2-1.3,1.9
		c-0.3,0.4-0.7,0.5-1.3,0.3c-0.3-0.1-0.5-0.2-0.8-0.3c-1.9-0.8-3.8-1.3-5.4-1.7c-0.4-0.1-0.5-0.4-0.4-0.8c0.4-0.6,0.8-1.2,1.2-1.8
		c0.6-0.9,1.2-1.6,1.8-2.2c0.3-0.2,0.7-0.3,1.2-0.3c1.8,0.1,3.8,0.6,5.7,1.3C31,38.2,31.3,38.3,31.5,38.4"/>
	<path class="st2" d="M40.2,44.8c0.3,0.4,0.4,0.7,0.2,0.9c-0.4,0.5-0.9,1-1.4,1.7c-0.3,0.4-0.6,0.9-0.9,1.3c-0.2,0.3-0.5,0.3-0.9,0
		c-1.5-1.2-3.2-2.3-5-3.3c-0.4-0.3-0.5-0.6-0.3-1c0.4-0.6,0.7-1.1,1.1-1.6c0.6-0.8,1.1-1.5,1.7-2.1c0.2-0.2,0.6-0.2,1,0.1
		C37.5,41.9,39,43.3,40.2,44.8"/>
	<path class="st2" d="M44.6,58.2c0.3,0.4,0.4,0.7,0.3,1c-0.5,0.9-0.9,1.9-1.3,2.9c-0.1,0.2-0.4,0.3-0.8,0.2
		c-1.8-0.6-3.9-1.3-6.3-2.2c-0.6-0.3-0.8-0.6-0.6-1.1c0.8-2,1.7-3.9,2.7-5.7c0.3-0.4,0.7-0.4,1.2-0.1C41.7,54.8,43.4,56.5,44.6,58.2
		"/>
	<path class="st2" d="M49.2,59.1c0.2,0.5,0.2,0.8,0.1,1c-0.7,0.8-1.3,1.6-2,2.5c-0.2,0.2-0.5,0.2-0.9,0c-1.6-1-3.5-2.2-5.6-3.6
		c-0.5-0.4-0.6-0.8-0.4-1.2c1.2-1.7,2.6-3.4,3.9-5c0.4-0.3,0.7-0.2,1.2,0.2C47.1,55.1,48.4,57.2,49.2,59.1"/>
	<path class="st0" d="M37.4,33.1c0.4,0.2,0.6,0.3,0.8,0.4c-0.8-0.1-1.8,0.3-2.9,1.1c-0.3,0.2-0.8,0.1-1.5-0.1
		c-0.3-0.1-0.6-0.3-1-0.4c-2.4-1-4.8-1.5-7.1-1.6c-0.8-0.1-0.7-0.3-0.6-0.4c0.9-0.7,1.7-1,2.3-1h1.6c2.3,0.2,2.4,0.2,3.7,0.5
		c0.7,0.2,1.7,0.4,2.4,0.7c0.4,0.1,0.8,0.3,1.2,0.5C36.7,32.8,37,33,37.4,33.1"/>
	<path class="st2" d="M44.3,42.5c0.2,0.3,0.3,0.5,0.3,0.7c0,0,0,0,0,0c-0.5-0.1-1.1,0.2-1.9,0.7c-0.2,0.1-0.5-0.1-0.8-0.5
		c-1.4-1.8-3.1-3.4-5.1-4.7c-0.4-0.3-0.6-0.6-0.4-0.8c0.9-0.7,1.7-1,2.3-0.9c0.2,0.1,0.5,0.2,1,0.6C41.5,39,43.1,40.6,44.3,42.5"/>
	<path class="st0" d="M51,53c0,0.2,0,0.8-0.1,1.1c-0.3,0-0.7,0.1-1.1,0.4c-0.1,0-0.2-0.1-0.4-0.9c-0.5-2.7-1.5-5.3-3-7.7
		c-0.3-0.6-0.4-1-0.2-1.2c0.8-0.6,1.6-0.9,2.2-0.8c0.2,0.1,0.4,0.4,0.7,1C50.2,47.4,50.9,50.1,51,53"/>
	<path class="st0" d="M47.4,66.4c-0.6,1.1-1.3,2.1-2.3,3c-0.4,0.3-0.6,0.4-0.6,0.3c-0.1-0.8-0.1-1.6-0.1-2.4
		c0.1-0.3,0.4-0.4,0.6-0.4C46,66.8,46.8,66.6,47.4,66.4"/>
	<g>
		<path class="st2" d="M2.8,51.6c-0.1,0.6-0.9,3-0.9,3.5c0,0,0,0,0,0.1c-0.1-1.7-0.1-2.4,0.1-4.4c0.2-1.3,0.5-2.6,0.5-2.6
			c-0.2,0.8,0.3,1.7,0.4,2.6L2.8,51.6L2.8,51.6z"/>
		<path class="st1" d="M6.4,48.4c0.1,0.2,0.1,0.4,0,0.8c-0.5,1.4-0.9,2.9-1.2,4.2c0,0.1-0.1,0.3-0.2,0.2c0,0-0.1-0.2-0.1-0.3
			c-0.1-0.8-0.1-1.6,0-2.4l0.1-0.3c0.1-0.5,0.2-0.9,0.3-1.2s0.2-0.6,0.3-1c0.1-0.2,0.2-0.5,0.3-0.7C5.9,47.8,6,48.1,6.4,48.4"/>
		<path class="st1" d="M7.3,42.5c0.3-0.2,0.2,0.1,0.2,0.2c0,0,0,0.1,0,0.1c-0.7,1.3-1.4,2.7-1.9,4.1c-0.2,0.3-0.3,0.5-0.5,0.4
			c-0.4-0.3-0.6-0.4-0.6-0.5c0.1-0.2,0.2-0.5,0.3-0.8c0.2-0.5,0.3-0.7,0.4-0.9c0.2-0.4,0.4-0.7,0.5-1L5.8,44
			C6.1,43.4,6.6,42.9,7.3,42.5"/>
		<path class="st1" d="M8.9,60.7c0.4,0.4,0.6,0.9,0.5,1.4c-0.2,1-0.3,1.9-0.3,2.7c-0.1,1-0.1,1.9,0,2.6c0,0,0,0.1,0,0.2
			c-0.2,0-0.2,0-0.6-0.4c-1.6-2-2.7-4.2-3.4-6.6c-0.2-0.7-0.2-1.1-0.3-1.3c0-0.5,0-1.1,0-1.8c0-0.6,0.1-1.2,0.2-1.8
			c0-0.1,0.1-0.2,0.1-0.2s0.1,0.1,0.2,0.3C6.1,57.6,7.3,59.2,8.9,60.7"/>
		<path class="st1" d="M2.7,59.7C2.9,60,3,60.3,3,60.6c-0.1,0.6-0.2,1.2-0.2,1.8c0,0.7,0,1.2,0,1.7c0,0,0,0.1,0,0.1
			c-0.1,0-0.1,0-0.4-0.3c-1-1.3-1.8-2.8-2.2-4.3C0.1,59.2,0.1,59,0,58.8c0-0.3,0-0.7,0-1.2c0-0.4,0.1-0.8,0.1-1.2
			c0-0.1,0-0.1,0.1-0.1c0.1,0,0.1,0.1,0.1,0.2C0.8,57.6,1.6,58.7,2.7,59.7"/>
		<path class="st1" d="M15.9,42.1c0.5,0.1,0.6,0.4,0.4,0.9c-1.1,2.1-2.2,4.4-3.2,6.8c-0.3,0.5-0.6,0.7-1.1,0.6
			c-1.8-0.8-3.3-1.5-4.3-2c-0.2-0.2-0.3-0.4-0.1-0.8C8.2,46,8.9,44.4,9.7,43c0.2-0.4,0.5-0.6,0.8-0.7C12,41.9,13.8,41.8,15.9,42.1"
			/>
		<path class="st1" d="M18.5,66.4c0.7,0.3,0.9,0.7,0.9,1.3c-0.2,1.1-0.3,2.1-0.4,3c-0.1,1.1-0.1,2.1,0,2.9c0,0.4-0.4,0.4-1,0.2
			c-0.3-0.1-0.7-0.2-1-0.4c-2.4-1-4.5-2.3-6.2-3.8c-0.5-0.4-0.7-0.9-0.8-1.2c-0.1-0.8-0.1-1.7,0-2.7c0.1-0.9,0.2-1.8,0.3-2.8
			c0.1-0.5,0.4-0.6,0.9-0.3c1.8,1.3,3.9,2.4,6.2,3.4C17.9,66.2,18.2,66.3,18.5,66.4"/>
		<path class="st1" d="M18.2,74.6c0.7,0.3,1.1,0.5,1.2,0.8c0.3,1.1,0.9,1.8,1.6,2c-0.7-0.2-1.6-0.5-2.2-0.8c-2.2-1-2.3-1-3.5-1.7
			c-2-1.3-2-1.4-3-2.2l-1.2-1.1c-0.3-0.3-0.6-0.8-0.8-1.4c0,0,0-0.1,0-0.1c0,0,0,0,0.1,0c0.2,0,0.3,0.1,0.6,0.4
			c1.7,1.6,3.8,2.9,6.2,3.8C17.5,74.4,17.9,74.5,18.2,74.6"/>
		<path class="st1" d="M31.3,76.2c0.7-0.1,1.1,0,1.2,0.2c0.3,0.9,0.7,1.5,1.3,1.7c0,0.1-0.1,0.1-0.8,0.3c-2.3,0.5-4.6,0.7-7,0.5
			c-0.7-0.1-1.7-0.2-2.4-0.4c-0.1,0-0.1,0-0.2,0c-0.7-0.2-1.3-0.9-1.6-2c0-0.3,0.3-0.3,1-0.3C25.6,76.6,28.5,76.6,31.3,76.2"/>
		<path class="st1" d="M31.7,60.6c0.6,0.3,0.9,0.7,0.7,1.2c-0.8,2.3-1.5,4.5-1.9,6.6c-0.2,0.5-0.6,0.8-1.3,0.8c-3-0.2-6-0.7-9-1.5
			c-0.7-0.3-1-0.7-1-1.4c0.6-2.6,1.4-5.4,2.4-8.2c0.3-0.6,0.8-0.9,1.6-0.7C26,58.6,28.9,59.6,31.7,60.6"/>
		<path class="st1" d="M37.2,51.2c0.5,0.4,0.6,0.9,0.5,1.4c-1,1.9-2,4-2.8,6.1c-0.3,0.5-0.7,0.6-1.3,0.5c-2.5-0.9-5.2-2-7.9-3
			c-0.6-0.3-0.9-0.8-0.7-1.4c1-2.6,2.2-5.1,3.5-7.5c0.4-0.5,0.9-0.7,1.5-0.4C32.6,48.1,35,49.6,37.2,51.2"/>
		<path class="st1" d="M11.8,38.7c0.3-0.2,0.4-0.3,0.5-0.4c0,0,0,0,0,0.1c-0.4,0.4-0.9,1-1.3,1.6c-0.3,0.4-0.6,0.8-0.9,1.3
			c-0.2,0.3-0.4,0.5-0.8,0.8c-0.7,0.5-1.2,1-1.6,1.6l0.2-0.3c0.5-0.8,0.5-0.8,0.8-1.3c0.9-1.2,1.2-1.6,2.3-2.8l0.3-0.3
			C11.5,39.1,11.7,38.9,11.8,38.7"/>
		<path class="st1" d="M41.6,67.4c0.7-0.2,0.8-0.1,0.8,0c-0.1,0.4-0.1,0.8-0.1,1.2c0,0.4,0,0.8,0,1.1c0,0.1-0.2,0.4-0.8,0.9
			c-2.2,1.6-4.8,2.8-7.5,3.6c-0.7,0.2-1,0.1-1.1-0.2c-0.1-0.6-0.1-1.4,0-2.2c0.1-0.7,0.1-1.5,0.3-2.3c0.1-0.4,0.5-0.7,1.2-0.7
			C36.9,68.7,39.4,68.2,41.6,67.4"/>
		<path class="st1" d="M41.5,70.9c0.6-0.4,0.8-0.5,0.9-0.5c0.2,0.5,0.4,0.7,0.7,0.8c0,0.1,0,0.2-0.7,0.8c-2,2-4.3,3.5-6.8,4.6
			c-0.6,0.2-1,0.4-1.2,0.4c-0.6-0.2-1-0.7-1.3-1.6c0-0.2,0.3-0.4,1-0.7C36.7,73.9,39.3,72.6,41.5,70.9"/>
		<path class="st1" d="M41.8,63.2c0.3,0.1,0.5,0.2,0.4,0.4c-0.3,0.7-0.5,1.5-0.6,2.2c-0.1,0.2-0.3,0.3-0.7,0.5
			c-1.6,0.5-3.5,0.8-5.5,0.8c-0.5,0-0.7-0.2-0.7-0.5c0.3-1.4,0.8-2.9,1.3-4.4c0.2-0.3,0.5-0.5,0.9-0.4
			C38.8,62.4,40.4,62.9,41.8,63.2"/>
		<path class="st1" d="M47.5,54.8c0.2,0.8,0.1,1.1,0,1.2c-0.3,0.3-0.6,0.7-0.9,1.1c-0.2,0.3-0.4,0.6-0.6,0.9
			c-0.1,0.1-0.3,0.2-0.6-0.4c-1.2-1.8-2.8-3.7-4.7-5.5c-0.4-0.5-0.6-0.9-0.4-1.4c0.4-0.6,0.8-1.2,1.2-1.8c0.6-0.9,1.3-1.7,1.8-2.3
			c0.3-0.2,0.6,0,1,0.5C45.8,49.7,46.9,52.2,47.5,54.8"/>
		<path class="st1" d="M23.1,33.7c-0.3,0.2-0.7,0.3-1.4,0.4c-2.5,0.3-4.9,1.1-6.9,2.3c-0.4,0.2-0.4,0.3-0.5,0.3
			c0.1-0.1,0.2-0.1,0.2-0.2c1.7-1,1.8-1.2,3.1-1.8c2-0.8,2.1-0.9,3.5-1.3c2.2-0.5,2.3-0.6,3.7-0.7l0.5-0.1
			C24.6,32.8,23.9,33.1,23.1,33.7"/>
		<path class="st1" d="M45.1,35c0.1,0.2,0.2,0.3,0.2,0.4c0,0,0,0,0,0c-0.3,0-0.7,0.1-1.1,0.4c-0.1,0.1-0.3,0-0.5-0.3
			c-0.9-1.1-1.9-2.1-3.1-2.8c-0.3-0.2-0.4-0.4-0.3-0.5c0.5-0.4,1-0.6,1.4-0.5c0.1,0,0.3,0.1,0.6,0.3C43.4,32.8,44.3,33.8,45.1,35"/>
		<path class="st1" d="M50,53.6c0,0.2,0,0.8-0.1,1.1c-0.3,0-0.7,0.1-1.1,0.4c-0.1,0-0.2-0.1-0.4-0.9c-0.5-2.7-1.5-5.3-3-7.7
			c-0.3-0.6-0.4-1-0.2-1.2c0.8-0.6,1.6-0.9,2.2-0.8c0.2,0.1,0.4,0.4,0.7,1C49.3,48,49.9,50.8,50,53.6"/>
		<path class="st1" d="M48.4,64c-0.6-0.2-1.3-0.4-2.3-0.8c-0.2-0.1-0.5-0.2-0.4-0.5c0.4-0.8,0.8-1.5,1.2-2.2c0.1-0.1,0.3,0,0.5,0.4
			C48,62,48.3,63.1,48.4,64"/>
	</g>
</g>
<g>
	<path class="st0" d="M58.2,51.8l-0.7-0.7l0.9-0.8l0.7,0.7L58.2,51.8z M59.5,51.5l3,3.1l-0.9,0.8l-3-3.1L59.5,51.5z"/>
	<path class="st0" d="M62,49.2l0.4,0.4l0,0c-0.1-0.3,0-0.6,0.1-0.8c0.1-0.2,0.2-0.5,0.4-0.6c0.2-0.2,0.5-0.4,0.7-0.4
		c0.2-0.1,0.4-0.1,0.6-0.1c0.2,0,0.4,0.1,0.6,0.2c0.2,0.1,0.4,0.3,0.6,0.5l1.8,1.9l-0.9,0.8l-1.7-1.8c-0.2-0.3-0.5-0.4-0.7-0.5
		c-0.2-0.1-0.4,0-0.6,0.2c-0.2,0.2-0.3,0.5-0.3,0.7s0.2,0.5,0.5,0.8l1.6,1.7l-0.9,0.8l-3-3.1L62,49.2L62,49.2z"/>
	<path class="st0" d="M67.4,44l0.5,0.6l-0.6,0.6l1.5,1.6c0.1,0.1,0.3,0.2,0.3,0.2c0.1,0,0.2-0.1,0.4-0.2c0,0,0.1-0.1,0.1-0.1
		s0.1-0.1,0.1-0.1l0.6,0.7c0,0-0.1,0.2-0.2,0.3c-0.1,0.1-0.2,0.2-0.3,0.3c-0.1,0.1-0.3,0.2-0.4,0.3s-0.3,0.2-0.4,0.2s-0.3,0-0.4,0
		s-0.3-0.2-0.4-0.3l-1.8-1.9l-0.5,0.5L65.4,46l0.5-0.5L65,44.5l0.9-0.8l0.9,0.9L67.4,44L67.4,44z"/>
	<path class="st0" d="M71.9,44.3c0.2,0,0.5-0.1,0.7-0.3c0.2-0.2,0.3-0.3,0.3-0.6c0-0.2,0-0.4,0-0.5l0.8-0.7c0.2,0.5,0.3,0.9,0.2,1.3
		c-0.1,0.4-0.3,0.8-0.7,1.1c-0.2,0.2-0.5,0.4-0.8,0.5c-0.3,0.1-0.5,0.2-0.8,0.1c-0.3,0-0.5-0.1-0.8-0.2c-0.3-0.1-0.5-0.3-0.7-0.6
		s-0.4-0.5-0.5-0.8c-0.1-0.3-0.2-0.6-0.2-0.8c0-0.3,0.1-0.6,0.2-0.8c0.1-0.3,0.3-0.5,0.5-0.7c0.3-0.3,0.6-0.4,0.8-0.5
		c0.3-0.1,0.6-0.1,0.9,0c0.3,0.1,0.6,0.2,0.8,0.3c0.3,0.2,0.5,0.4,0.7,0.6l-2.3,2.1C71.4,44.2,71.7,44.3,71.9,44.3L71.9,44.3z
		 M71.3,41.7c-0.2,0-0.4,0.1-0.6,0.3c-0.1,0.1-0.2,0.3-0.3,0.4s-0.1,0.3-0.1,0.4c0,0.1,0,0.2,0.1,0.3c0.1,0.1,0.1,0.2,0.2,0.2L72,42
		C71.8,41.9,71.5,41.8,71.3,41.7z"/>
	<path class="st0" d="M74,37.9l0.6,0.6l0,0c-0.1-0.1-0.1-0.3-0.1-0.4c0-0.1,0-0.3,0-0.4s0.1-0.3,0.2-0.4c0.1-0.1,0.2-0.2,0.3-0.3
		c0.1-0.1,0.1-0.1,0.2-0.1l0.8,0.8c0,0-0.1,0.1-0.2,0.1c-0.1,0-0.1,0.1-0.2,0.1c-0.2,0.1-0.3,0.3-0.3,0.5s-0.1,0.3-0.1,0.5
		s0.1,0.3,0.2,0.5c0.1,0.1,0.2,0.3,0.3,0.4L77,41l-0.9,0.8l-3-3.1L74,37.9L74,37.9z"/>
	<path class="st0" d="M77.3,34.7l0.4,0.4l0,0c-0.1-0.3,0-0.6,0.1-0.8c0.1-0.2,0.2-0.5,0.4-0.6c0.2-0.2,0.5-0.4,0.7-0.4
		c0.2-0.1,0.4-0.1,0.6-0.1s0.4,0.1,0.6,0.2s0.4,0.3,0.6,0.5l1.8,1.9l-0.9,0.8l-1.7-1.8c-0.2-0.3-0.5-0.4-0.7-0.5s-0.4,0-0.6,0.2
		c-0.2,0.2-0.3,0.5-0.3,0.7s0.2,0.5,0.5,0.8l1.6,1.7l-0.9,0.8l-3-3.1L77.3,34.7L77.3,34.7z"/>
	<path class="st0" d="M81.6,31.5c0-0.2,0-0.4,0-0.6s0.2-0.4,0.3-0.6s0.3-0.4,0.5-0.5c0.2-0.1,0.3-0.3,0.5-0.4s0.4-0.2,0.6-0.3
		c0.2-0.1,0.4-0.1,0.6,0c0.2,0,0.4,0.1,0.6,0.3l1.5,1.6c0.1,0.1,0.3,0.3,0.4,0.4c0.1,0.1,0.3,0.2,0.4,0.2l-0.9,0.8
		c0,0-0.1-0.1-0.2-0.1s-0.1-0.1-0.2-0.1c0,0.3-0.1,0.5-0.2,0.8c-0.1,0.2-0.3,0.4-0.5,0.6c-0.2,0.1-0.3,0.3-0.5,0.3S84.2,34,84,34
		c-0.2,0-0.3,0-0.5-0.1c-0.2-0.1-0.3-0.2-0.5-0.3c-0.2-0.2-0.3-0.4-0.3-0.5s-0.1-0.3,0-0.5c0-0.2,0.1-0.3,0.2-0.5
		c0.1-0.2,0.2-0.3,0.3-0.4c0.1-0.1,0.2-0.3,0.3-0.4c0.1-0.1,0.2-0.3,0.3-0.4c0.1-0.1,0.1-0.2,0.1-0.3c0-0.1,0-0.2-0.1-0.3
		c-0.1-0.1-0.2-0.2-0.3-0.2s-0.2,0-0.2,0c-0.1,0-0.2,0.1-0.2,0.1s-0.2,0.1-0.2,0.2c-0.2,0.2-0.3,0.3-0.3,0.5c0,0.2,0,0.3,0.2,0.5
		l-0.9,0.8C81.7,31.9,81.6,31.7,81.6,31.5L81.6,31.5z M84.5,31.1c0,0-0.1,0.1-0.1,0.2s-0.1,0.1-0.2,0.2c-0.1,0.1-0.1,0.1-0.2,0.2
		S83.9,32,83.8,32c0,0.1-0.1,0.2-0.1,0.2c0,0.1,0,0.2,0,0.2c0,0.1,0.1,0.2,0.1,0.2c0.1,0.1,0.1,0.1,0.2,0.2c0.1,0,0.2,0,0.2,0
		s0.2,0,0.2-0.1c0.1,0,0.1-0.1,0.2-0.2c0.2-0.2,0.3-0.3,0.3-0.5s0-0.3,0-0.4s-0.1-0.2-0.1-0.3s-0.1-0.2-0.2-0.2l-0.3-0.3
		C84.5,30.9,84.5,31.1,84.5,31.1L84.5,31.1z"/>
	<path class="st0" d="M87.2,25.4l0.5,0.6l-0.6,0.6l1.5,1.6c0.1,0.1,0.3,0.2,0.3,0.2s0.2-0.1,0.4-0.2c0,0,0.1-0.1,0.1-0.1
		c0,0,0.1-0.1,0.1-0.1l0.6,0.7c0,0-0.1,0.2-0.2,0.3c-0.1,0.1-0.2,0.2-0.3,0.3c-0.1,0.1-0.3,0.2-0.4,0.3s-0.3,0.2-0.4,0.2
		s-0.3,0-0.4,0s-0.3-0.2-0.4-0.3l-1.8-1.9l-0.5,0.5l-0.5-0.6l0.5-0.5l-0.9-0.9l0.9-0.8l0.9,0.9L87.2,25.4L87.2,25.4z"/>
	<path class="st0" d="M88.1,23.6l-0.7-0.7l0.9-0.8l0.7,0.7L88.1,23.6z M89.4,23.3l3,3.1l-0.9,0.8l-3-3.1L89.4,23.3z"/>
	<path class="st0" d="M91.9,22.7c-0.1-0.3-0.2-0.6-0.2-0.8c0-0.3,0.1-0.6,0.2-0.8c0.1-0.3,0.3-0.5,0.6-0.8s0.5-0.4,0.8-0.5
		s0.6-0.2,0.8-0.2s0.6,0.1,0.8,0.2c0.3,0.1,0.5,0.3,0.8,0.6s0.4,0.5,0.5,0.8c0.1,0.3,0.2,0.6,0.2,0.8s-0.1,0.6-0.2,0.8
		s-0.3,0.5-0.6,0.8s-0.5,0.4-0.8,0.5s-0.5,0.2-0.8,0.2s-0.6-0.1-0.8-0.2s-0.5-0.3-0.8-0.6S92,22.9,91.9,22.7z M93.6,23
		c0.1,0.1,0.3,0.2,0.4,0.2s0.3,0,0.4,0c0.2,0,0.3-0.1,0.4-0.3s0.2-0.3,0.3-0.4s0.1-0.3,0-0.5s-0.1-0.3-0.2-0.4
		c-0.1-0.1-0.2-0.3-0.3-0.4s-0.2-0.2-0.4-0.3s-0.3-0.2-0.4-0.2s-0.3,0-0.5,0c-0.2,0-0.3,0.1-0.5,0.3s-0.2,0.3-0.3,0.4s0,0.3,0,0.4
		c0,0.1,0.1,0.3,0.2,0.4c0.1,0.1,0.2,0.3,0.3,0.4S93.5,22.9,93.6,23L93.6,23z"/>
	<path class="st0" d="M96.5,16.6l0.4,0.4l0,0c-0.1-0.3,0-0.6,0.1-0.8s0.2-0.5,0.4-0.6c0.2-0.2,0.5-0.4,0.7-0.4
		c0.2-0.1,0.4-0.1,0.6-0.1s0.4,0.1,0.6,0.2s0.4,0.3,0.6,0.5l1.8,1.9l-0.9,0.8L99,16.8c-0.2-0.3-0.5-0.4-0.7-0.5
		c-0.2,0-0.4,0-0.6,0.2c-0.2,0.2-0.3,0.5-0.3,0.7s0.2,0.5,0.5,0.8l1.6,1.7l-0.9,0.8l-3-3.1L96.5,16.6L96.5,16.6z"/>
	<path class="st0" d="M100.7,13.5c0-0.2,0-0.4,0-0.6s0.2-0.4,0.3-0.6s0.3-0.4,0.5-0.5c0.2-0.1,0.3-0.3,0.5-0.4s0.4-0.2,0.6-0.3
		c0.2-0.1,0.4-0.1,0.6,0c0.2,0,0.4,0.1,0.6,0.3l1.5,1.6c0.1,0.1,0.3,0.3,0.4,0.4c0.1,0.1,0.3,0.2,0.4,0.2l-0.9,0.8
		c0,0-0.1-0.1-0.2-0.1s-0.1-0.1-0.2-0.1c0,0.3-0.1,0.5-0.2,0.8c-0.1,0.2-0.3,0.4-0.5,0.6c-0.2,0.1-0.3,0.3-0.5,0.3s-0.3,0.1-0.5,0.2
		c-0.2,0-0.3,0-0.5-0.1c-0.2-0.1-0.3-0.2-0.5-0.3c-0.2-0.2-0.3-0.4-0.3-0.5s-0.1-0.3,0-0.5c0-0.2,0.1-0.3,0.2-0.5s0.2-0.3,0.3-0.4
		c0.1-0.1,0.2-0.3,0.3-0.4c0.1-0.1,0.2-0.3,0.3-0.4s0.1-0.2,0.1-0.3c0-0.1,0-0.2-0.1-0.3c-0.1-0.1-0.2-0.2-0.3-0.2s-0.2,0-0.2,0
		c-0.1,0-0.2,0.1-0.2,0.1s-0.2,0.1-0.2,0.2c-0.2,0.2-0.3,0.3-0.3,0.5c0,0.2,0,0.3,0.2,0.5l-0.9,0.8
		C100.9,13.9,100.8,13.7,100.7,13.5L100.7,13.5z M103.6,13.1c0,0-0.1,0.1-0.1,0.2s-0.1,0.1-0.2,0.2c-0.1,0.1-0.1,0.1-0.2,0.2
		S103,13.9,103,14c0,0.1-0.1,0.2-0.1,0.2s0,0.2,0,0.2c0,0.1,0.1,0.2,0.1,0.2s0.1,0.1,0.2,0.2c0.1,0,0.2,0,0.2,0s0.2,0,0.2-0.1
		c0.1,0,0.1-0.1,0.2-0.2c0.2-0.2,0.3-0.3,0.3-0.5s0-0.3,0-0.4s-0.1-0.2-0.1-0.3c-0.1-0.1-0.1-0.2-0.2-0.2l-0.3-0.3
		C103.7,12.9,103.6,13,103.6,13.1L103.6,13.1z"/>
	<path class="st0" d="M104.3,7l4.1,4.3l-0.9,0.8l-4.1-4.3C103.5,7.8,104.3,7,104.3,7z"/>
</g>
<path class="st1" d="M78.5,10C78.2,9.7,78,9.3,78,8.9c0-0.4,0.2-0.8,0.5-1.1s0.7-0.5,1.2-0.4c0.5,0,0.8,0.2,1.1,0.5s0.5,0.7,0.4,1.2
	c0,0.4-0.2,0.8-0.5,1.1s-0.7,0.5-1.2,0.4C79.2,10.5,78.8,10.4,78.5,10z M82.7,9.8l4.8,5.1c0.4,0.4,0.7,0.6,1,0.7
	c0.2,0,0.5-0.1,0.8-0.4c0.1-0.1,0.2-0.2,0.3-0.3s0.1-0.2,0.1-0.2c0.1,0,0.1,0.1,0.2,0.1l0.1,0.1c0.2,0.2,0.4,0.5,0.4,0.7
	c0.1,0.2,0.1,0.5,0,0.7c0,0.2-0.1,0.4-0.2,0.6c-0.1,0.2-0.3,0.3-0.4,0.5c-0.8,0.7-1.5,1-2.2,0.9s-1.4-0.5-2-1.2l-4.9-5.2L82.7,9.8
	L82.7,9.8z"/>
<g>
	<path class="st1" d="M70.7,66.4l-4.2-4.3l0.6-0.6l4.2,4.3L70.7,66.4z"/>
	<path class="st1" d="M70.8,63.7l0.5-0.6c0.2,0.2,0.5,0.3,0.7,0.4c0.2,0,0.5,0,0.8-0.1c0.3-0.1,0.5-0.3,0.8-0.5
		c0.2-0.2,0.4-0.4,0.5-0.7c0.1-0.2,0.1-0.4,0.1-0.6c0-0.2-0.1-0.4-0.2-0.5c-0.1-0.1-0.3-0.2-0.5-0.2s-0.4,0-0.6,0.1
		c-0.2,0.1-0.5,0.2-1,0.5c-0.5,0.3-0.9,0.5-1.1,0.5c-0.3,0.1-0.6,0.1-0.8,0c-0.3-0.1-0.5-0.2-0.7-0.4c-0.2-0.2-0.3-0.5-0.4-0.8
		c-0.1-0.3,0-0.6,0.1-1c0.1-0.3,0.4-0.6,0.6-0.9c0.3-0.3,0.7-0.5,1-0.7s0.7-0.2,1-0.1c0.3,0.1,0.6,0.2,0.9,0.5l-0.5,0.6
		C71.6,59.1,71.3,59,71,59s-0.6,0.2-1,0.5c-0.3,0.3-0.5,0.6-0.6,0.9s0,0.5,0.2,0.7c0.2,0.2,0.3,0.2,0.5,0.2c0.2,0,0.6-0.2,1.2-0.5
		s1-0.6,1.2-0.7c0.4-0.1,0.7-0.2,1-0.1s0.6,0.2,0.8,0.4c0.2,0.2,0.4,0.5,0.4,0.8c0.1,0.3,0,0.7-0.1,1c-0.1,0.4-0.4,0.7-0.7,1
		c-0.4,0.4-0.8,0.6-1.2,0.8c-0.4,0.1-0.7,0.2-1.1,0.1C71.4,64.2,71.1,64,70.8,63.7L70.8,63.7z"/>
	<path class="st1" d="M74.1,59c-0.7-0.7-1-1.5-1.1-2.2c0-0.8,0.3-1.5,0.9-2c0.4-0.4,0.8-0.6,1.4-0.8c0.5-0.1,1-0.1,1.5,0.1
		c0.5,0.2,1,0.5,1.4,0.9s0.7,0.9,0.9,1.4c0.2,0.5,0.2,1,0,1.5s-0.4,0.9-0.8,1.3c-0.4,0.4-0.9,0.6-1.4,0.8c-0.5,0.1-1,0.1-1.5-0.1
		C74.9,59.7,74.5,59.4,74.1,59L74.1,59z M74.7,58.5c0.5,0.5,1,0.8,1.6,0.8c0.6,0,1.1-0.2,1.5-0.6c0.4-0.4,0.6-0.9,0.6-1.5
		c0-0.6-0.3-1.1-0.8-1.7c-0.3-0.4-0.7-0.6-1.1-0.7c-0.4-0.1-0.7-0.2-1.1-0.1c-0.4,0.1-0.7,0.3-1,0.5c-0.4,0.4-0.6,0.9-0.6,1.4
		C73.8,57.2,74.1,57.8,74.7,58.5z"/>
	<path class="st1" d="M81.6,53.9l0.5-0.5c0.3,0.2,0.5,0.3,0.8,0.3s0.4-0.1,0.6-0.3c0.2-0.2,0.3-0.3,0.3-0.5c0.1-0.2,0.1-0.4,0-0.6
		c0-0.2-0.1-0.4-0.3-0.7c-0.2-0.3-0.3-0.5-0.5-0.7c0,0-0.1-0.1-0.1-0.1c0.1,0.3,0,0.6,0,0.8s-0.2,0.5-0.4,0.7
		c-0.4,0.3-0.8,0.5-1.3,0.5c-0.5,0-1-0.2-1.4-0.7c-0.4-0.4-0.6-0.9-0.6-1.4s0.2-1,0.6-1.3c0.3-0.3,0.6-0.4,1-0.5s0.8,0,1.2,0.1
		c0.4,0.2,0.8,0.5,1.4,1c0.5,0.6,0.9,1,1.1,1.5c0.2,0.4,0.3,0.9,0.2,1.3c-0.1,0.4-0.3,0.8-0.6,1.1c-0.3,0.3-0.7,0.5-1.1,0.5
		C82.4,54.4,82,54.3,81.6,53.9L81.6,53.9z M81.9,49.9c-0.3-0.3-0.6-0.5-0.9-0.5c-0.3,0-0.6,0.1-0.8,0.3c-0.2,0.2-0.3,0.5-0.3,0.9
		s0.2,0.7,0.5,1c0.3,0.3,0.6,0.4,0.9,0.4c0.3,0,0.6-0.1,0.9-0.3s0.4-0.5,0.4-0.8S82.2,50.2,81.9,49.9L81.9,49.9z"/>
	<path class="st1" d="M83.8,49.6c-0.5-0.5-0.8-1-1-1.4c-0.2-0.4-0.3-0.8-0.2-1.2c0-0.4,0.2-0.7,0.5-1c0.2-0.2,0.5-0.4,0.7-0.4
		c0.3-0.1,0.5-0.1,0.8,0c0.3,0.1,0.6,0.2,0.9,0.4c0.3,0.2,0.7,0.5,1.1,0.9c0.5,0.5,0.8,1,1,1.4c0.2,0.4,0.3,0.8,0.2,1.2
		s-0.2,0.7-0.5,1c-0.4,0.4-0.9,0.6-1.4,0.5C85.3,50.9,84.6,50.5,83.8,49.6L83.8,49.6z M84.3,49.1c0.7,0.7,1.2,1.1,1.6,1.2
		s0.7,0,1-0.2s0.3-0.6,0.3-0.9c-0.1-0.4-0.4-1-1.1-1.7c-0.7-0.7-1.2-1.1-1.6-1.2c-0.4-0.1-0.7,0-1,0.2s-0.3,0.5-0.3,0.9
		C83.3,47.8,83.7,48.4,84.3,49.1L84.3,49.1z"/>
	<path class="st1" d="M87.2,46.4c-0.5-0.5-0.8-1-1-1.4c-0.2-0.4-0.3-0.8-0.2-1.2c0-0.4,0.2-0.7,0.5-1c0.2-0.2,0.5-0.4,0.7-0.4
		c0.3-0.1,0.5-0.1,0.8,0c0.3,0.1,0.6,0.2,0.9,0.4c0.3,0.2,0.7,0.5,1.1,0.9c0.5,0.5,0.8,1,1,1.4c0.2,0.4,0.3,0.8,0.2,1.2
		s-0.2,0.7-0.5,1c-0.4,0.4-0.9,0.6-1.4,0.5C88.6,47.7,87.9,47.2,87.2,46.4L87.2,46.4z M87.7,45.9c0.7,0.7,1.2,1.1,1.6,1.2
		s0.7,0,1-0.2s0.3-0.6,0.3-0.9c-0.1-0.4-0.4-1-1.1-1.7c-0.7-0.7-1.2-1.1-1.6-1.2s-0.7,0-1,0.2s-0.3,0.5-0.3,0.9
		C86.7,44.6,87,45.2,87.7,45.9L87.7,45.9z"/>
	<path class="st1" d="M94.6,43.4L94,43.9l-3.3-3.4c0,0.2-0.1,0.5-0.1,0.9c-0.1,0.3-0.2,0.6-0.3,0.8l-0.5-0.5
		c0.2-0.4,0.3-0.8,0.3-1.3s0-0.8-0.1-1l0.3-0.3C90.4,39,94.6,43.4,94.6,43.4z"/>
	<path class="st1" d="M95.5,37.6L94.9,37l0.6-0.6l0.6,0.6L95.5,37.6z M97.9,40.1l-0.6-0.6l0.6-0.6l0.6,0.6L97.9,40.1z"/>
	<path class="st1" d="M103.3,34l0.5,0.5l-2.9,2.8c-0.1-0.1-0.2-0.3-0.3-0.4c-0.1-0.3-0.2-0.6-0.2-0.9c0-0.3,0-0.8,0.1-1.3
		c0.1-0.8,0.1-1.5,0.1-1.8c-0.1-0.4-0.2-0.7-0.4-0.9c-0.2-0.2-0.4-0.3-0.7-0.3c-0.3,0-0.6,0.1-0.8,0.4c-0.3,0.2-0.4,0.5-0.4,0.8
		c0,0.3,0.1,0.6,0.4,0.9L98,34c-0.4-0.4-0.5-0.9-0.5-1.3c0-0.4,0.3-0.9,0.7-1.3c0.4-0.4,0.9-0.6,1.3-0.6s0.9,0.2,1.2,0.5
		c0.2,0.2,0.3,0.4,0.4,0.6c0.1,0.2,0.1,0.5,0.2,0.9c0,0.3,0,0.9-0.1,1.6c-0.1,0.6-0.1,1-0.1,1.1s0,0.4,0.1,0.5L103.3,34L103.3,34z"
		/>
	<path class="st1" d="M102.3,31.8c-0.5-0.5-0.8-1-1-1.4c-0.2-0.4-0.3-0.8-0.2-1.2c0-0.4,0.2-0.7,0.5-1c0.2-0.2,0.5-0.4,0.7-0.5
		s0.5-0.1,0.8,0c0.3,0.1,0.6,0.2,0.9,0.4c0.3,0.2,0.7,0.5,1.1,0.9c0.5,0.5,0.8,1,1,1.4c0.2,0.4,0.3,0.8,0.2,1.2c0,0.4-0.2,0.7-0.5,1
		c-0.4,0.4-0.9,0.6-1.4,0.5C103.7,33.1,103,32.6,102.3,31.8L102.3,31.8z M102.8,31.3c0.7,0.7,1.2,1.1,1.6,1.2c0.4,0.1,0.7,0,1-0.2
		c0.2-0.2,0.3-0.6,0.3-0.9c-0.1-0.4-0.4-0.9-1.1-1.7s-1.2-1.1-1.6-1.2s-0.7,0-1,0.2s-0.3,0.5-0.3,0.9
		C101.8,30,102.1,30.6,102.8,31.3L102.8,31.3z"/>
	<path class="st1" d="M109.7,28.7l-0.5,0.5l-3.3-3.4c0,0.2-0.1,0.5-0.1,0.9c-0.1,0.3-0.2,0.6-0.3,0.8l-0.5-0.5
		c0.2-0.4,0.3-0.8,0.3-1.3s0-0.8-0.1-1l0.3-0.3C105.5,24.4,109.7,28.7,109.7,28.7z"/>
	<path class="st1" d="M110,26.3l0.5-0.6c0.3,0.2,0.6,0.3,0.9,0.3s0.5-0.1,0.7-0.3c0.3-0.2,0.4-0.6,0.4-0.9c0-0.4-0.2-0.7-0.5-1
		c-0.3-0.3-0.6-0.5-0.9-0.5c-0.3,0-0.6,0.1-0.9,0.4c-0.2,0.2-0.3,0.4-0.3,0.6c-0.1,0.2-0.1,0.4,0,0.6l-0.6,0.4l-1.7-2.6l2.2-2.1
		l0.5,0.5l-1.7,1.7l0.9,1.4c0.1-0.4,0.3-0.8,0.6-1.1c0.4-0.4,0.8-0.5,1.3-0.5s1,0.2,1.4,0.6c0.4,0.4,0.6,0.8,0.6,1.3
		c0.1,0.6-0.1,1.2-0.6,1.6c-0.4,0.4-0.8,0.6-1.3,0.6S110.4,26.6,110,26.3L110,26.3z"/>
</g>
</svg>
