<svg version="1.1" id="uuid-f19cd96d-b03e-4e0d-a3a7-9783eddf3017"
	 xmlns="http://www.w3.org/2000/svg" xmlns:xlink="http://www.w3.org/1999/xlink" x="0px" y="0px" viewBox="0 0 119 91.7"
	 style="enable-background:new 0 0 119 91.7;" xml:space="preserve">
<style type="text/css">
	.st0{opacity:0.8;fill:#FFFFFF;enable-background:new;}
	.st1{fill:#FFFFFF;}
	.st2z{opacity:0.7;fill:#FFFFFF;enable-background:new;}
	.st3{font-family:sans-serif; letter-spacing: 0.025em; fill: #ffffff}
	.st4{font-size:8.2023px;}
</style>
<path class="st0" d="M83.9,16c-2.6-2.8-5.8-2.8-8.3-1.8c1-2.1,1-5.2-1.3-7.6C70.9,2.9,66,3.1,61.7,7.2l-7.8,7.3l0,0l-2.3,2.2
	l3.8,1.8l4.2,2l8.4,4l5.4-5.1c2.4-2.3,5.1-2.2,6.9-0.3c1.8,1.9,1.8,4.6-0.6,6.9l-2.8,2.6l4,1.9l2-1.9C86.9,24.9,87.7,20,83.9,16
	L83.9,16z M70.2,16.7L65,21.6l-5.9-6.3l5.2-4.9C66.5,8.3,69.1,8,71,10S72.4,14.6,70.2,16.7z"/>
<polygon class="st1" points="75.1,36 75.1,36 75,36.1 "/>
<path class="st1" d="M74.9,30.6l-2.6-1.3l-12.1-5.8l-0.1-0.1l0,0l-10.3-5l-0.1,0.1l-0.7,0.7l-2,1.9l12.2,29.9l3.6-3.4l0.1-0.1
	l-2.6-5.9l7.7-7.2l1.3-1.3l0,0l0.1-0.1l5.7,2.9h0l1-0.9l2.7-2.5l0.1-0.1C78.9,32.5,74.9,30.6,74.9,30.6z M65.6,31.2l-7,6.6l-5.5-13
	l-0.1-0.2l1.8,0.9l1.9,1l9,4.6L65.6,31.2L65.6,31.2z"/>
<g>
	<path class="st2z" d="M44.5,66.1c0.4,0.1,0.5,0.3,0.5,0.5c-0.3,0.9-0.6,1.7-0.7,2.5c-0.1,0.2-0.4,0.4-0.8,0.5c-1.9,0.6-4,0.9-6.3,1
		c-0.5,0-0.8-0.2-0.8-0.6c0.4-1.6,0.9-3.3,1.5-5.1c0.2-0.4,0.5-0.5,1.1-0.4C41,65.2,42.9,65.7,44.5,66.1"/>
	<path class="st2z" d="M7.3,61.9c0.3,0.3,0.4,0.6,0.3,0.9c-0.1,0.6-0.2,1.2-0.2,1.8c0,0.7,0,1.2,0,1.7c0,0,0,0.1,0,0.1
		c-0.1,0-0.1,0-0.4-0.3c-1-1.3-1.8-2.8-2.2-4.3c-0.1-0.4-0.2-0.7-0.2-0.8c0-0.3,0-0.7,0-1.2c0-0.4,0.1-0.8,0.1-1.2
		c0-0.1,0-0.1,0.1-0.1C5,58.5,5,58.6,5,58.8C5.5,59.8,6.3,60.9,7.3,61.9"/>
	<path class="st2z" d="M11.5,70.1c0.4,0.5,0.6,0.9,0.8,1.2c0.2,0.5,0.4,1,0.6,1.3l-0.3-0.4c-1.4-1.8-1.4-1.9-2.1-3.1
		c-1-1.9-1.1-2.1-1.6-3.4c-0.3-0.9-0.6-2-0.9-2.9c0,0.2,0.1,0.3,0.1,0.5C8.8,65.8,9.9,68.1,11.5,70.1"/>
	<path class="st0" d="M14.5,53.7c0.4,0.3,0.5,0.7,0.4,1.3c-0.8,2.4-1.5,4.7-2,6.9c-0.2,0.5-0.4,0.6-0.9,0.3c-1.6-1.5-2.8-3-3.5-4.6
		c-0.2-0.4-0.2-0.8-0.1-1.2c0.3-1.5,0.8-3.1,1.4-4.6c0.2-0.4,0.3-0.5,0.6-0.4C11.3,52,12.7,52.8,14.5,53.7"/>
	<path class="st2z" d="M16.1,64.3c0.4,0.3,0.5,0.6,0.4,1c-0.3,0.7-0.5,1.4-0.7,2.1c-0.2,0.8-0.4,1.4-0.5,2c-0.1,0.2-0.3,0.2-0.7,0
		c-0.2-0.1-0.4-0.3-0.6-0.4c-1.5-1-2.8-2.3-3.7-3.6c-0.3-0.4-0.4-0.7-0.4-1c0.1-0.6,0.2-1.2,0.4-1.9c0.2-0.6,0.4-1.2,0.7-1.9
		c0.2-0.3,0.4-0.3,0.7-0.1c1,1.1,2.3,2.3,3.8,3.3C15.7,64,16,64.2,16.1,64.3"/>
	<path class="st2z" d="M17.8,73.5c0.5,0.2,0.7,0.5,0.7,0.9c-0.1,0.8-0.2,1.5-0.3,2.2c-0.1,0.8-0.1,1.5,0,2.1c0,0.2-0.3,0.3-0.7,0.2
		c-0.2-0.1-0.5-0.2-0.7-0.3c-1.7-0.7-3.2-1.6-4.4-2.7c-0.3-0.3-0.5-0.6-0.6-0.9c0-0.6,0-1.2,0-1.9c0-0.6,0.1-1.3,0.2-2
		c0.1-0.3,0.3-0.4,0.6-0.2c1.2,0.9,2.7,1.7,4.4,2.4C17.4,73.4,17.6,73.4,17.8,73.5"/>
	<path class="st2z" d="M21.4,58.7c0.6,0.3,0.9,0.8,0.7,1.5c-0.9,2.6-1.7,5.2-2.3,7.7c-0.2,0.6-0.6,0.8-1.3,0.6
		c-0.3-0.1-0.7-0.3-1-0.4c-2.4-1-4.5-2.1-6.2-3.3c-0.5-0.4-0.7-0.9-0.6-1.4c0.5-2.3,1.2-4.7,2.1-7.1c0.3-0.6,0.6-0.8,1.2-0.6
		c1.9,0.9,4,1.8,6.4,2.7C20.7,58.4,21.1,58.5,21.4,58.7"/>
	<path class="st2z" d="M30.2,47.3c0.7,0.4,0.9,0.9,0.6,1.6c-1.4,2.7-2.8,5.5-4,8.5c-0.4,0.7-0.9,0.9-1.7,0.7
		c-0.4-0.1-0.7-0.3-1.1-0.4c-2.7-1.1-5.1-2.1-7.2-3c-0.5-0.3-0.7-0.8-0.5-1.5c1.1-2.7,2.3-5.4,3.7-7.9c0.4-0.6,0.9-0.8,1.5-0.7
		c2.3,0.5,4.8,1.3,7.5,2.4C29.4,47,29.8,47.1,30.2,47.3"/>
	<path class="st2z" d="M28.2,47.4c0.5,0.3,0.6,0.6,0.4,1.1c-1,1.9-2,4-2.8,6.1c-0.3,0.5-0.6,0.6-1.2,0.5c-0.3-0.1-0.5-0.2-0.8-0.3
		c-1.9-0.8-3.7-1.5-5.2-2.2c-0.4-0.2-0.5-0.6-0.4-1.1c0.8-2,1.7-3.9,2.6-5.7c0.3-0.4,0.6-0.6,1.1-0.5c1.7,0.4,3.5,0.9,5.4,1.7
		C27.6,47.2,27.9,47.3,28.2,47.4"/>
	<path class="st2z" d="M24.2,38.6c0.3,0.2,0.4,0.4,0.3,0.7c-0.7,1.2-1.3,2.6-1.8,4c-0.2,0.3-0.4,0.4-0.8,0.3
		c-0.2-0.1-0.3-0.1-0.5-0.2c-1.3-0.5-2.4-1-3.4-1.4c-0.3-0.1-0.3-0.4-0.2-0.7c0.5-1.3,1.1-2.5,1.7-3.7c0.2-0.3,0.4-0.4,0.7-0.3
		c1.1,0.2,2.3,0.6,3.5,1.1C23.9,38.5,24,38.5,24.2,38.6"/>
	<path class="st0" d="M33.5,71.9c0.5,0.1,0.8,0.2,0.7,0.6c-0.1,0.7-0.2,1.3-0.2,1.9c-0.1,0.7-0.1,1.3,0,1.8c0,0.2-0.3,0.4-0.8,0.5
		C31,77,28.8,77,26.6,76.6c-0.5-0.1-0.8-0.3-0.9-0.6c-0.1-0.7-0.1-1.4,0-2.3c0.1-0.7,0.2-1.5,0.3-2.4c0.1-0.4,0.4-0.6,1-0.5
		C29.1,71.5,31.3,71.8,33.5,71.9"/>
	<path class="st2z" d="M32.5,72.5c0.5,0.1,0.8,0.2,0.7,0.6C33.1,73.8,33,74.4,33,75c-0.1,0.7-0.1,1.3,0,1.8c0,0.2-0.3,0.4-0.8,0.5
		c-2.2,0.3-4.4,0.3-6.7-0.1c-0.5-0.1-0.8-0.3-0.9-0.6c-0.1-0.6-0.1-1.4,0-2.3c0.1-0.7,0.2-1.5,0.3-2.4c0.1-0.4,0.4-0.6,1-0.5
		C28,72.1,30.3,72.4,32.5,72.5"/>
	<path class="st2z" d="M29.2,73c0.4,0,0.6,0.2,0.6,0.5c-0.1,0.5-0.1,1-0.2,1.5c0,0.5,0,1,0,1.4c0,0.2-0.2,0.3-0.6,0.4
		c-1.7,0.2-3.4,0.2-5.1-0.1c-0.4-0.1-0.6-0.3-0.7-0.5c0-0.5,0-1.1,0-1.7c0-0.6,0.1-1.2,0.2-1.8c0.1-0.3,0.3-0.4,0.8-0.4
		C25.9,72.6,27.6,72.9,29.2,73"/>
	<path class="st2z" d="M27.8,82.4c0.4-0.1,0.7,0,0.8,0.1c0.2,0.6,0.5,1,0.8,1.1c0,0.1,0,0.1-0.5,0.2c-1.5,0.4-3,0.5-4.6,0.4
		c-0.5-0.1-1.1-0.1-1.6-0.2c0,0-0.1,0-0.1,0c-0.5-0.1-0.8-0.6-1-1.3c0-0.2,0.2-0.2,0.6-0.2C24.1,82.8,26,82.8,27.8,82.4"/>
	<path class="st2z" d="M32,57.6c0.5,0.2,0.7,0.5,0.6,1c-0.6,1.8-1.1,3.5-1.5,5.1c-0.1,0.4-0.5,0.6-1,0.6c-2.3-0.1-4.7-0.5-7-1.2
		c-0.6-0.2-0.8-0.5-0.7-1.1c0.5-2,1.1-4.2,1.9-6.3c0.2-0.5,0.6-0.7,1.2-0.5C27.6,56,29.8,56.8,32,57.6"/>
	<path class="st2z" d="M24,33.9c1-0.1,0.8,0.3,0.7,0.5c-0.8,0.9-1.7,2-2.7,3.3c-0.6,0.8-1.2,1.7-1.7,2.6c-0.4,0.6-1,0.8-1.6,0.9
		c-2.7-0.2-5,0.1-6.8,0.7c-0.6,0.2-0.4-0.3-0.3-0.4c0.4-0.6,0.8-1.2,1.2-1.8c0.6-0.9,1.2-1.6,1.8-2.2c0.3-0.3,0.7-0.6,1.3-1
		C18.1,35.1,20.9,34.2,24,33.9"/>
	<path class="st2z" d="M30.3,37.6c0.6,0.2,0.6,0.4,0.5,0.5c-0.4,0.4-0.7,1-1,1.7c-0.2,0.4-0.4,0.9-0.6,1.4c-0.2,0.3-0.4,0.4-0.9,0.2
		c-1.8-0.7-3.3-1.1-4.4-1.1c-0.4,0-0.3-0.3-0.3-0.3c0.1-0.3,0.2-0.7,0.4-1c0.2-0.5,0.5-0.9,0.7-1.1c0.1-0.1,0.4-0.3,0.7-0.4
		C26.7,37.1,28.3,37.1,30.3,37.6"/>
	<path class="st2z" d="M29.9,25.3c0.6,0.2,0.6,0.4,0.5,0.5c-0.4,0.4-0.7,1-1,1.7c-0.2,0.4-0.4,0.9-0.6,1.4c-0.2,0.3-0.4,0.4-0.9,0.2
		c-1.8-0.7-3.3-1.1-4.4-1.1c-0.4,0-0.3-0.3-0.3-0.3c0.1-0.3,0.2-0.7,0.4-1c0.2-0.5,0.5-0.9,0.7-1.1c0.1-0.1,0.4-0.3,0.7-0.4
		C26.3,24.9,27.9,24.9,29.9,25.3"/>
	<path class="st2z" d="M39.5,28.4c0.5,0.1,0.5,0.3,0.5,0.4c-0.3,0.4-0.7,0.9-1,1.5c-0.2,0.4-0.4,0.8-0.6,1.3
		c-0.2,0.3-0.4,0.3-0.8,0.2c-1.5-0.5-2.8-0.7-3.8-0.7c-0.3,0-0.3-0.2-0.2-0.3c0.1-0.3,0.3-0.6,0.4-0.9c0.2-0.4,0.4-0.8,0.7-1
		c0.1-0.1,0.3-0.2,0.6-0.4C36.4,28.2,37.9,28.1,39.5,28.4"/>
	<path class="st2z" d="M37.1,19.6c0.3,0,0.3,0.1,0.2,0.1c-0.3,0.3-0.6,0.7-1,1.2c-0.2,0.3-0.4,0.6-0.6,0.9c-0.2,0.2-0.3,0.3-0.6,0.3
		c-0.9,0-1.6,0.1-2.3,0.4c-0.2,0.1-0.1-0.1-0.1-0.1c0.1-0.2,0.3-0.4,0.4-0.6c0.2-0.3,0.4-0.6,0.6-0.8c0.1-0.1,0.3-0.2,0.5-0.3
		C35.1,20.1,36.1,19.8,37.1,19.6"/>
	<path class="st1" d="M36.8,49.7c0.4,0.2,0.5,0.5,0.3,0.9c-0.8,1.5-1.5,3.1-2.2,4.7c-0.2,0.4-0.5,0.5-0.9,0.4
		c-0.2-0.1-0.4-0.2-0.6-0.2c-1.5-0.6-2.9-1.2-4.1-1.7c-0.3-0.2-0.4-0.4-0.3-0.8c0.6-1.5,1.3-3,2.1-4.4c0.2-0.3,0.5-0.5,0.9-0.4
		c1.3,0.3,2.7,0.7,4.2,1.3C36.4,49.6,36.6,49.7,36.8,49.7"/>
	<path class="st2z" d="M34.4,40.7c0.5,0.3,0.6,0.5,0.4,0.8c-0.6,0.7-1.3,1.5-1.9,2.4c-0.4,0.6-0.8,1.2-1.3,1.9
		c-0.3,0.4-0.7,0.5-1.3,0.3c-0.3-0.1-0.5-0.2-0.8-0.3c-1.9-0.8-3.8-1.3-5.4-1.7c-0.4-0.1-0.5-0.4-0.4-0.8c0.4-0.6,0.8-1.2,1.2-1.8
		c0.6-0.9,1.2-1.6,1.8-2.2c0.3-0.2,0.7-0.3,1.2-0.3c1.8,0.1,3.8,0.6,5.7,1.3C33.9,40.4,34.2,40.5,34.4,40.7"/>
	<path class="st2z" d="M43.2,47.1c0.3,0.4,0.4,0.7,0.2,0.9c-0.4,0.5-0.9,1-1.4,1.7c-0.3,0.4-0.6,0.9-0.9,1.3c-0.2,0.3-0.5,0.3-0.9,0
		c-1.5-1.2-3.2-2.3-5-3.3c-0.4-0.3-0.5-0.6-0.3-1c0.4-0.6,0.7-1.1,1.1-1.6c0.6-0.8,1.1-1.5,1.7-2.1c0.2-0.2,0.6-0.2,1,0.1
		C40.4,44.2,41.9,45.5,43.2,47.1"/>
	<path class="st2z" d="M47.6,60.4c0.3,0.4,0.4,0.7,0.3,1c-0.5,0.9-0.9,1.9-1.3,2.9c-0.1,0.2-0.4,0.3-0.8,0.2
		c-1.8-0.6-3.9-1.3-6.3-2.2c-0.6-0.3-0.8-0.6-0.6-1.1c0.8-2,1.7-3.9,2.7-5.7c0.3-0.4,0.7-0.4,1.2-0.1C44.6,57.1,46.3,58.8,47.6,60.4
		"/>
	<path class="st2z" d="M52.1,61.4c0.2,0.5,0.2,0.8,0.1,1c-0.7,0.8-1.3,1.6-2,2.5c-0.2,0.2-0.5,0.2-0.9,0c-1.6-1-3.5-2.2-5.6-3.6
		c-0.5-0.4-0.6-0.8-0.4-1.2c1.2-1.7,2.6-3.4,3.9-5c0.4-0.3,0.7-0.2,1.2,0.2C50,57.4,51.3,59.5,52.1,61.4"/>
	<path class="st0" d="M40.3,35.4c0.4,0.2,0.6,0.3,0.8,0.4c-0.8-0.1-1.8,0.3-2.9,1.1c-0.3,0.2-0.8,0.1-1.5-0.1
		c-0.3-0.1-0.6-0.3-1-0.4c-2.4-1-4.8-1.5-7.1-1.6c-0.8-0.1-0.7-0.3-0.6-0.4c0.9-0.7,1.7-1,2.3-1H32c2.3,0.2,2.4,0.2,3.7,0.5
		c0.7,0.2,1.7,0.4,2.4,0.7c0.4,0.1,0.8,0.3,1.2,0.5C39.6,35.1,39.9,35.2,40.3,35.4"/>
	<path class="st2z" d="M47.2,44.7c0.2,0.3,0.3,0.5,0.3,0.7c0,0,0,0,0,0c-0.5-0.1-1.1,0.2-1.9,0.7c-0.2,0.1-0.5-0.1-0.8-0.5
		c-1.4-1.8-3.1-3.4-5.1-4.7c-0.4-0.3-0.6-0.6-0.4-0.8c0.9-0.7,1.7-1,2.3-0.9c0.2,0.1,0.5,0.2,1,0.6C44.4,41.2,46,42.9,47.2,44.7"/>
	<path class="st0" d="M53.9,55.2c0,0.2,0,0.8-0.1,1.1c-0.3,0-0.7,0.1-1.1,0.4c-0.1,0-0.2-0.1-0.4-0.9c-0.5-2.7-1.5-5.3-3-7.7
		c-0.3-0.6-0.4-1-0.2-1.2c0.8-0.6,1.6-0.9,2.2-0.8c0.2,0.1,0.4,0.4,0.7,1C53.1,49.6,53.8,52.4,53.9,55.2"/>
	<path class="st0" d="M50.4,68.7c-0.6,1.1-1.3,2.1-2.3,3c-0.4,0.3-0.6,0.4-0.6,0.3c-0.1-0.8-0.1-1.6-0.1-2.4
		c0.1-0.3,0.4-0.4,0.6-0.4C48.9,69,49.8,68.9,50.4,68.7"/>
	<g>
		<path class="st2z" d="M5.7,53.9c-0.1,0.6-0.9,3-0.9,3.5c0,0,0,0,0,0.1c-0.1-1.7-0.1-2.4,0.1-4.4c0.2-1.3,0.5-2.6,0.5-2.6
			c-0.2,0.8,0.3,1.7,0.4,2.6L5.7,53.9L5.7,53.9z"/>
		<path class="st1" d="M9.3,50.6c0.1,0.2,0.1,0.4,0,0.8c-0.5,1.4-0.9,2.9-1.2,4.2c0,0.1-0.1,0.3-0.2,0.2c0,0-0.1-0.2-0.1-0.3
			c-0.1-0.8-0.1-1.6,0-2.4L8,52.8c0.1-0.5,0.2-0.9,0.3-1.2c0.1-0.3,0.2-0.6,0.3-1c0.1-0.2,0.2-0.5,0.3-0.7C8.8,50,9,50.3,9.3,50.6"
			/>
		<path class="st1" d="M10.2,44.8c0.3-0.2,0.2,0.1,0.2,0.2c0,0,0,0.1,0,0.1c-0.7,1.3-1.4,2.7-1.9,4.1c-0.2,0.3-0.3,0.5-0.5,0.4
			c-0.4-0.3-0.6-0.4-0.6-0.5c0.1-0.2,0.2-0.5,0.3-0.8c0.2-0.5,0.3-0.7,0.4-0.9c0.2-0.4,0.4-0.7,0.5-1l0.1-0.2
			C9.1,45.7,9.6,45.2,10.2,44.8"/>
		<path class="st1" d="M11.8,63c0.4,0.4,0.6,0.9,0.5,1.4c-0.2,1-0.3,1.9-0.3,2.7c-0.1,1-0.1,1.9,0,2.6c0,0,0,0.1,0,0.2
			c-0.2,0-0.2,0-0.6-0.4c-1.6-2-2.7-4.2-3.4-6.6c-0.2-0.7-0.2-1.1-0.3-1.3c0-0.5,0-1.1,0-1.8c0-0.6,0.1-1.2,0.2-1.8
			c0-0.1,0.1-0.2,0.1-0.2s0.1,0.1,0.2,0.3C9,59.8,10.2,61.5,11.8,63"/>
		<path class="st1" d="M5.6,61.9c0.3,0.3,0.4,0.6,0.3,0.9c-0.1,0.6-0.2,1.2-0.2,1.8c0,0.7,0,1.2,0,1.7c0,0,0,0.1,0,0.1
			c-0.1,0-0.1,0-0.4-0.3c-1-1.3-1.8-2.8-2.2-4.3C3,61.5,3,61.2,3,61.1c0-0.3,0-0.7,0-1.2c0-0.4,0.1-0.8,0.1-1.2c0-0.1,0-0.1,0.1-0.1
			c0.1,0,0.1,0.1,0.1,0.2C3.8,59.9,4.5,61,5.6,61.9"/>
		<path class="st1" d="M18.8,44.3c0.5,0.1,0.6,0.4,0.4,0.9c-1.1,2.1-2.2,4.4-3.2,6.8c-0.3,0.5-0.6,0.7-1.1,0.6
			c-1.8-0.8-3.3-1.5-4.3-2c-0.2-0.2-0.3-0.4-0.1-0.8c0.6-1.6,1.4-3.1,2.1-4.6c0.2-0.4,0.5-0.6,0.8-0.7
			C14.9,44.1,16.7,44.1,18.8,44.3"/>
		<path class="st1" d="M21.5,68.7c0.7,0.3,0.9,0.7,0.9,1.3c-0.2,1.1-0.3,2.1-0.4,3c-0.1,1.1-0.1,2.1,0,2.9c0,0.4-0.4,0.4-1,0.2
			c-0.3-0.1-0.7-0.2-1-0.4c-2.4-1-4.5-2.3-6.2-3.8c-0.5-0.4-0.7-0.9-0.8-1.2c-0.1-0.8-0.1-1.7,0-2.7c0.1-0.9,0.2-1.8,0.3-2.8
			c0.1-0.5,0.4-0.6,0.9-0.3c1.8,1.3,3.9,2.4,6.2,3.4C20.8,68.5,21.2,68.6,21.5,68.7"/>
		<path class="st1" d="M21.1,76.8c0.7,0.3,1.1,0.5,1.2,0.8c0.3,1.1,0.9,1.8,1.6,2c-0.7-0.2-1.6-0.5-2.2-0.8c-2.2-1-2.3-1-3.5-1.7
			c-2-1.3-2-1.4-3-2.2L14,73.8c-0.3-0.3-0.6-0.8-0.8-1.4c0,0,0-0.1,0-0.1c0,0,0,0,0.1,0c0.2,0,0.3,0.1,0.6,0.4
			c1.7,1.6,3.8,2.9,6.2,3.8C20.4,76.6,20.8,76.7,21.1,76.8"/>
		<path class="st1" d="M34.2,78.4c0.7-0.1,1.1,0,1.2,0.2c0.3,0.9,0.7,1.5,1.3,1.7c0,0.1-0.1,0.1-0.8,0.3c-2.3,0.5-4.6,0.7-7,0.5
			c-0.7-0.1-1.7-0.2-2.4-0.4c-0.1,0-0.1,0-0.2,0c-0.7-0.2-1.3-0.9-1.6-2c0-0.3,0.3-0.3,1-0.3C28.5,78.9,31.4,78.9,34.2,78.4"/>
		<path class="st1" d="M34.6,62.8c0.6,0.3,0.9,0.7,0.7,1.2c-0.8,2.3-1.5,4.5-1.9,6.6c-0.2,0.5-0.6,0.8-1.3,0.8c-3-0.2-6-0.7-9-1.5
			c-0.7-0.3-1-0.7-1-1.4c0.6-2.6,1.4-5.4,2.4-8.2c0.3-0.6,0.8-0.9,1.6-0.7C29,60.9,31.9,61.9,34.6,62.8"/>
		<path class="st1" d="M40.2,53.4c0.5,0.4,0.6,0.9,0.5,1.4c-1,1.9-2,4-2.8,6.1c-0.3,0.5-0.7,0.6-1.3,0.5c-2.5-0.9-5.2-2-7.9-3
			c-0.6-0.3-0.9-0.8-0.7-1.4c1-2.6,2.2-5.1,3.5-7.5c0.4-0.5,0.9-0.7,1.5-0.4C35.5,50.3,37.9,51.9,40.2,53.4"/>
		<path class="st1" d="M14.8,41c0.3-0.2,0.4-0.3,0.5-0.4c0,0,0,0,0,0.1c-0.4,0.4-0.9,1-1.3,1.6c-0.3,0.4-0.6,0.8-0.9,1.3
			c-0.2,0.3-0.4,0.5-0.8,0.8c-0.7,0.5-1.2,1-1.6,1.6l0.2-0.3c0.5-0.8,0.5-0.8,0.8-1.3c0.9-1.2,1.2-1.6,2.3-2.8l0.3-0.3
			C14.4,41.3,14.6,41.2,14.8,41"/>
		<path class="st1" d="M44.5,69.7c0.7-0.2,0.8-0.1,0.8,0c-0.1,0.4-0.1,0.8-0.1,1.2c0,0.4,0,0.8,0,1.1c0,0.1-0.2,0.4-0.8,0.9
			c-2.2,1.6-4.8,2.8-7.5,3.6c-0.7,0.2-1,0.1-1.1-0.2c-0.1-0.6-0.1-1.4,0-2.2c0.1-0.7,0.1-1.5,0.3-2.3c0.1-0.4,0.5-0.7,1.2-0.7
			C39.9,70.9,42.3,70.5,44.5,69.7"/>
		<path class="st1" d="M44.4,73.2c0.6-0.4,0.8-0.5,0.9-0.5c0.2,0.5,0.4,0.7,0.7,0.8c0,0.1,0,0.2-0.7,0.8c-2,2-4.3,3.5-6.8,4.6
			c-0.6,0.2-1,0.4-1.2,0.4c-0.6-0.2-1-0.7-1.3-1.6c0-0.2,0.3-0.4,1-0.7C39.6,76.1,42.2,74.8,44.4,73.2"/>
		<path class="st1" d="M44.7,65.5c0.3,0.1,0.5,0.2,0.4,0.4c-0.3,0.7-0.5,1.5-0.6,2.2c-0.1,0.2-0.3,0.3-0.7,0.5
			c-1.6,0.5-3.5,0.8-5.5,0.8c-0.5,0-0.7-0.2-0.7-0.5c0.3-1.4,0.8-2.9,1.3-4.4c0.2-0.3,0.5-0.5,0.9-0.4
			C41.7,64.7,43.3,65.1,44.7,65.5"/>
		<path class="st1" d="M50.4,57.1c0.2,0.8,0.1,1.1,0,1.2c-0.3,0.3-0.6,0.7-0.9,1.1c-0.2,0.3-0.4,0.6-0.6,0.9
			c-0.1,0.1-0.3,0.2-0.6-0.4c-1.2-1.8-2.8-3.7-4.7-5.5c-0.4-0.5-0.6-0.9-0.4-1.4c0.4-0.6,0.8-1.2,1.2-1.8c0.6-0.9,1.3-1.7,1.8-2.3
			c0.3-0.2,0.6,0,1,0.5C48.7,51.9,49.8,54.5,50.4,57.1"/>
		<path class="st1" d="M26.1,36c-0.3,0.2-0.7,0.3-1.4,0.4c-2.5,0.3-4.9,1.1-6.9,2.3c-0.4,0.2-0.4,0.3-0.5,0.3
			c0.1-0.1,0.2-0.1,0.2-0.2c1.7-1,1.8-1.2,3.1-1.8c2-0.8,2.1-0.9,3.5-1.3c2.2-0.5,2.3-0.6,3.7-0.7l0.5-0.1
			C27.5,35.1,26.8,35.4,26.1,36"/>
		<path class="st1" d="M48,37.2c0.1,0.2,0.2,0.3,0.2,0.4c0,0,0,0,0,0c-0.3,0-0.7,0.1-1.1,0.4c-0.1,0.1-0.3,0-0.5-0.3
			c-0.9-1.1-1.9-2.1-3.1-2.8c-0.3-0.2-0.4-0.4-0.3-0.5c0.5-0.4,1-0.6,1.4-0.5c0.1,0,0.3,0.1,0.6,0.3C46.3,35.1,47.2,36.1,48,37.2"/>
		<path class="st1" d="M53,55.9c0,0.2,0,0.8-0.1,1.1c-0.3,0-0.7,0.1-1.1,0.4c-0.1,0-0.2-0.1-0.4-0.9c-0.5-2.7-1.5-5.3-3-7.7
			c-0.3-0.6-0.4-1-0.2-1.2c0.8-0.6,1.6-0.9,2.2-0.8c0.2,0.1,0.4,0.4,0.7,1C52.2,50.3,52.8,53,53,55.9"/>
		<path class="st1" d="M51.3,66.3c-0.6-0.2-1.3-0.4-2.3-0.8c-0.2-0.1-0.5-0.2-0.4-0.5c0.4-0.8,0.8-1.5,1.2-2.2
			c0.1-0.1,0.3,0,0.5,0.4C50.9,64.3,51.2,65.3,51.3,66.3"/>
	</g>
</g>
<g>
	<path class="st0" d="M61.1,54l-0.7-0.7l0.9-0.8l0.7,0.7L61.1,54z M62.5,53.7l3,3.1l-0.9,0.8l-3-3.1L62.5,53.7z"/>
	<path class="st0" d="M64.9,51.4l0.4,0.4l0,0c-0.1-0.3,0-0.6,0.1-0.8c0.1-0.2,0.2-0.5,0.4-0.6c0.2-0.2,0.5-0.4,0.7-0.4
		c0.2-0.1,0.4-0.1,0.6-0.1c0.2,0,0.4,0.1,0.6,0.2c0.2,0.1,0.4,0.3,0.6,0.5l1.8,1.9l-0.9,0.8l-1.7-1.8c-0.2-0.3-0.5-0.4-0.7-0.5
		c-0.2-0.1-0.4,0-0.6,0.2c-0.2,0.2-0.3,0.5-0.3,0.7c0,0.2,0.2,0.5,0.5,0.8l1.6,1.7L67,55.4l-3-3.1L64.9,51.4L64.9,51.4z"/>
	<path class="st0" d="M70.3,46.3l0.5,0.6l-0.6,0.6l1.5,1.6c0.1,0.1,0.3,0.2,0.3,0.2c0.1,0,0.2-0.1,0.4-0.2c0,0,0.1-0.1,0.1-0.1
		s0.1-0.1,0.1-0.1l0.6,0.7c0,0-0.1,0.2-0.2,0.3c-0.1,0.1-0.2,0.2-0.3,0.3c-0.1,0.1-0.3,0.2-0.4,0.3s-0.3,0.2-0.4,0.2s-0.3,0-0.4,0
		s-0.3-0.2-0.4-0.3l-1.8-1.9l-0.5,0.5l-0.5-0.6l0.5-0.5l-0.9-0.9l0.9-0.8l0.9,0.9L70.3,46.3L70.3,46.3z"/>
	<path class="st0" d="M74.8,46.6c0.2,0,0.5-0.1,0.7-0.3c0.2-0.2,0.3-0.3,0.3-0.6c0-0.2,0-0.4,0-0.5l0.8-0.7c0.2,0.5,0.3,0.9,0.2,1.3
		c-0.1,0.4-0.3,0.8-0.7,1.1c-0.2,0.2-0.5,0.4-0.8,0.5c-0.3,0.1-0.5,0.2-0.8,0.1c-0.3,0-0.5-0.1-0.8-0.2c-0.3-0.1-0.5-0.3-0.7-0.6
		s-0.4-0.5-0.5-0.8c-0.1-0.3-0.2-0.6-0.2-0.8c0-0.3,0.1-0.6,0.2-0.8c0.1-0.3,0.3-0.5,0.5-0.7c0.3-0.3,0.6-0.4,0.8-0.5
		c0.3-0.1,0.6-0.1,0.9,0c0.3,0.1,0.6,0.2,0.8,0.3c0.3,0.2,0.5,0.4,0.7,0.6L74,46.2C74.3,46.5,74.6,46.6,74.8,46.6L74.8,46.6z
		 M74.2,44c-0.2,0-0.4,0.1-0.6,0.3c-0.1,0.1-0.2,0.3-0.3,0.4s-0.1,0.3-0.1,0.4c0,0.1,0,0.2,0.1,0.3c0.1,0.1,0.1,0.2,0.2,0.2l1.4-1.3
		C74.7,44.1,74.4,44,74.2,44z"/>
	<path class="st0" d="M76.9,40.1l0.6,0.6l0,0c-0.1-0.1-0.1-0.3-0.1-0.4c0-0.1,0-0.3,0-0.4s0.1-0.3,0.2-0.4c0.1-0.1,0.2-0.2,0.3-0.3
		c0.1-0.1,0.1-0.1,0.2-0.1l0.8,0.8c0,0-0.1,0.1-0.2,0.1c-0.1,0-0.1,0.1-0.2,0.1c-0.2,0.1-0.3,0.3-0.3,0.5s-0.1,0.3-0.1,0.5
		s0.1,0.3,0.2,0.5c0.1,0.1,0.2,0.3,0.3,0.4l1.3,1.4l-0.9,0.8l-3-3.1L76.9,40.1L76.9,40.1z"/>
	<path class="st0" d="M80.3,36.9l0.4,0.4l0,0c-0.1-0.3,0-0.6,0.1-0.8c0.1-0.2,0.2-0.5,0.4-0.6c0.2-0.2,0.5-0.4,0.7-0.4
		c0.2-0.1,0.4-0.1,0.6-0.1s0.4,0.1,0.6,0.2s0.4,0.3,0.6,0.5l1.8,1.9l-0.9,0.8l-1.7-1.8c-0.2-0.3-0.5-0.4-0.7-0.5s-0.4,0-0.6,0.2
		c-0.2,0.2-0.3,0.5-0.3,0.7s0.2,0.5,0.5,0.8l1.6,1.7l-0.9,0.8l-3-3.1L80.3,36.9L80.3,36.9z"/>
	<path class="st0" d="M84.5,33.8c0-0.2,0-0.4,0-0.6c0.1-0.2,0.2-0.4,0.3-0.6s0.3-0.4,0.5-0.5c0.2-0.1,0.3-0.3,0.5-0.4
		s0.4-0.2,0.6-0.3c0.2-0.1,0.4-0.1,0.6,0c0.2,0,0.4,0.1,0.6,0.3l1.5,1.6c0.1,0.1,0.3,0.3,0.4,0.4c0.1,0.1,0.3,0.2,0.4,0.2L89,34.6
		c0,0-0.1-0.1-0.2-0.1s-0.1-0.1-0.2-0.1c0,0.3-0.1,0.5-0.2,0.8c-0.1,0.2-0.3,0.4-0.5,0.6c-0.2,0.1-0.3,0.3-0.5,0.3s-0.3,0.1-0.5,0.2
		c-0.2,0-0.3,0-0.5-0.1c-0.2-0.1-0.3-0.2-0.5-0.3c-0.2-0.2-0.3-0.4-0.3-0.5s-0.1-0.3,0-0.5c0-0.2,0.1-0.3,0.2-0.5s0.2-0.3,0.3-0.4
		c0.1-0.1,0.2-0.3,0.3-0.4c0.1-0.1,0.2-0.3,0.3-0.4c0.1-0.1,0.1-0.2,0.1-0.3c0-0.1,0-0.2-0.1-0.3c-0.1-0.1-0.2-0.2-0.3-0.2
		s-0.2,0-0.2,0c-0.1,0-0.2,0.1-0.2,0.1s-0.2,0.1-0.2,0.2c-0.2,0.2-0.3,0.3-0.3,0.5c0,0.2,0,0.3,0.2,0.5l-0.9,0.8
		C84.7,34.2,84.6,34,84.5,33.8L84.5,33.8z M87.4,33.4c0,0-0.1,0.1-0.1,0.2c-0.1,0.1-0.1,0.1-0.2,0.2C87,33.9,87,34,86.9,34.1
		c-0.1,0.1-0.1,0.2-0.1,0.2c0,0.1-0.1,0.2-0.1,0.2c0,0.1,0,0.2,0,0.2c0,0.1,0.1,0.2,0.1,0.2c0.1,0.1,0.1,0.1,0.2,0.2
		c0.1,0,0.2,0,0.2,0s0.2,0,0.2-0.1c0.1,0,0.1-0.1,0.2-0.2c0.2-0.2,0.3-0.3,0.3-0.5s0-0.3,0-0.4s-0.1-0.2-0.1-0.3
		c-0.1-0.1-0.1-0.2-0.2-0.2l-0.3-0.3C87.5,33.2,87.4,33.3,87.4,33.4L87.4,33.4z"/>
	<path class="st0" d="M90.1,27.6l0.5,0.6L90,28.8l1.5,1.6c0.1,0.1,0.3,0.2,0.3,0.2s0.2-0.1,0.4-0.2c0,0,0.1-0.1,0.1-0.1
		c0,0,0.1-0.1,0.1-0.1l0.6,0.7c0,0-0.1,0.2-0.2,0.3c-0.1,0.1-0.2,0.2-0.3,0.3c-0.1,0.1-0.3,0.2-0.4,0.3s-0.3,0.2-0.4,0.2
		s-0.3,0-0.4,0s-0.3-0.2-0.4-0.3l-1.8-1.9l-0.5,0.5l-0.5-0.6l0.5-0.5l-0.9-0.9l0.9-0.8l0.9,0.9L90.1,27.6L90.1,27.6z"/>
	<path class="st0" d="M91,25.9l-0.7-0.7l0.9-0.8l0.7,0.7L91,25.9z M92.3,25.6l3,3.1l-0.9,0.8l-3-3.1L92.3,25.6z"/>
	<path class="st0" d="M94.8,24.9c-0.1-0.3-0.2-0.6-0.2-0.8c0-0.3,0.1-0.6,0.2-0.8c0.1-0.3,0.3-0.5,0.6-0.8s0.5-0.4,0.8-0.5
		s0.6-0.2,0.8-0.2s0.6,0.1,0.8,0.2c0.3,0.1,0.5,0.3,0.8,0.6s0.4,0.5,0.5,0.8c0.1,0.3,0.2,0.6,0.2,0.8s-0.1,0.6-0.2,0.8
		s-0.3,0.5-0.6,0.8s-0.5,0.4-0.8,0.5s-0.5,0.2-0.8,0.2s-0.6-0.1-0.8-0.2s-0.5-0.3-0.8-0.6S94.9,25.2,94.8,24.9z M96.6,25.2
		c0.1,0.1,0.3,0.2,0.4,0.2s0.3,0,0.4,0c0.2,0,0.3-0.1,0.4-0.3s0.2-0.3,0.3-0.4s0.1-0.3,0-0.5S98.1,24,98,23.8
		c-0.1-0.1-0.2-0.3-0.3-0.4s-0.2-0.2-0.4-0.3s-0.3-0.2-0.4-0.2s-0.3,0-0.5,0c-0.2,0-0.3,0.1-0.5,0.3s-0.2,0.3-0.3,0.4s0,0.3,0,0.4
		c0,0.1,0.1,0.3,0.2,0.4c0.1,0.1,0.2,0.3,0.3,0.4S96.4,25.1,96.6,25.2L96.6,25.2z"/>
	<path class="st0" d="M99.4,18.9l0.4,0.4l0,0c-0.1-0.3,0-0.6,0.1-0.8s0.2-0.5,0.4-0.6c0.2-0.2,0.5-0.4,0.7-0.4
		c0.2-0.1,0.4-0.1,0.6-0.1c0.2,0,0.4,0.1,0.6,0.2c0.2,0.1,0.4,0.3,0.6,0.5l1.8,1.9l-0.9,0.8l-1.7-1.8c-0.2-0.3-0.5-0.4-0.7-0.5
		c-0.2,0-0.4,0-0.6,0.2c-0.2,0.2-0.3,0.5-0.3,0.7s0.2,0.5,0.5,0.8l1.6,1.7l-0.9,0.8l-3-3.1L99.4,18.9L99.4,18.9z"/>
	<path class="st0" d="M103.6,15.8c0-0.2,0-0.4,0-0.6s0.2-0.4,0.3-0.6s0.3-0.4,0.5-0.5c0.2-0.1,0.3-0.3,0.5-0.4s0.4-0.2,0.6-0.3
		c0.2-0.1,0.4-0.1,0.6,0c0.2,0,0.4,0.1,0.6,0.3l1.5,1.6c0.1,0.1,0.3,0.3,0.4,0.4c0.1,0.1,0.3,0.2,0.4,0.2l-0.9,0.8
		c0,0-0.1-0.1-0.2-0.1c-0.1,0-0.1-0.1-0.2-0.1c0,0.3-0.1,0.5-0.2,0.8c-0.1,0.2-0.3,0.4-0.5,0.6c-0.2,0.1-0.3,0.3-0.5,0.3
		s-0.3,0.1-0.5,0.2c-0.2,0-0.3,0-0.5-0.1c-0.2-0.1-0.3-0.2-0.5-0.3c-0.2-0.2-0.3-0.4-0.3-0.5s-0.1-0.3,0-0.5c0-0.2,0.1-0.3,0.2-0.5
		s0.2-0.3,0.3-0.4c0.1-0.1,0.2-0.3,0.3-0.4c0.1-0.1,0.2-0.3,0.3-0.4s0.1-0.2,0.1-0.3c0-0.1,0-0.2-0.1-0.3c-0.1-0.1-0.2-0.2-0.3-0.2
		s-0.2,0-0.2,0c-0.1,0-0.2,0.1-0.2,0.1s-0.2,0.1-0.2,0.2c-0.2,0.2-0.3,0.3-0.3,0.5c0,0.2,0,0.3,0.2,0.5l-0.9,0.8
		C103.8,16.2,103.7,15.9,103.6,15.8L103.6,15.8z M106.5,15.4c0,0-0.1,0.1-0.1,0.2s-0.1,0.1-0.2,0.2c-0.1,0.1-0.1,0.1-0.2,0.2
		s-0.1,0.2-0.1,0.2c0,0.1-0.1,0.2-0.1,0.2s0,0.2,0,0.2c0,0.1,0.1,0.2,0.1,0.2s0.1,0.1,0.2,0.2c0.1,0,0.2,0,0.2,0
		c0.1,0,0.2,0,0.2-0.1c0.1,0,0.1-0.1,0.2-0.2c0.2-0.2,0.3-0.3,0.3-0.5c0-0.1,0-0.3,0-0.4c0-0.1-0.1-0.2-0.1-0.3
		c-0.1-0.1-0.1-0.2-0.2-0.2l-0.3-0.3C106.6,15.2,106.6,15.3,106.5,15.4L106.5,15.4z"/>
	<path class="st0" d="M107.3,9.2l4.1,4.3l-0.9,0.8l-4.1-4.3C106.4,10,107.3,9.2,107.3,9.2z"/>
</g>
<path class="st1" d="M81.4,12.3c-0.3-0.3-0.5-0.7-0.5-1.2s0.2-0.8,0.5-1.1s0.7-0.5,1.2-0.4c0.5,0,0.8,0.2,1.1,0.5s0.5,0.7,0.4,1.2
	c0,0.4-0.2,0.8-0.5,1.1s-0.7,0.5-1.2,0.4C82.1,12.8,81.7,12.6,81.4,12.3z M85.6,12.1l4.8,5.1c0.4,0.4,0.7,0.6,1,0.7
	c0.2,0,0.5-0.1,0.8-0.4c0.1-0.1,0.2-0.2,0.3-0.3s0.1-0.2,0.1-0.2c0.1,0,0.1,0.1,0.2,0.1l0.1,0.1c0.2,0.2,0.4,0.5,0.4,0.7
	c0.1,0.2,0.1,0.5,0,0.7c0,0.2-0.1,0.4-0.2,0.6c-0.1,0.2-0.3,0.3-0.4,0.5c-0.8,0.7-1.5,1-2.2,0.9s-1.4-0.5-2-1.2l-4.9-5.2L85.6,12.1
	L85.6,12.1z"/>
<text transform="matrix(0.7071 -0.7071 0.7071 0.7071 74.149 69.1203)" class="st3 st4">ISO 9001 : 2015</text>
</svg>
