<svg version="1.1" xmlns="http://www.w3.org/2000/svg" xmlns:xlink="http://www.w3.org/1999/xlink" x="0px" y="0px"
	 viewBox="0 0 734.3 163.35" st51154yle="enable-background:new 0 0 734.3 163.35;" xml:space="preserve">
	<g id="guez_type">
		<path class="c1" d="M572.48,48.25c1.05,0,1.95,0.37,2.7,1.11c0.75,0.74,1.12,1.62,1.12,2.65s-0.37,1.91-1.12,2.65
			c-0.75,0.74-1.65,1.11-2.7,1.11c-1.05,0-1.93-0.36-2.65-1.09c-0.72-0.73-1.07-1.62-1.07-2.66s0.36-1.94,1.07-2.66
			C570.55,48.61,571.43,48.25,572.48,48.25z"/>
		<path class="c1" d="M559.27,48.25c1.05,0,1.95,0.37,2.7,1.11c0.75,0.74,1.12,1.62,1.12,2.65s-0.37,1.91-1.12,2.65
			c-0.75,0.74-1.65,1.11-2.7,1.11c-1.05,0-1.93-0.36-2.65-1.09c-0.72-0.73-1.07-1.62-1.07-2.66s0.36-1.94,1.07-2.66
			C557.34,48.61,558.22,48.25,559.27,48.25z"/>
		<polygon class="c1" points="569.87,107.71 565.93,107.71 561.99,107.71 561.99,64.11 569.87,61.34 	"/>
		<path class="c1" d="M583.48,45.43l7.53-2.57v25.16c3.9-4.27,10.23-6.23,15.9-6.23c13.29,0,23.05,9.67,23.05,22.96
			c0,12.83-10.32,22.96-23.05,22.96c-5.95,0-12.08-1.95-16.27-6.32l-0.01,6.32h-7.15V68.67V45.43z M606.26,101.02
			c9.39,0,15.34-6.88,15.34-16.08c0-9.2-5.67-16.55-15.34-16.55c-9.67,0-15.43,7.07-15.43,16.36
			C590.83,94.23,596.5,101.02,606.26,101.02z"/>
		<path class="c1" d="M643.58,87.68c1.13,8.66,7.63,13.08,16,13.08c5.27,0,8.66-1.04,13.18-3.77l3.58,5.93
			c-5.84,3.2-10.64,4.52-17.32,4.52c-13.37,0-24-8.94-24-22.69c0-13.18,9.7-23.82,23.06-23.82c11.67,0,20.52,7.91,21.37,19.67
			L643.58,87.68z M657.99,67.44c-8.38,0-13.84,5.93-14.59,14.03l27.49-5.37C669.28,70.45,663.54,67.44,657.99,67.44z"/>
		<path class="c1" d="M500.98,69.38c-0.77-0.19-1.65-0.29-2.42-0.29c-9.29,0-15,6.97-15,15.97v22.65h-7.84V64.44l7.55-2.61v8.81
			c3.58-5.23,8.81-9.48,15.39-9.48c1.36,0,2.61,0.29,3.87,0.58L500.98,69.38z"/>
		<path class="c1" d="M545.36,107.71c-1.89-1.6-3.11-4.15-3.11-6.69c-4.24,4.52-10.46,6.69-16.59,6.69
			c-13.48,0-23.37-9.8-23.37-23.28c0-12.91,10.46-23.28,23.37-23.28c6.13,0,12.16,1.98,16.49,6.41l7.26-5.09v32.42
			c0,2.83,0,7.63,1.79,9.99L545.36,107.71z M526.32,67.94c-9.61,0-15.55,6.97-15.55,16.31c0,9.33,5.75,16.78,15.55,16.78
			c9.9,0,15.55-7.07,15.55-16.59C541.87,74.82,536.21,67.94,526.32,67.94z"/>
		<path class="c1" d="M462.96,107.71c-1.89-1.6-3.11-4.15-3.11-6.69c-4.24,4.52-10.46,6.69-16.59,6.69
			c-13.48,0-23.37-9.8-23.37-23.28c0-12.91,10.46-23.28,23.37-23.28c6.13,0,12.16,1.98,16.49,6.41l7.26-5.09v32.42
			c0,2.83,0,7.63,1.79,9.99L462.96,107.71z M443.92,67.94c-9.61,0-15.55,6.97-15.55,16.31c0,9.33,5.75,16.78,15.55,16.78
			c9.9,0,15.55-7.07,15.55-16.59C459.47,74.82,453.82,67.94,443.92,67.94z"/>
		<path class="c1" d="M700.63,107.63c-6.02,0-12.04-1.98-17.12-5.27l3.95-5.74c3.76,2.92,8.47,4.33,13.26,4.33
			c3.95,0,9.78-0.75,9.78-5.93c0-10.07-26.15-4.42-26.15-21.26c0-9.03,8.75-12.61,16.56-12.61c5.65,0,10.91,1.69,15.62,4.8
			l-3.76,5.55c-3.48-2.45-7.81-3.86-12.04-3.86c-3.57,0-8.94,1.22-8.94,5.74c0,9.88,26.15,3.57,26.15,21.45
			C717.94,104.43,708.72,107.63,700.63,107.63z"/>
		<path class="c1" d="M252.57,88.12c1.13,8.65,7.62,13.08,15.99,13.08c5.27,0,8.66-1.03,13.17-3.76l3.57,5.93
			c-5.83,3.2-10.63,4.52-17.31,4.52c-13.36,0-23.99-8.94-23.99-22.67c0-13.17,9.69-23.8,23.05-23.8c11.67,0,20.51,7.9,21.35,19.66
			L252.57,88.12z M266.97,67.9c-8.37,0-13.83,5.93-14.58,14.02l27.47-5.36C278.26,70.91,272.52,67.9,266.97,67.9z"/>
		<path class="c1" d="M162.53,107.88c-18.91,0-32.36-13.64-32.36-32.46c0-18.91,15.33-32.36,33.77-32.36
			c7.15,0,14.3,1.88,20.42,5.55l-4.61,6.4c-4.52-2.92-9.97-4.52-15.33-4.52c-14.68,0-25.12,10.25-25.12,24.93
			c0,14.96,9.6,25.03,24.65,25.03c4.89,0,10.35-1.32,14.58-3.76V82.1h-18.72l5.36-7.15h21.92v26.44
			C179.66,105.53,171.1,107.88,162.53,107.88z"/>
		<path class="c1" d="M415.51,102.85c-2.79,1.62-6,2.89-9.63,3.8c-3.63,0.92-7.05,1.37-10.26,1.37c-9.42,0-17.22-2.99-23.39-8.96
			c-6.17-5.97-9.25-13.6-9.25-22.87c0-9.21,3.09-16.8,9.27-22.76c6.18-5.96,13.97-8.94,23.37-8.94c7.41,0,14.05,1.8,19.9,5.4
			l-4.41,6.3c-4.5-2.97-9.69-4.46-15.58-4.46c-7.08,0-12.79,2.27-17.13,6.8c-4.34,4.53-6.51,10.42-6.51,17.65
			c0,7.26,2.15,13.14,6.44,17.63c4.29,4.49,10.05,6.73,17.29,6.73c5.43,0,10.62-1.46,15.58-4.37L415.51,102.85z"/>
		<path class="c1" d="M326.78,68.19c0.97-1.72,0.73-3.24,0.73-3.24c-0.02-0.12-0.08-0.45-0.25-0.87c-0.02-0.04-0.32-0.8-0.89-1.4
			c-0.61-0.65-1.84-1.17-3.03-1.33c-2.18-0.28-11.39-0.28-23.94,0.17c-1.75,2.24-3.49,4.48-5.24,6.72c8.15,0,16.3,0,24.44,0
			c-8.57,10.94-17.14,21.87-25.72,32.81h0c-0.21,0.29-1,1.46-0.81,3.07c0.04,0.35,0.18,1.38,0.95,2.21c1.03,1.12,2.87,1.53,2.87,1.53
			c0,0,9.02,0,25.96,0c1.64-2.21,3.29-4.42,4.93-6.63c-8.79,0.01-17.59,0.02-26.38,0.03C315.06,83.57,325.51,70.46,326.78,68.19z"/>
		<path class="c1" d="M329.09,76.7"/>
		<path class="c1" d="M318.61,70.64"/>
		<path class="c1" d="M297.51,51.31"/>
		<path class="c1" d="M232.46,107.91c-2.62-2.52-3.2-4.85-3.2-8.34c-4.36,5.72-10.28,8.34-17.36,8.34
			c-10.67,0-16.48-6.59-16.48-17.06V61.37h7.85V89.1c0,6.79,2.62,11.54,9.99,11.54c9.99,0,15.71-7.85,15.71-17.26V61.37h7.85v33.35
			c0,2.91,0,7.66,1.75,10.18L232.46,107.91z"/>
	</g>
	<g id="guez_sign">
		<path class="c1" d="M187.02,148.02C-2.46,71.3,51.07,9.07,51.07,9.07S-40.35,82.05,187.02,148.02z"/>
		<path class="c2" d="M175.97,18.91C-24.61,58.38,16.18,129.61,16.18,129.61S-59.78,40.64,175.97,18.91z"/>
	</g>
</svg>
