<svg id="logo_en_couleurs" data-name="logo en couleurs" xmlns="http://www.w3.org/2000/svg" xmlns:xlink="http://www.w3.org/1999/xlink" width="166.897" height="48.26" viewBox="0 0 166.897 48.26">
  <defs>
    <clipPath id="clip-path">
      <rect id="Rectangle_5910" data-name="Rectangle 5910" width="166.897" height="48.26" transform="translate(0 0)" fill="none"/>
    </clipPath>
    <clipPath id="clip-path-2">
      <rect id="Rectangle_5914" data-name="Rectangle 5914" width="166.897" height="48.26" transform="translate(0 0)" fill="#e60825"/>
    </clipPath>
  </defs>
  <g id="logo_couleurs" data-name="logo couleurs" transform="translate(0 0)" clip-path="url(#clip-path)">
    <path id="Tracé_624" data-name="Tracé 624" d="M60.768,46.266C-2.324,20.72,15.5,0,15.5,0S-14.94,24.3,60.768,46.266" fill="#004d9b"/>
    <path id="Tracé_625" data-name="Tracé 625" d="M57.086,3.277C-9.7,16.418,3.884,40.135,3.884,40.135s-25.29-29.623,53.2-36.858" fill="#e20026"/>
    <path id="Tracé_626" data-name="Tracé 626" d="M73.192,46.972q-.119.354-.968.354a.747.747,0,0,1-.7-.44c-.074-.145-.145-.288-.216-.439a6.792,6.792,0,0,1-.321-.659c-.1-.2-.184-.3-.278-.3a1.863,1.863,0,0,0-.752.334c-.161.1-.367.241-.607.4-.334.241-.653.476-.974.711a2.193,2.193,0,0,1-1.14.456q-.687,0-.794-1.217a5.235,5.235,0,0,1,.24-2.109.716.716,0,0,1,.184-.263.548.548,0,0,1,.275-.161.161.161,0,0,1,.174.1,1.213,1.213,0,0,1-.061.591,4.874,4.874,0,0,0-.088,1.258q.025,1,.4,1a1.159,1.159,0,0,0,.52-.185q.018-.02,1.033-.722.891-.627,1.083-.743a1.934,1.934,0,0,1,.834-.373c.177,0,.361.231.544.693a3.448,3.448,0,0,0,.334.692c.119.24.208.4.268.5.112.193.223.289.326.289h.254a1.125,1.125,0,0,1,.355.041c.08.028.1.1.072.193" fill="#1d1d1b"/>
    <path id="Tracé_627" data-name="Tracé 627" d="M67.244,47.422c-.475,0-.751-.418-.824-1.241a5.265,5.265,0,0,1,.24-2.122.758.758,0,0,1,.191-.274.551.551,0,0,1,.288-.167.188.188,0,0,1,.205.112,1.258,1.258,0,0,1-.06.611A4.86,4.86,0,0,0,67.2,45.58c.016.641.143.971.377.971a1.149,1.149,0,0,0,.5-.182c.018-.017.729-.513,1.034-.721.61-.433.956-.669,1.084-.744a1.987,1.987,0,0,1,.844-.378c.2,0,.388.241.573.711a3.408,3.408,0,0,0,.334.687c.133.265.214.415.268.505.111.181.212.277.3.277h.247a1.057,1.057,0,0,1,.363.041.166.166,0,0,1,.094.215l-.007.015c-.08.248-.417.372-.994.372h-.017a.779.779,0,0,1-.7-.455c-.08-.156-.15-.3-.216-.438a7.322,7.322,0,0,1-.321-.661c-.092-.2-.172-.291-.253-.291a1.889,1.889,0,0,0-.735.334c-.153.1-.346.223-.607.4s-.52.378-.771.557l-.2.149a2.216,2.216,0,0,1-1.154.46m-.067-3.754h-.022a.507.507,0,0,0-.26.154.685.685,0,0,0-.178.254,5.213,5.213,0,0,0-.241,2.1c.071.791.329,1.192.768,1.192a2.168,2.168,0,0,0,1.123-.446l.2-.148c.252-.185.513-.375.772-.557s.456-.311.608-.406a1.933,1.933,0,0,1,.761-.341c.111,0,.2.1.309.321a6.545,6.545,0,0,0,.32.658c.067.139.137.282.223.44a.721.721,0,0,0,.655.424h.016c.551,0,.868-.111.942-.334.034-.111-.014-.145-.054-.16a.97.97,0,0,0-.343-.039h-.254c-.111,0-.23-.1-.348-.3-.056-.091-.136-.241-.269-.506a3.549,3.549,0,0,1-.334-.694c-.174-.445-.352-.676-.517-.676a1.94,1.94,0,0,0-.818.368c-.129.08-.481.32-1.084.744-.735.512-1.015.709-1.031.721a1.217,1.217,0,0,1-.536.193c-.276,0-.417-.334-.435-1.022a4.952,4.952,0,0,1,.09-1.263,1.212,1.212,0,0,0,.06-.582.127.127,0,0,0-.119-.075" fill="#1d1d1b"/>
    <path id="Tracé_628" data-name="Tracé 628" d="M77.44,45.658a5.022,5.022,0,0,1-.933,1.661,1.72,1.72,0,0,1-1.2.769c-.185,0-.364-.192-.539-.578a4.989,4.989,0,0,1-.366-1.448,9.308,9.308,0,0,1-.062-1.042,3.685,3.685,0,0,1,.17-1.083,2.092,2.092,0,0,1,.23-.516.387.387,0,0,1,.326-.16c.14,0,.223.042.26.125a.837.837,0,0,1-.066.481,3.227,3.227,0,0,0-.155.76,4.653,4.653,0,0,0-.021.891,5.74,5.74,0,0,0,.234,1.232c.111.369.236.556.357.556s.321-.216.6-.658a5.719,5.719,0,0,0,.614-1.266,2.6,2.6,0,0,0,.121-.71,7.249,7.249,0,0,1,.072-1.082.674.674,0,0,1,.179-.321.427.427,0,0,1,.4-.085c.148.034.174.4.081,1.083a8.193,8.193,0,0,1-.3,1.385" fill="#1d1d1b"/>
    <path id="Tracé_629" data-name="Tracé 629" d="M75.308,48.117c-.2,0-.387-.195-.569-.593a5.018,5.018,0,0,1-.367-1.461,8.958,8.958,0,0,1-.062-1.048,3.707,3.707,0,0,1,.171-1.092,2.047,2.047,0,0,1,.233-.521.414.414,0,0,1,.334-.174h.015c.151,0,.246.048.283.142a.846.846,0,0,1-.066.5,3.253,3.253,0,0,0-.152.75,4.574,4.574,0,0,0-.022.891,5.812,5.812,0,0,0,.233,1.225c.145.469.27.538.335.538s.236-.112.574-.646a5.7,5.7,0,0,0,.613-1.261,2.569,2.569,0,0,0,.119-.7,7.731,7.731,0,0,1,.07-1.085.712.712,0,0,1,.187-.334.447.447,0,0,1,.426-.091c.165.038.2.392.1,1.114a8.258,8.258,0,0,1-.295,1.4,5.023,5.023,0,0,1-.939,1.67,1.744,1.744,0,0,1-1.219.78m-.258-4.835a.36.36,0,0,0-.291.148,2,2,0,0,0-.222.508,3.637,3.637,0,0,0-.169,1.076,8.634,8.634,0,0,0,.062,1.042,4.922,4.922,0,0,0,.364,1.448c.168.371.341.557.514.557a1.694,1.694,0,0,0,1.183-.758,4.951,4.951,0,0,0,.93-1.653,8.183,8.183,0,0,0,.292-1.392c.111-.833.03-1.033-.059-1.053a.389.389,0,0,0-.374.08.669.669,0,0,0-.172.308,7.61,7.61,0,0,0-.071,1.077,2.607,2.607,0,0,1-.121.722,5.7,5.7,0,0,1-.619,1.273c-.289.457-.486.668-.62.668s-.264-.188-.384-.576a5.86,5.86,0,0,1-.236-1.238,4.7,4.7,0,0,1,.022-.9,3.324,3.324,0,0,1,.156-.764.81.81,0,0,0,.064-.468c-.026-.065-.1-.1-.231-.1Z" fill="#1d1d1b"/>
    <path id="Tracé_630" data-name="Tracé 630" d="M85.174,46.6l-2.005.578a9.393,9.393,0,0,1-.963.237,8.345,8.345,0,0,1-1.447.1,1.8,1.8,0,0,1-1.114-.3,2.164,2.164,0,0,1-.481-.642c-.161.091-.307.172-.446.246a3.494,3.494,0,0,1-.428.192.121.121,0,0,1-.192-.08.524.524,0,0,1,.019-.334c.031-.1.072-.16.124-.169.117-.045.236-.1.358-.152.366-.179.557-.276.578-.288a2.169,2.169,0,0,1,.044-.607,6.4,6.4,0,0,1,.193-.709,3.26,3.26,0,0,1,.985-1.481,2,2,0,0,1,1.237-.6.728.728,0,0,1,.669.354,1.367,1.367,0,0,1,.018,1.148,3.1,3.1,0,0,1-1.155,1.3c-.271.2-.689.487-1.26.861a1.269,1.269,0,0,0,.4.439,1.338,1.338,0,0,0,.757.2,11.239,11.239,0,0,0,1.2-.043,7.657,7.657,0,0,0,1.094-.288c.514-.165.866-.273,1.051-.334a6.808,6.808,0,0,1,.7-.185.385.385,0,0,1,.334.033.186.186,0,0,1,.054.216.5.5,0,0,1-.343.289m-3.441-2.562a.982.982,0,0,0,.008-.54c-.05-.136-.171-.2-.369-.2a1.128,1.128,0,0,0-.77.392,2.225,2.225,0,0,0-.556.891c-.065.2-.127.4-.183.578a1.133,1.133,0,0,0-.041.533,8.884,8.884,0,0,0,1.283-.867,1.918,1.918,0,0,0,.627-.78" fill="#1d1d1b"/>
    <path id="Tracé_631" data-name="Tracé 631" d="M80.647,47.551a1.816,1.816,0,0,1-1.017-.311,2.177,2.177,0,0,1-.481-.626c-.161.092-.308.171-.418.231a3.8,3.8,0,0,1-.432.194.179.179,0,0,1-.145.013.166.166,0,0,1-.08-.111.553.553,0,0,1,.02-.348c.037-.111.08-.173.143-.186.1-.038.208-.085.353-.15.24-.117.5-.241.557-.279a2.268,2.268,0,0,1,.044-.6,6.574,6.574,0,0,1,.194-.712,3.277,3.277,0,0,1,.993-1.492,2.039,2.039,0,0,1,1.254-.6h.045a.75.75,0,0,1,.647.369,1.4,1.4,0,0,1,.021,1.173,3.128,3.128,0,0,1-1.166,1.312c-.268.2-.675.481-1.239.846a1.245,1.245,0,0,0,.383.408,1.307,1.307,0,0,0,.694.2h.254c.334,0,.668-.015.993-.044a7.579,7.579,0,0,0,1.088-.288l.87-.274.183-.058c.236-.073.472-.135.706-.184a.42.42,0,0,1,.359.036.215.215,0,0,1,.064.251.535.535,0,0,1-.354.311l-2,.578c-.315.093-.641.173-.962.24a8.441,8.441,0,0,1-1.309.1h-.255m-1.472-1.014.013.027a2.2,2.2,0,0,0,.476.635,1.78,1.78,0,0,0,1.1.3H80.9a8.21,8.21,0,0,0,1.3-.1,9.845,9.845,0,0,0,.962-.236l2-.578a.481.481,0,0,0,.321-.278.162.162,0,0,0-.045-.184.359.359,0,0,0-.311-.03,7.072,7.072,0,0,0-.7.185l-.183.056c-.2.063-.491.153-.869.275a7.809,7.809,0,0,1-1.1.288,10.569,10.569,0,0,1-1.207.042h-.047a1.357,1.357,0,0,1-.722-.206,1.279,1.279,0,0,1-.414-.445l-.012-.022.021-.014c.574-.376.986-.657,1.26-.86a3.083,3.083,0,0,0,1.148-1.289,1.347,1.347,0,0,0-.02-1.123.689.689,0,0,0-.642-.334,1.975,1.975,0,0,0-1.225.589,3.228,3.228,0,0,0-.979,1.47,6.7,6.7,0,0,0-.192.706,2.205,2.205,0,0,0-.044.6v.015l-.011.008c-.018.013-.154.08-.582.291-.147.068-.256.111-.36.152-.041.01-.08.064-.111.153a.522.522,0,0,0-.019.315.112.112,0,0,0,.054.07.128.128,0,0,0,.1-.013A3.609,3.609,0,0,0,78.7,46.8l.446-.24Zm.625-.8-.007-.039a1.18,1.18,0,0,1,.041-.547l.019-.059c.05-.16.111-.334.165-.519a2.259,2.259,0,0,1,.557-.9,1.144,1.144,0,0,1,.787-.4.372.372,0,0,1,.4.223,1,1,0,0,1-.007.557,1.946,1.946,0,0,1-.642.8,8.868,8.868,0,0,1-1.283.869Zm1.57-2.41a1.094,1.094,0,0,0-.75.382,2.211,2.211,0,0,0-.551.882c-.059.181-.111.355-.165.519l-.018.059a1.12,1.12,0,0,0-.044.481,8.719,8.719,0,0,0,1.243-.845,1.878,1.878,0,0,0,.62-.772.94.94,0,0,0,.007-.523c-.046-.123-.16-.184-.343-.184" fill="#1d1d1b"/>
    <path id="Tracé_632" data-name="Tracé 632" d="M91.953,46.97q-.111.355-.968.354a.749.749,0,0,1-.695-.44c-.072-.145-.148-.288-.223-.439-.05-.08-.153-.3-.316-.659-.091-.2-.186-.3-.278-.3a1.881,1.881,0,0,0-.753.334c-.161.1-.368.241-.609.4-.328.241-.652.476-.971.711A2.211,2.211,0,0,1,86,47.385c-.454,0-.721-.4-.794-1.217a5.253,5.253,0,0,1,.241-2.109.693.693,0,0,1,.184-.263.544.544,0,0,1,.274-.161.161.161,0,0,1,.176.1,1.2,1.2,0,0,1-.062.591,4.787,4.787,0,0,0-.088,1.258c.017.668.15,1,.4,1a1.163,1.163,0,0,0,.522-.185q.02-.019,1.033-.722.891-.627,1.083-.743a1.947,1.947,0,0,1,.836-.373q.264,0,.544.693a3.448,3.448,0,0,0,.334.692c.12.24.208.405.271.505.111.193.222.289.32.289h.251a1.17,1.17,0,0,1,.358.041c.08.028.1.1.068.193" fill="#1d1d1b"/>
    <path id="Tracé_633" data-name="Tracé 633" d="M86,47.42c-.474,0-.751-.417-.824-1.24a5.226,5.226,0,0,1,.24-2.122.7.7,0,0,1,.192-.274.537.537,0,0,1,.285-.167h.033a.188.188,0,0,1,.174.111v.007a1.246,1.246,0,0,1-.061.6,4.771,4.771,0,0,0-.087,1.245c.017.641.143.971.374.971a1.125,1.125,0,0,0,.506-.182c.016-.013.431-.305,1.032-.721s.959-.669,1.085-.744a2,2,0,0,1,.847-.378c.194,0,.38.234.572.711a3.583,3.583,0,0,0,.329.687c.121.24.209.4.271.5.111.185.21.278.3.278h.251a1.1,1.1,0,0,1,.365.041.161.161,0,0,1,.1.2.111.111,0,0,1-.014.029c-.08.246-.414.37-.988.37h-.023a.772.772,0,0,1-.7-.455l-.063-.125c-.053-.1-.1-.207-.156-.314-.049-.08-.156-.3-.321-.659-.08-.189-.172-.289-.253-.289a1.833,1.833,0,0,0-.738.334c-.161.1-.366.237-.607.406-.295.211-.6.438-.972.709a2.235,2.235,0,0,1-1.156.461m-.07-3.752H85.9a.488.488,0,0,0-.259.154.65.65,0,0,0-.179.254,5.16,5.16,0,0,0-.241,2.1c.071.791.328,1.192.767,1.192a2.194,2.194,0,0,0,1.122-.446c.37-.274.679-.5.973-.712.245-.169.445-.306.609-.406a1.921,1.921,0,0,1,.763-.341c.111,0,.213.111.309.321.16.357.265.577.314.655.052.111.1.213.156.314l.064.127a.722.722,0,0,0,.655.424h.022c.549,0,.865-.111.937-.334.039-.111-.013-.142-.055-.16a1.133,1.133,0,0,0-.3-.042h-.3c-.111,0-.222-.1-.348-.3q-.092-.15-.271-.506a3.438,3.438,0,0,1-.334-.694c-.18-.446-.355-.676-.518-.676a1.955,1.955,0,0,0-.819.367c-.128.081-.472.313-1.084.744-.73.509-1.016.712-1.032.722a1.162,1.162,0,0,1-.536.193c-.274,0-.415-.334-.432-1.023a4.912,4.912,0,0,1,.088-1.263,1.2,1.2,0,0,0,.062-.578.137.137,0,0,0-.122-.08" fill="#1d1d1b"/>
    <path id="Tracé_634" data-name="Tracé 634" d="M97.335,43.4c-.052.16-.12.247-.207.271a1.213,1.213,0,0,1-.312.033,2.523,2.523,0,0,1-.481-.068c-.55-.111-.857-.169-.924-.169a4.63,4.63,0,0,0-.622.154,1.723,1.723,0,0,1-.433.08,16.256,16.256,0,0,0-.179,1.747,3.248,3.248,0,0,0,.059,1.191.729.729,0,0,0,.273.241c.145.09.207.179.18.268a.542.542,0,0,1-.241.321,1.149,1.149,0,0,1-.506.08q-.519,0-.432-1.94a13.57,13.57,0,0,1,.148-1.572,4.322,4.322,0,0,0-.866.489,1.069,1.069,0,0,1-.357.186c-.166,0-.222-.09-.164-.269a1.617,1.617,0,0,1,.614-.722l.849-.591q.129-.728.361-1.74t.557-1.992c.064-.2.13-.409.193-.616s.128-.42.192-.632a6.633,6.633,0,0,1,.315-.822c.1-.185.193-.278.294-.278.171,0,.2.241.091.71s-.3,1.137-.578,1.991a12.648,12.648,0,0,0-.335,1.3q-.189.879-.36,1.84a2.847,2.847,0,0,0,.543-.08,2.867,2.867,0,0,1,.545-.08,3.42,3.42,0,0,1,1.3.216c.361.144.518.3.465.454" fill="#1d1d1b"/>
    <path id="Tracé_635" data-name="Tracé 635" d="M94.011,47.582h-.069a.291.291,0,0,1-.21-.1c-.214-.223-.294-.837-.247-1.874a13.442,13.442,0,0,1,.139-1.524,4.292,4.292,0,0,0-.815.47,1.107,1.107,0,0,1-.364.188h-.008a.217.217,0,0,1-.184-.072.255.255,0,0,1-.007-.234,1.632,1.632,0,0,1,.627-.74l.38-.264.459-.322c.086-.48.206-1.061.36-1.731s.341-1.336.557-1.992c.069-.21.133-.418.192-.614.046-.153.094-.309.142-.465l.052-.169a6.432,6.432,0,0,1,.321-.823c.1-.2.207-.295.321-.295a.153.153,0,0,1,.125.059c.08.1.08.321-.008.686-.1.451-.291,1.1-.577,1.995a12.3,12.3,0,0,0-.329,1.3c-.121.557-.24,1.149-.355,1.806a2.851,2.851,0,0,0,.5-.081,2.85,2.85,0,0,1,.551-.08h.1a3.411,3.411,0,0,1,1.2.223c.386.152.545.311.488.488s-.128.263-.223.289a1.18,1.18,0,0,1-.289.036h-.028a2.433,2.433,0,0,1-.487-.069c-.385-.079-.84-.167-.917-.167a4.48,4.48,0,0,0-.614.153,1.807,1.807,0,0,1-.418.08,16.313,16.313,0,0,0-.175,1.724,3.168,3.168,0,0,0,.058,1.176.677.677,0,0,0,.258.223c.161.1.223.2.194.3a.556.556,0,0,1-.25.334,1.178,1.178,0,0,1-.454.09M93.7,44l-.007.049a13.5,13.5,0,0,0-.148,1.569,3.084,3.084,0,0,0,.232,1.834.225.225,0,0,0,.172.08,1.193,1.193,0,0,0,.5-.08.5.5,0,0,0,.223-.3c.023-.076-.034-.156-.168-.241a.73.73,0,0,1-.28-.246v-.008a3.226,3.226,0,0,1-.06-1.2,16.775,16.775,0,0,1,.179-1.748v-.022h.021a1.67,1.67,0,0,0,.426-.08,4.819,4.819,0,0,1,.627-.154c.071,0,.342.051.933.17a2.48,2.48,0,0,0,.477.067h.029a1.164,1.164,0,0,0,.276-.033c.08-.02.139-.1.187-.253s-.111-.284-.454-.421a3.391,3.391,0,0,0-1.187-.215h-.1a3.17,3.17,0,0,0-.54.08,2.821,2.821,0,0,1-.548.081h-.035l.006-.035c.12-.667.241-1.272.361-1.841a12.534,12.534,0,0,1,.334-1.3c.287-.891.475-1.54.578-1.99.08-.342.08-.557.018-.642a.1.1,0,0,0-.08-.035c-.089,0-.177.087-.27.262a6.535,6.535,0,0,0-.314.818l-.051.169c-.048.154-.1.31-.142.463-.059.2-.124.406-.192.618A19.467,19.467,0,0,0,94.14,41.4c-.152.667-.276,1.258-.36,1.739v.012l-.009.007c-.16.106-.317.215-.469.326l-.381.265a1.578,1.578,0,0,0-.6.713.21.21,0,0,0,0,.183.165.165,0,0,0,.135.048,1.051,1.051,0,0,0,.343-.179,4.455,4.455,0,0,1,.874-.494Z" fill="#1d1d1b"/>
    <path id="Tracé_636" data-name="Tracé 636" d="M102.9,45.586a2.256,2.256,0,0,1-1.043,1.252,3.25,3.25,0,0,1-1.7.472,2.738,2.738,0,0,1-2.011-.758,1.7,1.7,0,0,1-.4-1.877,2.01,2.01,0,0,1,.7-.911,1.621,1.621,0,0,1,.844-.44,2.43,2.43,0,0,1,.27-.017.727.727,0,0,1,.341.068c.08.045.1.13.059.254a.4.4,0,0,1-.283.28,1.634,1.634,0,0,1-.445.059.8.8,0,0,0-.493.216,1,1,0,0,0-.343.455,1.292,1.292,0,0,0,.289,1.2,1.972,1.972,0,0,0,1.7.758,2.365,2.365,0,0,0,1.2-.3,1.319,1.319,0,0,0,.653-.717c.06-.16-.023-.361-.251-.608a4.18,4.18,0,0,0-.78-.642,5.941,5.941,0,0,0-.557-.216c-.192-.08-.256-.2-.2-.356a.429.429,0,0,1,.168-.28.918.918,0,0,1,.385-.059,1.581,1.581,0,0,1,.548.223,3.837,3.837,0,0,1,.722.518,2.81,2.81,0,0,1,.578.624.964.964,0,0,1,.048.793" fill="#1d1d1b"/>
    <path id="Tracé_637" data-name="Tracé 637" d="M100.037,47.345a2.776,2.776,0,0,1-1.914-.77,1.722,1.722,0,0,1-.408-1.908,2.04,2.04,0,0,1,.71-.922,1.623,1.623,0,0,1,.857-.445,2.968,2.968,0,0,1,.308-.018.756.756,0,0,1,.321.071c.065.036.126.112.074.285a.429.429,0,0,1-.3.3,1.677,1.677,0,0,1-.446.06h-.01a.769.769,0,0,0-.472.208.98.98,0,0,0-.334.446,1.254,1.254,0,0,0,.285,1.17,1.945,1.945,0,0,0,1.539.755,1,1,0,0,0,.134,0h.041a2.359,2.359,0,0,0,1.149-.3,1.3,1.3,0,0,0,.641-.7c.056-.148-.027-.342-.245-.578a4.046,4.046,0,0,0-.78-.637,5.745,5.745,0,0,0-.556-.214c-.2-.087-.279-.223-.223-.391a.448.448,0,0,1,.179-.291h.006a1.012,1.012,0,0,1,.4-.061,1.573,1.573,0,0,1,.557.233,3.836,3.836,0,0,1,.721.519,2.779,2.779,0,0,1,.581.629.992.992,0,0,1,.061.828,2.286,2.286,0,0,1-1.059,1.266,3.279,3.279,0,0,1-1.7.475h-.131m-.446-4.01a2.52,2.52,0,0,0-.3.018,1.583,1.583,0,0,0-.827.432,1.976,1.976,0,0,0-.695.9,1.671,1.671,0,0,0,.4,1.846,2.732,2.732,0,0,0,1.877.753h.125a3.223,3.223,0,0,0,1.67-.468,2.23,2.23,0,0,0,1.035-1.237.933.933,0,0,0-.057-.779,2.709,2.709,0,0,0-.57-.615,3.827,3.827,0,0,0-.718-.515,1.519,1.519,0,0,0-.541-.222h-.051a.872.872,0,0,0-.315.059.4.4,0,0,0-.154.257c-.048.15.012.253.188.326s.378.136.557.223a4.21,4.21,0,0,1,.791.648c.241.258.321.466.256.635a1.341,1.341,0,0,1-.668.733,2.4,2.4,0,0,1-1.171.3h-.18a2,2,0,0,1-1.579-.779,1.311,1.311,0,0,1-.294-1.226,1.018,1.018,0,0,1,.354-.47.816.816,0,0,1,.5-.222h.01a1.585,1.585,0,0,0,.428-.059.373.373,0,0,0,.263-.261c.035-.111.02-.184-.045-.223a.707.707,0,0,0-.294-.064" fill="#1d1d1b"/>
    <path id="Tracé_638" data-name="Tracé 638" d="M111.2,46.972q-.111.355-.968.354a.751.751,0,0,1-.7-.44c-.073-.145-.145-.288-.216-.439a7.285,7.285,0,0,1-.321-.659c-.1-.2-.184-.3-.278-.3a1.857,1.857,0,0,0-.752.334c-.165.1-.368.241-.607.4l-.974.711a2.206,2.206,0,0,1-1.144.456c-.456,0-.721-.4-.794-1.217a5.253,5.253,0,0,1,.241-2.109.74.74,0,0,1,.182-.263.566.566,0,0,1,.276-.161.161.161,0,0,1,.172.1,1.189,1.189,0,0,1-.059.591,4.874,4.874,0,0,0-.089,1.258q.027,1,.4,1a1.159,1.159,0,0,0,.521-.185q.02-.02,1.035-.722.882-.627,1.083-.743a1.934,1.934,0,0,1,.834-.373c.177,0,.361.231.542.693a3.422,3.422,0,0,0,.334.692c.12.24.207.4.269.5.111.193.223.289.321.289h.254a1.154,1.154,0,0,1,.355.041c.08.028.1.1.072.193" fill="#1d1d1b"/>
    <path id="Tracé_639" data-name="Tracé 639" d="M105.246,47.422c-.474,0-.751-.418-.824-1.241a5.265,5.265,0,0,1,.24-2.122.78.78,0,0,1,.191-.274.573.573,0,0,1,.288-.167.185.185,0,0,1,.2.112,1.211,1.211,0,0,1-.059.611,4.908,4.908,0,0,0-.088,1.245c.019.642.145.972.378.972a1.17,1.17,0,0,0,.506-.182c.018-.019.729-.514,1.033-.722.612-.432.957-.668,1.085-.744a2,2,0,0,1,.844-.377c.2,0,.387.24.572.71a3.39,3.39,0,0,0,.334.688c.111.23.205.4.267.505.111.181.211.276.3.276h.253a1.115,1.115,0,0,1,.363.042.159.159,0,0,1,.1.2.111.111,0,0,1-.012.027c-.08.247-.413.372-.988.372h-.021a.779.779,0,0,1-.708-.455c-.07-.138-.143-.287-.213-.439a6.714,6.714,0,0,1-.321-.661c-.094-.193-.175-.286-.253-.286a1.887,1.887,0,0,0-.736.334c-.156.1-.356.231-.607.406q-.287.205-.566.414l-.407.3a2.217,2.217,0,0,1-1.157.46m-.07-3.752h-.021a.514.514,0,0,0-.26.154.672.672,0,0,0-.179.254,5.2,5.2,0,0,0-.241,2.1c.071.791.335,1.192.768,1.192a2.182,2.182,0,0,0,1.127-.446l.407-.3c.188-.139.375-.276.568-.415.254-.177.451-.309.609-.406a1.927,1.927,0,0,1,.761-.341c.111,0,.2.1.307.321a7.266,7.266,0,0,0,.321.658c.071.152.145.3.215.44a.719.719,0,0,0,.658.424h.021c.549,0,.864-.111.936-.334.036-.111-.01-.142-.054-.16a1.167,1.167,0,0,0-.343-.039h-.254c-.111,0-.23-.1-.349-.3-.063-.1-.154-.276-.269-.506a3.438,3.438,0,0,1-.334-.694c-.173-.445-.351-.676-.516-.676a1.936,1.936,0,0,0-.817.368c-.129.08-.481.321-1.084.744-.736.512-1.017.709-1.034.722a1.2,1.2,0,0,1-.535.192c-.274,0-.416-.334-.435-1.022a4.91,4.91,0,0,1,.089-1.263,1.188,1.188,0,0,0,.059-.582.128.128,0,0,0-.119-.074" fill="#1d1d1b"/>
    <path id="Tracé_640" data-name="Tracé 640" d="M116.984,46.929a1.661,1.661,0,0,1-.988.947,4.02,4.02,0,0,1-1.645.353,3.6,3.6,0,0,1-1.926-.456.982.982,0,0,1-.466-1.256A1.926,1.926,0,0,1,112.2,46a.476.476,0,0,1,.361-.223c.16,0,.207.1.139.3-.06.161-.1.271-.125.335-.1.294.081.545.521.759a3.072,3.072,0,0,0,1.347.321,4.2,4.2,0,0,0,1.06-.118c.411-.112.649-.276.721-.491q.132-.405-.629-1.029-.434-.335-.851-.693A3.463,3.463,0,0,1,113.907,44a2.3,2.3,0,0,1-.088-1.657,1.1,1.1,0,0,1,.556-.614,2.257,2.257,0,0,1,1.114-.245.951.951,0,0,1,.578.211.438.438,0,0,1,.185.53,1.4,1.4,0,0,1-.168.406.448.448,0,0,1-.223.033c-.1,0-.185-.072-.25-.223a.385.385,0,0,0-.391-.222.969.969,0,0,0-.65.236,1.7,1.7,0,0,0-.2.24,1.58,1.58,0,0,0,.235.883,3.612,3.612,0,0,0,.779,1.071q1.074,1,1.2,1.132a1.2,1.2,0,0,1,.4,1.131" fill="#1d1d1b"/>
    <path id="Tracé_641" data-name="Tracé 641" d="M114.181,48.261a3.605,3.605,0,0,1-1.771-.464,1.015,1.015,0,0,1-.481-1.283,1.87,1.87,0,0,1,.248-.52.5.5,0,0,1,.38-.24.19.19,0,0,1,.168.065.3.3,0,0,1,0,.273l-.037.1c-.042.112-.07.188-.086.241-.093.279.073.518.505.727a3.06,3.06,0,0,0,1.337.321h.068a4.3,4.3,0,0,0,.986-.111c.4-.112.632-.269.7-.474.086-.258-.123-.6-.62-1-.305-.241-.584-.466-.852-.693a3.473,3.473,0,0,1-.844-1.174,2.337,2.337,0,0,1-.088-1.676,1.128,1.128,0,0,1,.577-.631,2.313,2.313,0,0,1,1.042-.248h.088a.986.986,0,0,1,.594.223.462.462,0,0,1,.192.557,1.413,1.413,0,0,1-.17.412v.006h-.008a.517.517,0,0,1-.24.035c-.112,0-.2-.08-.271-.235a.358.358,0,0,0-.321-.2h-.049a.947.947,0,0,0-.625.231,1.842,1.842,0,0,0-.192.222,1.547,1.547,0,0,0,.231.864,3.578,3.578,0,0,0,.771,1.066c.722.668,1.114,1.042,1.2,1.132a1.234,1.234,0,0,1,.407,1.155v.006a1.7,1.7,0,0,1-1,.962,4.008,4.008,0,0,1-1.656.354h-.168m-1.616-2.45a.446.446,0,0,0-.335.215,1.917,1.917,0,0,0-.241.509.962.962,0,0,0,.452,1.225,3.561,3.561,0,0,0,1.746.457h.166A3.956,3.956,0,0,0,116,47.862a1.633,1.633,0,0,0,.973-.928,1.181,1.181,0,0,0-.392-1.1c-.08-.09-.474-.46-1.2-1.132a3.575,3.575,0,0,1-.779-1.08,1.587,1.587,0,0,1-.241-.9V42.7a1.752,1.752,0,0,1,.205-.241,1,1,0,0,1,.658-.245h.056a.413.413,0,0,1,.37.236c.061.137.134.2.223.2a.446.446,0,0,0,.208-.027,1.357,1.357,0,0,0,.161-.392.41.41,0,0,0-.173-.5.941.941,0,0,0-.557-.208h-.087a2.255,2.255,0,0,0-1.015.24,1.08,1.08,0,0,0-.551.6,2.293,2.293,0,0,0,.087,1.636,3.412,3.412,0,0,0,.83,1.155c.267.223.545.454.849.693.515.42.729.779.641,1.059-.08.223-.32.392-.741.509a4.188,4.188,0,0,1-1,.119h-.068a3.1,3.1,0,0,1-1.363-.321c-.455-.222-.635-.485-.535-.793.018-.053.046-.131.088-.24l.037-.1c.035-.112.038-.183.008-.223a.142.142,0,0,0-.122-.043" fill="#1d1d1b"/>
    <path id="Tracé_642" data-name="Tracé 642" d="M129.777,47.517a.3.3,0,0,1-.317.2.578.578,0,0,1-.487-.289,2.137,2.137,0,0,1-.289-.759,7.1,7.1,0,0,1-.1-1.448c.008-.34.014-.557.018-.662a9.289,9.289,0,0,1-1.427,1.806,3.505,3.505,0,0,1-2.374,1.148,1.179,1.179,0,0,1-1.123-.481,1.493,1.493,0,0,1-.033-1.209,3.821,3.821,0,0,1,1.069-1.6,2.29,2.29,0,0,1,1.509-.727,1.458,1.458,0,0,1,1.043.371.7.7,0,0,1,.28.71q-.1.3-.267.3c-.209-.16-.42-.3-.628-.44a1.084,1.084,0,0,0-.589-.2,1.616,1.616,0,0,0-1.134.608,2.678,2.678,0,0,0-.641.979.667.667,0,0,0,.124.635.793.793,0,0,0,.686.313,2.877,2.877,0,0,0,1.931-1.032,15.244,15.244,0,0,0,1.722-2.281,12.2,12.2,0,0,0,.433-1.771q.16-.93.311-1.876a1.891,1.891,0,0,1,.216-.5.347.347,0,0,1,.3-.145q.321,0,.046,1.4c-.1.472-.193.937-.275,1.4-.014.09-.073.4-.184.929a12.3,12.3,0,0,0-.223,1.348c-.035.364-.056.78-.061,1.256a4.451,4.451,0,0,0,.1,1.174,3.241,3.241,0,0,0,.261.52.433.433,0,0,1,.1.321" fill="#1d1d1b"/>
    <path id="Tracé_643" data-name="Tracé 643" d="M129.5,47.749h-.042a.593.593,0,0,1-.5-.3,2.169,2.169,0,0,1-.294-.769,7.122,7.122,0,0,1-.1-1.458c0-.245.01-.432.015-.557a9.317,9.317,0,0,1-1.377,1.72,3.506,3.506,0,0,1-2.391,1.157,1.2,1.2,0,0,1-1.146-.492,1.513,1.513,0,0,1-.035-1.236,3.839,3.839,0,0,1,1.077-1.612,2.292,2.292,0,0,1,1.524-.733,1.456,1.456,0,0,1,1.066.377.732.732,0,0,1,.287.74c-.068.214-.166.321-.292.321h-.01l-.008-.006c-.186-.14-.391-.283-.626-.438a1.067,1.067,0,0,0-.576-.2,1.6,1.6,0,0,0-1.114.6,2.714,2.714,0,0,0-.637.973.647.647,0,0,0,.119.607.775.775,0,0,0,.613.3h.051a2.815,2.815,0,0,0,1.91-1.023,15.178,15.178,0,0,0,1.721-2.276,11.99,11.99,0,0,0,.429-1.761c.1-.573.2-1.186.311-1.877a2.039,2.039,0,0,1,.223-.508.373.373,0,0,1,.3-.16h.019a.149.149,0,0,1,.117.057c.121.148.111.6-.045,1.377l-.01.045c-.1.465-.186.906-.265,1.355-.013.1-.08.446-.185.93a12.508,12.508,0,0,0-.223,1.346c-.034.357-.055.766-.061,1.253a4.406,4.406,0,0,0,.1,1.168,3.278,3.278,0,0,0,.257.513.507.507,0,0,1,.1.34.321.321,0,0,1-.306.223m-.857-3.3-.006.111c0,.105-.011.335-.02.661a7.021,7.021,0,0,0,.1,1.448,2.119,2.119,0,0,0,.285.749.548.548,0,0,0,.465.277h.034a.267.267,0,0,0,.255-.186.443.443,0,0,0-.1-.3,3.2,3.2,0,0,1-.262-.524,4.459,4.459,0,0,1-.1-1.186c.007-.489.027-.9.062-1.258a12.6,12.6,0,0,1,.222-1.351c.1-.481.171-.828.184-.927.08-.445.171-.891.266-1.357l.009-.045c.147-.751.166-1.2.057-1.337a.1.1,0,0,0-.08-.036H130a.317.317,0,0,0-.261.133,1.948,1.948,0,0,0-.212.489c-.112.688-.214,1.3-.311,1.875a12.05,12.05,0,0,1-.435,1.774,15.344,15.344,0,0,1-1.727,2.291,2.881,2.881,0,0,1-1.948,1.043h-.056a.826.826,0,0,1-.655-.325.7.7,0,0,1-.129-.661,2.757,2.757,0,0,1,.649-.991,1.648,1.648,0,0,1,1.151-.615,1.119,1.119,0,0,1,.609.207c.232.152.435.294.621.434.095-.005.173-.1.23-.284a.677.677,0,0,0-.27-.682,1.412,1.412,0,0,0-.952-.364h-.075a2.249,2.249,0,0,0-1.49.721,3.8,3.8,0,0,0-1.062,1.593,1.452,1.452,0,0,0,.03,1.188,1.154,1.154,0,0,0,1.094.466,3.454,3.454,0,0,0,2.357-1.141,9.235,9.235,0,0,0,1.425-1.8Z" fill="#1d1d1b"/>
    <path id="Tracé_644" data-name="Tracé 644" d="M137.556,46.6l-2.005.578a9.657,9.657,0,0,1-.963.236,8.345,8.345,0,0,1-1.447.1,1.789,1.789,0,0,1-1.114-.3,2.181,2.181,0,0,1-.477-.642c-.16.09-.307.171-.445.241a3.412,3.412,0,0,1-.428.192c-.1.045-.161.019-.193-.075a.537.537,0,0,1,.018-.334c.033-.1.072-.161.125-.17.117-.044.236-.1.361-.15.365-.181.556-.276.578-.289a2.145,2.145,0,0,1,.045-.608,6.443,6.443,0,0,1,.193-.708,3.273,3.273,0,0,1,.979-1.478,2,2,0,0,1,1.237-.6.738.738,0,0,1,.669.354A1.382,1.382,0,0,1,134.7,44.1a3.1,3.1,0,0,1-1.155,1.3c-.27.2-.689.487-1.257.861a1.26,1.26,0,0,0,.4.439,1.351,1.351,0,0,0,.758.2,11.23,11.23,0,0,0,1.2-.043,7.6,7.6,0,0,0,1.092-.288c.514-.161.866-.273,1.051-.334a6.809,6.809,0,0,1,.7-.185.385.385,0,0,1,.334.033.186.186,0,0,1,.054.216.5.5,0,0,1-.344.289M134.1,44.029a.954.954,0,0,0,.01-.54c-.05-.136-.171-.2-.369-.2a1.126,1.126,0,0,0-.769.391,2.228,2.228,0,0,0-.557.891c-.066.2-.128.4-.183.578a1.156,1.156,0,0,0-.041.532,8.744,8.744,0,0,0,1.283-.866,1.918,1.918,0,0,0,.627-.78" fill="#1d1d1b"/>
    <path id="Tracé_645" data-name="Tracé 645" d="M133.032,47.552a1.814,1.814,0,0,1-1.017-.311,2.176,2.176,0,0,1-.475-.627c-.15.085-.289.161-.417.231a3.8,3.8,0,0,1-.432.194.178.178,0,0,1-.146.013.158.158,0,0,1-.08-.111.575.575,0,0,1,.018-.348c.041-.111.081-.174.143-.186.12-.047.248-.1.356-.15l.027-.012c.285-.141.481-.241.534-.267a2.149,2.149,0,0,1,.049-.6,6.029,6.029,0,0,1,.191-.712,3.3,3.3,0,0,1,.988-1.49,2.03,2.03,0,0,1,1.252-.6h.04a.76.76,0,0,1,.654.368,1.411,1.411,0,0,1,.019,1.172,3.134,3.134,0,0,1-1.166,1.312c-.256.192-.663.469-1.236.845a1.223,1.223,0,0,0,.379.408,1.317,1.317,0,0,0,.7.2h.241c.334,0,.678-.014,1.012-.043a7.654,7.654,0,0,0,1.086-.289l.869-.274.183-.056a7.209,7.209,0,0,1,.706-.185.416.416,0,0,1,.357.038.213.213,0,0,1,.065.25.535.535,0,0,1-.356.308l-2.005.578c-.314.094-.642.173-.963.24a8.286,8.286,0,0,1-1.307.1h-.256m-1.467-1.014.012.027a2.144,2.144,0,0,0,.471.635,1.8,1.8,0,0,0,1.1.3h.142a8.229,8.229,0,0,0,1.3-.1,9.178,9.178,0,0,0,.962-.236l2-.578a.476.476,0,0,0,.32-.276.159.159,0,0,0-.044-.185.363.363,0,0,0-.313-.03,7.072,7.072,0,0,0-.7.185l-.184.058c-.2.061-.49.153-.867.274a8.165,8.165,0,0,1-1.1.29c-.4.034-.812.046-1.209.042h-.049a1.367,1.367,0,0,1-.722-.207,1.314,1.314,0,0,1-.412-.446l-.013-.022.021-.014c.585-.383,1-.668,1.257-.858a3.088,3.088,0,0,0,1.148-1.291,1.351,1.351,0,0,0-.017-1.123.708.708,0,0,0-.6-.34h-.035a1.972,1.972,0,0,0-1.22.59,3.213,3.213,0,0,0-.972,1.467,5.749,5.749,0,0,0-.191.706,2.121,2.121,0,0,0-.047.6v.013l-.011.01c-.019.016-.149.081-.557.279l-.028.013c-.111.05-.24.112-.363.153-.041.01-.074.06-.111.154a.511.511,0,0,0-.018.314.112.112,0,0,0,.052.07.137.137,0,0,0,.1-.014,3.446,3.446,0,0,0,.425-.191l.446-.241Zm.621-.8-.005-.04a1.208,1.208,0,0,1,.042-.544l.019-.06c.05-.16.111-.334.16-.519a2.259,2.259,0,0,1,.557-.9,1.156,1.156,0,0,1,.788-.4.372.372,0,0,1,.4.223.97.97,0,0,1-.01.557,1.938,1.938,0,0,1-.636.8,8.842,8.842,0,0,1-1.283.869Zm1.573-2.41a1.1,1.1,0,0,0-.75.382,2.211,2.211,0,0,0-.551.882c-.059.181-.111.355-.165.519l-.018.059a1.153,1.153,0,0,0-.046.481,8.737,8.737,0,0,0,1.245-.845,1.888,1.888,0,0,0,.618-.772.927.927,0,0,0,0-.527c-.047-.122-.16-.183-.343-.183" fill="#1d1d1b"/>
    <path id="Tracé_646" data-name="Tracé 646" d="M148.946,46.779a1.146,1.146,0,0,1-.057.216.306.306,0,0,1-.348.254c-.073-.011-.133-.111-.186-.288s-.1-.366-.154-.557a1.238,1.238,0,0,0-.256-.415.471.471,0,0,0-.34-.16,1.057,1.057,0,0,0-.546.216l-.674.523c-.327.257-.557.434-.688.523a1.386,1.386,0,0,1-.713.254q-.349,0-.628-.867-.072-.216-.288-.962a3.883,3.883,0,0,0-.34-.844.608.608,0,0,0-.506-.371,1.745,1.745,0,0,0-.921.42,11.069,11.069,0,0,0-1.042.93q-.9.912-1.162,1.114a1.913,1.913,0,0,1-1.155.505q-.584,0-.634-1.266a6.22,6.22,0,0,1,.3-2.179l.1-.288a2.079,2.079,0,0,1,.223-.506.379.379,0,0,1,.334-.185c.12,0,.176.112.166.334a3.057,3.057,0,0,1-.154.751,5.311,5.311,0,0,0-.273,1.6c0,.53.1.794.3.794a1.413,1.413,0,0,0,.882-.44q.1-.084.909-.944a5.985,5.985,0,0,1,1.128-.973,2.6,2.6,0,0,1,1.4-.44.883.883,0,0,1,.722.44,4.239,4.239,0,0,1,.433.979c.1.335.212.669.321.979s.223.473.349.473a1.074,1.074,0,0,0,.5-.241q.46-.334.7-.5a6.2,6.2,0,0,1,.6-.386,1.307,1.307,0,0,1,.62-.186,1.014,1.014,0,0,1,.855.642,1.494,1.494,0,0,1,.222,1.048" fill="#1d1d1b"/>
    <path id="Tracé_647" data-name="Tracé 647" d="M144.986,47.376c-.251,0-.466-.29-.656-.882-.045-.137-.134-.434-.289-.962a3.765,3.765,0,0,0-.334-.84.576.576,0,0,0-.481-.357,1.712,1.712,0,0,0-.9.415,10.8,10.8,0,0,0-1.042.929c-.6.6-.989.979-1.164,1.113a1.936,1.936,0,0,1-1.171.512c-.406,0-.629-.435-.668-1.292a6.244,6.244,0,0,1,.305-2.188l.1-.288a2.142,2.142,0,0,1,.23-.512.4.4,0,0,1,.349-.2.166.166,0,0,1,.13.05.409.409,0,0,1,.07.309,3.02,3.02,0,0,1-.153.758,5.252,5.252,0,0,0-.272,1.6c0,.515.09.767.273.767a1.38,1.38,0,0,0,.864-.431c.065-.056.362-.365.909-.945a6.079,6.079,0,0,1,1.134-.977,2.609,2.609,0,0,1,1.413-.445.9.9,0,0,1,.747.452,4.234,4.234,0,0,1,.435.986c.1.334.211.661.321.978s.215.454.321.454a1.052,1.052,0,0,0,.481-.231c.326-.24.543-.4.7-.505a6.978,6.978,0,0,1,.6-.388,1.368,1.368,0,0,1,.632-.188,1.044,1.044,0,0,1,.883.658,1.516,1.516,0,0,1,.222,1.064,1.163,1.163,0,0,1-.059.223.333.333,0,0,1-.379.27c-.081-.012-.149-.111-.208-.308-.051-.171-.1-.343-.146-.525l-.007-.03a1.228,1.228,0,0,0-.249-.4.448.448,0,0,0-.32-.151,1.048,1.048,0,0,0-.53.211l-.668.524c-.361.283-.567.44-.689.523a1.426,1.426,0,0,1-.728.26m-1.765-3.1a.634.634,0,0,1,.535.388,3.844,3.844,0,0,1,.342.847c.153.528.24.824.288.963.179.556.383.847.6.847a1.362,1.362,0,0,0,.7-.249c.121-.081.327-.241.687-.522l.668-.523a1.094,1.094,0,0,1,.557-.223.5.5,0,0,1,.363.169,1.274,1.274,0,0,1,.261.424l.009.033c.048.182.094.352.146.524.063.211.123.262.16.268a.162.162,0,0,0,.044,0,.281.281,0,0,0,.274-.234,1.223,1.223,0,0,0,.056-.216,1.46,1.46,0,0,0-.216-1.028.988.988,0,0,0-.833-.629,1.316,1.316,0,0,0-.6.181,6.5,6.5,0,0,0-.6.385c-.154.111-.371.267-.7.5a1.1,1.1,0,0,1-.507.241c-.139,0-.263-.161-.378-.491s-.223-.647-.321-.98a4.232,4.232,0,0,0-.431-.973.849.849,0,0,0-.7-.426,2.57,2.57,0,0,0-1.384.435,6,6,0,0,0-1.123.968c-.557.589-.846.891-.912.948a1.444,1.444,0,0,1-.9.445c-.223,0-.334-.268-.334-.821a5.368,5.368,0,0,1,.274-1.613,2.992,2.992,0,0,0,.153-.744.376.376,0,0,0-.055-.267.112.112,0,0,0-.09-.033.35.35,0,0,0-.3.172,2.169,2.169,0,0,0-.223.5l-.1.29a6.193,6.193,0,0,0-.3,2.166c.034.823.241,1.241.607,1.241a1.882,1.882,0,0,0,1.137-.5c.176-.137.557-.511,1.161-1.114a11.38,11.38,0,0,1,1.043-.931,1.761,1.761,0,0,1,.933-.426" fill="#1d1d1b"/>
    <path id="Tracé_648" data-name="Tracé 648" d="M154.732,47.7a.357.357,0,0,1-.231.223,1.478,1.478,0,0,1-.481.068q-.36,0-.5-.61c-.041-.216-.08-.427-.125-.641a2.9,2.9,0,0,1-.1-.355c-.073-.213-.165-.321-.289-.321a1.03,1.03,0,0,0-.4.2c-.2.134-.392.265-.578.385-.169.1-.288.173-.361.216a1.591,1.591,0,0,1-.748.236,1.042,1.042,0,0,1-1.066-.59,1.079,1.079,0,0,1-.054-.78,3.124,3.124,0,0,1,1.356-1.671,2.9,2.9,0,0,1,1.495-.556.786.786,0,0,1,.6.251.488.488,0,0,1,.161.49c-.054.161-.1.248-.145.271a.583.583,0,0,1-.234.033c-.074,0-.15-.054-.223-.168a.4.4,0,0,0-.351-.169,2.029,2.029,0,0,0-1.155.433,1.959,1.959,0,0,0-.779.974.765.765,0,0,0-.017.523.548.548,0,0,0,.567.321,1.077,1.077,0,0,0,.481-.15,4.033,4.033,0,0,0,.481-.289c.277-.193.475-.321.589-.385a1.039,1.039,0,0,1,.515-.2.83.83,0,0,1,.433.111.962.962,0,0,1,.321.482,3.108,3.108,0,0,1,.168.891c.034.327.1.489.193.489.374,0,.529.1.465.288" fill="#1d1d1b"/>
    <path id="Tracé_649" data-name="Tracé 649" d="M154.064,48.018h-.048c-.254,0-.431-.212-.526-.63l-.037-.187c-.029-.156-.058-.3-.09-.454a3.117,3.117,0,0,1-.1-.356c-.069-.2-.153-.3-.261-.3a1.026,1.026,0,0,0-.386.2l-.223.148c-.122.08-.24.16-.358.241s-.223.129-.292.172l-.07.044a1.63,1.63,0,0,1-.761.24,1.086,1.086,0,0,1-.128.007,1.061,1.061,0,0,1-.962-.614,1.106,1.106,0,0,1-.055-.8,3.139,3.139,0,0,1,1.368-1.685,2.9,2.9,0,0,1,1.507-.557h.024a.821.821,0,0,1,.6.259.517.517,0,0,1,.167.517c-.061.183-.1.263-.161.288a.6.6,0,0,1-.209.036h-.037a.326.326,0,0,1-.246-.18.369.369,0,0,0-.3-.161h-.028a1.99,1.99,0,0,0-1.139.428,1.946,1.946,0,0,0-.77.962.74.74,0,0,0-.015.506.512.512,0,0,0,.471.305.364.364,0,0,0,.066,0,1.08,1.08,0,0,0,.471-.148,3.963,3.963,0,0,0,.481-.287c.274-.191.473-.321.591-.387a1.083,1.083,0,0,1,.525-.207h.022a.845.845,0,0,1,.428.112.971.971,0,0,1,.334.5,3.122,3.122,0,0,1,.169.9c.039.383.112.463.165.463.256,0,.413.044.481.134a.2.2,0,0,1,.019.19.38.38,0,0,1-.25.236,1.439,1.439,0,0,1-.446.07M153,46.045c.14,0,.241.111.321.334a2.736,2.736,0,0,0,.1.355c.033.154.061.3.091.458l.036.185c.09.389.248.587.474.587a1.481,1.481,0,0,0,.472-.067.32.32,0,0,0,.214-.2.152.152,0,0,0-.01-.142c-.053-.072-.2-.111-.434-.111-.112,0-.184-.161-.223-.515a3.042,3.042,0,0,0-.168-.891.933.933,0,0,0-.315-.469.823.823,0,0,0-.4-.1h-.019a1.032,1.032,0,0,0-.5.2c-.118.068-.321.2-.589.386a4.108,4.108,0,0,1-.486.291,1.114,1.114,0,0,1-.492.154H151a.574.574,0,0,1-.522-.34.8.8,0,0,1,.017-.546,2,2,0,0,1,.789-.986,2.04,2.04,0,0,1,1.169-.437h.028a.423.423,0,0,1,.346.181c.068.1.138.161.2.161a.563.563,0,0,0,.223-.033c.045-.021.092-.146.128-.251a.467.467,0,0,0-.153-.463.772.772,0,0,0-.557-.245h-.021a2.891,2.891,0,0,0-1.481.55,3.106,3.106,0,0,0-1.346,1.66,1.051,1.051,0,0,0,.052.756,1.01,1.01,0,0,0,.916.582,1,1,0,0,0,.122-.007,1.571,1.571,0,0,0,.737-.233l.07-.041c.07-.045.168-.1.291-.174l.357-.24.223-.147a1.031,1.031,0,0,1,.411-.207Z" fill="#1d1d1b"/>
    <path id="Tracé_650" data-name="Tracé 650" d="M156.743,46.742a.816.816,0,0,1-.186.352.386.386,0,0,1-.266.08c-.2,0-.31-.256-.32-.78a4.339,4.339,0,0,1,.192-1.418c.04-.128.093-.28.155-.457a.457.457,0,0,1,.268-.321c.1-.023.16.02.192.128a1.7,1.7,0,0,1-.05.6,3.78,3.78,0,0,0-.026,1.088,4.253,4.253,0,0,1,.039.722m.867-5.843c-.01.033-.052.057-.125.068a1.285,1.285,0,0,1-.139.016c-.148.023-.288-.073-.417-.289a.556.556,0,0,1-.072-.578.516.516,0,0,1,.134-.176.384.384,0,0,1,.177-.1c.138-.022.274.153.4.525a.841.841,0,0,1,.039.522" fill="#1d1d1b"/>
    <path id="Tracé_651" data-name="Tracé 651" d="M156.318,47.205h-.027c-.222,0-.334-.27-.345-.8a4.367,4.367,0,0,1,.194-1.427c.019-.059.041-.121.065-.191s.057-.17.089-.265a.48.48,0,0,1,.283-.335.178.178,0,0,1,.222.117.134.134,0,0,1,.007.027,1.667,1.667,0,0,1-.048.613,3.745,3.745,0,0,0-.027,1.078,4.354,4.354,0,0,1,.039.722v.005a.839.839,0,0,1-.192.363.412.412,0,0,1-.26.1m.321-2.977a.141.141,0,0,0-.041,0,.426.426,0,0,0-.248.3c-.032.1-.062.189-.09.269l-.064.19A4.312,4.312,0,0,0,156,46.4c.008.5.111.75.293.75h.024a.346.346,0,0,0,.223-.08.794.794,0,0,0,.177-.334,4.246,4.246,0,0,0-.039-.713,3.8,3.8,0,0,1,.027-1.1,1.638,1.638,0,0,0,.048-.591c-.021-.072-.059-.111-.118-.111M157.307,41c-.141,0-.274-.1-.393-.305a.59.59,0,0,1-.075-.6.577.577,0,0,1,.142-.187.424.424,0,0,1,.189-.1h.03c.145,0,.278.179.406.545a.88.88,0,0,1,.044.541V40.9l0,.006c-.018.043-.067.07-.148.08a1.33,1.33,0,0,1-.14.015h-.048m-.111-1.144h-.018a.356.356,0,0,0-.16.088.508.508,0,0,0-.127.168.535.535,0,0,0,.068.549c.111.189.223.281.351.281h.039a.823.823,0,0,0,.139-.016c.06-.009.1-.025.1-.049l.005-.01a.819.819,0,0,0-.044-.5c-.117-.333-.241-.509-.355-.509" fill="#1d1d1b"/>
    <path id="Tracé_652" data-name="Tracé 652" d="M165.118,46.972q-.111.354-.962.354a.745.745,0,0,1-.7-.44c-.073-.145-.145-.288-.217-.439-.047-.08-.153-.3-.316-.659-.1-.2-.186-.3-.277-.3a1.909,1.909,0,0,0-.755.334c-.161.1-.366.241-.606.4-.334.241-.653.476-.971.711a2.21,2.21,0,0,1-1.144.456c-.455,0-.722-.4-.794-1.217a5.235,5.235,0,0,1,.24-2.109.746.746,0,0,1,.184-.263.544.544,0,0,1,.275-.161.161.161,0,0,1,.174.1,1.225,1.225,0,0,1-.06.591,4.874,4.874,0,0,0-.087,1.258c.015.668.148,1,.4,1a1.167,1.167,0,0,0,.523-.185q.02-.02,1.034-.722.882-.627,1.082-.743a1.942,1.942,0,0,1,.836-.373c.176,0,.355.231.543.693a3.56,3.56,0,0,0,.334.692c.121.24.209.4.271.5.111.193.223.289.321.289h.253a1.157,1.157,0,0,1,.356.041c.08.028.1.1.069.193" fill="#1d1d1b"/>
    <path id="Tracé_653" data-name="Tracé 653" d="M159.177,47.42c-.474,0-.75-.418-.824-1.241a5.248,5.248,0,0,1,.241-2.122.8.8,0,0,1,.19-.274.563.563,0,0,1,.289-.168h.033a.184.184,0,0,1,.172.112,1.271,1.271,0,0,1-.061.611,4.906,4.906,0,0,0-.084,1.245c.015.642.141.972.374.972a1.149,1.149,0,0,0,.508-.182c.01-.011.36-.256,1.033-.722.61-.432.956-.668,1.085-.744a1.943,1.943,0,0,1,.845-.377c.193,0,.378.234.572.71a3.506,3.506,0,0,0,.329.688c.111.222.206.4.27.5.112.182.21.277.3.277h.252a1.091,1.091,0,0,1,.364.042.165.165,0,0,1,.087.219v0l-.006.011c-.08.248-.413.372-.989.372h-.017a.772.772,0,0,1-.705-.455l-.03-.061c-.061-.124-.123-.249-.185-.378-.05-.08-.16-.31-.32-.659-.091-.191-.176-.289-.252-.289a1.843,1.843,0,0,0-.739.334c-.152.1-.345.223-.6.406-.335.24-.669.481-.972.709a2.212,2.212,0,0,1-1.156.461m-.07-3.752h-.022a.517.517,0,0,0-.261.154.751.751,0,0,0-.177.254,5.16,5.16,0,0,0-.241,2.1c.071.791.335,1.192.768,1.192a2.177,2.177,0,0,0,1.123-.446c.3-.223.633-.468.972-.712.263-.182.454-.31.607-.406a1.905,1.905,0,0,1,.764-.341c.111,0,.2.1.306.321.155.344.268.578.317.657.062.13.124.256.186.38l.03.061a.72.72,0,0,0,.655.424h.015c.552,0,.866-.111.937-.334.028-.08.013-.132-.046-.16a1.238,1.238,0,0,0-.343-.039h-.253c-.111,0-.23-.1-.348-.3a5.539,5.539,0,0,1-.271-.506,3.412,3.412,0,0,1-.334-.694c-.182-.445-.357-.676-.518-.676a1.935,1.935,0,0,0-.818.368c-.13.08-.481.321-1.083.744-.925.641-1.024.716-1.032.722a1.176,1.176,0,0,1-.538.193c-.276,0-.416-.334-.432-1.022a4.91,4.91,0,0,1,.088-1.263,1.21,1.21,0,0,0,.06-.581.129.129,0,0,0-.119-.075" fill="#1d1d1b"/>
    <path id="Tracé_654" data-name="Tracé 654" d="M64.768,46.762a1.686,1.686,0,0,1-.306.633.51.51,0,0,1-.4.133c-.3-.012-.456-.493-.409-1.435a29.712,29.712,0,0,1,1.138-7.076c.073-.223.161-.5.269-.819s.25-.511.424-.557c.149-.037.241.044.271.241a3.907,3.907,0,0,1-.125,1.082,33.011,33.011,0,0,0-.855,6.489c-.038.794.021,1.225,0,1.309" fill="#1d1d1b"/>
    <path id="Tracé_655" data-name="Tracé 655" d="M64.114,47.577h-.061a.312.312,0,0,1-.223-.112,2.109,2.109,0,0,1-.223-1.37,29.763,29.763,0,0,1,1.141-7.087l.043-.133c.064-.2.137-.426.223-.688.111-.334.265-.535.454-.592a.246.246,0,0,1,.2.024.349.349,0,0,1,.128.255,3.892,3.892,0,0,1-.125,1.1,33.052,33.052,0,0,0-.855,6.479,10.388,10.388,0,0,0,0,1.059,1.3,1.3,0,0,1,0,.264,1.726,1.726,0,0,1-.314.649.556.556,0,0,1-.383.154m1.433-9.906a.357.357,0,0,0-.056.007c-.156.048-.288.228-.393.534-.088.263-.16.492-.223.688l-.042.132A29.613,29.613,0,0,0,63.7,46.1c-.041.855.084,1.182.2,1.306a.228.228,0,0,0,.166.08.448.448,0,0,0,.372-.121,1.658,1.658,0,0,0,.293-.61,1.55,1.55,0,0,0,0-.236c-.008-.215-.021-.573,0-1.066a33.172,33.172,0,0,1,.859-6.5,3.765,3.765,0,0,0,.122-1.072.266.266,0,0,0-.089-.188.117.117,0,0,0-.07-.02" fill="#1d1d1b"/>
    <path id="Tracé_656" data-name="Tracé 656" d="M102.825,3.1l-3.72,5.142h4.441l5.47-5.142Z" fill="#004d9b"/>
    <rect id="Rectangle_5909" data-name="Rectangle 5909" width="4.163" height="20.751" transform="translate(43.423 11.768)" fill="#004d9b"/>
    <path id="Tracé_657" data-name="Tracé 657" d="M68.18,32.925l-12.864-13.8v13.4H51.341V11.585h1.846L66.052,25.014V11.768h3.976V32.924Z" fill="#004d9b"/>
    <path id="Tracé_658" data-name="Tracé 658" d="M83.453,32.932a10.518,10.518,0,0,1-10.86-10.164h0c-.006-.222-.007-.445,0-.668,0-6.137,4.726-10.735,11.3-10.735a13.328,13.328,0,0,1,7.042,1.914l-1.94,3.466a8.942,8.942,0,0,0-5.163-1.627,6.683,6.683,0,0,0-6.953,6.4v0c-.009.2-.006.409,0,.613,0,4.194,2.63,7.042,6.73,7.042a10.159,10.159,0,0,0,4.01-.813v-3.48H81.79l2.126-3.658h7.857V30.8a16.914,16.914,0,0,1-8.324,2.131" fill="#004d9b"/>
    <path id="Tracé_659" data-name="Tracé 659" d="M95.285,32.52V11.769h13.806L106.963,15.4H99.454v4.727h6.819v3.626H99.454v5.135h7.788l2.094,3.631Z" fill="#004d9b"/>
    <path id="Tracé_660" data-name="Tracé 660" d="M122.735,32.521l-4.91-7.509h-2.407v7.509h-4.16V11.77h6.229c5.535,0,8.2,2.535,8.2,6.511a6.074,6.074,0,0,1-3.88,5.914l5.631,8.326ZM117.1,15.336h-1.69V21.5h1.19c3.223,0,4.852-.78,4.852-3.068,0-2.005-1.034-3.1-4.351-3.1" fill="#004d9b"/>
    <path id="Tracé_661" data-name="Tracé 661" d="M138.7,32.93a10.731,10.731,0,1,1,.321,0Zm0-17.81c-4.069,0-6.667,3.129-6.667,7.017,0,3.911,2.6,7.04,6.667,7.04s6.667-3.128,6.667-7.04c0-3.882-2.6-7.017-6.667-7.017" fill="#004d9b"/>
    <path id="Tracé_662" data-name="Tracé 662" d="M158.041,25.071H156.38V32.52h-4.163V11.77H158.6c5.228,0,8.295,2.159,8.295,6.635,0,5.135-4.352,6.667-8.857,6.667m-.127-9.671H156.38v6.1h1.283c2.848,0,4.946-.5,4.946-3.068,0-2.442-1.661-3.036-4.694-3.036" fill="#004d9b"/>
  </g>
  <g id="logo_couleurs-2" data-name="logo couleurs" transform="translate(0 0)" clip-path="url(#clip-path-2)">
    <path id="Tracé_702" data-name="Tracé 702" d="M60.768,46.266C-2.324,20.72,15.5,0,15.5,0S-14.94,24.3,60.768,46.266" fill="#1647ac"/>
    <path id="Tracé_703" data-name="Tracé 703" d="M57.086,3.277C-9.7,16.418,3.884,40.135,3.884,40.135s-25.29-29.623,53.2-36.858" fill="#e20026"/>
    <path id="Tracé_704" data-name="Tracé 704" d="M73.192,46.972q-.119.354-.968.354a.747.747,0,0,1-.7-.44c-.074-.145-.145-.288-.216-.439a6.792,6.792,0,0,1-.321-.659c-.1-.2-.184-.3-.278-.3a1.863,1.863,0,0,0-.752.334c-.161.1-.367.241-.607.4-.334.241-.653.476-.974.711a2.193,2.193,0,0,1-1.14.456q-.687,0-.794-1.217a5.235,5.235,0,0,1,.24-2.109.716.716,0,0,1,.184-.263.548.548,0,0,1,.275-.161.161.161,0,0,1,.174.1,1.213,1.213,0,0,1-.061.591,4.874,4.874,0,0,0-.088,1.258q.025,1,.4,1a1.159,1.159,0,0,0,.52-.185q.018-.02,1.033-.722.891-.627,1.083-.743a1.934,1.934,0,0,1,.834-.373c.177,0,.361.231.544.693a3.448,3.448,0,0,0,.334.692c.119.24.208.4.268.5.112.193.223.289.326.289h.254a1.125,1.125,0,0,1,.355.041c.08.028.1.1.072.193" fill="#1d1d1b"/>
    <path id="Tracé_705" data-name="Tracé 705" d="M67.244,47.422c-.475,0-.751-.418-.824-1.241a5.265,5.265,0,0,1,.24-2.122.758.758,0,0,1,.191-.274.551.551,0,0,1,.288-.167.188.188,0,0,1,.205.112,1.258,1.258,0,0,1-.06.611A4.86,4.86,0,0,0,67.2,45.58c.016.641.143.971.377.971a1.149,1.149,0,0,0,.5-.182c.018-.017.729-.513,1.034-.721.61-.433.956-.669,1.084-.744a1.987,1.987,0,0,1,.844-.378c.2,0,.388.241.573.711a3.408,3.408,0,0,0,.334.687c.133.265.214.415.268.505.111.181.212.277.3.277h.247a1.057,1.057,0,0,1,.363.041.166.166,0,0,1,.094.215l-.007.015c-.08.248-.417.372-.994.372h-.017a.779.779,0,0,1-.7-.455c-.08-.156-.15-.3-.216-.438a7.322,7.322,0,0,1-.321-.661c-.092-.2-.172-.291-.253-.291a1.889,1.889,0,0,0-.735.334c-.153.1-.346.223-.607.4s-.52.378-.771.557l-.2.149a2.216,2.216,0,0,1-1.154.46m-.067-3.754h-.022a.507.507,0,0,0-.26.154.685.685,0,0,0-.178.254,5.213,5.213,0,0,0-.241,2.1c.071.791.329,1.192.768,1.192a2.168,2.168,0,0,0,1.123-.446l.2-.148c.252-.185.513-.375.772-.557s.456-.311.608-.406a1.933,1.933,0,0,1,.761-.341c.111,0,.2.1.309.321a6.545,6.545,0,0,0,.32.658c.067.139.137.282.223.44a.721.721,0,0,0,.655.424h.016c.551,0,.868-.111.942-.334.034-.111-.014-.145-.054-.16a.97.97,0,0,0-.343-.039h-.254c-.111,0-.23-.1-.348-.3-.056-.091-.136-.241-.269-.506a3.549,3.549,0,0,1-.334-.694c-.174-.445-.352-.676-.517-.676a1.94,1.94,0,0,0-.818.368c-.129.08-.481.32-1.084.744-.735.512-1.015.709-1.031.721a1.217,1.217,0,0,1-.536.193c-.276,0-.417-.334-.435-1.022a4.952,4.952,0,0,1,.09-1.263,1.212,1.212,0,0,0,.06-.582.127.127,0,0,0-.119-.075" fill="#1d1d1b"/>
    <path id="Tracé_706" data-name="Tracé 706" d="M77.44,45.658a5.022,5.022,0,0,1-.933,1.661,1.72,1.72,0,0,1-1.2.769c-.185,0-.364-.192-.539-.578a4.989,4.989,0,0,1-.366-1.448,9.308,9.308,0,0,1-.062-1.042,3.685,3.685,0,0,1,.17-1.083,2.092,2.092,0,0,1,.23-.516.387.387,0,0,1,.326-.16c.14,0,.223.042.26.125a.837.837,0,0,1-.066.481,3.227,3.227,0,0,0-.155.76,4.653,4.653,0,0,0-.021.891,5.74,5.74,0,0,0,.234,1.232c.111.369.236.556.357.556s.321-.216.6-.658a5.719,5.719,0,0,0,.614-1.266,2.6,2.6,0,0,0,.121-.71,7.249,7.249,0,0,1,.072-1.082.674.674,0,0,1,.179-.321.427.427,0,0,1,.4-.085c.148.034.174.4.081,1.083a8.193,8.193,0,0,1-.3,1.385" fill="#1d1d1b"/>
    <path id="Tracé_707" data-name="Tracé 707" d="M75.308,48.117c-.2,0-.387-.195-.569-.593a5.018,5.018,0,0,1-.367-1.461,8.958,8.958,0,0,1-.062-1.048,3.707,3.707,0,0,1,.171-1.092,2.047,2.047,0,0,1,.233-.521.414.414,0,0,1,.334-.174h.015c.151,0,.246.048.283.142a.846.846,0,0,1-.066.5,3.253,3.253,0,0,0-.152.75,4.574,4.574,0,0,0-.022.891,5.812,5.812,0,0,0,.233,1.225c.145.469.27.538.335.538s.236-.112.574-.646a5.7,5.7,0,0,0,.613-1.261,2.569,2.569,0,0,0,.119-.7,7.731,7.731,0,0,1,.07-1.085.712.712,0,0,1,.187-.334.447.447,0,0,1,.426-.091c.165.038.2.392.1,1.114a8.258,8.258,0,0,1-.295,1.4,5.023,5.023,0,0,1-.939,1.67,1.744,1.744,0,0,1-1.219.78m-.258-4.835a.36.36,0,0,0-.291.148,2,2,0,0,0-.222.508,3.637,3.637,0,0,0-.169,1.076,8.634,8.634,0,0,0,.062,1.042,4.922,4.922,0,0,0,.364,1.448c.168.371.341.557.514.557a1.694,1.694,0,0,0,1.183-.758,4.951,4.951,0,0,0,.93-1.653,8.183,8.183,0,0,0,.292-1.392c.111-.833.03-1.033-.059-1.053a.389.389,0,0,0-.374.08.669.669,0,0,0-.172.308,7.61,7.61,0,0,0-.071,1.077,2.607,2.607,0,0,1-.121.722,5.7,5.7,0,0,1-.619,1.273c-.289.457-.486.668-.62.668s-.264-.188-.384-.576a5.86,5.86,0,0,1-.236-1.238,4.7,4.7,0,0,1,.022-.9,3.324,3.324,0,0,1,.156-.764.81.81,0,0,0,.064-.468c-.026-.065-.1-.1-.231-.1Z" fill="#1d1d1b"/>
    <path id="Tracé_708" data-name="Tracé 708" d="M85.174,46.6l-2.005.578a9.393,9.393,0,0,1-.963.237,8.345,8.345,0,0,1-1.447.1,1.8,1.8,0,0,1-1.114-.3,2.164,2.164,0,0,1-.481-.642c-.161.091-.307.172-.446.246a3.494,3.494,0,0,1-.428.192.121.121,0,0,1-.192-.08.524.524,0,0,1,.019-.334c.031-.1.072-.16.124-.169.117-.045.236-.1.358-.152.366-.179.557-.276.578-.288a2.169,2.169,0,0,1,.044-.607,6.4,6.4,0,0,1,.193-.709,3.26,3.26,0,0,1,.985-1.481,2,2,0,0,1,1.237-.6.728.728,0,0,1,.669.354,1.367,1.367,0,0,1,.018,1.148,3.1,3.1,0,0,1-1.155,1.3c-.271.2-.689.487-1.26.861a1.269,1.269,0,0,0,.4.439,1.338,1.338,0,0,0,.757.2,11.239,11.239,0,0,0,1.2-.043,7.657,7.657,0,0,0,1.094-.288c.514-.165.866-.273,1.051-.334a6.808,6.808,0,0,1,.7-.185.385.385,0,0,1,.334.033.186.186,0,0,1,.054.216.5.5,0,0,1-.343.289m-3.441-2.562a.982.982,0,0,0,.008-.54c-.05-.136-.171-.2-.369-.2a1.128,1.128,0,0,0-.77.392,2.225,2.225,0,0,0-.556.891c-.065.2-.127.4-.183.578a1.133,1.133,0,0,0-.041.533,8.884,8.884,0,0,0,1.283-.867,1.918,1.918,0,0,0,.627-.78" fill="#1d1d1b"/>
    <path id="Tracé_709" data-name="Tracé 709" d="M80.647,47.551a1.816,1.816,0,0,1-1.017-.311,2.177,2.177,0,0,1-.481-.626c-.161.092-.308.171-.418.231a3.8,3.8,0,0,1-.432.194.179.179,0,0,1-.145.013.166.166,0,0,1-.08-.111.553.553,0,0,1,.02-.348c.037-.111.08-.173.143-.186.1-.038.208-.085.353-.15.24-.117.5-.241.557-.279a2.268,2.268,0,0,1,.044-.6,6.574,6.574,0,0,1,.194-.712,3.277,3.277,0,0,1,.993-1.492,2.039,2.039,0,0,1,1.254-.6h.045a.75.75,0,0,1,.647.369,1.4,1.4,0,0,1,.021,1.173,3.128,3.128,0,0,1-1.166,1.312c-.268.2-.675.481-1.239.846a1.245,1.245,0,0,0,.383.408,1.307,1.307,0,0,0,.694.2h.254c.334,0,.668-.015.993-.044a7.579,7.579,0,0,0,1.088-.288l.87-.274.183-.058c.236-.073.472-.135.706-.184a.42.42,0,0,1,.359.036.215.215,0,0,1,.064.251.535.535,0,0,1-.354.311l-2,.578c-.315.093-.641.173-.962.24a8.441,8.441,0,0,1-1.309.1h-.255m-1.472-1.014.013.027a2.2,2.2,0,0,0,.476.635,1.78,1.78,0,0,0,1.1.3H80.9a8.21,8.21,0,0,0,1.3-.1,9.845,9.845,0,0,0,.962-.236l2-.578a.481.481,0,0,0,.321-.278.162.162,0,0,0-.045-.184.359.359,0,0,0-.311-.03,7.072,7.072,0,0,0-.7.185l-.183.056c-.2.063-.491.153-.869.275a7.809,7.809,0,0,1-1.1.288,10.569,10.569,0,0,1-1.207.042h-.047a1.357,1.357,0,0,1-.722-.206,1.279,1.279,0,0,1-.414-.445l-.012-.022.021-.014c.574-.376.986-.657,1.26-.86a3.083,3.083,0,0,0,1.148-1.289,1.347,1.347,0,0,0-.02-1.123.689.689,0,0,0-.642-.334,1.975,1.975,0,0,0-1.225.589,3.228,3.228,0,0,0-.979,1.47,6.7,6.7,0,0,0-.192.706,2.205,2.205,0,0,0-.044.6v.015l-.011.008c-.018.013-.154.08-.582.291-.147.068-.256.111-.36.152-.041.01-.08.064-.111.153a.522.522,0,0,0-.019.315.112.112,0,0,0,.054.07.128.128,0,0,0,.1-.013A3.609,3.609,0,0,0,78.7,46.8l.446-.24Zm.625-.8-.007-.039a1.18,1.18,0,0,1,.041-.547l.019-.059c.05-.16.111-.334.165-.519a2.259,2.259,0,0,1,.557-.9,1.144,1.144,0,0,1,.787-.4.372.372,0,0,1,.4.223,1,1,0,0,1-.007.557,1.946,1.946,0,0,1-.642.8,8.868,8.868,0,0,1-1.283.869Zm1.57-2.41a1.094,1.094,0,0,0-.75.382,2.211,2.211,0,0,0-.551.882c-.059.181-.111.355-.165.519l-.018.059a1.12,1.12,0,0,0-.044.481,8.719,8.719,0,0,0,1.243-.845,1.878,1.878,0,0,0,.62-.772.94.94,0,0,0,.007-.523c-.046-.123-.16-.184-.343-.184" fill="#1d1d1b"/>
    <path id="Tracé_710" data-name="Tracé 710" d="M91.953,46.97q-.111.355-.968.354a.749.749,0,0,1-.695-.44c-.072-.145-.148-.288-.223-.439-.05-.08-.153-.3-.316-.659-.091-.2-.186-.3-.278-.3a1.881,1.881,0,0,0-.753.334c-.161.1-.368.241-.609.4-.328.241-.652.476-.971.711A2.211,2.211,0,0,1,86,47.385c-.454,0-.721-.4-.794-1.217a5.253,5.253,0,0,1,.241-2.109.693.693,0,0,1,.184-.263.544.544,0,0,1,.274-.161.161.161,0,0,1,.176.1,1.2,1.2,0,0,1-.062.591,4.787,4.787,0,0,0-.088,1.258c.017.668.15,1,.4,1a1.163,1.163,0,0,0,.522-.185q.02-.019,1.033-.722.891-.627,1.083-.743a1.947,1.947,0,0,1,.836-.373q.264,0,.544.693a3.448,3.448,0,0,0,.334.692c.12.24.208.405.271.505.111.193.222.289.32.289h.251a1.17,1.17,0,0,1,.358.041c.08.028.1.1.068.193" fill="#1d1d1b"/>
    <path id="Tracé_711" data-name="Tracé 711" d="M86,47.42c-.474,0-.751-.417-.824-1.24a5.226,5.226,0,0,1,.24-2.122.7.7,0,0,1,.192-.274.537.537,0,0,1,.285-.167h.033a.188.188,0,0,1,.174.111v.007a1.246,1.246,0,0,1-.061.6,4.771,4.771,0,0,0-.087,1.245c.017.641.143.971.374.971a1.125,1.125,0,0,0,.506-.182c.016-.013.431-.305,1.032-.721s.959-.669,1.085-.744a2,2,0,0,1,.847-.378c.194,0,.38.234.572.711a3.583,3.583,0,0,0,.329.687c.121.24.209.4.271.5.111.185.21.278.3.278h.251a1.1,1.1,0,0,1,.365.041.161.161,0,0,1,.1.2.111.111,0,0,1-.014.029c-.08.246-.414.37-.988.37h-.023a.772.772,0,0,1-.7-.455l-.063-.125c-.053-.1-.1-.207-.156-.314-.049-.08-.156-.3-.321-.659-.08-.189-.172-.289-.253-.289a1.833,1.833,0,0,0-.738.334c-.161.1-.366.237-.607.406-.295.211-.6.438-.972.709a2.235,2.235,0,0,1-1.156.461m-.07-3.752H85.9a.488.488,0,0,0-.259.154.65.65,0,0,0-.179.254,5.16,5.16,0,0,0-.241,2.1c.071.791.328,1.192.767,1.192a2.194,2.194,0,0,0,1.122-.446c.37-.274.679-.5.973-.712.245-.169.445-.306.609-.406a1.921,1.921,0,0,1,.763-.341c.111,0,.213.111.309.321.16.357.265.577.314.655.052.111.1.213.156.314l.064.127a.722.722,0,0,0,.655.424h.022c.549,0,.865-.111.937-.334.039-.111-.013-.142-.055-.16a1.133,1.133,0,0,0-.3-.042h-.3c-.111,0-.222-.1-.348-.3q-.092-.15-.271-.506a3.438,3.438,0,0,1-.334-.694c-.18-.446-.355-.676-.518-.676a1.955,1.955,0,0,0-.819.367c-.128.081-.472.313-1.084.744-.73.509-1.016.712-1.032.722a1.162,1.162,0,0,1-.536.193c-.274,0-.415-.334-.432-1.023a4.912,4.912,0,0,1,.088-1.263,1.2,1.2,0,0,0,.062-.578.137.137,0,0,0-.122-.08" fill="#1d1d1b"/>
    <path id="Tracé_712" data-name="Tracé 712" d="M97.335,43.4c-.052.16-.12.247-.207.271a1.213,1.213,0,0,1-.312.033,2.523,2.523,0,0,1-.481-.068c-.55-.111-.857-.169-.924-.169a4.63,4.63,0,0,0-.622.154,1.723,1.723,0,0,1-.433.08,16.256,16.256,0,0,0-.179,1.747,3.248,3.248,0,0,0,.059,1.191.729.729,0,0,0,.273.241c.145.09.207.179.18.268a.542.542,0,0,1-.241.321,1.149,1.149,0,0,1-.506.08q-.519,0-.432-1.94a13.57,13.57,0,0,1,.148-1.572,4.322,4.322,0,0,0-.866.489,1.069,1.069,0,0,1-.357.186c-.166,0-.222-.09-.164-.269a1.617,1.617,0,0,1,.614-.722l.849-.591q.129-.728.361-1.74t.557-1.992c.064-.2.13-.409.193-.616s.128-.42.192-.632a6.633,6.633,0,0,1,.315-.822c.1-.185.193-.278.294-.278.171,0,.2.241.091.71s-.3,1.137-.578,1.991a12.648,12.648,0,0,0-.335,1.3q-.189.879-.36,1.84a2.847,2.847,0,0,0,.543-.08,2.867,2.867,0,0,1,.545-.08,3.42,3.42,0,0,1,1.3.216c.361.144.518.3.465.454" fill="#1d1d1b"/>
    <path id="Tracé_713" data-name="Tracé 713" d="M94.011,47.582h-.069a.291.291,0,0,1-.21-.1c-.214-.223-.294-.837-.247-1.874a13.442,13.442,0,0,1,.139-1.524,4.292,4.292,0,0,0-.815.47,1.107,1.107,0,0,1-.364.188h-.008a.217.217,0,0,1-.184-.072.255.255,0,0,1-.007-.234,1.632,1.632,0,0,1,.627-.74l.38-.264.459-.322c.086-.48.206-1.061.36-1.731s.341-1.336.557-1.992c.069-.21.133-.418.192-.614.046-.153.094-.309.142-.465l.052-.169a6.432,6.432,0,0,1,.321-.823c.1-.2.207-.295.321-.295a.153.153,0,0,1,.125.059c.08.1.08.321-.008.686-.1.451-.291,1.1-.577,1.995a12.3,12.3,0,0,0-.329,1.3c-.121.557-.24,1.149-.355,1.806a2.851,2.851,0,0,0,.5-.081,2.85,2.85,0,0,1,.551-.08h.1a3.411,3.411,0,0,1,1.2.223c.386.152.545.311.488.488s-.128.263-.223.289a1.18,1.18,0,0,1-.289.036h-.028a2.433,2.433,0,0,1-.487-.069c-.385-.079-.84-.167-.917-.167a4.48,4.48,0,0,0-.614.153,1.807,1.807,0,0,1-.418.08,16.313,16.313,0,0,0-.175,1.724,3.168,3.168,0,0,0,.058,1.176.677.677,0,0,0,.258.223c.161.1.223.2.194.3a.556.556,0,0,1-.25.334,1.178,1.178,0,0,1-.454.09M93.7,44l-.007.049a13.5,13.5,0,0,0-.148,1.569,3.084,3.084,0,0,0,.232,1.834.225.225,0,0,0,.172.08,1.193,1.193,0,0,0,.5-.08.5.5,0,0,0,.223-.3c.023-.076-.034-.156-.168-.241a.73.73,0,0,1-.28-.246v-.008a3.226,3.226,0,0,1-.06-1.2,16.775,16.775,0,0,1,.179-1.748v-.022h.021a1.67,1.67,0,0,0,.426-.08,4.819,4.819,0,0,1,.627-.154c.071,0,.342.051.933.17a2.48,2.48,0,0,0,.477.067h.029a1.164,1.164,0,0,0,.276-.033c.08-.02.139-.1.187-.253s-.111-.284-.454-.421a3.391,3.391,0,0,0-1.187-.215h-.1a3.17,3.17,0,0,0-.54.08,2.821,2.821,0,0,1-.548.081h-.035l.006-.035c.12-.667.241-1.272.361-1.841a12.534,12.534,0,0,1,.334-1.3c.287-.891.475-1.54.578-1.99.08-.342.08-.557.018-.642a.1.1,0,0,0-.08-.035c-.089,0-.177.087-.27.262a6.535,6.535,0,0,0-.314.818l-.051.169c-.048.154-.1.31-.142.463-.059.2-.124.406-.192.618A19.467,19.467,0,0,0,94.14,41.4c-.152.667-.276,1.258-.36,1.739v.012l-.009.007c-.16.106-.317.215-.469.326l-.381.265a1.578,1.578,0,0,0-.6.713.21.21,0,0,0,0,.183.165.165,0,0,0,.135.048,1.051,1.051,0,0,0,.343-.179,4.455,4.455,0,0,1,.874-.494Z" fill="#1d1d1b"/>
    <path id="Tracé_714" data-name="Tracé 714" d="M102.9,45.586a2.256,2.256,0,0,1-1.043,1.252,3.25,3.25,0,0,1-1.7.472,2.738,2.738,0,0,1-2.011-.758,1.7,1.7,0,0,1-.4-1.877,2.01,2.01,0,0,1,.7-.911,1.621,1.621,0,0,1,.844-.44,2.43,2.43,0,0,1,.27-.017.727.727,0,0,1,.341.068c.08.045.1.13.059.254a.4.4,0,0,1-.283.28,1.634,1.634,0,0,1-.445.059.8.8,0,0,0-.493.216,1,1,0,0,0-.343.455,1.292,1.292,0,0,0,.289,1.2,1.972,1.972,0,0,0,1.7.758,2.365,2.365,0,0,0,1.2-.3,1.319,1.319,0,0,0,.653-.717c.06-.16-.023-.361-.251-.608a4.18,4.18,0,0,0-.78-.642,5.941,5.941,0,0,0-.557-.216c-.192-.08-.256-.2-.2-.356a.429.429,0,0,1,.168-.28.918.918,0,0,1,.385-.059,1.581,1.581,0,0,1,.548.223,3.837,3.837,0,0,1,.722.518,2.81,2.81,0,0,1,.578.624.964.964,0,0,1,.048.793" fill="#1d1d1b"/>
    <path id="Tracé_715" data-name="Tracé 715" d="M100.037,47.345a2.776,2.776,0,0,1-1.914-.77,1.722,1.722,0,0,1-.408-1.908,2.04,2.04,0,0,1,.71-.922,1.623,1.623,0,0,1,.857-.445,2.968,2.968,0,0,1,.308-.018.756.756,0,0,1,.321.071c.065.036.126.112.074.285a.429.429,0,0,1-.3.3,1.677,1.677,0,0,1-.446.06h-.01a.769.769,0,0,0-.472.208.98.98,0,0,0-.334.446,1.254,1.254,0,0,0,.285,1.17,1.945,1.945,0,0,0,1.539.755,1,1,0,0,0,.134,0h.041a2.359,2.359,0,0,0,1.149-.3,1.3,1.3,0,0,0,.641-.7c.056-.148-.027-.342-.245-.578a4.046,4.046,0,0,0-.78-.637,5.745,5.745,0,0,0-.556-.214c-.2-.087-.279-.223-.223-.391a.448.448,0,0,1,.179-.291h.006a1.012,1.012,0,0,1,.4-.061,1.573,1.573,0,0,1,.557.233,3.836,3.836,0,0,1,.721.519,2.779,2.779,0,0,1,.581.629.992.992,0,0,1,.061.828,2.286,2.286,0,0,1-1.059,1.266,3.279,3.279,0,0,1-1.7.475h-.131m-.446-4.01a2.52,2.52,0,0,0-.3.018,1.583,1.583,0,0,0-.827.432,1.976,1.976,0,0,0-.695.9,1.671,1.671,0,0,0,.4,1.846,2.732,2.732,0,0,0,1.877.753h.125a3.223,3.223,0,0,0,1.67-.468,2.23,2.23,0,0,0,1.035-1.237.933.933,0,0,0-.057-.779,2.709,2.709,0,0,0-.57-.615,3.827,3.827,0,0,0-.718-.515,1.519,1.519,0,0,0-.541-.222h-.051a.872.872,0,0,0-.315.059.4.4,0,0,0-.154.257c-.048.15.012.253.188.326s.378.136.557.223a4.21,4.21,0,0,1,.791.648c.241.258.321.466.256.635a1.341,1.341,0,0,1-.668.733,2.4,2.4,0,0,1-1.171.3h-.18a2,2,0,0,1-1.579-.779,1.311,1.311,0,0,1-.294-1.226,1.018,1.018,0,0,1,.354-.47.816.816,0,0,1,.5-.222h.01a1.585,1.585,0,0,0,.428-.059.373.373,0,0,0,.263-.261c.035-.111.02-.184-.045-.223a.707.707,0,0,0-.294-.064" fill="#1d1d1b"/>
    <path id="Tracé_716" data-name="Tracé 716" d="M111.2,46.972q-.111.355-.968.354a.751.751,0,0,1-.7-.44c-.073-.145-.145-.288-.216-.439a7.285,7.285,0,0,1-.321-.659c-.1-.2-.184-.3-.278-.3a1.857,1.857,0,0,0-.752.334c-.165.1-.368.241-.607.4l-.974.711a2.206,2.206,0,0,1-1.144.456c-.456,0-.721-.4-.794-1.217a5.253,5.253,0,0,1,.241-2.109.74.74,0,0,1,.182-.263.566.566,0,0,1,.276-.161.161.161,0,0,1,.172.1,1.189,1.189,0,0,1-.059.591,4.874,4.874,0,0,0-.089,1.258q.027,1,.4,1a1.159,1.159,0,0,0,.521-.185q.02-.02,1.035-.722.882-.627,1.083-.743a1.934,1.934,0,0,1,.834-.373c.177,0,.361.231.542.693a3.422,3.422,0,0,0,.334.692c.12.24.207.4.269.5.111.193.223.289.321.289h.254a1.154,1.154,0,0,1,.355.041c.08.028.1.1.072.193" fill="#1d1d1b"/>
    <path id="Tracé_717" data-name="Tracé 717" d="M105.246,47.422c-.474,0-.751-.418-.824-1.241a5.265,5.265,0,0,1,.24-2.122.78.78,0,0,1,.191-.274.573.573,0,0,1,.288-.167.185.185,0,0,1,.2.112,1.211,1.211,0,0,1-.059.611,4.908,4.908,0,0,0-.088,1.245c.019.642.145.972.378.972a1.17,1.17,0,0,0,.506-.182c.018-.019.729-.514,1.033-.722.612-.432.957-.668,1.085-.744a2,2,0,0,1,.844-.377c.2,0,.387.24.572.71a3.39,3.39,0,0,0,.334.688c.111.23.205.4.267.505.111.181.211.276.3.276h.253a1.115,1.115,0,0,1,.363.042.159.159,0,0,1,.1.2.111.111,0,0,1-.012.027c-.08.247-.413.372-.988.372h-.021a.779.779,0,0,1-.708-.455c-.07-.138-.143-.287-.213-.439a6.714,6.714,0,0,1-.321-.661c-.094-.193-.175-.286-.253-.286a1.887,1.887,0,0,0-.736.334c-.156.1-.356.231-.607.406q-.287.205-.566.414l-.407.3a2.217,2.217,0,0,1-1.157.46m-.07-3.752h-.021a.514.514,0,0,0-.26.154.672.672,0,0,0-.179.254,5.2,5.2,0,0,0-.241,2.1c.071.791.335,1.192.768,1.192a2.182,2.182,0,0,0,1.127-.446l.407-.3c.188-.139.375-.276.568-.415.254-.177.451-.309.609-.406a1.927,1.927,0,0,1,.761-.341c.111,0,.2.1.307.321a7.266,7.266,0,0,0,.321.658c.071.152.145.3.215.44a.719.719,0,0,0,.658.424h.021c.549,0,.864-.111.936-.334.036-.111-.01-.142-.054-.16a1.167,1.167,0,0,0-.343-.039h-.254c-.111,0-.23-.1-.349-.3-.063-.1-.154-.276-.269-.506a3.438,3.438,0,0,1-.334-.694c-.173-.445-.351-.676-.516-.676a1.936,1.936,0,0,0-.817.368c-.129.08-.481.321-1.084.744-.736.512-1.017.709-1.034.722a1.2,1.2,0,0,1-.535.192c-.274,0-.416-.334-.435-1.022a4.91,4.91,0,0,1,.089-1.263,1.188,1.188,0,0,0,.059-.582.128.128,0,0,0-.119-.074" fill="#1d1d1b"/>
    <path id="Tracé_718" data-name="Tracé 718" d="M116.984,46.929a1.661,1.661,0,0,1-.988.947,4.02,4.02,0,0,1-1.645.353,3.6,3.6,0,0,1-1.926-.456.982.982,0,0,1-.466-1.256A1.926,1.926,0,0,1,112.2,46a.476.476,0,0,1,.361-.223c.16,0,.207.1.139.3-.06.161-.1.271-.125.335-.1.294.081.545.521.759a3.072,3.072,0,0,0,1.347.321,4.2,4.2,0,0,0,1.06-.118c.411-.112.649-.276.721-.491q.132-.405-.629-1.029-.434-.335-.851-.693A3.463,3.463,0,0,1,113.907,44a2.3,2.3,0,0,1-.088-1.657,1.1,1.1,0,0,1,.556-.614,2.257,2.257,0,0,1,1.114-.245.951.951,0,0,1,.578.211.438.438,0,0,1,.185.53,1.4,1.4,0,0,1-.168.406.448.448,0,0,1-.223.033c-.1,0-.185-.072-.25-.223a.385.385,0,0,0-.391-.222.969.969,0,0,0-.65.236,1.7,1.7,0,0,0-.2.24,1.58,1.58,0,0,0,.235.883,3.612,3.612,0,0,0,.779,1.071q1.074,1,1.2,1.132a1.2,1.2,0,0,1,.4,1.131" fill="#1d1d1b"/>
    <path id="Tracé_719" data-name="Tracé 719" d="M114.181,48.261a3.605,3.605,0,0,1-1.771-.464,1.015,1.015,0,0,1-.481-1.283,1.87,1.87,0,0,1,.248-.52.5.5,0,0,1,.38-.24.19.19,0,0,1,.168.065.3.3,0,0,1,0,.273l-.037.1c-.042.112-.07.188-.086.241-.093.279.073.518.505.727a3.06,3.06,0,0,0,1.337.321h.068a4.3,4.3,0,0,0,.986-.111c.4-.112.632-.269.7-.474.086-.258-.123-.6-.62-1-.305-.241-.584-.466-.852-.693a3.473,3.473,0,0,1-.844-1.174,2.337,2.337,0,0,1-.088-1.676,1.128,1.128,0,0,1,.577-.631,2.313,2.313,0,0,1,1.042-.248h.088a.986.986,0,0,1,.594.223.462.462,0,0,1,.192.557,1.413,1.413,0,0,1-.17.412v.006h-.008a.517.517,0,0,1-.24.035c-.112,0-.2-.08-.271-.235a.358.358,0,0,0-.321-.2h-.049a.947.947,0,0,0-.625.231,1.842,1.842,0,0,0-.192.222,1.547,1.547,0,0,0,.231.864,3.578,3.578,0,0,0,.771,1.066c.722.668,1.114,1.042,1.2,1.132a1.234,1.234,0,0,1,.407,1.155v.006a1.7,1.7,0,0,1-1,.962,4.008,4.008,0,0,1-1.656.354h-.168m-1.616-2.45a.446.446,0,0,0-.335.215,1.917,1.917,0,0,0-.241.509.962.962,0,0,0,.452,1.225,3.561,3.561,0,0,0,1.746.457h.166A3.956,3.956,0,0,0,116,47.862a1.633,1.633,0,0,0,.973-.928,1.181,1.181,0,0,0-.392-1.1c-.08-.09-.474-.46-1.2-1.132a3.575,3.575,0,0,1-.779-1.08,1.587,1.587,0,0,1-.241-.9V42.7a1.752,1.752,0,0,1,.205-.241,1,1,0,0,1,.658-.245h.056a.413.413,0,0,1,.37.236c.061.137.134.2.223.2a.446.446,0,0,0,.208-.027,1.357,1.357,0,0,0,.161-.392.41.41,0,0,0-.173-.5.941.941,0,0,0-.557-.208h-.087a2.255,2.255,0,0,0-1.015.24,1.08,1.08,0,0,0-.551.6,2.293,2.293,0,0,0,.087,1.636,3.412,3.412,0,0,0,.83,1.155c.267.223.545.454.849.693.515.42.729.779.641,1.059-.08.223-.32.392-.741.509a4.188,4.188,0,0,1-1,.119h-.068a3.1,3.1,0,0,1-1.363-.321c-.455-.222-.635-.485-.535-.793.018-.053.046-.131.088-.24l.037-.1c.035-.112.038-.183.008-.223a.142.142,0,0,0-.122-.043" fill="#1d1d1b"/>
    <path id="Tracé_720" data-name="Tracé 720" d="M129.777,47.517a.3.3,0,0,1-.317.2.578.578,0,0,1-.487-.289,2.137,2.137,0,0,1-.289-.759,7.1,7.1,0,0,1-.1-1.448c.008-.34.014-.557.018-.662a9.289,9.289,0,0,1-1.427,1.806,3.505,3.505,0,0,1-2.374,1.148,1.179,1.179,0,0,1-1.123-.481,1.493,1.493,0,0,1-.033-1.209,3.821,3.821,0,0,1,1.069-1.6,2.29,2.29,0,0,1,1.509-.727,1.458,1.458,0,0,1,1.043.371.7.7,0,0,1,.28.71q-.1.3-.267.3c-.209-.16-.42-.3-.628-.44a1.084,1.084,0,0,0-.589-.2,1.616,1.616,0,0,0-1.134.608,2.678,2.678,0,0,0-.641.979.667.667,0,0,0,.124.635.793.793,0,0,0,.686.313,2.877,2.877,0,0,0,1.931-1.032,15.244,15.244,0,0,0,1.722-2.281,12.2,12.2,0,0,0,.433-1.771q.16-.93.311-1.876a1.891,1.891,0,0,1,.216-.5.347.347,0,0,1,.3-.145q.321,0,.046,1.4c-.1.472-.193.937-.275,1.4-.014.09-.073.4-.184.929a12.3,12.3,0,0,0-.223,1.348c-.035.364-.056.78-.061,1.256a4.451,4.451,0,0,0,.1,1.174,3.241,3.241,0,0,0,.261.52.433.433,0,0,1,.1.321" fill="#1d1d1b"/>
    <path id="Tracé_721" data-name="Tracé 721" d="M129.5,47.749h-.042a.593.593,0,0,1-.5-.3,2.169,2.169,0,0,1-.294-.769,7.122,7.122,0,0,1-.1-1.458c0-.245.01-.432.015-.557a9.317,9.317,0,0,1-1.377,1.72,3.506,3.506,0,0,1-2.391,1.157,1.2,1.2,0,0,1-1.146-.492,1.513,1.513,0,0,1-.035-1.236,3.839,3.839,0,0,1,1.077-1.612,2.292,2.292,0,0,1,1.524-.733,1.456,1.456,0,0,1,1.066.377.732.732,0,0,1,.287.74c-.068.214-.166.321-.292.321h-.01l-.008-.006c-.186-.14-.391-.283-.626-.438a1.067,1.067,0,0,0-.576-.2,1.6,1.6,0,0,0-1.114.6,2.714,2.714,0,0,0-.637.973.647.647,0,0,0,.119.607.775.775,0,0,0,.613.3h.051a2.815,2.815,0,0,0,1.91-1.023,15.178,15.178,0,0,0,1.721-2.276,11.99,11.99,0,0,0,.429-1.761c.1-.573.2-1.186.311-1.877a2.039,2.039,0,0,1,.223-.508.373.373,0,0,1,.3-.16h.019a.149.149,0,0,1,.117.057c.121.148.111.6-.045,1.377l-.01.045c-.1.465-.186.906-.265,1.355-.013.1-.08.446-.185.93a12.508,12.508,0,0,0-.223,1.346c-.034.357-.055.766-.061,1.253a4.406,4.406,0,0,0,.1,1.168,3.278,3.278,0,0,0,.257.513.507.507,0,0,1,.1.34.321.321,0,0,1-.306.223m-.857-3.3-.006.111c0,.105-.011.335-.02.661a7.021,7.021,0,0,0,.1,1.448,2.119,2.119,0,0,0,.285.749.548.548,0,0,0,.465.277h.034a.267.267,0,0,0,.255-.186.443.443,0,0,0-.1-.3,3.2,3.2,0,0,1-.262-.524,4.459,4.459,0,0,1-.1-1.186c.007-.489.027-.9.062-1.258a12.6,12.6,0,0,1,.222-1.351c.1-.481.171-.828.184-.927.08-.445.171-.891.266-1.357l.009-.045c.147-.751.166-1.2.057-1.337a.1.1,0,0,0-.08-.036H130a.317.317,0,0,0-.261.133,1.948,1.948,0,0,0-.212.489c-.112.688-.214,1.3-.311,1.875a12.05,12.05,0,0,1-.435,1.774,15.344,15.344,0,0,1-1.727,2.291,2.881,2.881,0,0,1-1.948,1.043h-.056a.826.826,0,0,1-.655-.325.7.7,0,0,1-.129-.661,2.757,2.757,0,0,1,.649-.991,1.648,1.648,0,0,1,1.151-.615,1.119,1.119,0,0,1,.609.207c.232.152.435.294.621.434.095-.005.173-.1.23-.284a.677.677,0,0,0-.27-.682,1.412,1.412,0,0,0-.952-.364h-.075a2.249,2.249,0,0,0-1.49.721,3.8,3.8,0,0,0-1.062,1.593,1.452,1.452,0,0,0,.03,1.188,1.154,1.154,0,0,0,1.094.466,3.454,3.454,0,0,0,2.357-1.141,9.235,9.235,0,0,0,1.425-1.8Z" fill="#1d1d1b"/>
    <path id="Tracé_722" data-name="Tracé 722" d="M137.556,46.6l-2.005.578a9.657,9.657,0,0,1-.963.236,8.345,8.345,0,0,1-1.447.1,1.789,1.789,0,0,1-1.114-.3,2.181,2.181,0,0,1-.477-.642c-.16.09-.307.171-.445.241a3.412,3.412,0,0,1-.428.192c-.1.045-.161.019-.193-.075a.537.537,0,0,1,.018-.334c.033-.1.072-.161.125-.17.117-.044.236-.1.361-.15.365-.181.556-.276.578-.289a2.145,2.145,0,0,1,.045-.608,6.443,6.443,0,0,1,.193-.708,3.273,3.273,0,0,1,.979-1.478,2,2,0,0,1,1.237-.6.738.738,0,0,1,.669.354A1.382,1.382,0,0,1,134.7,44.1a3.1,3.1,0,0,1-1.155,1.3c-.27.2-.689.487-1.257.861a1.26,1.26,0,0,0,.4.439,1.351,1.351,0,0,0,.758.2,11.23,11.23,0,0,0,1.2-.043,7.6,7.6,0,0,0,1.092-.288c.514-.161.866-.273,1.051-.334a6.809,6.809,0,0,1,.7-.185.385.385,0,0,1,.334.033.186.186,0,0,1,.054.216.5.5,0,0,1-.344.289M134.1,44.029a.954.954,0,0,0,.01-.54c-.05-.136-.171-.2-.369-.2a1.126,1.126,0,0,0-.769.391,2.228,2.228,0,0,0-.557.891c-.066.2-.128.4-.183.578a1.156,1.156,0,0,0-.041.532,8.744,8.744,0,0,0,1.283-.866,1.918,1.918,0,0,0,.627-.78" fill="#1d1d1b"/>
    <path id="Tracé_723" data-name="Tracé 723" d="M133.032,47.552a1.814,1.814,0,0,1-1.017-.311,2.176,2.176,0,0,1-.475-.627c-.15.085-.289.161-.417.231a3.8,3.8,0,0,1-.432.194.178.178,0,0,1-.146.013.158.158,0,0,1-.08-.111.575.575,0,0,1,.018-.348c.041-.111.081-.174.143-.186.12-.047.248-.1.356-.15l.027-.012c.285-.141.481-.241.534-.267a2.149,2.149,0,0,1,.049-.6,6.029,6.029,0,0,1,.191-.712,3.3,3.3,0,0,1,.988-1.49,2.03,2.03,0,0,1,1.252-.6h.04a.76.76,0,0,1,.654.368,1.411,1.411,0,0,1,.019,1.172,3.134,3.134,0,0,1-1.166,1.312c-.256.192-.663.469-1.236.845a1.223,1.223,0,0,0,.379.408,1.317,1.317,0,0,0,.7.2h.241c.334,0,.678-.014,1.012-.043a7.654,7.654,0,0,0,1.086-.289l.869-.274.183-.056a7.209,7.209,0,0,1,.706-.185.416.416,0,0,1,.357.038.213.213,0,0,1,.065.25.535.535,0,0,1-.356.308l-2.005.578c-.314.094-.642.173-.963.24a8.286,8.286,0,0,1-1.307.1h-.256m-1.467-1.014.012.027a2.144,2.144,0,0,0,.471.635,1.8,1.8,0,0,0,1.1.3h.142a8.229,8.229,0,0,0,1.3-.1,9.178,9.178,0,0,0,.962-.236l2-.578a.476.476,0,0,0,.32-.276.159.159,0,0,0-.044-.185.363.363,0,0,0-.313-.03,7.072,7.072,0,0,0-.7.185l-.184.058c-.2.061-.49.153-.867.274a8.165,8.165,0,0,1-1.1.29c-.4.034-.812.046-1.209.042h-.049a1.367,1.367,0,0,1-.722-.207,1.314,1.314,0,0,1-.412-.446l-.013-.022.021-.014c.585-.383,1-.668,1.257-.858a3.088,3.088,0,0,0,1.148-1.291,1.351,1.351,0,0,0-.017-1.123.708.708,0,0,0-.6-.34h-.035a1.972,1.972,0,0,0-1.22.59,3.213,3.213,0,0,0-.972,1.467,5.749,5.749,0,0,0-.191.706,2.121,2.121,0,0,0-.047.6v.013l-.011.01c-.019.016-.149.081-.557.279l-.028.013c-.111.05-.24.112-.363.153-.041.01-.074.06-.111.154a.511.511,0,0,0-.018.314.112.112,0,0,0,.052.07.137.137,0,0,0,.1-.014,3.446,3.446,0,0,0,.425-.191l.446-.241Zm.621-.8-.005-.04a1.208,1.208,0,0,1,.042-.544l.019-.06c.05-.16.111-.334.16-.519a2.259,2.259,0,0,1,.557-.9,1.156,1.156,0,0,1,.788-.4.372.372,0,0,1,.4.223.97.97,0,0,1-.01.557,1.938,1.938,0,0,1-.636.8,8.842,8.842,0,0,1-1.283.869Zm1.573-2.41a1.1,1.1,0,0,0-.75.382,2.211,2.211,0,0,0-.551.882c-.059.181-.111.355-.165.519l-.018.059a1.153,1.153,0,0,0-.046.481,8.737,8.737,0,0,0,1.245-.845,1.888,1.888,0,0,0,.618-.772.927.927,0,0,0,0-.527c-.047-.122-.16-.183-.343-.183" fill="#1d1d1b"/>
    <path id="Tracé_724" data-name="Tracé 724" d="M148.946,46.779a1.146,1.146,0,0,1-.057.216.306.306,0,0,1-.348.254c-.073-.011-.133-.111-.186-.288s-.1-.366-.154-.557a1.238,1.238,0,0,0-.256-.415.471.471,0,0,0-.34-.16,1.057,1.057,0,0,0-.546.216l-.674.523c-.327.257-.557.434-.688.523a1.386,1.386,0,0,1-.713.254q-.349,0-.628-.867-.072-.216-.288-.962a3.883,3.883,0,0,0-.34-.844.608.608,0,0,0-.506-.371,1.745,1.745,0,0,0-.921.42,11.069,11.069,0,0,0-1.042.93q-.9.912-1.162,1.114a1.913,1.913,0,0,1-1.155.505q-.584,0-.634-1.266a6.22,6.22,0,0,1,.3-2.179l.1-.288a2.079,2.079,0,0,1,.223-.506.379.379,0,0,1,.334-.185c.12,0,.176.112.166.334a3.057,3.057,0,0,1-.154.751,5.311,5.311,0,0,0-.273,1.6c0,.53.1.794.3.794a1.413,1.413,0,0,0,.882-.44q.1-.084.909-.944a5.985,5.985,0,0,1,1.128-.973,2.6,2.6,0,0,1,1.4-.44.883.883,0,0,1,.722.44,4.239,4.239,0,0,1,.433.979c.1.335.212.669.321.979s.223.473.349.473a1.074,1.074,0,0,0,.5-.241q.46-.334.7-.5a6.2,6.2,0,0,1,.6-.386,1.307,1.307,0,0,1,.62-.186,1.014,1.014,0,0,1,.855.642,1.494,1.494,0,0,1,.222,1.048" fill="#1d1d1b"/>
    <path id="Tracé_725" data-name="Tracé 725" d="M144.986,47.376c-.251,0-.466-.29-.656-.882-.045-.137-.134-.434-.289-.962a3.765,3.765,0,0,0-.334-.84.576.576,0,0,0-.481-.357,1.712,1.712,0,0,0-.9.415,10.8,10.8,0,0,0-1.042.929c-.6.6-.989.979-1.164,1.113a1.936,1.936,0,0,1-1.171.512c-.406,0-.629-.435-.668-1.292a6.244,6.244,0,0,1,.305-2.188l.1-.288a2.142,2.142,0,0,1,.23-.512.4.4,0,0,1,.349-.2.166.166,0,0,1,.13.05.409.409,0,0,1,.07.309,3.02,3.02,0,0,1-.153.758,5.252,5.252,0,0,0-.272,1.6c0,.515.09.767.273.767a1.38,1.38,0,0,0,.864-.431c.065-.056.362-.365.909-.945a6.079,6.079,0,0,1,1.134-.977,2.609,2.609,0,0,1,1.413-.445.9.9,0,0,1,.747.452,4.234,4.234,0,0,1,.435.986c.1.334.211.661.321.978s.215.454.321.454a1.052,1.052,0,0,0,.481-.231c.326-.24.543-.4.7-.505a6.978,6.978,0,0,1,.6-.388,1.368,1.368,0,0,1,.632-.188,1.044,1.044,0,0,1,.883.658,1.516,1.516,0,0,1,.222,1.064,1.163,1.163,0,0,1-.059.223.333.333,0,0,1-.379.27c-.081-.012-.149-.111-.208-.308-.051-.171-.1-.343-.146-.525l-.007-.03a1.228,1.228,0,0,0-.249-.4.448.448,0,0,0-.32-.151,1.048,1.048,0,0,0-.53.211l-.668.524c-.361.283-.567.44-.689.523a1.426,1.426,0,0,1-.728.26m-1.765-3.1a.634.634,0,0,1,.535.388,3.844,3.844,0,0,1,.342.847c.153.528.24.824.288.963.179.556.383.847.6.847a1.362,1.362,0,0,0,.7-.249c.121-.081.327-.241.687-.522l.668-.523a1.094,1.094,0,0,1,.557-.223.5.5,0,0,1,.363.169,1.274,1.274,0,0,1,.261.424l.009.033c.048.182.094.352.146.524.063.211.123.262.16.268a.162.162,0,0,0,.044,0,.281.281,0,0,0,.274-.234,1.223,1.223,0,0,0,.056-.216,1.46,1.46,0,0,0-.216-1.028.988.988,0,0,0-.833-.629,1.316,1.316,0,0,0-.6.181,6.5,6.5,0,0,0-.6.385c-.154.111-.371.267-.7.5a1.1,1.1,0,0,1-.507.241c-.139,0-.263-.161-.378-.491s-.223-.647-.321-.98a4.232,4.232,0,0,0-.431-.973.849.849,0,0,0-.7-.426,2.57,2.57,0,0,0-1.384.435,6,6,0,0,0-1.123.968c-.557.589-.846.891-.912.948a1.444,1.444,0,0,1-.9.445c-.223,0-.334-.268-.334-.821a5.368,5.368,0,0,1,.274-1.613,2.992,2.992,0,0,0,.153-.744.376.376,0,0,0-.055-.267.112.112,0,0,0-.09-.033.35.35,0,0,0-.3.172,2.169,2.169,0,0,0-.223.5l-.1.29a6.193,6.193,0,0,0-.3,2.166c.034.823.241,1.241.607,1.241a1.882,1.882,0,0,0,1.137-.5c.176-.137.557-.511,1.161-1.114a11.38,11.38,0,0,1,1.043-.931,1.761,1.761,0,0,1,.933-.426" fill="#1d1d1b"/>
    <path id="Tracé_726" data-name="Tracé 726" d="M154.732,47.7a.357.357,0,0,1-.231.223,1.478,1.478,0,0,1-.481.068q-.36,0-.5-.61c-.041-.216-.08-.427-.125-.641a2.9,2.9,0,0,1-.1-.355c-.073-.213-.165-.321-.289-.321a1.03,1.03,0,0,0-.4.2c-.2.134-.392.265-.578.385-.169.1-.288.173-.361.216a1.591,1.591,0,0,1-.748.236,1.042,1.042,0,0,1-1.066-.59,1.079,1.079,0,0,1-.054-.78,3.124,3.124,0,0,1,1.356-1.671,2.9,2.9,0,0,1,1.495-.556.786.786,0,0,1,.6.251.488.488,0,0,1,.161.49c-.054.161-.1.248-.145.271a.583.583,0,0,1-.234.033c-.074,0-.15-.054-.223-.168a.4.4,0,0,0-.351-.169,2.029,2.029,0,0,0-1.155.433,1.959,1.959,0,0,0-.779.974.765.765,0,0,0-.017.523.548.548,0,0,0,.567.321,1.077,1.077,0,0,0,.481-.15,4.033,4.033,0,0,0,.481-.289c.277-.193.475-.321.589-.385a1.039,1.039,0,0,1,.515-.2.83.83,0,0,1,.433.111.962.962,0,0,1,.321.482,3.108,3.108,0,0,1,.168.891c.034.327.1.489.193.489.374,0,.529.1.465.288" fill="#1d1d1b"/>
    <path id="Tracé_727" data-name="Tracé 727" d="M154.064,48.018h-.048c-.254,0-.431-.212-.526-.63l-.037-.187c-.029-.156-.058-.3-.09-.454a3.117,3.117,0,0,1-.1-.356c-.069-.2-.153-.3-.261-.3a1.026,1.026,0,0,0-.386.2l-.223.148c-.122.08-.24.16-.358.241s-.223.129-.292.172l-.07.044a1.63,1.63,0,0,1-.761.24,1.086,1.086,0,0,1-.128.007,1.061,1.061,0,0,1-.962-.614,1.106,1.106,0,0,1-.055-.8,3.139,3.139,0,0,1,1.368-1.685,2.9,2.9,0,0,1,1.507-.557h.024a.821.821,0,0,1,.6.259.517.517,0,0,1,.167.517c-.061.183-.1.263-.161.288a.6.6,0,0,1-.209.036h-.037a.326.326,0,0,1-.246-.18.369.369,0,0,0-.3-.161h-.028a1.99,1.99,0,0,0-1.139.428,1.946,1.946,0,0,0-.77.962.74.74,0,0,0-.015.506.512.512,0,0,0,.471.305.364.364,0,0,0,.066,0,1.08,1.08,0,0,0,.471-.148,3.963,3.963,0,0,0,.481-.287c.274-.191.473-.321.591-.387a1.083,1.083,0,0,1,.525-.207h.022a.845.845,0,0,1,.428.112.971.971,0,0,1,.334.5,3.122,3.122,0,0,1,.169.9c.039.383.112.463.165.463.256,0,.413.044.481.134a.2.2,0,0,1,.019.19.38.38,0,0,1-.25.236,1.439,1.439,0,0,1-.446.07M153,46.045c.14,0,.241.111.321.334a2.736,2.736,0,0,0,.1.355c.033.154.061.3.091.458l.036.185c.09.389.248.587.474.587a1.481,1.481,0,0,0,.472-.067.32.32,0,0,0,.214-.2.152.152,0,0,0-.01-.142c-.053-.072-.2-.111-.434-.111-.112,0-.184-.161-.223-.515a3.042,3.042,0,0,0-.168-.891.933.933,0,0,0-.315-.469.823.823,0,0,0-.4-.1h-.019a1.032,1.032,0,0,0-.5.2c-.118.068-.321.2-.589.386a4.108,4.108,0,0,1-.486.291,1.114,1.114,0,0,1-.492.154H151a.574.574,0,0,1-.522-.34.8.8,0,0,1,.017-.546,2,2,0,0,1,.789-.986,2.04,2.04,0,0,1,1.169-.437h.028a.423.423,0,0,1,.346.181c.068.1.138.161.2.161a.563.563,0,0,0,.223-.033c.045-.021.092-.146.128-.251a.467.467,0,0,0-.153-.463.772.772,0,0,0-.557-.245h-.021a2.891,2.891,0,0,0-1.481.55,3.106,3.106,0,0,0-1.346,1.66,1.051,1.051,0,0,0,.052.756,1.01,1.01,0,0,0,.916.582,1,1,0,0,0,.122-.007,1.571,1.571,0,0,0,.737-.233l.07-.041c.07-.045.168-.1.291-.174l.357-.24.223-.147a1.031,1.031,0,0,1,.411-.207Z" fill="#1d1d1b"/>
    <path id="Tracé_728" data-name="Tracé 728" d="M156.743,46.742a.816.816,0,0,1-.186.352.386.386,0,0,1-.266.08c-.2,0-.31-.256-.32-.78a4.339,4.339,0,0,1,.192-1.418c.04-.128.093-.28.155-.457a.457.457,0,0,1,.268-.321c.1-.023.16.02.192.128a1.7,1.7,0,0,1-.05.6,3.78,3.78,0,0,0-.026,1.088,4.253,4.253,0,0,1,.039.722m.867-5.843c-.01.033-.052.057-.125.068a1.285,1.285,0,0,1-.139.016c-.148.023-.288-.073-.417-.289a.556.556,0,0,1-.072-.578.516.516,0,0,1,.134-.176.384.384,0,0,1,.177-.1c.138-.022.274.153.4.525a.841.841,0,0,1,.039.522" fill="#1d1d1b"/>
    <path id="Tracé_729" data-name="Tracé 729" d="M156.318,47.205h-.027c-.222,0-.334-.27-.345-.8a4.367,4.367,0,0,1,.194-1.427c.019-.059.041-.121.065-.191s.057-.17.089-.265a.48.48,0,0,1,.283-.335.178.178,0,0,1,.222.117.134.134,0,0,1,.007.027,1.667,1.667,0,0,1-.048.613,3.745,3.745,0,0,0-.027,1.078,4.354,4.354,0,0,1,.039.722v.005a.839.839,0,0,1-.192.363.412.412,0,0,1-.26.1m.321-2.977a.141.141,0,0,0-.041,0,.426.426,0,0,0-.248.3c-.032.1-.062.189-.09.269l-.064.19A4.312,4.312,0,0,0,156,46.4c.008.5.111.75.293.75h.024a.346.346,0,0,0,.223-.08.794.794,0,0,0,.177-.334,4.246,4.246,0,0,0-.039-.713,3.8,3.8,0,0,1,.027-1.1,1.638,1.638,0,0,0,.048-.591c-.021-.072-.059-.111-.118-.111M157.307,41c-.141,0-.274-.1-.393-.305a.59.59,0,0,1-.075-.6.577.577,0,0,1,.142-.187.424.424,0,0,1,.189-.1h.03c.145,0,.278.179.406.545a.88.88,0,0,1,.044.541V40.9l0,.006c-.018.043-.067.07-.148.08a1.33,1.33,0,0,1-.14.015h-.048m-.111-1.144h-.018a.356.356,0,0,0-.16.088.508.508,0,0,0-.127.168.535.535,0,0,0,.068.549c.111.189.223.281.351.281h.039a.823.823,0,0,0,.139-.016c.06-.009.1-.025.1-.049l.005-.01a.819.819,0,0,0-.044-.5c-.117-.333-.241-.509-.355-.509" fill="#1d1d1b"/>
    <path id="Tracé_730" data-name="Tracé 730" d="M165.118,46.972q-.111.354-.962.354a.745.745,0,0,1-.7-.44c-.073-.145-.145-.288-.217-.439-.047-.08-.153-.3-.316-.659-.1-.2-.186-.3-.277-.3a1.909,1.909,0,0,0-.755.334c-.161.1-.366.241-.606.4-.334.241-.653.476-.971.711a2.21,2.21,0,0,1-1.144.456c-.455,0-.722-.4-.794-1.217a5.235,5.235,0,0,1,.24-2.109.746.746,0,0,1,.184-.263.544.544,0,0,1,.275-.161.161.161,0,0,1,.174.1,1.225,1.225,0,0,1-.06.591,4.874,4.874,0,0,0-.087,1.258c.015.668.148,1,.4,1a1.167,1.167,0,0,0,.523-.185q.02-.02,1.034-.722.882-.627,1.082-.743a1.942,1.942,0,0,1,.836-.373c.176,0,.355.231.543.693a3.56,3.56,0,0,0,.334.692c.121.24.209.4.271.5.111.193.223.289.321.289h.253a1.157,1.157,0,0,1,.356.041c.08.028.1.1.069.193" fill="#1d1d1b"/>
    <path id="Tracé_731" data-name="Tracé 731" d="M159.177,47.42c-.474,0-.75-.418-.824-1.241a5.248,5.248,0,0,1,.241-2.122.8.8,0,0,1,.19-.274.563.563,0,0,1,.289-.168h.033a.184.184,0,0,1,.172.112,1.271,1.271,0,0,1-.061.611,4.906,4.906,0,0,0-.084,1.245c.015.642.141.972.374.972a1.149,1.149,0,0,0,.508-.182c.01-.011.36-.256,1.033-.722.61-.432.956-.668,1.085-.744a1.943,1.943,0,0,1,.845-.377c.193,0,.378.234.572.71a3.506,3.506,0,0,0,.329.688c.111.222.206.4.27.5.112.182.21.277.3.277h.252a1.091,1.091,0,0,1,.364.042.165.165,0,0,1,.087.219v0l-.006.011c-.08.248-.413.372-.989.372h-.017a.772.772,0,0,1-.705-.455l-.03-.061c-.061-.124-.123-.249-.185-.378-.05-.08-.16-.31-.32-.659-.091-.191-.176-.289-.252-.289a1.843,1.843,0,0,0-.739.334c-.152.1-.345.223-.6.406-.335.24-.669.481-.972.709a2.212,2.212,0,0,1-1.156.461m-.07-3.752h-.022a.517.517,0,0,0-.261.154.751.751,0,0,0-.177.254,5.16,5.16,0,0,0-.241,2.1c.071.791.335,1.192.768,1.192a2.177,2.177,0,0,0,1.123-.446c.3-.223.633-.468.972-.712.263-.182.454-.31.607-.406a1.905,1.905,0,0,1,.764-.341c.111,0,.2.1.306.321.155.344.268.578.317.657.062.13.124.256.186.38l.03.061a.72.72,0,0,0,.655.424h.015c.552,0,.866-.111.937-.334.028-.08.013-.132-.046-.16a1.238,1.238,0,0,0-.343-.039h-.253c-.111,0-.23-.1-.348-.3a5.539,5.539,0,0,1-.271-.506,3.412,3.412,0,0,1-.334-.694c-.182-.445-.357-.676-.518-.676a1.935,1.935,0,0,0-.818.368c-.13.08-.481.321-1.083.744-.925.641-1.024.716-1.032.722a1.176,1.176,0,0,1-.538.193c-.276,0-.416-.334-.432-1.022a4.91,4.91,0,0,1,.088-1.263,1.21,1.21,0,0,0,.06-.581.129.129,0,0,0-.119-.075" fill="#1d1d1b"/>
    <path id="Tracé_732" data-name="Tracé 732" d="M64.768,46.762a1.686,1.686,0,0,1-.306.633.51.51,0,0,1-.4.133c-.3-.012-.456-.493-.409-1.435a29.712,29.712,0,0,1,1.138-7.076c.073-.223.161-.5.269-.819s.25-.511.424-.557c.149-.037.241.044.271.241a3.907,3.907,0,0,1-.125,1.082,33.011,33.011,0,0,0-.855,6.489c-.038.794.021,1.225,0,1.309" fill="#1d1d1b"/>
    <path id="Tracé_733" data-name="Tracé 733" d="M64.114,47.577h-.061a.312.312,0,0,1-.223-.112,2.109,2.109,0,0,1-.223-1.37,29.763,29.763,0,0,1,1.141-7.087l.043-.133c.064-.2.137-.426.223-.688.111-.334.265-.535.454-.592a.246.246,0,0,1,.2.024.349.349,0,0,1,.128.255,3.892,3.892,0,0,1-.125,1.1,33.052,33.052,0,0,0-.855,6.479,10.388,10.388,0,0,0,0,1.059,1.3,1.3,0,0,1,0,.264,1.726,1.726,0,0,1-.314.649.556.556,0,0,1-.383.154m1.433-9.906a.357.357,0,0,0-.056.007c-.156.048-.288.228-.393.534-.088.263-.16.492-.223.688l-.042.132A29.613,29.613,0,0,0,63.7,46.1c-.041.855.084,1.182.2,1.306a.228.228,0,0,0,.166.08.448.448,0,0,0,.372-.121,1.658,1.658,0,0,0,.293-.61,1.55,1.55,0,0,0,0-.236c-.008-.215-.021-.573,0-1.066a33.172,33.172,0,0,1,.859-6.5,3.765,3.765,0,0,0,.122-1.072.266.266,0,0,0-.089-.188.117.117,0,0,0-.07-.02" fill="#1d1d1b"/>
    <path id="Tracé_734" data-name="Tracé 734" d="M102.825,3.1l-3.72,5.142h4.441l5.47-5.142Z" fill="#1647ac"/>
    <rect id="Rectangle_5913" data-name="Rectangle 5913" width="4.163" height="20.751" transform="translate(43.423 11.768)" fill="#1647ac"/>
    <path id="Tracé_735" data-name="Tracé 735" d="M68.18,32.925l-12.864-13.8v13.4H51.341V11.585h1.846L66.052,25.014V11.768h3.976V32.924Z" fill="#1647ac"/>
    <path id="Tracé_736" data-name="Tracé 736" d="M83.453,32.932a10.518,10.518,0,0,1-10.86-10.164h0c-.006-.222-.007-.445,0-.668,0-6.137,4.726-10.735,11.3-10.735a13.328,13.328,0,0,1,7.042,1.914l-1.94,3.466a8.942,8.942,0,0,0-5.163-1.627,6.683,6.683,0,0,0-6.953,6.4v0c-.009.2-.006.409,0,.613,0,4.194,2.63,7.042,6.73,7.042a10.159,10.159,0,0,0,4.01-.813v-3.48H81.79l2.126-3.658h7.857V30.8a16.914,16.914,0,0,1-8.324,2.131" fill="#1647ac"/>
    <path id="Tracé_737" data-name="Tracé 737" d="M95.285,32.52V11.769h13.806L106.963,15.4H99.454v4.727h6.819v3.626H99.454v5.135h7.788l2.094,3.631Z" fill="#1647ac"/>
    <path id="Tracé_738" data-name="Tracé 738" d="M122.735,32.521l-4.91-7.509h-2.407v7.509h-4.16V11.77h6.229c5.535,0,8.2,2.535,8.2,6.511a6.074,6.074,0,0,1-3.88,5.914l5.631,8.326ZM117.1,15.336h-1.69V21.5h1.19c3.223,0,4.852-.78,4.852-3.068,0-2.005-1.034-3.1-4.351-3.1" fill="#1647ac"/>
    <path id="Tracé_739" data-name="Tracé 739" d="M138.7,32.93a10.731,10.731,0,1,1,.321,0Zm0-17.81c-4.069,0-6.667,3.129-6.667,7.017,0,3.911,2.6,7.04,6.667,7.04s6.667-3.128,6.667-7.04c0-3.882-2.6-7.017-6.667-7.017" fill="#1647ac"/>
    <path id="Tracé_740" data-name="Tracé 740" d="M158.041,25.071H156.38V32.52h-4.163V11.77H158.6c5.228,0,8.295,2.159,8.295,6.635,0,5.135-4.352,6.667-8.857,6.667m-.127-9.671H156.38v6.1h1.283c2.848,0,4.946-.5,4.946-3.068,0-2.442-1.661-3.036-4.694-3.036" fill="#1647ac"/>
  </g>
</svg>