<svg id="logo_blanc" data-name="logo blanc" xmlns="http://www.w3.org/2000/svg" xmlns:xlink="http://www.w3.org/1999/xlink" width="208.253" height="59.927" viewBox="0 0 208.253 59.927">
  <defs>
    <clipPath id="clip-path">
      <rect id="Rectangle_5907" data-name="Rectangle 5907" width="208.253" height="59.927" transform="translate(0 0)" fill="none"/>
    </clipPath>
  </defs>
  <g id="logo" transform="translate(0 0)" clip-path="url(#clip-path)">
    <path id="Tracé_583" data-name="Tracé 583" d="M17.049,14.209C14.6,5.363,19.209,0,19.209,0s-8.586,6.855-7.38,16.98a56.49,56.49,0,0,1,5.22-2.771" fill="#fff"/>
    <path id="Tracé_584" data-name="Tracé 584" d="M21.021,22.408a55.531,55.531,0,0,0-5.485,3.742c6.625,9.532,23.21,20.58,59.771,31.186C42.845,44.2,27.667,32.08,21.021,22.408" fill="#fff"/>
    <path id="Tracé_585" data-name="Tracé 585" d="M70.749,4.06C-12.016,20.35,4.815,49.739,4.815,49.739S-26.533,13.026,70.749,4.06" fill="#fff"/>
    <path id="Tracé_586" data-name="Tracé 586" d="M91.449,58.32q-.147.441-1.207.442a.933.933,0,0,1-.868-.548c-.091-.18-.181-.36-.27-.547a8.656,8.656,0,0,1-.4-.822c-.12-.251-.229-.378-.347-.378a2.332,2.332,0,0,0-.937.42c-.2.127-.457.3-.756.5-.411.3-.814.593-1.213.886a2.743,2.743,0,0,1-1.422.569q-.856,0-.99-1.517a6.549,6.549,0,0,1,.3-2.63.906.906,0,0,1,.229-.328.681.681,0,0,1,.343-.2.2.2,0,0,1,.216.12,1.516,1.516,0,0,1-.076.737,6.1,6.1,0,0,0-.11,1.567q.031,1.242.5,1.242a1.438,1.438,0,0,0,.649-.231q.024-.024,1.289-.9,1.105-.781,1.35-.926a2.414,2.414,0,0,1,1.04-.465c.221,0,.45.288.677.864a4.3,4.3,0,0,0,.415.862c.149.3.259.506.334.63.141.24.278.36.4.36h.316a1.411,1.411,0,0,1,.443.051c.1.035.127.12.09.24" fill="#fff"/>
    <path id="Tracé_587" data-name="Tracé 587" d="M84.034,58.881c-.592,0-.936-.52-1.027-1.547a6.587,6.587,0,0,1,.3-2.645.947.947,0,0,1,.238-.342.687.687,0,0,1,.359-.208.235.235,0,0,1,.255.139,1.556,1.556,0,0,1-.075.762,6.078,6.078,0,0,0-.109,1.552c.02.8.178,1.211.469,1.211a1.446,1.446,0,0,0,.631-.226c.022-.022.908-.64,1.288-.9.761-.538,1.191-.832,1.351-.927a2.481,2.481,0,0,1,1.052-.47c.245,0,.483.3.714.886a4.243,4.243,0,0,0,.412.856c.167.33.266.518.334.63.133.225.264.345.377.345h.315a1.334,1.334,0,0,1,.453.052.207.207,0,0,1,.117.268l-.009.02c-.1.308-.52.464-1.24.464h-.021a.966.966,0,0,1-.878-.568c-.1-.2-.188-.375-.27-.546a8.81,8.81,0,0,1-.4-.824c-.115-.245-.215-.363-.315-.363a2.336,2.336,0,0,0-.916.414c-.192.119-.432.279-.757.506s-.648.471-.961.7l-.252.185a2.757,2.757,0,0,1-1.439.574M83.947,54.2h-.028a.629.629,0,0,0-.324.191.86.86,0,0,0-.222.317,6.489,6.489,0,0,0-.3,2.614c.087.986.409,1.486.956,1.486a2.7,2.7,0,0,0,1.4-.561l.252-.185c.314-.231.638-.468.962-.7s.568-.388.758-.507a2.406,2.406,0,0,1,.948-.425c.137,0,.253.123.384.4a8.3,8.3,0,0,0,.4.821c.083.173.171.351.271.548a.9.9,0,0,0,.817.529h.02c.687,0,1.083-.141,1.175-.418.043-.134-.017-.18-.067-.2a1.232,1.232,0,0,0-.427-.049h-.317c-.141,0-.288-.127-.435-.378-.069-.113-.169-.3-.335-.631a4.391,4.391,0,0,1-.417-.865c-.217-.551-.439-.843-.644-.843a2.426,2.426,0,0,0-1.02.458c-.161.1-.6.4-1.351.927-.917.638-1.265.885-1.286.9a1.508,1.508,0,0,1-.668.24c-.344,0-.519-.417-.541-1.275a6.12,6.12,0,0,1,.111-1.575,1.5,1.5,0,0,0,.075-.725.157.157,0,0,0-.148-.093" fill="#fff"/>
    <path id="Tracé_588" data-name="Tracé 588" d="M96.745,56.684a6.241,6.241,0,0,1-1.164,2.07,2.143,2.143,0,0,1-1.5.96c-.231,0-.454-.24-.672-.72a6.228,6.228,0,0,1-.456-1.811,11.3,11.3,0,0,1-.078-1.3,4.582,4.582,0,0,1,.212-1.35,2.609,2.609,0,0,1,.286-.643.483.483,0,0,1,.407-.2c.175,0,.283.053.323.156a1.049,1.049,0,0,1-.082.6,4.033,4.033,0,0,0-.193.947A5.792,5.792,0,0,0,93.8,56.51a7.172,7.172,0,0,0,.292,1.536c.143.461.294.694.446.694s.4-.27.745-.82a7.138,7.138,0,0,0,.767-1.579,3.237,3.237,0,0,0,.15-.884,9.232,9.232,0,0,1,.09-1.35.831.831,0,0,1,.224-.4.528.528,0,0,1,.5-.106c.184.042.216.494.1,1.35a10.291,10.291,0,0,1-.369,1.727" fill="#fff"/>
    <path id="Tracé_589" data-name="Tracé 589" d="M94.088,59.748c-.253,0-.483-.243-.709-.739a6.239,6.239,0,0,1-.458-1.822,11.2,11.2,0,0,1-.077-1.307,4.621,4.621,0,0,1,.212-1.361,2.579,2.579,0,0,1,.29-.65.517.517,0,0,1,.419-.216h.019c.188,0,.307.06.352.177a1.065,1.065,0,0,1-.082.627,4.033,4.033,0,0,0-.19.935,5.74,5.74,0,0,0-.028,1.112,7.224,7.224,0,0,0,.292,1.528c.181.584.336.671.413.671.1,0,.295-.14.716-.805a7.109,7.109,0,0,0,.763-1.571,3.171,3.171,0,0,0,.148-.875,9.554,9.554,0,0,1,.087-1.352.88.88,0,0,1,.233-.42.555.555,0,0,1,.531-.114c.206.047.246.489.123,1.387a10.253,10.253,0,0,1-.368,1.743A6.263,6.263,0,0,1,95.6,58.777a2.174,2.174,0,0,1-1.519.972m-.322-6.027a.445.445,0,0,0-.362.185,2.533,2.533,0,0,0-.283.633,4.52,4.52,0,0,0-.209,1.341,10.863,10.863,0,0,0,.077,1.3,6.194,6.194,0,0,0,.454,1.8c.209.462.425.7.641.7a2.115,2.115,0,0,0,1.475-.946,6.187,6.187,0,0,0,1.159-2.061,10.242,10.242,0,0,0,.366-1.732c.142-1.038.038-1.287-.073-1.312a.483.483,0,0,0-.466.1.824.824,0,0,0-.214.383,9.563,9.563,0,0,0-.089,1.342,3.2,3.2,0,0,1-.151.9,7.1,7.1,0,0,1-.771,1.587c-.361.57-.607.836-.773.836s-.329-.235-.479-.718a7.31,7.31,0,0,1-.294-1.544,5.864,5.864,0,0,1,.028-1.124,4.137,4.137,0,0,1,.194-.953,1.016,1.016,0,0,0,.081-.583c-.033-.082-.13-.128-.289-.128Z" fill="#fff"/>
    <path id="Tracé_590" data-name="Tracé 590" d="M106.384,57.863l-2.5.72a11.8,11.8,0,0,1-1.2.295,10.426,10.426,0,0,1-1.8.128,2.24,2.24,0,0,1-1.392-.378,2.72,2.72,0,0,1-.6-.8c-.2.113-.382.214-.551.305a4.32,4.32,0,0,1-.533.24c-.12.055-.2.024-.24-.1a.661.661,0,0,1,.023-.41c.039-.12.09-.2.155-.211.146-.056.294-.12.445-.189.457-.224.7-.345.72-.36a2.711,2.711,0,0,1,.055-.757,7.882,7.882,0,0,1,.24-.883,4.059,4.059,0,0,1,1.228-1.847,2.491,2.491,0,0,1,1.543-.745.907.907,0,0,1,.83.441,1.708,1.708,0,0,1,.024,1.431,3.869,3.869,0,0,1-1.44,1.62c-.339.252-.86.607-1.572,1.073a1.58,1.58,0,0,0,.5.547,1.672,1.672,0,0,0,.944.252,13.907,13.907,0,0,0,1.5-.053,9.562,9.562,0,0,0,1.363-.36c.642-.2,1.08-.34,1.311-.412a8.565,8.565,0,0,1,.877-.23.481.481,0,0,1,.421.042.232.232,0,0,1,.067.27.628.628,0,0,1-.428.36m-4.289-3.2a1.216,1.216,0,0,0,.01-.674c-.063-.17-.213-.254-.46-.254a1.4,1.4,0,0,0-.96.488,2.773,2.773,0,0,0-.694,1.113c-.081.252-.158.5-.228.72a1.424,1.424,0,0,0-.051.664,10.945,10.945,0,0,0,1.6-1.08,2.382,2.382,0,0,0,.782-.978" fill="#fff"/>
    <path id="Tracé_591" data-name="Tracé 591" d="M100.743,59.043a2.263,2.263,0,0,1-1.268-.388,2.717,2.717,0,0,1-.6-.78c-.2.114-.383.212-.52.287a4.624,4.624,0,0,1-.538.241.22.22,0,0,1-.181.016.206.206,0,0,1-.1-.132.7.7,0,0,1,.025-.433c.046-.138.1-.215.178-.232.123-.047.259-.105.44-.188.3-.146.623-.3.7-.347a2.874,2.874,0,0,1,.056-.746,8.245,8.245,0,0,1,.242-.887,4.075,4.075,0,0,1,1.238-1.86,2.531,2.531,0,0,1,1.562-.753h.057a.935.935,0,0,1,.806.459,1.749,1.749,0,0,1,.027,1.462,3.9,3.9,0,0,1-1.454,1.635c-.334.249-.841.6-1.545,1.055a1.566,1.566,0,0,0,.477.508,1.633,1.633,0,0,0,.865.247h.316c.414,0,.829-.019,1.238-.056a9.5,9.5,0,0,0,1.356-.358q.708-.225,1.084-.341l.227-.072c.294-.092.589-.17.88-.23a.521.521,0,0,1,.447.046.268.268,0,0,1,.08.312.667.667,0,0,1-.441.387l-2.5.721c-.393.117-.8.216-1.2.3a10.49,10.49,0,0,1-1.632.128h-.318M98.912,57.78l.016.033a2.724,2.724,0,0,0,.593.791,2.227,2.227,0,0,0,1.366.368h.176a10.35,10.35,0,0,0,1.621-.128c.4-.078.805-.177,1.2-.294l2.5-.721a.6.6,0,0,0,.4-.347.2.2,0,0,0-.056-.229.452.452,0,0,0-.389-.038,8.856,8.856,0,0,0-.878.231l-.227.07c-.251.079-.612.191-1.083.343a9.813,9.813,0,0,1-1.369.36,13.5,13.5,0,0,1-1.5.053h-.059a1.7,1.7,0,0,1-.9-.257,1.607,1.607,0,0,1-.517-.561l-.015-.028.027-.016c.717-.469,1.23-.819,1.571-1.072a3.847,3.847,0,0,0,1.43-1.608,1.678,1.678,0,0,0-.025-1.4.857.857,0,0,0-.8-.421,2.463,2.463,0,0,0-1.521.734,4.032,4.032,0,0,0-1.22,1.832,8.109,8.109,0,0,0-.239.88,2.77,2.77,0,0,0-.055.749v.019l-.014.01c-.022.017-.191.1-.725.363-.183.084-.32.142-.449.19-.052.013-.1.079-.134.19a.652.652,0,0,0-.023.393.131.131,0,0,0,.066.088.161.161,0,0,0,.127-.017,4.439,4.439,0,0,0,.531-.239c.144-.077.338-.183.551-.3Zm.779-1-.008-.048a1.469,1.469,0,0,1,.051-.681l.024-.073c.063-.2.132-.422.2-.647a2.807,2.807,0,0,1,.7-1.127,1.428,1.428,0,0,1,.981-.5.462.462,0,0,1,.493.275,1.235,1.235,0,0,1-.008.7,2.427,2.427,0,0,1-.8.991,11.017,11.017,0,0,1-1.6,1.083Zm1.958-3a1.359,1.359,0,0,0-.934.476,2.74,2.74,0,0,0-.687,1.1c-.074.225-.141.443-.206.647l-.022.073a1.385,1.385,0,0,0-.056.6,10.931,10.931,0,0,0,1.55-1.054,2.343,2.343,0,0,0,.773-.962,1.175,1.175,0,0,0,.009-.652c-.057-.153-.2-.229-.427-.229" fill="#fff"/>
    <path id="Tracé_592" data-name="Tracé 592" d="M114.835,58.32q-.144.443-1.207.442a.934.934,0,0,1-.867-.548c-.09-.18-.184-.36-.274-.547-.062-.1-.192-.371-.394-.822-.114-.251-.232-.378-.347-.378a2.346,2.346,0,0,0-.939.42c-.2.127-.458.3-.758.5-.409.3-.814.593-1.21.886a2.765,2.765,0,0,1-1.425.569c-.567,0-.9-.5-.99-1.517a6.549,6.549,0,0,1,.3-2.63.866.866,0,0,1,.229-.328.678.678,0,0,1,.342-.2.2.2,0,0,1,.219.12,1.516,1.516,0,0,1-.076.737,5.928,5.928,0,0,0-.11,1.567c.021.828.186,1.242.5,1.242a1.446,1.446,0,0,0,.65-.231q.026-.024,1.288-.9,1.11-.781,1.35-.926a2.426,2.426,0,0,1,1.043-.465c.22,0,.444.288.677.864a4.292,4.292,0,0,0,.412.862c.15.3.26.506.337.63.143.24.277.36.4.36h.312a1.492,1.492,0,0,1,.446.051c.1.035.127.12.085.24" fill="#fff"/>
    <path id="Tracé_593" data-name="Tracé 593" d="M107.417,58.881c-.592,0-.936-.52-1.027-1.547a6.517,6.517,0,0,1,.3-2.645.88.88,0,0,1,.239-.342.678.678,0,0,1,.356-.208h.041a.235.235,0,0,1,.217.143v.008a1.559,1.559,0,0,1-.077.754,5.942,5.942,0,0,0-.108,1.552c.021.8.178,1.211.467,1.211a1.417,1.417,0,0,0,.631-.226c.019-.017.537-.381,1.287-.9s1.2-.833,1.352-.927a2.493,2.493,0,0,1,1.055-.47c.242,0,.473.291.714.886a4.377,4.377,0,0,0,.409.857c.152.3.261.506.338.628.136.23.262.346.376.346h.312a1.371,1.371,0,0,1,.455.052.2.2,0,0,1,.126.253.146.146,0,0,1-.016.036c-.1.307-.516.463-1.232.463H113.6a.962.962,0,0,1-.878-.568l-.079-.155c-.065-.128-.131-.258-.194-.391-.061-.1-.195-.375-.4-.822-.1-.235-.214-.359-.315-.359a2.284,2.284,0,0,0-.92.414c-.2.125-.455.3-.757.506-.366.264-.75.545-1.211.885a2.8,2.8,0,0,1-1.441.575m-.088-4.678a.131.131,0,0,0-.028,0,.607.607,0,0,0-.322.191.814.814,0,0,0-.223.317,6.435,6.435,0,0,0-.3,2.614c.087.986.408,1.486.955,1.486a2.731,2.731,0,0,0,1.4-.561c.461-.341.845-.622,1.212-.887.305-.211.559-.382.759-.507a2.391,2.391,0,0,1,.951-.425c.137,0,.265.135.384.4.2.445.331.719.392.817.065.135.131.265.195.392l.08.158a.9.9,0,0,0,.816.529h.028c.684,0,1.077-.141,1.167-.418.048-.132-.016-.178-.068-.2a1.408,1.408,0,0,0-.376-.051h-.368c-.142,0-.283-.123-.435-.378-.077-.124-.187-.334-.338-.631a4.27,4.27,0,0,1-.414-.865c-.225-.559-.443-.843-.645-.843a2.43,2.43,0,0,0-1.021.458c-.16.1-.589.39-1.352.927-.909.634-1.266.887-1.285.9a1.457,1.457,0,0,1-.668.24c-.342,0-.518-.417-.539-1.275a6.075,6.075,0,0,1,.11-1.575,1.5,1.5,0,0,0,.076-.721.167.167,0,0,0-.151-.1" fill="#fff"/>
    <path id="Tracé_594" data-name="Tracé 594" d="M121.544,53.864c-.065.2-.15.308-.258.337a1.5,1.5,0,0,1-.389.042,3.2,3.2,0,0,1-.6-.084c-.686-.14-1.068-.211-1.151-.211a5.9,5.9,0,0,0-.776.191,2.11,2.11,0,0,1-.54.1,20.408,20.408,0,0,0-.222,2.179,4.029,4.029,0,0,0,.073,1.484.893.893,0,0,0,.34.3c.18.113.258.223.223.335a.672.672,0,0,1-.3.4,1.428,1.428,0,0,1-.63.1q-.646,0-.538-2.418a16.707,16.707,0,0,1,.184-1.959,5.4,5.4,0,0,0-1.08.61,1.32,1.32,0,0,1-.444.232c-.207,0-.278-.112-.2-.336a2.017,2.017,0,0,1,.767-.9l1.058-.736q.161-.907.45-2.17t.7-2.482c.081-.252.163-.51.24-.768s.159-.524.24-.788a8.128,8.128,0,0,1,.393-1.024c.12-.23.24-.346.367-.346.212,0,.248.3.113.885s-.377,1.417-.72,2.483a15.807,15.807,0,0,0-.41,1.62q-.235,1.095-.45,2.293a3.6,3.6,0,0,0,.678-.1,3.709,3.709,0,0,1,.679-.1,4.268,4.268,0,0,1,1.621.27c.45.18.645.37.581.567" fill="#fff"/>
    <path id="Tracé_595" data-name="Tracé 595" d="M117.4,59.08h-.086a.355.355,0,0,1-.261-.118c-.266-.278-.367-1.042-.308-2.335a16.786,16.786,0,0,1,.174-1.9,5.365,5.365,0,0,0-1.016.584,1.329,1.329,0,0,1-.454.235h-.01a.263.263,0,0,1-.229-.089.315.315,0,0,1-.009-.291,2.023,2.023,0,0,1,.781-.922q.234-.162.473-.33l.572-.4c.107-.6.257-1.324.449-2.159s.425-1.667.7-2.483c.086-.262.167-.52.24-.767.057-.19.116-.385.176-.579l.065-.21a7.867,7.867,0,0,1,.4-1.028c.127-.247.258-.367.4-.367a.19.19,0,0,1,.155.072c.1.122.1.4-.01.855-.126.564-.362,1.377-.719,2.487a15.227,15.227,0,0,0-.409,1.616c-.151.695-.3,1.431-.443,2.25a3.6,3.6,0,0,0,.628-.1,3.616,3.616,0,0,1,.686-.1h.13a4.27,4.27,0,0,1,1.5.275c.48.19.679.389.608.609s-.16.328-.282.36a1.565,1.565,0,0,1-.361.044H120.9a3.181,3.181,0,0,1-.607-.085c-.481-.1-1.047-.21-1.143-.21a5.791,5.791,0,0,0-.766.19,2.2,2.2,0,0,1-.521.1,20.365,20.365,0,0,0-.218,2.149,3.959,3.959,0,0,0,.072,1.467.861.861,0,0,0,.322.28c.2.125.281.251.241.377a.7.7,0,0,1-.312.419,1.48,1.48,0,0,1-.565.113m-.394-4.47-.009.06a16.673,16.673,0,0,0-.184,1.957,3.837,3.837,0,0,0,.289,2.285.283.283,0,0,0,.215.1,1.478,1.478,0,0,0,.617-.1.628.628,0,0,0,.278-.377c.029-.094-.041-.194-.209-.3a.915.915,0,0,1-.349-.307v-.01a4.03,4.03,0,0,1-.075-1.5,20.739,20.739,0,0,1,.223-2.181l.005-.027h.027a2.085,2.085,0,0,0,.531-.1,5.855,5.855,0,0,1,.781-.192c.089,0,.426.062,1.163.211a3.137,3.137,0,0,0,.594.084h.036a1.533,1.533,0,0,0,.344-.041c.1-.024.173-.131.233-.315s-.134-.354-.567-.525a4.226,4.226,0,0,0-1.48-.268h-.127a3.731,3.731,0,0,0-.673.1,3.585,3.585,0,0,1-.683.1h-.043l.007-.042c.15-.837.3-1.587.45-2.295a15.608,15.608,0,0,1,.411-1.623c.358-1.107.592-1.92.72-2.48.1-.426.1-.695.022-.8a.125.125,0,0,0-.1-.046c-.111,0-.221.108-.336.328a7.917,7.917,0,0,0-.392,1.02l-.064.21c-.06.193-.12.388-.176.576-.074.249-.155.508-.24.77-.272.815-.506,1.648-.7,2.479s-.344,1.568-.449,2.168v.014l-.011.008q-.3.2-.584.407l-.475.33a1.97,1.97,0,0,0-.754.888.261.261,0,0,0,0,.228.2.2,0,0,0,.17.061,1.323,1.323,0,0,0,.427-.224,5.535,5.535,0,0,1,1.088-.617Z" fill="#fff"/>
    <path id="Tracé_596" data-name="Tracé 596" d="M128.475,56.6a2.814,2.814,0,0,1-1.3,1.56,4.055,4.055,0,0,1-2.115.588,3.415,3.415,0,0,1-2.507-.946,2.124,2.124,0,0,1-.5-2.34,2.51,2.51,0,0,1,.875-1.136,2.013,2.013,0,0,1,1.051-.548,3.159,3.159,0,0,1,.337-.021.9.9,0,0,1,.425.084c.1.055.12.163.073.316a.5.5,0,0,1-.352.348,2.022,2.022,0,0,1-.552.073,1,1,0,0,0-.613.27,1.237,1.237,0,0,0-.428.568,1.61,1.61,0,0,0,.36,1.494,2.46,2.46,0,0,0,2.114.946,2.947,2.947,0,0,0,1.5-.376,1.647,1.647,0,0,0,.814-.894c.075-.2-.028-.45-.312-.758a5.2,5.2,0,0,0-.975-.8,7.325,7.325,0,0,0-.7-.27c-.24-.1-.319-.248-.256-.444a.538.538,0,0,1,.21-.348,1.14,1.14,0,0,1,.48-.073,1.953,1.953,0,0,1,.683.283,4.722,4.722,0,0,1,.9.645,3.5,3.5,0,0,1,.72.777,1.2,1.2,0,0,1,.06.989" fill="#fff"/>
    <path id="Tracé_597" data-name="Tracé 597" d="M124.911,58.786a3.457,3.457,0,0,1-2.385-.959,2.146,2.146,0,0,1-.51-2.378,2.54,2.54,0,0,1,.886-1.15,2.024,2.024,0,0,1,1.067-.555c.157-.016.276-.021.385-.022a.938.938,0,0,1,.4.089c.08.045.157.141.092.356a.534.534,0,0,1-.375.371,2.036,2.036,0,0,1-.549.075h-.013a.96.96,0,0,0-.589.26,1.216,1.216,0,0,0-.421.554,1.565,1.565,0,0,0,.355,1.459,2.426,2.426,0,0,0,1.919.942,1.553,1.553,0,0,0,.167-.006h.052a2.938,2.938,0,0,0,1.431-.371,1.621,1.621,0,0,0,.8-.877c.069-.184-.034-.426-.305-.721a5.108,5.108,0,0,0-.97-.794,7.089,7.089,0,0,0-.688-.267c-.256-.108-.347-.271-.278-.488a.562.562,0,0,1,.223-.363l.007-.005a1.236,1.236,0,0,1,.5-.076,1.959,1.959,0,0,1,.7.29,4.777,4.777,0,0,1,.9.647,3.46,3.46,0,0,1,.724.784,1.233,1.233,0,0,1,.077,1.031,2.846,2.846,0,0,1-1.321,1.578,4.088,4.088,0,0,1-2.118.592h-.164m-.558-5a3.132,3.132,0,0,0-.375.022,1.976,1.976,0,0,0-1.031.539,2.465,2.465,0,0,0-.867,1.123,2.079,2.079,0,0,0,.493,2.3,3.4,3.4,0,0,0,2.339.939h.155a4.016,4.016,0,0,0,2.086-.583,2.78,2.78,0,0,0,1.29-1.541,1.162,1.162,0,0,0-.071-.972,3.41,3.41,0,0,0-.711-.767,4.713,4.713,0,0,0-.9-.641,1.9,1.9,0,0,0-.674-.28h-.064a1.1,1.1,0,0,0-.393.073.5.5,0,0,0-.192.321c-.06.187.015.315.234.407.235.078.47.169.7.271a5.236,5.236,0,0,1,.986.808c.3.321.4.58.319.792a1.679,1.679,0,0,1-.831.913,2.994,2.994,0,0,1-1.459.381h-.054c-.056,0-.113.006-.171.006a2.488,2.488,0,0,1-1.968-.965,1.636,1.636,0,0,1-.367-1.525,1.266,1.266,0,0,1,.442-.586,1.02,1.02,0,0,1,.63-.275h.012a1.964,1.964,0,0,0,.533-.073.462.462,0,0,0,.328-.325c.043-.14.025-.229-.056-.276a.877.877,0,0,0-.367-.081" fill="#fff"/>
    <path id="Tracé_598" data-name="Tracé 598" d="M138.823,58.32q-.143.443-1.207.442a.937.937,0,0,1-.869-.548c-.09-.18-.18-.36-.269-.547a8.9,8.9,0,0,1-.4-.822c-.12-.251-.229-.378-.347-.378a2.332,2.332,0,0,0-.937.42c-.205.127-.458.3-.757.5-.411.3-.81.593-1.213.886a2.757,2.757,0,0,1-1.426.569c-.569,0-.9-.5-.99-1.517a6.567,6.567,0,0,1,.3-2.63.915.915,0,0,1,.228-.328.692.692,0,0,1,.343-.2.2.2,0,0,1,.215.12,1.491,1.491,0,0,1-.074.737,6.058,6.058,0,0,0-.111,1.567q.033,1.242.5,1.242a1.446,1.446,0,0,0,.65-.231q.024-.024,1.29-.9,1.1-.781,1.35-.926a2.414,2.414,0,0,1,1.04-.465c.221,0,.45.288.676.864a4.2,4.2,0,0,0,.416.862c.148.3.257.506.334.63.141.24.278.36.4.36h.316a1.441,1.441,0,0,1,.443.051c.1.035.127.12.09.24" fill="#fff"/>
    <path id="Tracé_599" data-name="Tracé 599" d="M131.4,58.881c-.592,0-.936-.52-1.028-1.547a6.552,6.552,0,0,1,.3-2.645.957.957,0,0,1,.237-.342.7.7,0,0,1,.359-.208.232.232,0,0,1,.254.139,1.532,1.532,0,0,1-.074.762,6.123,6.123,0,0,0-.109,1.552c.023.8.18,1.211.47,1.211a1.446,1.446,0,0,0,.631-.226c.023-.024.909-.641,1.289-.9.762-.538,1.192-.832,1.352-.927a2.485,2.485,0,0,1,1.053-.47c.246,0,.482.3.712.886a4.255,4.255,0,0,0,.415.856c.144.288.255.505.333.63.133.225.263.345.377.345h.315a1.386,1.386,0,0,1,.453.052.2.2,0,0,1,.124.254.207.207,0,0,1-.015.034c-.1.308-.515.464-1.232.464h-.027a.967.967,0,0,1-.881-.568c-.087-.172-.179-.357-.267-.547a8.438,8.438,0,0,1-.4-.823c-.117-.242-.218-.357-.315-.357a2.344,2.344,0,0,0-.918.414c-.2.122-.443.287-.757.506q-.357.257-.706.516l-.507.37a2.778,2.778,0,0,1-1.442.574m-.088-4.678h-.027a.638.638,0,0,0-.323.191.843.843,0,0,0-.223.317,6.472,6.472,0,0,0-.3,2.614c.088.986.41,1.486.956,1.486a2.718,2.718,0,0,0,1.4-.561c.17-.123.338-.247.507-.37.234-.173.468-.345.708-.517.316-.221.563-.386.759-.507a2.407,2.407,0,0,1,.948-.425c.135,0,.252.123.383.4a9.013,9.013,0,0,0,.4.821c.089.189.181.375.268.548a.9.9,0,0,0,.82.529h.026c.684,0,1.077-.141,1.166-.418.046-.133-.012-.178-.066-.2a1.437,1.437,0,0,0-.428-.049h-.317c-.142,0-.288-.127-.436-.378-.078-.127-.191-.344-.334-.631a4.344,4.344,0,0,1-.419-.865c-.215-.551-.437-.843-.643-.843a2.416,2.416,0,0,0-1.019.458c-.161.1-.6.4-1.351.927-.918.639-1.267.885-1.288.9a1.508,1.508,0,0,1-.668.24c-.342,0-.518-.417-.541-1.275a6.119,6.119,0,0,1,.111-1.575,1.491,1.491,0,0,0,.074-.725.159.159,0,0,0-.148-.093" fill="#fff"/>
    <path id="Tracé_600" data-name="Tracé 600" d="M146.035,58.268a2.071,2.071,0,0,1-1.232,1.18,5,5,0,0,1-2.051.44,4.481,4.481,0,0,1-2.4-.568,1.226,1.226,0,0,1-.581-1.56,2.419,2.419,0,0,1,.3-.643.59.59,0,0,1,.45-.284c.2,0,.258.12.174.378-.075.2-.129.338-.155.421-.12.366.1.68.649.947a3.827,3.827,0,0,0,1.68.4,5.241,5.241,0,0,0,1.32-.147c.513-.143.81-.344.9-.612.109-.336-.151-.765-.785-1.283q-.54-.42-1.06-.864a4.331,4.331,0,0,1-1.043-1.452,2.874,2.874,0,0,1-.109-2.064,1.378,1.378,0,0,1,.7-.766,2.817,2.817,0,0,1,1.39-.305,1.188,1.188,0,0,1,.72.264.547.547,0,0,1,.23.661,1.754,1.754,0,0,1-.21.506.563.563,0,0,1-.284.042c-.128,0-.23-.09-.312-.273a.479.479,0,0,0-.487-.271,1.2,1.2,0,0,0-.81.295,2.112,2.112,0,0,0-.251.3,1.967,1.967,0,0,0,.293,1.1,4.5,4.5,0,0,0,.967,1.336q1.337,1.242,1.491,1.411a1.5,1.5,0,0,1,.5,1.41" fill="#fff"/>
    <path id="Tracé_601" data-name="Tracé 601" d="M142.542,59.927a4.491,4.491,0,0,1-2.207-.577,1.267,1.267,0,0,1-.6-1.6,2.328,2.328,0,0,1,.309-.648.62.62,0,0,1,.474-.3.241.241,0,0,1,.209.082.383.383,0,0,1,0,.34l-.047.123c-.051.136-.088.234-.107.3-.115.349.092.645.631.906a3.822,3.822,0,0,0,1.665.4h.084a5.286,5.286,0,0,0,1.228-.145c.5-.141.788-.334.875-.59.106-.322-.156-.742-.773-1.246-.38-.3-.727-.58-1.062-.864a4.342,4.342,0,0,1-1.052-1.464,2.917,2.917,0,0,1-.11-2.09,1.412,1.412,0,0,1,.719-.786,2.877,2.877,0,0,1,1.3-.31h.11a1.233,1.233,0,0,1,.74.271.576.576,0,0,1,.24.7,1.778,1.778,0,0,1-.212.514l-.006.009-.01.005a.653.653,0,0,1-.3.043c-.139,0-.251-.1-.338-.293a.447.447,0,0,0-.4-.254h-.062a1.19,1.19,0,0,0-.779.287,2.288,2.288,0,0,0-.239.281,1.926,1.926,0,0,0,.289,1.076,4.433,4.433,0,0,0,.961,1.329c.9.839,1.389,1.3,1.493,1.412a1.538,1.538,0,0,1,.507,1.44v.007a2.114,2.114,0,0,1-1.253,1.2,4.991,4.991,0,0,1-2.063.442h-.209m-2.016-3.06a.556.556,0,0,0-.421.268,2.364,2.364,0,0,0-.3.634,1.2,1.2,0,0,0,.564,1.521,4.445,4.445,0,0,0,2.176.569c.069,0,.138,0,.207-.005a4.921,4.921,0,0,0,2.038-.438,2.039,2.039,0,0,0,1.214-1.157,1.472,1.472,0,0,0-.488-1.376c-.1-.112-.591-.574-1.492-1.412a4.483,4.483,0,0,1-.974-1.346,1.984,1.984,0,0,1-.3-1.125v-.01l.006-.008a2.084,2.084,0,0,1,.255-.3,1.254,1.254,0,0,1,.82-.305h.069a.515.515,0,0,1,.463.294c.075.171.167.254.281.254a.563.563,0,0,0,.26-.034,1.738,1.738,0,0,0,.2-.489.511.511,0,0,0-.215-.623,1.177,1.177,0,0,0-.7-.259h-.108a2.8,2.8,0,0,0-1.266.3,1.343,1.343,0,0,0-.686.748,2.848,2.848,0,0,0,.109,2.039,4.239,4.239,0,0,0,1.035,1.44c.333.284.679.566,1.058.863.643.523.91.967.8,1.32-.1.28-.4.488-.924.634a5.28,5.28,0,0,1-1.245.149h-.084a3.871,3.871,0,0,1-1.7-.4c-.567-.275-.791-.606-.667-.988.021-.066.057-.164.11-.3l.046-.122c.043-.134.047-.228.01-.278a.18.18,0,0,0-.152-.054" fill="#fff"/>
    <path id="Tracé_602" data-name="Tracé 602" d="M161.983,59a.368.368,0,0,1-.4.253.721.721,0,0,1-.607-.36,2.686,2.686,0,0,1-.36-.947,8.85,8.85,0,0,1-.12-1.81c.011-.424.018-.694.024-.824a11.587,11.587,0,0,1-1.78,2.25,4.362,4.362,0,0,1-2.959,1.432,1.468,1.468,0,0,1-1.4-.6,1.858,1.858,0,0,1-.041-1.507,4.762,4.762,0,0,1,1.333-2,2.85,2.85,0,0,1,1.881-.906,1.817,1.817,0,0,1,1.3.462.874.874,0,0,1,.348.886q-.12.378-.332.378c-.261-.2-.524-.378-.783-.548a1.352,1.352,0,0,0-.735-.252,2.016,2.016,0,0,0-1.414.758,3.358,3.358,0,0,0-.8,1.22.839.839,0,0,0,.155.791.986.986,0,0,0,.855.39,3.58,3.58,0,0,0,2.406-1.285,19.031,19.031,0,0,0,2.147-2.843,15.214,15.214,0,0,0,.54-2.207q.2-1.161.388-2.34a2.4,2.4,0,0,1,.27-.622.434.434,0,0,1,.372-.18q.4,0,.057,1.748c-.12.588-.24,1.168-.343,1.746-.016.112-.09.5-.229,1.158a15.358,15.358,0,0,0-.276,1.68c-.045.454-.069.976-.077,1.566a5.541,5.541,0,0,0,.12,1.464,4.02,4.02,0,0,0,.326.649.546.546,0,0,1,.13.4" fill="#fff"/>
    <path id="Tracé_603" data-name="Tracé 603" d="M161.635,59.289h-.051a.745.745,0,0,1-.631-.376,2.737,2.737,0,0,1-.366-.959,8.929,8.929,0,0,1-.12-1.818c.007-.305.013-.539.019-.692a11.592,11.592,0,0,1-1.717,2.144,4.367,4.367,0,0,1-2.98,1.442,1.494,1.494,0,0,1-1.429-.614,1.888,1.888,0,0,1-.045-1.54,4.794,4.794,0,0,1,1.343-2.01,2.864,2.864,0,0,1,1.9-.914,1.816,1.816,0,0,1,1.329.47.91.91,0,0,1,.357.922c-.084.266-.207.4-.364.4h-.012l-.01-.007c-.232-.175-.487-.353-.78-.546a1.325,1.325,0,0,0-.718-.246,2,2,0,0,0-1.386.744,3.368,3.368,0,0,0-.794,1.212.8.8,0,0,0,.149.757.961.961,0,0,0,.763.381h.064a3.51,3.51,0,0,0,2.381-1.274,19.043,19.043,0,0,0,2.145-2.838,15.045,15.045,0,0,0,.535-2.195c.121-.714.249-1.479.388-2.34a2.539,2.539,0,0,1,.274-.633.47.47,0,0,1,.381-.2h.023a.185.185,0,0,1,.146.071c.151.184.133.746-.056,1.718l-.012.055c-.119.581-.232,1.13-.331,1.689-.017.123-.1.558-.23,1.159a15.344,15.344,0,0,0-.276,1.677c-.043.445-.069.955-.077,1.562a5.485,5.485,0,0,0,.121,1.457,4.021,4.021,0,0,0,.321.639.638.638,0,0,1,.128.425.4.4,0,0,1-.382.28m-1.068-4.113-.007.137c-.007.13-.014.41-.025.823a8.748,8.748,0,0,0,.12,1.8,2.646,2.646,0,0,0,.356.935.682.682,0,0,0,.579.344h.043a.332.332,0,0,0,.318-.232.562.562,0,0,0-.121-.369,4.039,4.039,0,0,1-.328-.654,5.561,5.561,0,0,1-.123-1.478c.008-.609.034-1.121.077-1.568a15.72,15.72,0,0,1,.277-1.684c.127-.6.212-1.032.229-1.155.1-.561.213-1.111.332-1.693l.011-.056c.183-.936.207-1.5.071-1.66a.117.117,0,0,0-.1-.046h-.019a.392.392,0,0,0-.325.167,2.415,2.415,0,0,0-.265.61c-.139.857-.266,1.623-.387,2.337a15.107,15.107,0,0,1-.541,2.211,19.118,19.118,0,0,1-2.154,2.856,3.588,3.588,0,0,1-2.428,1.3h-.069a1.024,1.024,0,0,1-.817-.406.872.872,0,0,1-.161-.823,3.438,3.438,0,0,1,.809-1.235,2.051,2.051,0,0,1,1.434-.766,1.382,1.382,0,0,1,.759.258c.289.189.542.366.773.541.12-.007.217-.127.288-.354a.846.846,0,0,0-.338-.851,1.763,1.763,0,0,0-1.185-.454h-.094a2.8,2.8,0,0,0-1.856.9,4.73,4.73,0,0,0-1.325,1.985,1.816,1.816,0,0,0,.038,1.481,1.44,1.44,0,0,0,1.364.581,4.3,4.3,0,0,0,2.938-1.422,11.535,11.535,0,0,0,1.777-2.244Z" fill="#fff"/>
    <path id="Tracé_604" data-name="Tracé 604" d="M171.679,57.863l-2.5.72a12.069,12.069,0,0,1-1.2.295,10.425,10.425,0,0,1-1.8.127,2.226,2.226,0,0,1-1.392-.378,2.714,2.714,0,0,1-.594-.8c-.2.112-.383.213-.552.3a4.32,4.32,0,0,1-.533.24c-.12.056-.2.024-.24-.094a.672.672,0,0,1,.022-.411c.042-.12.09-.2.155-.211.146-.055.295-.12.45-.188.456-.225.7-.344.72-.36a2.682,2.682,0,0,1,.057-.758,7.943,7.943,0,0,1,.24-.883,4.081,4.081,0,0,1,1.221-1.843,2.5,2.5,0,0,1,1.542-.745.917.917,0,0,1,.833.441,1.723,1.723,0,0,1,.02,1.431,3.869,3.869,0,0,1-1.44,1.62c-.338.252-.86.607-1.568,1.073a1.571,1.571,0,0,0,.5.547,1.675,1.675,0,0,0,.945.252,14.168,14.168,0,0,0,1.5-.053,9.523,9.523,0,0,0,1.36-.36c.641-.2,1.08-.34,1.311-.412a8.517,8.517,0,0,1,.878-.23.481.481,0,0,1,.421.042.23.23,0,0,1,.066.27.622.622,0,0,1-.429.36m-4.289-3.2a1.19,1.19,0,0,0,.012-.674c-.062-.17-.214-.254-.46-.254a1.406,1.406,0,0,0-.96.488,2.771,2.771,0,0,0-.693,1.113c-.082.252-.159.5-.228.72a1.451,1.451,0,0,0-.052.664,10.945,10.945,0,0,0,1.6-1.08,2.386,2.386,0,0,0,.781-.978" fill="#fff"/>
    <path id="Tracé_605" data-name="Tracé 605" d="M166.039,59.043a2.264,2.264,0,0,1-1.268-.388,2.705,2.705,0,0,1-.591-.781c-.187.106-.361.2-.52.288a4.624,4.624,0,0,1-.538.241.223.223,0,0,1-.182.016.2.2,0,0,1-.1-.132.712.712,0,0,1,.024-.433c.05-.143.1-.216.178-.232.15-.058.309-.127.444-.188l.033-.015c.355-.175.6-.3.665-.332a2.712,2.712,0,0,1,.061-.746,7.349,7.349,0,0,1,.239-.887,4.1,4.1,0,0,1,1.231-1.858,2.534,2.534,0,0,1,1.561-.753h.05a.947.947,0,0,1,.815.459,1.758,1.758,0,0,1,.023,1.461A3.906,3.906,0,0,1,166.71,56.4c-.32.239-.826.584-1.541,1.054a1.536,1.536,0,0,0,.474.508,1.638,1.638,0,0,0,.866.248h.3c.422,0,.845-.018,1.262-.054a9.748,9.748,0,0,0,1.354-.359c.47-.15.833-.263,1.083-.341l.228-.071c.294-.093.589-.17.88-.231a.526.526,0,0,1,.446.047.266.266,0,0,1,.08.313.665.665,0,0,1-.445.383l-2.5.721c-.392.118-.8.217-1.2.3a10.464,10.464,0,0,1-1.63.128h-.319m-1.828-1.264.015.033a2.669,2.669,0,0,0,.587.791,2.242,2.242,0,0,0,1.366.368h.176a10.35,10.35,0,0,0,1.621-.128,11.794,11.794,0,0,0,1.2-.294l2.5-.721a.6.6,0,0,0,.4-.344.2.2,0,0,0-.055-.23.454.454,0,0,0-.39-.038,8.835,8.835,0,0,0-.877.231l-.229.072c-.249.077-.611.19-1.081.341a10.075,10.075,0,0,1-1.367.361c-.5.043-1.012.058-1.507.053h-.061a1.7,1.7,0,0,1-.9-.258,1.624,1.624,0,0,1-.514-.56l-.016-.028.027-.017c.729-.478,1.241-.828,1.568-1.071a3.844,3.844,0,0,0,1.43-1.609,1.682,1.682,0,0,0-.021-1.4.877.877,0,0,0-.754-.424h-.045a2.457,2.457,0,0,0-1.52.735,4.012,4.012,0,0,0-1.212,1.829,7.234,7.234,0,0,0-.238.88,2.62,2.62,0,0,0-.058.749v.017l-.014.012c-.024.019-.186.1-.692.347l-.034.016c-.137.063-.3.132-.453.19-.051.013-.093.075-.134.191a.641.641,0,0,0-.022.392.135.135,0,0,0,.065.088.169.169,0,0,0,.128-.017,4.511,4.511,0,0,0,.531-.239l.552-.3Zm.775-1-.007-.05a1.516,1.516,0,0,1,.053-.679l.024-.073c.063-.2.132-.422.2-.647a2.807,2.807,0,0,1,.7-1.127,1.441,1.441,0,0,1,.981-.5.465.465,0,0,1,.494.275,1.21,1.21,0,0,1-.012.7,2.423,2.423,0,0,1-.793.991,11.017,11.017,0,0,1-1.6,1.083Zm1.961-3a1.373,1.373,0,0,0-.934.476,2.747,2.747,0,0,0-.687,1.1c-.074.225-.141.443-.206.647l-.022.073a1.452,1.452,0,0,0-.058.6,10.95,10.95,0,0,0,1.552-1.054,2.347,2.347,0,0,0,.771-.962,1.162,1.162,0,0,0,0-.656c-.058-.153-.2-.229-.428-.229" fill="#fff"/>
    <path id="Tracé_606" data-name="Tracé 606" d="M185.875,58.08a1.491,1.491,0,0,1-.071.27.382.382,0,0,1-.434.316c-.09-.014-.165-.135-.232-.36s-.128-.455-.192-.692a1.554,1.554,0,0,0-.319-.517.585.585,0,0,0-.424-.2,1.321,1.321,0,0,0-.68.27l-.84.653c-.408.32-.694.54-.858.651a1.727,1.727,0,0,1-.889.317q-.437,0-.783-1.08-.09-.27-.36-1.2a4.757,4.757,0,0,0-.424-1.053.756.756,0,0,0-.63-.462,2.176,2.176,0,0,0-1.148.524,14.008,14.008,0,0,0-1.3,1.159q-1.122,1.137-1.448,1.39a2.38,2.38,0,0,1-1.44.63q-.728,0-.79-1.579a7.742,7.742,0,0,1,.379-2.715l.12-.36a2.607,2.607,0,0,1,.284-.63.473.473,0,0,1,.415-.231c.15,0,.219.136.207.41a3.791,3.791,0,0,1-.192.936,6.6,6.6,0,0,0-.34,2c0,.661.12.99.375.99a1.761,1.761,0,0,0,1.1-.548q.12-.105,1.133-1.177A7.5,7.5,0,0,1,177.5,54.58a3.234,3.234,0,0,1,1.746-.548,1.1,1.1,0,0,1,.9.548,5.307,5.307,0,0,1,.54,1.221c.129.419.264.827.4,1.221s.283.589.434.589a1.349,1.349,0,0,0,.618-.3q.573-.42.868-.628a7.946,7.946,0,0,1,.75-.48,1.636,1.636,0,0,1,.773-.232,1.261,1.261,0,0,1,1.065.8,1.863,1.863,0,0,1,.275,1.307" fill="#fff"/>
    <path id="Tracé_607" data-name="Tracé 607" d="M180.938,58.824c-.313,0-.58-.361-.818-1.1-.056-.171-.167-.542-.359-1.2a4.755,4.755,0,0,0-.423-1.047.718.718,0,0,0-.6-.444,2.129,2.129,0,0,0-1.121.517,13.73,13.73,0,0,0-1.3,1.158c-.744.752-1.233,1.221-1.451,1.391a2.414,2.414,0,0,1-1.459.637c-.507,0-.785-.541-.827-1.611a7.788,7.788,0,0,1,.381-2.727l.12-.36a2.668,2.668,0,0,1,.288-.637.5.5,0,0,1,.435-.248.209.209,0,0,1,.162.062.509.509,0,0,1,.087.384,3.769,3.769,0,0,1-.192.945,6.559,6.559,0,0,0-.339,1.989c0,.642.112.955.34.955a1.72,1.72,0,0,0,1.078-.537c.081-.07.451-.454,1.133-1.177a7.6,7.6,0,0,1,1.413-1.217A3.258,3.258,0,0,1,179.248,54a1.122,1.122,0,0,1,.93.564,5.271,5.271,0,0,1,.543,1.229c.128.414.263.824.4,1.219.132.375.268.566.4.566a1.316,1.316,0,0,0,.6-.288c.407-.3.678-.5.869-.631a8.608,8.608,0,0,1,.754-.483,1.716,1.716,0,0,1,.789-.234,1.3,1.3,0,0,1,1.1.82,1.889,1.889,0,0,1,.277,1.326,1.528,1.528,0,0,1-.073.275.413.413,0,0,1-.473.337c-.1-.015-.185-.137-.258-.384-.064-.213-.121-.428-.182-.654l-.01-.037a1.526,1.526,0,0,0-.31-.5.563.563,0,0,0-.4-.189,1.3,1.3,0,0,0-.659.264l-.839.653c-.45.352-.706.548-.859.652a1.778,1.778,0,0,1-.907.323m-2.2-3.864a.789.789,0,0,1,.666.483,4.746,4.746,0,0,1,.426,1.057c.192.658.3,1.028.36,1.2.224.7.477,1.057.75,1.057a1.7,1.7,0,0,0,.869-.311c.152-.1.408-.3.857-.65l.839-.653a1.368,1.368,0,0,1,.7-.278.628.628,0,0,1,.453.211,1.591,1.591,0,0,1,.325.528l.011.041c.06.226.118.439.182.652.079.264.154.328.2.335a.247.247,0,0,0,.054,0,.349.349,0,0,0,.342-.292,1.46,1.46,0,0,0,.071-.269,1.821,1.821,0,0,0-.27-1.282,1.232,1.232,0,0,0-1.039-.784,1.64,1.64,0,0,0-.753.226,8.109,8.109,0,0,0-.748.479c-.191.135-.463.333-.867.628a1.364,1.364,0,0,1-.632.3c-.174,0-.327-.2-.472-.611s-.276-.807-.4-1.222a5.228,5.228,0,0,0-.537-1.214,1.055,1.055,0,0,0-.872-.531,3.208,3.208,0,0,0-1.726.541,7.534,7.534,0,0,0-1.4,1.207c-.694.735-1.055,1.11-1.137,1.181a1.794,1.794,0,0,1-1.121.555c-.278,0-.412-.335-.412-1.023a6.669,6.669,0,0,1,.341-2.01,3.726,3.726,0,0,0,.19-.928.465.465,0,0,0-.068-.333.14.14,0,0,0-.113-.041.439.439,0,0,0-.377.215,2.68,2.68,0,0,0-.281.622l-.119.361a7.705,7.705,0,0,0-.379,2.7c.041,1.026.3,1.546.757,1.546a2.35,2.35,0,0,0,1.417-.621c.219-.171.7-.637,1.446-1.389a14.031,14.031,0,0,1,1.3-1.161,2.2,2.2,0,0,1,1.164-.532" fill="#fff"/>
    <path id="Tracé_608" data-name="Tracé 608" d="M193.088,59.23a.443.443,0,0,1-.288.275,1.849,1.849,0,0,1-.6.084q-.45,0-.625-.76c-.052-.27-.1-.533-.156-.8a3.761,3.761,0,0,1-.12-.443c-.09-.265-.205-.4-.36-.4a1.294,1.294,0,0,0-.5.253c-.252.168-.489.33-.72.48-.211.12-.36.215-.45.269a1.993,1.993,0,0,1-.933.294,1.3,1.3,0,0,1-1.329-.736,1.349,1.349,0,0,1-.066-.968,3.886,3.886,0,0,1,1.69-2.084A3.616,3.616,0,0,1,190.494,54a.986.986,0,0,1,.752.314.606.606,0,0,1,.2.611c-.066.2-.12.308-.18.337a.737.737,0,0,1-.291.041c-.091,0-.187-.068-.281-.21a.494.494,0,0,0-.437-.211,2.529,2.529,0,0,0-1.44.54,2.445,2.445,0,0,0-.971,1.213.958.958,0,0,0-.021.653.681.681,0,0,0,.707.4,1.341,1.341,0,0,0,.6-.188,4.988,4.988,0,0,0,.6-.36c.345-.24.591-.4.734-.48a1.292,1.292,0,0,1,.641-.253,1.031,1.031,0,0,1,.54.136,1.19,1.19,0,0,1,.4.6,3.9,3.9,0,0,1,.21,1.116c.042.408.12.61.24.61.467,0,.66.12.581.36" fill="#fff"/>
    <path id="Tracé_609" data-name="Tracé 609" d="M192.255,59.624H192.2c-.317,0-.537-.264-.656-.785l-.046-.233c-.036-.194-.072-.378-.113-.566a3.963,3.963,0,0,1-.119-.443c-.086-.25-.192-.374-.326-.374a1.282,1.282,0,0,0-.48.246l-.276.184c-.153.1-.3.2-.447.3s-.276.161-.364.215l-.088.054a2.031,2.031,0,0,1-.948.3,1.412,1.412,0,0,1-.159.009,1.324,1.324,0,0,1-1.2-.765,1.38,1.38,0,0,1-.068-.993,3.916,3.916,0,0,1,1.705-2.1,3.627,3.627,0,0,1,1.879-.7h.03a1.024,1.024,0,0,1,.75.324.643.643,0,0,1,.208.644c-.076.228-.131.328-.2.358a.752.752,0,0,1-.261.046h-.046a.408.408,0,0,1-.307-.225.461.461,0,0,0-.376-.2h-.039a2.478,2.478,0,0,0-1.421.533,2.417,2.417,0,0,0-.96,1.2.916.916,0,0,0-.02.63.639.639,0,0,0,.587.38.564.564,0,0,0,.082,0,1.343,1.343,0,0,0,.587-.184,4.975,4.975,0,0,0,.6-.358c.342-.237.59-.4.737-.482a1.334,1.334,0,0,1,.654-.258h.028a1.051,1.051,0,0,1,.533.142,1.218,1.218,0,0,1,.421.62,3.914,3.914,0,0,1,.211,1.124c.049.477.14.578.206.578.32,0,.515.056.6.167a.253.253,0,0,1,.023.237.476.476,0,0,1-.312.3,1.816,1.816,0,0,1-.557.087m-1.32-2.469c.175,0,.3.138.4.423a3.76,3.76,0,0,0,.119.443c.041.192.076.376.114.571l.044.231c.112.485.31.732.591.732a1.865,1.865,0,0,0,.589-.083.4.4,0,0,0,.266-.252.189.189,0,0,0-.012-.176c-.066-.09-.249-.138-.541-.139-.141,0-.229-.2-.274-.641a3.8,3.8,0,0,0-.209-1.108,1.148,1.148,0,0,0-.393-.585,1.007,1.007,0,0,0-.494-.13h-.024a1.3,1.3,0,0,0-.622.246c-.147.084-.4.249-.734.482a5.2,5.2,0,0,1-.6.362,1.382,1.382,0,0,1-.613.192.68.68,0,0,1-.09.006.711.711,0,0,1-.65-.424.994.994,0,0,1,.021-.68A2.487,2.487,0,0,1,188.8,55.4a2.548,2.548,0,0,1,1.458-.545h.034a.529.529,0,0,1,.432.226c.085.128.172.2.253.2a.678.678,0,0,0,.279-.04c.057-.026.115-.182.16-.314a.58.58,0,0,0-.19-.576.963.963,0,0,0-.7-.305H190.5a3.591,3.591,0,0,0-1.846.686,3.865,3.865,0,0,0-1.677,2.068,1.314,1.314,0,0,0,.064.943,1.261,1.261,0,0,0,1.142.725,1.279,1.279,0,0,0,.152-.009,1.968,1.968,0,0,0,.919-.29l.088-.052c.088-.055.21-.129.363-.216l.446-.3c.089-.06.18-.122.273-.183a1.3,1.3,0,0,1,.512-.258Z" fill="#fff"/>
    <path id="Tracé_610" data-name="Tracé 610" d="M195.6,58.034a1.014,1.014,0,0,1-.232.439.478.478,0,0,1-.33.1c-.254,0-.388-.32-.4-.966a5.425,5.425,0,0,1,.24-1.767c.05-.16.115-.35.193-.57a.57.57,0,0,1,.333-.4q.18-.043.24.159a2.1,2.1,0,0,1-.062.745,4.711,4.711,0,0,0-.032,1.357,5.415,5.415,0,0,1,.048.9m1.08-7.284c-.012.042-.065.071-.156.084a1.663,1.663,0,0,1-.173.019c-.185.029-.36-.09-.519-.36a.7.7,0,0,1-.09-.72.649.649,0,0,1,.166-.219.484.484,0,0,1,.221-.12c.172-.028.341.19.5.654a1.045,1.045,0,0,1,.048.651" fill="#fff"/>
    <path id="Tracé_611" data-name="Tracé 611" d="M195.065,58.612h-.033c-.276,0-.421-.336-.431-1a5.435,5.435,0,0,1,.242-1.778c.023-.073.051-.152.081-.239s.072-.211.111-.331a.6.6,0,0,1,.353-.419.222.222,0,0,1,.278.146.187.187,0,0,1,.008.034,2.089,2.089,0,0,1-.06.763,4.623,4.623,0,0,0-.033,1.344,5.639,5.639,0,0,1,.048.9v.007a1.063,1.063,0,0,1-.24.453.509.509,0,0,1-.323.118m.4-3.711a.222.222,0,0,0-.051.006.529.529,0,0,0-.308.373c-.04.124-.078.234-.113.335l-.08.238a5.382,5.382,0,0,0-.239,1.756c.01.619.132.934.365.934h.03a.428.428,0,0,0,.276-.1.99.99,0,0,0,.221-.417,5.49,5.49,0,0,0-.048-.888,4.753,4.753,0,0,1,.034-1.368,2.031,2.031,0,0,0,.06-.736c-.026-.09-.074-.135-.147-.135m.828-4.011c-.176,0-.341-.128-.49-.381a.736.736,0,0,1-.093-.751.7.7,0,0,1,.176-.232.522.522,0,0,1,.236-.126h.037c.181,0,.346.223.5.679a1.1,1.1,0,0,1,.055.675v.007l-.007.009c-.022.053-.083.087-.184.1a1.711,1.711,0,0,1-.174.018.3.3,0,0,1-.06.005m-.135-1.426h-.022a.453.453,0,0,0-.2.11.626.626,0,0,0-.158.21.669.669,0,0,0,.085.685c.138.234.284.35.437.35h.048a1.051,1.051,0,0,0,.173-.019c.075-.011.121-.032.131-.061l.007-.012a1.021,1.021,0,0,0-.055-.627c-.146-.417-.3-.635-.442-.635" fill="#fff"/>
    <path id="Tracé_612" data-name="Tracé 612" d="M206.035,58.32q-.141.441-1.2.442a.93.93,0,0,1-.868-.548c-.09-.18-.18-.36-.27-.547-.06-.1-.192-.371-.394-.822-.12-.251-.232-.378-.346-.378a2.354,2.354,0,0,0-.941.42c-.2.127-.455.3-.755.5-.41.3-.814.593-1.21.886a2.756,2.756,0,0,1-1.426.569c-.566,0-.9-.5-.99-1.517a6.549,6.549,0,0,1,.3-2.63.931.931,0,0,1,.229-.328.681.681,0,0,1,.343-.2.2.2,0,0,1,.216.12,1.527,1.527,0,0,1-.075.737,6.1,6.1,0,0,0-.109,1.567c.02.828.184,1.242.5,1.242a1.453,1.453,0,0,0,.652-.231q.024-.024,1.289-.9,1.1-.781,1.35-.926a2.406,2.406,0,0,1,1.041-.465c.219,0,.443.288.677.864a4.291,4.291,0,0,0,.412.862c.15.3.259.506.337.63.14.24.277.36.4.36h.315a1.444,1.444,0,0,1,.444.051c.1.035.128.12.086.24" fill="#fff"/>
    <path id="Tracé_613" data-name="Tracé 613" d="M198.629,58.881c-.592,0-.936-.52-1.028-1.547a6.534,6.534,0,0,1,.3-2.645.987.987,0,0,1,.238-.341.688.688,0,0,1,.359-.209h.041a.228.228,0,0,1,.214.143,1.58,1.58,0,0,1-.075.762,6.121,6.121,0,0,0-.106,1.552c.02.8.177,1.211.467,1.211a1.425,1.425,0,0,0,.633-.226c.013-.014.448-.32,1.288-.9.76-.538,1.191-.832,1.352-.927a2.427,2.427,0,0,1,1.053-.47c.241,0,.472.291.714.886a4.377,4.377,0,0,0,.409.857c.143.28.257.5.338.628.132.226.261.346.375.346h.314a1.365,1.365,0,0,1,.454.052.208.208,0,0,1,.107.274l-.007.014c-.1.308-.515.464-1.233.464h-.021a.964.964,0,0,1-.879-.568l-.037-.076c-.077-.154-.154-.309-.231-.47-.062-.1-.2-.386-.4-.822-.113-.238-.219-.359-.314-.359a2.288,2.288,0,0,0-.921.414c-.19.119-.431.28-.755.506-.422.3-.831.6-1.211.885a2.768,2.768,0,0,1-1.441.575m-.088-4.678a.131.131,0,0,0-.028,0,.643.643,0,0,0-.325.191.935.935,0,0,0-.221.317,6.435,6.435,0,0,0-.3,2.614c.088.986.41,1.486.956,1.486a2.71,2.71,0,0,0,1.4-.561c.38-.281.79-.583,1.212-.887.327-.228.567-.388.757-.507a2.389,2.389,0,0,1,.952-.425c.133,0,.253.127.382.4.193.429.333.72.394.819.078.163.155.319.232.473l.038.077a.9.9,0,0,0,.817.529h.02c.687,0,1.079-.141,1.168-.418.035-.1.017-.165-.057-.2a1.546,1.546,0,0,0-.428-.048h-.315c-.141,0-.287-.127-.434-.378-.082-.127-.2-.351-.338-.631a4.27,4.27,0,0,1-.414-.865c-.226-.559-.444-.843-.645-.843a2.392,2.392,0,0,0-1.019.458c-.162.1-.6.4-1.351.927-1.153.8-1.276.893-1.286.9a1.47,1.47,0,0,1-.671.241c-.344,0-.519-.417-.539-1.275a6.118,6.118,0,0,1,.109-1.575,1.528,1.528,0,0,0,.075-.725.162.162,0,0,0-.148-.093" fill="#fff"/>
    <path id="Tracé_614" data-name="Tracé 614" d="M80.947,58.06a2.094,2.094,0,0,1-.382.788.639.639,0,0,1-.5.167c-.38-.015-.568-.615-.51-1.789a37.028,37.028,0,0,1,1.419-8.82c.09-.278.2-.618.335-1.021s.313-.637.529-.7c.186-.046.3.054.338.3a4.837,4.837,0,0,1-.155,1.35,41.206,41.206,0,0,0-1.066,8.087c-.047.99.026,1.53,0,1.632" fill="#fff"/>
    <path id="Tracé_615" data-name="Tracé 615" d="M80.133,59.074a.49.49,0,0,1-.077-.005.391.391,0,0,1-.282-.138,2.629,2.629,0,0,1-.276-1.707A37.1,37.1,0,0,1,80.92,48.39l.054-.166c.079-.245.171-.53.282-.857.141-.42.331-.668.566-.739a.3.3,0,0,1,.248.03.433.433,0,0,1,.16.318,4.886,4.886,0,0,1-.156,1.372,41.237,41.237,0,0,0-1.066,8.076,12.992,12.992,0,0,0,0,1.32,1.509,1.509,0,0,1,0,.329,2.135,2.135,0,0,1-.391.809.69.69,0,0,1-.477.192m1.787-12.348a.407.407,0,0,0-.069.009c-.195.06-.36.285-.49.667-.11.327-.2.612-.281.856l-.053.165a36.954,36.954,0,0,0-1.417,8.805c-.051,1.066.106,1.473.247,1.628a.286.286,0,0,0,.207.1.563.563,0,0,0,.464-.151,2.064,2.064,0,0,0,.365-.761,1.8,1.8,0,0,0,0-.294c-.01-.268-.027-.714,0-1.329a41.407,41.407,0,0,1,1.07-8.1,4.705,4.705,0,0,0,.153-1.336.334.334,0,0,0-.111-.234.153.153,0,0,0-.088-.025" fill="#fff"/>
    <path id="Tracé_616" data-name="Tracé 616" d="M128.387,3.635l-4.637,6.41h5.535l6.818-6.41Z" fill="#fff"/>
    <rect id="Rectangle_5906" data-name="Rectangle 5906" width="5.189" height="25.866" transform="translate(54.342 14.44)" fill="#fff"/>
    <path id="Tracé_617" data-name="Tracé 617" d="M85.2,40.812l-16.036-17.2v16.7H64.212v-26.1h2.3l16.035,16.74V14.44H87.5V40.81Z" fill="#fff"/>
    <path id="Tracé_618" data-name="Tracé 618" d="M104.239,40.816A13.11,13.11,0,0,1,90.7,28.146c-.009-.276-.01-.553,0-.83,0-7.65,5.891-13.381,14.083-13.381a16.621,16.621,0,0,1,8.779,2.385l-2.419,4.32a11.149,11.149,0,0,0-6.437-2.028A8.332,8.332,0,0,0,96.043,26.6v0c-.011.255-.009.51,0,.764,0,5.229,3.278,8.778,8.388,8.778a12.661,12.661,0,0,0,4.994-1.014v-4.34h-7.258l2.651-4.56h9.793V38.16a21.074,21.074,0,0,1-10.376,2.656" fill="#fff"/>
    <path id="Tracé_619" data-name="Tracé 619" d="M118.987,40.307V14.44h17.208l-2.652,4.526h-9.36v5.892h8.5v4.524h-8.5v6.4h9.707l2.61,4.526Z" fill="#fff"/>
    <path id="Tracé_620" data-name="Tracé 620" d="M153.2,40.307l-6.12-9.36h-3v9.36h-5.186V14.441h7.763c6.9,0,10.22,3.16,10.22,8.116a7.574,7.574,0,0,1-4.837,7.372l7.02,10.378Zm-7.02-21.42h-2.106v7.68h1.483c4.018,0,6.047-.976,6.047-3.823,0-2.5-1.288-3.863-5.423-3.863" fill="#fff"/>
    <path id="Tracé_621" data-name="Tracé 621" d="M173.1,40.817a13.376,13.376,0,1,1,.4,0Zm0-22.2c-5.071,0-8.31,3.9-8.31,8.74,0,4.875,3.24,8.776,8.31,8.776s8.31-3.9,8.31-8.776c0-4.839-3.24-8.74-8.31-8.74" fill="#fff"/>
    <path id="Tracé_622" data-name="Tracé 622" d="M197.214,31.021h-2.07v9.285h-5.189V14.441h7.959c6.515,0,10.339,2.69,10.339,8.27,0,6.4-5.424,8.31-11.04,8.31m-.158-12.055h-1.91v7.608h1.6c3.55,0,6.165-.623,6.165-3.823,0-3.045-2.07-3.785-5.85-3.785" fill="#fff"/>
  </g>
</svg>