<svg version="1.1" id="Calque_1" xmlns="http://www.w3.org/2000/svg" xmlns:xlink="http://www.w3.org/1999/xlink" x="0px" y="0px"
	 viewBox="0 0 208.3 59.9" style="enable-background:new 0 0 208.3 59.9;" xml:space="preserve">
<style type="text/css">
	.st0e{fill:#FFFFFF;}
</style>
<title>Logo Ingérop</title>
<g id="logo">
	<path class="st0e" d="M17,14.2C14.6,5.4,19.2,0,19.2,0s-8.6,6.9-7.4,17C13.5,16,15.3,15,17,14.2"/>
	<path class="st0e" d="M21,22.4c-1.9,1.1-3.7,2.4-5.5,3.7c6.6,9.5,23.2,20.6,59.8,31.2C42.8,44.2,27.7,32.1,21,22.4"/>
	<path class="st0e" d="M70.7,4.1C-12,20.4,4.8,49.7,4.8,49.7S-26.5,13,70.7,4.1"/>
	<g>
		<path class="st0e" d="M91.4,58c-0.2-0.1-0.5,0-0.8-0.1c-0.8-0.3-1-2.6-1.8-2.7c-1,0.2-2.7,1.7-3.7,2.3c-1.8,1.1-0.9-2.4-0.9-3.3
			c-1.4-0.9-1.7,5-0.1,4.6l0,0c1.7-0.2,2.7-2,4.3-2.4c0.7,0.5,0.7,2.3,1.9,2.3C91,58.8,91.8,58.5,91.4,58z"/>
		<polygon class="st0e" points="94.1,59.7 94.1,59.7 94.1,59.7 		"/>
		<path class="st0e" d="M97,53.6c-1-0.2-0.8,1.2-0.9,1.9c0,0.9-0.5,1.7-0.9,2.4c-0.7,1-0.8,1.2-1.1,0.1c-0.5-1.4-0.2-2.8,0-4.2
			c-1.3-1-1.4,2.6-1.2,3.4C93.6,63.7,98.2,55.9,97,53.6z"/>
		<path class="st0e" d="M114.8,58.1c-0.2-0.1-0.5,0-0.8-0.1c-0.8-0.3-1-2.6-1.8-2.7c-3,0.9-5.5,5.7-4.6-1c0-0.1-0.2-0.2-0.3-0.1
			c-1,0.5-0.9,2-0.9,3c-1.6,0.3-3.2,1.2-4.9,1.1c-0.6,0.1-1.3-0.2-1.7-0.8c1.6-1.1,3.7-2.1,3-4.2c-0.2-0.3-0.5-0.5-0.8-0.5
			c-2,0.2-3.2,2.4-3.2,4.2c-0.1,0.1-0.9,0.4-1.1,0.5c-0.2,0.1-0.3,0.6-0.1,0.8c0.5,0,0.8-0.3,1.2-0.5c0.3,0.7,1.1,1.2,1.9,1.2l0,0
			c1.8,0.1,4-0.7,5.7-1.2c0.2,0.7,0.5,1,0.9,1l0,0c1.7-0.2,2.7-2,4.3-2.4c0.1,0,0.2,0.1,0.3,0.4c0.4,0.8,0.4,0.8,0.7,1.4
			c0.3,0.8,2,0.6,2.1,0.1C114.9,58.2,114.9,58.1,114.8,58.1z M99.8,56.1c0.3-0.9,0.7-2.2,1.8-2.3v0c0.5,0,0.5,0.5,0.4,0.9
			c-0.4,1-1.5,1.5-2.3,2C99.7,56.5,99.7,56.3,99.8,56.1z"/>
		<path class="st0e" d="M121,53.3c-1-0.4-2-0.3-2.9-0.1c0.3-2,1.1-4.6,1.6-6.4c0.3-0.8-0.1-1.3-0.5-0.6c-0.9,2.2-1.6,4.9-2,7.2
			c-0.6,0.5-1.9,1-1.8,1.9c0.1,0.1,0.1,0.1,0.2,0.1c0.5-0.2,0.9-0.6,1.5-0.8c-0.1,1.2-0.7,4.2,0.5,4.4l0,0c0.5,0.1,1.3-0.5,0.6-0.9
			c-0.1-0.1-0.2-0.2-0.3-0.3c-0.2-1.2,0-2.4,0.1-3.6c0.4,0,0.8-0.2,1.3-0.3c0.2,0,1.3,0.3,1.8,0.3C121.6,54.3,121.9,53.5,121,53.3z"
			/>
		<path class="st0e" d="M127.7,54.8c-0.6-0.5-1.3-1.1-2.1-0.9c-0.3,0.2-0.4,0.7,0,0.9c0.7,0.2,1.2,0.6,1.7,1.1c1.1,1.3-1.2,2.1-2.1,2
			c-1.7,0.2-3.5-2.6-1.3-3.2c0.7,0.1,1.5-0.8,0.4-0.9c-1,0-2,0.8-2.3,1.7c-0.8,1.8,1.2,3.4,2.9,3.3l0,0
			C126.9,59.1,130.1,56.5,127.7,54.8z"/>
		<path class="st0e" d="M138.7,58c-0.2-0.1-0.5,0-0.8-0.1c-0.8-0.3-1-2.5-1.8-2.7c-1,0.2-2.7,1.7-3.7,2.3c-1.8,1.1-0.9-2.4-0.9-3.3
			c-1.4-0.9-1.7,5-0.1,4.6l0,0c1.7-0.2,2.7-2,4.3-2.4c0.7,0.5,0.7,2.3,1.9,2.3c0.7,0,1.2-0.2,1.3-0.5
			C138.9,58.2,138.9,58.1,138.7,58z"/>
		<path class="st0e" d="M144.1,55.4c-0.6-0.6-1.2-1.5-1.2-2.4c0.3-0.5,1.1-0.9,1.5-0.3c0.1,0.3,0.4,0.3,0.6,0.2
			c1-1.5-1.2-1.8-2.2-1.2c-1.6,1-0.7,3.4,0.4,4.3c0.9,0.7,3.1,2.2,1,2.7c-1,0.3-4.2,0.1-3.5-1.5c0.1-0.1,0.1-0.3,0-0.5
			c-0.5-0.3-0.9,0.5-1,0.9c-0.7,2.9,5.7,2.7,6.3,0.5v0C146.1,56.7,145.5,56.9,144.1,55.4z"/>
		<path class="st0e" d="M162.3,48.6c-0.2,0-0.3,0.1-0.4,0.2c-0.7,1.7-0.5,3.5-1.2,5.2c-1.2,1.6-2.3,3.9-4.5,4.1c-0.6,0-1.2-0.5-1-1.1
			c0.7-1.7,2.2-2.7,3.7-1.2c1.1-0.6-0.3-2-1.3-1.8c-1.9,0.2-3.9,2.6-3.2,4.5c2.1,2,5-1.1,6.1-3c0,1.1-0.3,3.6,1.1,3.8v0
			c0.2,0,0.3-0.1,0.4-0.3c0-0.4-0.3-0.7-0.4-1.1c-0.4-2.6,0.4-5.1,0.8-7.5C162.5,49.4,162.7,48.7,162.3,48.6z"/>
		<path class="st0e" d="M171.6,57.2c-1.5,0.3-3.1,1.2-4.8,1.1c-0.6,0.1-1.3-0.2-1.6-0.8c1.6-1.1,3.7-2,3-4.2
			c-0.2-0.3-0.5-0.5-0.8-0.5c-2,0.2-3.1,2.4-3.1,4.2c-0.1,0.1-0.8,0.4-1.1,0.5c-0.2,0.1-0.3,0.6-0.1,0.8c0.5,0,0.8-0.3,1.2-0.5
			c0.3,0.7,1.1,1.2,1.9,1.2l0,0c1.8,0.1,4-0.7,5.6-1.1C172.3,57.8,172.3,57,171.6,57.2z M165.1,56.1c0.3-0.9,0.7-2.2,1.8-2.3l0,0
			c0.2,0,0.4,0.1,0.4,0.2c0.3,1.3-1.4,2-2.3,2.7C165,56.5,165,56.3,165.1,56.1z"/>
		<path class="st0e" d="M184.5,55.9c-1.2,0.1-1.8,1.2-3,1.6c-0.7-0.6-0.7-2.2-1.3-3c-1.1-1.5-3.2,0.2-4.1,1.2c-1,1.1-2.6,2.8-2.6,0.8
			c-0.1-1.1,0.7-2.2,0.4-3.3c-0.5-0.3-0.8,0.5-0.9,0.8c-0.7,1.7-1.1,6.4,1.8,4.1c0.8-0.6,2.5-2.9,3.9-3.1c1.4,0.4,1,3.6,2.2,3.8l0,0
			c1.5,0,3.6-3.8,4.2-0.5c0.1,0.6,0.6,0.5,0.7,0c0.2-0.5,0.1-1.1-0.2-1.6C185.5,56.3,185,56,184.5,55.9z"/>
		<path class="st0e" d="M192.5,58.8c-0.3-0.1-0.2-1.3-0.4-1.7c-0.6-1.6-2-0.2-3,0.3c-1.9,0.8-1.4-1.4-0.3-2c0.5-0.3,1.3-0.8,1.8-0.3
			c0.2,0.3,0.7,0.3,0.8-0.2c0.1-0.5-0.5-1-1-1c-1.7,0.1-4.1,1.9-3.5,3.8c0.4,0.9,1.6,0.9,2.3,0.5c0.5-0.3,1.1-0.8,1.7-1
			c0.8,0.3,0.3,2.4,1.3,2.4l0,0C193,59.7,193.7,58.8,192.5,58.8z"/>
		<path class="st0e" d="M196.2,49.4L196.2,49.4c-0.8,0.2-0.5,1.4,0.1,1.5l0,0c0.1,0,0.4,0,0.4-0.1l0,0v0
			C196.9,50.3,196.5,49.4,196.2,49.4z"/>
		<path class="st0e" d="M195.7,55C195.7,55,195.7,55,195.7,55C195.7,55,195.7,55,195.7,55c-0.9-1-1.6,3.8-0.6,3.6l0,0
			c0.3,0,0.5-0.3,0.6-0.6C195.5,57,195.6,56,195.7,55z"/>
		<path class="st0e" d="M206,58.1c-0.2-0.1-0.5,0-0.8-0.1c-0.8-0.3-1-2.6-1.8-2.7c-0.8,0.1-3.1,1.9-3.7,2.3c-1.8,1.1-0.9-2.4-0.9-3.3
			c0-0.1-0.1-0.2-0.3-0.1c-1.3,0.4-1.3,4.8,0.1,4.7l0,0c1.7-0.2,2.7-2,4.3-2.4c0.8,0.6,0.7,2.3,1.9,2.3
			C205.6,58.8,206.4,58.5,206,58.1z"/>
		<path class="st0e" d="M81.8,46.6c-0.5,0.2-0.7,1.3-0.9,1.8c-0.8,2.9-1.3,5.8-1.4,8.8c-0.1,0.6,0,1.2,0.3,1.7c0.2,0.2,0.6,0.2,0.8,0
			c0.6-0.7,0.3-1.6,0.4-2.5c0-3.2,0.8-6.3,1.2-9.4C82.2,46.8,82,46.5,81.8,46.6z"/>
	</g>
	<path class="st0e" d="M128.4,3.6l-4.6,6.4h5.5l6.8-6.4L128.4,3.6z"/>
	<rect x="54.3" y="14.4" class="st0e" width="5.2" height="25.9"/>
	<path class="st0e" d="M85.2,40.8l-16-17.2v16.7h-5V14.2h2.3l16,16.7V14.4h5v26.4L85.2,40.8z"/>
	<path class="st0e" d="M104.2,40.8c-7.2,0.2-13.3-5.4-13.5-12.7c0,0,0,0,0,0c0-0.3,0-0.6,0-0.8c0-7.6,5.9-13.4,14.1-13.4
		c3.1,0,6.1,0.8,8.8,2.4l-2.4,4.3c-1.9-1.3-4.1-2-6.4-2c-4.6-0.2-8.5,3.4-8.7,8c0,0,0,0,0,0l0,0c0,0.3,0,0.5,0,0.8
		c0,5.2,3.3,8.8,8.4,8.8c1.7,0,3.4-0.3,5-1v-4.3h-7.3l2.7-4.6h9.8v11.9C111.4,39.9,107.9,40.8,104.2,40.8"/>
	<path class="st0e" d="M119,40.3V14.4h17.2l-2.7,4.5h-9.4v5.9h8.5v4.5h-8.5v6.4h9.7l2.6,4.5L119,40.3z"/>
	<path class="st0e" d="M153.2,40.3l-6.1-9.4h-3v9.4h-5.2V14.4h7.8c6.9,0,10.2,3.2,10.2,8.1c0.1,3.2-1.8,6.2-4.8,7.4l7,10.4H153.2z
		 M146.2,18.9h-2.1v7.7h1.5c4,0,6-1,6-3.8C151.6,20.2,150.3,18.9,146.2,18.9"/>
	<path class="st0e" d="M173.1,40.8c-7.4-0.1-13.3-6.2-13.2-13.6c0.1-7.4,6.2-13.3,13.6-13.2c7.4,0.1,13.3,6.2,13.2,13.6
		c-0.1,7.2-5.9,13.1-13.2,13.2H173.1z M173.1,18.6c-5.1,0-8.3,3.9-8.3,8.7c0,4.9,3.2,8.8,8.3,8.8s8.3-3.9,8.3-8.8
		C181.4,22.5,178.2,18.6,173.1,18.6"/>
	<path class="st0e" d="M197.2,31h-2.1v9.3H190V14.4h8c6.5,0,10.3,2.7,10.3,8.3C208.3,29.1,202.8,31,197.2,31 M197.1,19h-1.9v7.6h1.6
		c3.6,0,6.2-0.6,6.2-3.8C202.9,19.7,200.8,19,197.1,19"/>
</g>
</svg>
