<svg xmlns="http://www.w3.org/2000/svg" viewBox="0 0 278.49 121.21"><title>Logo OPQIBI</title><path d="M88.69 22.76h13.57c6.78 0 11.86.53 16.05 3.48 3.64 2.56 5.38 6.57 4.86 10.77-1.13 9.19-9.78 15.3-23.05 15.3-.82 0-1.64 0-2.45-.07l-2.09 17.01h-12.6l5.71-46.49zm11.55 8.54l-1.53 12.41h2.31c6.41 0 10.05-2.3 10.54-6.3.54-4.4-2.68-6.11-9.61-6.11h-1.71zm100.4-8.54h16.33c12.37 0 18.13 4.07 17.19 11.75-.59 4.8-3.9 8.08-9.87 9.92 6.32 1.31 9.6 5.58 8.9 11.3-1.09 8.87-9.12 13.53-23.95 13.53h-14.31l5.71-46.5zm13.4 18.39c4.99 0 8.15-2.04 8.57-5.45.44-3.55-2.06-5.06-7.58-5.06h-3.88l-1.29 10.51h4.18zm-1.38 19.7c5.07 0 8.41-2.3 8.88-6.11.45-3.68-2.12-5.84-7.41-5.84h-5.22l-1.47 11.95h5.22zm-18.94-29.67c-4.74.47-9.08 1.23-12.89 2.23l1.35-10.65h12.6l-1.06 8.42zm-4.65 38.08h-12.6l3.89-32.02c3.82-.99 8.17-1.74 12.9-2.19l-4.19 34.21zm62.38-38.08c-4.74.47-9.08 1.23-12.89 2.23l1.35-10.65h12.6l-1.06 8.42z"/><path d="M246.79 69.26h-12.6l3.88-32.02c3.82-.99 8.17-1.74 12.9-2.19l-4.18 34.21z" opacity=".75"/><path d="M31.16 97.23V84.27h2.53v10.71h5.88v2.26h-8.41zm7.47-8.83v-4.13h2.48v2.26l-2.48 1.87zm5.24 8.83V84.27h2.53v12.97h-2.53zm13.22 0l-5.14-7.96v7.96h-2.53V84.27h2.26l5.14 7.94v-7.94h2.53v12.97h-2.26zm13.28-1.36c-1.04 1.08-2.28 1.48-3.66 1.48-1.42 0-2.59-.51-3.5-1.42-1.31-1.31-1.27-2.93-1.27-5.17s-.04-3.86 1.27-5.17c.91-.91 2.04-1.42 3.5-1.42 3 0 4.53 1.97 4.88 4.15h-2.55c-.29-1.22-1.04-1.89-2.33-1.89-.69 0-1.26.27-1.62.69-.49.55-.62 1.15-.62 3.64 0 2.5.13 3.12.62 3.66.36.42.93.67 1.62.67.76 0 1.38-.27 1.8-.73.42-.47.58-1.06.58-1.73v-.49H66.7v-2.11h4.9v1.89c.01 1.87-.32 3-1.23 3.95zm3.81 1.36V84.27h8.54v2.26h-6.01v3.04h5.12v2.26h-5.12v3.15h6.01v2.26h-8.54zm4.7-14.22H77.3l1.17-3.1h2.5l-2.09 3.1zm13.98 14.22l-5.14-7.96v7.96H85.2V84.27h2.26l5.14 7.94v-7.94h2.53v12.97h-2.27zm5.28 0V84.27h2.53v12.97h-2.53zm5.56 0V84.27h8.54v2.26h-6.01v3.04h5.12v2.26h-5.12v3.15h6.01v2.26h-8.54zm17.9 0l-2.53-5.17h-1.82v5.17h-2.53V84.27h5.08c2.64 0 4.21 1.8 4.21 3.97 0 1.82-1.11 2.95-2.37 3.4l2.9 5.59h-2.94zm-1.97-10.7h-2.39v3.42h2.39c1.11 0 1.84-.71 1.84-1.71s-.72-1.71-1.84-1.71zm7 10.7V84.27h2.53v12.97h-2.53zm5.55 0V84.27h8.54v2.26h-6.01v3.04h5.12v2.26h-5.12v3.15h6.01v2.26h-8.54zm37.14.55l-1.15-1.15c-.73.47-1.6.71-2.62.71-1.47 0-2.6-.51-3.52-1.42-1.31-1.31-1.27-2.93-1.27-5.17s-.04-3.86 1.27-5.17c.91-.91 2.04-1.42 3.52-1.42 1.47 0 2.59.51 3.5 1.42 1.31 1.31 1.29 2.93 1.29 5.17 0 1.95.02 3.39-.8 4.59l1.11 1.11-1.33 1.33zm-2.15-10.67c-.37-.42-.93-.69-1.62-.69s-1.28.27-1.64.69c-.49.55-.62 1.15-.62 3.64 0 2.5.13 3.1.62 3.64.36.42.95.69 1.64.69.31 0 .6-.07.84-.24l-1.13-1.11 1.35-1.33.96.96c.2-.56.24-1.31.24-2.62-.01-2.48-.15-3.09-.64-3.63zm9.94 10.23c-2.66 0-4.77-1.8-4.77-4.55v-8.52h2.53v8.43c0 1.49.88 2.39 2.24 2.39s2.26-.89 2.26-2.39v-8.43h2.51v8.52c0 2.75-2.11 4.55-4.77 4.55zm14.61-.11l-.76-2.29h-4.61l-.78 2.29h-2.64l4.72-12.97h1.99l4.73 12.97h-2.65zm-3.03-9.14l-1.64 4.72h3.22l-1.58-4.72zm6.9 9.14V84.27h2.53v10.71H204v2.26h-8.41zm10.11 0V84.27h2.53v12.97h-2.53zm7.72-10.7v3.19h5.12v2.26h-5.12v5.26h-2.53V84.27h8.54v2.26h-6.01zm7.85 10.7V84.27h2.53v12.97h-2.53zm5.19 0V84.27H235v2.26h-6.01v3.04h5.12v2.26h-5.12v3.15H235v2.26h-8.54zm4.7-14.22h-1.58l1.16-3.1h2.5l-2.08 3.1zm5.96 14.22V84.27h8.54v2.26h-6.01v3.04h5.12v2.26h-5.12v3.15h6.01v2.26h-8.54z"/><g opacity=".75"><path d="M30.27 42.48a25.91 25.91 0 0 0-.69 3.53c-.85 6.9 1.17 12.94 5.8 17.67 4.5 4.6 10.98 7.09 18.06 7.09 8.35 0 16.68-3.48 22.57-9.52 4.18-4.27 6.68-9.46 7.39-15.24 0 0 1.57-18.1-21.29-13.9l2.54 1.19c4.1 2.31 6.49 6.95 5.78 12.71-.73 5.97-4.55 10.75-9.53 12.94l-.07.04c-2.88 1.26-6.03 1.95-9.48 1.95-11.65 0-21.1-8.08-21.1-18.06.01-.13.02-.27.02-.4"/></g><path d="M43.33 55.74s-20.05-13.42-3.59-27.47c5.55-4.53 12.64-7.03 19.8-7.03 5.94 0 11.41 1.72 15.72 4.93l1.93 1.51c-5.06-1.51-15.12.11-15.12.11C48.98 30.6 43.58 37.72 42.56 46c-.4 3.25-.58 7.42.77 9.74zm92.62 1.62s-20.05-13.42-3.59-27.47c5.55-4.53 12.64-7.03 19.8-7.03 5.94 0 11.41 1.72 15.72 4.93l1.93 1.51c-5.06-1.51-15.12.11-15.12.11-13.09 2.81-18.49 9.93-19.51 18.2-.4 3.25-.58 7.42.77 9.75z"/><path d="M154.74 33.72l2.54 1.19c4.1 2.31 6.49 6.95 5.78 12.71-.73 5.98-4.55 10.75-9.53 12.95l-.07.04c-2.88 1.26-6.03 1.95-9.48 1.95-11.65 0-21.1-8.09-21.1-18.06 0-.13 0-.27.01-.4a25.91 25.91 0 0 0-.69 3.53c-.85 6.9 1.17 12.94 5.8 17.67 1.16 1.18 2.45 2.22 3.84 3.12-4.75-.78-9.03.19-11.72 2.83-1.47 1.44-2.33 3.35-2.65 5.54 5.15-2.95 13.81-2.06 22.22 2.85 7.33 4.28 12.67 10.56 14.61 16.45 0 0 .82 2.2 1.26 4.01l.36 1.44c1.71-6.21-1.35-17.04-8.7-24.6-1.97-2.03-4.08-3.69-6.23-5.01 1.64.29 3.33.44 5.06.44 8.35 0 16.68-3.48 22.56-9.52 4.18-4.27 6.68-9.46 7.39-15.24.03.01 1.59-18.08-21.26-13.89z" opacity=".75"/></svg>